<?xml version="1.0" encoding="UTF-8" standalone="no"?>
<!-- Created with Inkscape (http://www.inkscape.org/) -->

<svg
   width="210mm"
   height="297mm"
   viewBox="0 0 210 297"
   version="1.1"
   id="svg5"
   inkscape:version="1.1.1 (3bf5ae0d25, 2021-09-20)"
   sodipodi:docname="GBA LED Board Shape.svg"
   xmlns:inkscape="http://www.inkscape.org/namespaces/inkscape"
   xmlns:sodipodi="http://sodipodi.sourceforge.net/DTD/sodipodi-0.dtd"
   xmlns:xlink="http://www.w3.org/1999/xlink"
   xmlns="http://www.w3.org/2000/svg"
   xmlns:svg="http://www.w3.org/2000/svg">
  <sodipodi:namedview
     id="namedview7"
     pagecolor="#ffffff"
     bordercolor="#666666"
     borderopacity="1.0"
     inkscape:pageshadow="2"
     inkscape:pageopacity="0.0"
     inkscape:pagecheckerboard="0"
     inkscape:document-units="mm"
     showgrid="false"
     inkscape:zoom="2"
     inkscape:cx="403"
     inkscape:cy="517.75"
     inkscape:window-width="1987"
     inkscape:window-height="1089"
     inkscape:window-x="1445"
     inkscape:window-y="0"
     inkscape:window-maximized="0"
     inkscape:current-layer="layer2" />
  <defs
     id="defs2">
    <inkscape:path-effect
       effect="fillet_chamfer"
       id="path-effect5319"
       is_visible="true"
       lpeversion="1"
       satellites_param="F,0,0,1,0,0,0,1 @ F,0,0,1,0,0,0,1 @ F,0,0,1,0,0,0,1 @ F,0,0,1,0,0,0,1 @ F,0,0,1,0,0,0,1 @ F,0,0,1,0,0,0,1 @ F,0,0,1,0,0,0,1 @ F,0,0,1,0,0,0,1 @ F,0,0,1,0,0,0,1 @ F,0,0,1,0,0,0,1 @ F,0,0,1,0,0,0,1 @ F,0,0,1,0,0,0,1 @ F,0,0,1,0,0,0,1 @ F,0,0,1,0,1.65625,0,1 @ F,0,0,1,0,2.5625,0,1 @ F,0,0,1,0,2.75,0,1 @ F,0,0,1,0,0,0,1 @ F,0,0,1,0,0,0,1 @ F,0,0,1,0,0,0,1 @ F,0,0,1,0,0,0,1 @ F,0,0,1,0,1.4142136,0,1 @ F,0,0,1,0,1.4584078,0,1 @ F,0,0,1,0,0,0,1 @ F,0,0,1,0,0,0,1 @ F,0,0,1,0,0,0,1 @ F,0,0,1,0,0,0,1 @ F,0,0,1,0,0,0,1 @ F,0,0,1,0,0,0,1 @ F,0,0,1,0,0,0,1 @ F,0,0,1,0,0,0,1 @ F,0,0,1,0,0,0,1 @ F,0,0,1,0,0,0,1 @ F,0,0,1,0,0,0,1 @ F,0,0,1,0,0,0,1 @ F,0,0,1,0,0,0,1 @ F,0,0,1,0,0,0,1 @ F,0,0,1,0,0,0,1 @ F,0,0,1,0,0,0,1 @ F,0,0,1,0,0,0,1 @ F,0,0,1,0,0,0,1 @ F,0,0,1,0,0,0,1 @ F,0,0,1,0,0,0,1 @ F,0,0,1,0,0,0,1 @ F,0,0,1,0,0,0,1 @ F,0,0,1,0,0,0,1 @ F,0,0,1,0,0,0,1 @ F,0,0,1,0,0,0,1 @ F,0,0,1,0,0,0,1 @ F,0,0,1,0,0,0,1 @ F,0,0,1,0,0,0,1 @ F,0,0,1,0,0,0,1 @ F,0,0,1,0,0,0,1 @ F,0,0,1,0,0,0,1 @ F,0,0,1,0,0,0,1 @ F,0,0,1,0,0,0,1 @ F,0,0,1,0,0,0,1 @ F,0,0,1,0,0,0,1 @ F,0,0,1,0,0,0,1 @ F,0,0,1,0,0,0,1 @ F,0,0,1,0,0,0,1 @ F,0,0,1,0,0,0,1 @ F,0,0,1,0,0,0,1 @ F,0,0,1,0,0,0,1 @ F,0,0,1,0,0,0,1 @ F,0,0,1,0,0,0,1 @ F,0,0,1,0,0,0,1 @ F,0,0,1,0,0,0,1 @ F,0,0,1,0,0,0,1 @ F,0,0,1,0,0,0,1 @ F,0,0,1,0,0,0,1 @ F,0,0,1,0,0,0,1 @ F,0,0,1,0,0,0,1 @ F,0,0,1,0,0,0,1 @ F,0,0,1,0,0,0,1 @ F,0,0,1,0,0,0,1 @ F,0,0,1,0,1.96875,0,1 @ F,0,0,1,0,2.15625,0,1 @ F,0,0,1,0,2.8284272,0,1 @ F,0,0,1,0,0,0,1 @ F,0,0,1,0,0,0,1 @ F,0,0,1,0,0,0,1 @ F,0,0,1,0,0,0,1 @ F,0,0,1,0,0,0,1 @ F,0,0,1,0,0,0,1 @ F,0,0,1,0,2.53125,0,1 @ F,0,0,1,0,2,0,1 @ F,0,0,1,0,1.1875,0,1 @ F,0,0,1,0,1.4584078,0,1 @ F,0,0,1,0,1.6793786,0,1 @ F,0,0,1,0,0,0,1 @ F,0,0,1,0,2.5,0,1 @ F,0,0,1,0,0,0,1 @ F,0,0,1,0,0,0,1 @ F,0,0,1,0,0,0,1 @ F,0,0,1,0,0,0,1 @ F,0,0,1,0,0,0,1 @ F,0,0,1,0,0,0,1 @ F,0,0,1,0,0,0,1 @ F,0,0,1,0,0,0,1 @ F,0,0,1,0,0,0,1 @ F,0,0,1,0,0,0,1 @ F,0,0,1,0,0,0,1 @ F,0,0,1,0,0,0,1 @ F,0,0,1,0,0,0,1 @ F,0,0,1,0,0,0,1 @ F,0,0,1,0,0,0,1 @ F,0,0,1,0,0,0,1 @ F,0,0,1,0,1.171875,0,1 @ F,0,0,1,0,0.95312501,0,1 @ F,0,0,1,0,0.64081553,0,1 @ F,0,0,1,0,0,0,1 @ F,0,0,1,0,0,0,1 @ F,0,0,1,0,0,0,1 @ F,0,0,1,0,0.59662135,0,1 @ F,0,0,1,0,0.92187501,0,1 @ F,0,0,1,0,1.875,0,1 @ F,0,0,1,0,1.625,0,1 @ F,0,0,1,0,0,0,1 @ F,0,0,1,0,0,0,1 @ F,0,0,1,0,0,0,1 @ F,0,0,1,0,0,0,1 @ F,0,0,1,0,0,0,1 @ F,0,0,1,0,0,0,1 @ F,0,0,1,0,0,0,1 @ F,0,0,1,0,0,0,1 @ F,0,0,1,0,0,0,1 @ F,0,0,1,0,0,0,1 @ F,0,0,1,0,0,0,1 @ F,0,0,1,0,0,0,1 @ F,0,0,1,0,0,0,1 @ F,0,0,1,0,0,0,1 @ F,0,0,1,0,0,0,1 @ F,0,0,1,0,0,0,1 @ F,0,0,1,0,0,0,1 @ F,0,0,1,0,0,0,1 @ F,0,0,1,0,0,0,1 @ F,0,0,1,0,0,0,1 @ F,0,0,1,0,0,0,1 @ F,0,0,1,0,0,0,1 @ F,0,0,1,0,0,0,1 @ F,0,0,1,0,0,0,1 @ F,0,0,1,0,0,0,1 @ F,0,0,1,0,0,0,1 @ F,0,0,1,0,0,0,1 @ F,0,0,1,0,0,0,1 @ F,0,0,1,0,0,0,1 @ F,0,0,1,0,0,0,1 @ F,0,0,1,0,0,0,1 @ F,0,0,1,0,0,0,1 @ F,0,0,1,0,0,0,1 @ F,0,0,1,0,0,0,1 @ F,0,0,1,0,0,0,1 @ F,0,0,1,0,0,0,1 @ F,0,0,1,0,0,0,1 @ F,0,0,1,0,0,0,1 @ F,0,0,1,0,0,0,1 @ F,0,0,1,0,0,0,1 @ F,0,0,1,0,0,0,1 @ F,0,0,1,0,0,0,1 @ F,0,0,1,0,0,0,1 @ F,0,0,1,0,0,0,1 @ F,0,0,1,0,0,0,1 @ F,0,0,1,0,0,0,1 @ F,0,0,1,0,0,0,1 | F,0,0,1,0,0,0,1 @ F,0,0,1,0,0,0,1 @ F,0,0,1,0,0,0,1 @ F,0,0,1,0,0,0,1 | F,0,0,1,0,0,0,1 @ F,0,0,1,0,0,0,1 @ F,0,0,1,0,0,0,1 @ F,0,0,1,0,0,0,1 | F,0,0,1,0,0,0,1 @ F,0,0,1,0,0,0,1 @ F,0,0,1,0,0,0,1 @ F,0,0,1,0,0,0,1 | F,0,0,1,0,0,0,1 @ F,0,0,1,0,0,0,1 @ F,0,0,1,0,0,0,1 @ F,0,0,1,0,0,0,1 | F,0,0,1,0,0,0,1 @ F,0,0,1,0,0,0,1 @ F,0,0,1,0,0,0,1 @ F,0,0,1,0,0,0,1 | F,0,0,1,0,0,0,1 @ F,0,0,1,0,0,0,1 @ F,0,0,1,0,0,0,1 @ F,0,0,1,0,0,0,1 | F,0,0,1,0,0,0,1 @ F,0,0,1,0,0,0,1 @ F,0,0,1,0,0,0,1 @ F,0,0,1,0,0,0,1 | F,0,0,1,0,0,0,1 @ F,0,0,1,0,0,0,1 @ F,0,0,1,0,0,0,1 @ F,0,0,1,0,0,0,1 | F,0,0,1,0,0,0,1 @ F,0,0,1,0,0,0,1 @ F,0,0,1,0,0,0,1 @ F,0,0,1,0,0,0,1 | F,0,0,1,0,0,0,1 @ F,0,0,1,0,0,0,1 @ F,0,0,1,0,0,0,1 @ F,0,0,1,0,0,0,1 | F,0,0,1,0,0,0,1 @ F,0,0,1,0,0,0,1 @ F,0,0,1,0,0,0,1 @ F,0,0,1,0,0,0,1 | F,0,0,1,0,0,0,1 @ F,0,0,1,0,0,0,1 @ F,0,0,1,0,0,0,1 @ F,0,0,1,0,0,0,1 | F,0,0,1,0,0,0,1 @ F,0,0,1,0,0,0,1 @ F,0,0,1,0,0,0,1 @ F,0,0,1,0,0,0,1 | F,0,0,1,0,0,0,1 @ F,0,0,1,0,0,0,1 @ F,0,0,1,0,0,0,1 @ F,0,0,1,0,0,0,1"
       unit="px"
       method="auto"
       mode="F"
       radius="0"
       chamfer_steps="1"
       flexible="false"
       use_knot_distance="true"
       apply_no_radius="true"
       apply_with_radius="true"
       only_selected="false"
       hide_knots="false" />
    <inkscape:path-effect
       effect="fillet_chamfer"
       id="path-effect3931"
       is_visible="true"
       lpeversion="1"
       satellites_param="F,0,0,1,0,0,0,1 @ F,0,0,1,0,0,0,1 @ F,0,0,1,0,0,0,1 @ F,0,0,1,0,0,0,1 | F,0,0,1,0,0,0,1 @ F,0,0,1,0,0,0,1 @ F,0,0,1,0,0,0,1 @ F,0,0,1,0,0,0,1 | F,0,0,1,0,0,0,1 @ F,0,0,1,0,0,0,1 @ F,0,0,1,0,0,0,1 @ F,0,0,1,0,0,0,1 | F,0,0,1,0,0,0,1 @ F,0,0,1,0,0,0,1 @ F,0,0,1,0,0,0,1 @ F,0,0,1,0,0,0,1 | F,0,0,1,0,0,0,1 @ F,0,0,1,0,0,0,1 @ F,0,0,1,0,0,0,1 @ F,0,0,1,0,0,0,1 @ F,0,0,1,0,0,0,1 @ F,0,0,1,0,0,0,1 @ F,0,0,1,0,0,0,1 @ F,0,0,1,0,0,0,1 @ F,0,0,1,0,0,0,1 @ F,0,0,1,0,0,0,1 @ F,0,0,1,0,0,0,1 @ F,0,0,1,0,0,0,1 @ F,0,0,1,0,0,0,1 @ F,0,0,1,0,0,0,1 @ F,0,0,1,0,0,0,1 @ F,0,0,1,0,0,0,1 @ F,0,0,1,0,0,0,1 @ F,0,0,1,0,0,0,1 @ F,0,0,1,0,0,0,1 @ F,0,0,1,0,0,0,1 @ F,0,0,1,0,0,0,1 @ F,0,0,1,0,0,0,1 @ F,0,0,1,0,0,0,1 @ F,0,0,1,0,0,0,1 @ F,0,0,1,0,0,0,1 @ F,0,0,1,0,0,0,1 @ F,0,0,1,0,0,0,1 @ F,0,0,1,0,0,0,1 @ F,0,0,1,0,0,0,1 @ F,0,0,1,0,0,0,1 @ F,0,0,1,0,0,0,1 @ F,0,0,1,0,0,0,1 @ F,0,0,1,0,0,0,1 @ F,0,0,1,0,0,0,1 @ F,0,0,1,0,0,0,1 @ F,0,0,1,0,0,0,1 @ F,0,0,1,0,0,0,1 @ F,0,0,1,0,0,0,1 @ F,0,0,1,0,0,0,1 @ F,0,0,1,0,0,0,1 @ F,0,0,1,0,0,0,1 @ F,0,0,1,0,0,0,1 @ F,0,0,1,0,0,0,1 @ F,0,0,1,0,0,0,1 @ F,0,0,1,0,0,0,1 @ F,0,0,1,0,0,0,1 @ F,0,0,1,0,0,0,1 @ F,0,0,1,0,0,0,1 @ F,0,0,1,0,0,0,1 @ F,0,0,1,0,0,0,1 @ F,0,0,1,0,0,0,1 @ F,0,0,1,0,0,0,1 @ F,0,0,1,0,0,0,1 @ F,0,0,1,0,0,0,1 @ F,0,0,1,0,0,0,1 @ F,0,0,1,0,0,0,1 @ F,0,0,1,0,0,0,1 @ F,0,0,1,0,0,0,1 @ F,0,0,1,0,0,0,1 @ F,0,0,1,0,0,0,1 @ F,0,0,1,0,0,0,1 @ F,0,0,1,0,0,0,1 @ F,0,0,1,0,0,0,1 @ F,0,0,1,0,0,0,1 @ F,0,0,1,0,0,0,1 @ F,0,0,1,0,0,0,1 @ F,0,0,1,0,0,0,1 @ F,0,0,1,0,0,0,1 @ F,0,0,1,0,0,0,1 @ F,0,0,1,0,0,0,1 @ F,0,0,1,0,0,0,1 @ F,0,0,1,0,0,0,1 @ F,0,0,1,0,0,0,1 @ F,0,0,1,0,0,0,1 @ F,0,0,1,0,0,0,1 @ F,0,0,1,0,0,0,1 @ F,0,0,1,0,0,0,1 @ F,0,0,1,0,0,0,1 @ F,0,0,1,0,0,0,1 @ F,0,0,1,0,0,0,1 @ F,0,0,1,0,0.32422174,0,1 @ F,0,0,1,0,0,0,1 @ F,0,0,1,0,0,0,1"
       unit="px"
       method="auto"
       mode="F"
       radius="0"
       chamfer_steps="1"
       flexible="false"
       use_knot_distance="true"
       apply_no_radius="true"
       apply_with_radius="true"
       only_selected="false"
       hide_knots="false" />
    <inkscape:path-effect
       effect="fillet_chamfer"
       id="path-effect3815"
       is_visible="true"
       lpeversion="1"
       satellites_param="F,0,0,1,0,0,0,1 @ F,0,0,1,0,0,0,1 @ F,0,0,1,0,0,0,1 @ F,0,0,1,0,0,0,1 | F,0,0,1,0,0,0,1 @ F,0,0,1,0,0,0,1 @ F,0,0,1,0,0,0,1 @ F,0,0,1,0,0,0,1 | F,0,0,1,0,0,0,1 @ F,0,0,1,0,0,0,1 @ F,0,0,1,0,0,0,1 @ F,0,0,1,0,0,0,1 | F,0,0,1,0,0,0,1 @ F,0,0,1,0,0,0,1 @ F,0,0,1,0,0,0,1 @ F,0,0,1,0,0,0,1 | F,0,0,1,0,0,0,1 @ F,0,0,1,0,0,0,1 @ F,0,0,1,0,0,0,1 @ F,0,0,1,0,0,0,1 @ F,0,0,1,0,0,0,1 @ F,0,0,1,0,0,0,1 @ F,0,0,1,0,0,0,1 @ F,0,0,1,0,0,0,1 @ F,0,0,1,0,0,0,1 @ F,0,0,1,0,0,0,1 @ F,0,0,1,0,0,0,1 @ F,0,0,1,0,0,0,1 @ F,0,0,1,0,0,0,1 @ F,0,0,1,0,0,0,1 @ F,0,0,1,0,0,0,1 @ F,0,0,1,0,0,0,1 @ F,0,0,1,0,0,0,1 @ F,0,0,1,0,0,0,1 @ F,0,0,1,0,0,0,1 @ F,0,0,1,0,0,0,1 @ F,0,0,1,0,0,0,1 @ F,0,0,1,0,0,0,1 @ F,0,0,1,0,0,0,1 @ F,0,0,1,0,0,0,1 @ F,0,0,1,0,0,0,1 @ F,0,0,1,0,0,0,1 @ F,0,0,1,0,0,0,1 @ F,0,0,1,0,0,0,1 @ F,0,0,1,0,0,0,1 @ F,0,0,1,0,0,0,1 @ F,0,0,1,0,0,0,1 @ F,0,0,1,0,0,0,1 @ F,0,0,1,0,0,0,1 @ F,0,0,1,0,0,0,1 @ F,0,0,1,0,0,0,1 @ F,0,0,1,0,0,0,1 @ F,0,0,1,0,0,0,1 @ F,0,0,1,0,0,0,1 @ F,0,0,1,0,0,0,1 @ F,0,0,1,0,0,0,1 @ F,0,0,1,0,0,0,1 @ F,0,0,1,0,0,0,1 @ F,0,0,1,0,0,0,1 @ F,0,0,1,0,0,0,1 @ F,0,0,1,0,0,0,1 @ F,0,0,1,0,0,0,1 @ F,0,0,1,0,0,0,1 @ F,0,0,1,0,0,0,1 @ F,0,0,1,0,0,0,1 @ F,0,0,1,0,0,0,1 @ F,0,0,1,0,0,0,1 @ F,0,0,1,0,0,0,1 @ F,0,0,1,0,0,0,1 @ F,0,0,1,0,0,0,1 @ F,0,0,1,0,0,0,1 @ F,0,0,1,0,0,0,1 @ F,0,0,1,0,0,0,1 @ F,0,0,1,0,0,0,1 @ F,0,0,1,0,0,0,1 @ F,0,0,1,0,0,0,1 @ F,0,0,1,0,0,0,1 @ F,0,0,1,0,0,0,1 @ F,0,0,1,0,0,0,1 @ F,0,0,1,0,0,0,1 @ F,0,0,1,0,0,0,1 @ F,0,0,1,0,0,0,1 @ F,0,0,1,0,0,0,1 @ F,0,0,1,0,0,0,1 @ F,0,0,1,0,0,0,1 @ F,0,0,1,0,0,0,1 @ F,0,0,1,0,0,0,1 @ F,0,0,1,0,0,0,1 @ F,0,0,1,0,0,0,1 @ F,0,0,1,0,0,0,1 @ F,0,0,1,0,0,0,1 @ F,0,0,1,0,1.2628485,0,1 @ F,0,0,1,0,0.16610869,0,1 @ F,0,0,1,0,0,0,1 @ F,0,0,1,0,0,0,1 @ F,0,0,1,0,0,0,1 @ F,0,0,1,0,0,0,1"
       unit="px"
       method="auto"
       mode="F"
       radius="0"
       chamfer_steps="1"
       flexible="false"
       use_knot_distance="true"
       apply_no_radius="true"
       apply_with_radius="true"
       only_selected="false"
       hide_knots="false" />
    <inkscape:path-effect
       effect="fillet_chamfer"
       id="path-effect2008"
       is_visible="true"
       lpeversion="1"
       satellites_param="F,0,0,1,0,0,0,1 @ F,0,0,1,0,0,0,1 @ F,0,0,1,0,0,0,1 @ F,0,0,1,0,0,0,1 | F,0,0,1,0,0,0,1 @ F,0,0,1,0,0,0,1 @ F,0,0,1,0,0,0,1 @ F,0,0,1,0,0,0,1 | F,0,0,1,0,0,0,1 @ F,0,0,1,0,0,0,1 @ F,0,0,1,0,0,0,1 @ F,0,0,1,0,0,0,1 | F,0,0,1,0,0,0,1 @ F,0,0,1,0,0,0,1 @ F,0,0,1,0,0,0,1 @ F,0,0,1,0,0,0,1 | F,0,0,1,0,0,0,1 @ F,0,0,1,0,0,0,1 @ F,0,0,1,0,0,0,1 @ F,0,0,1,0,0.29652848,0,1 @ F,0,0,1,0,0.4974969,0,1 @ F,0,0,1,0,0.25766842,0,1 @ F,0,0,1,0,0.49110776,0,1 @ F,0,0,1,0,0,0,1 @ F,0,0,1,0,0,0,1 @ F,0,0,1,0,0.24804687,0,1 @ F,0,0,1,0,0.28938802,0,1 @ F,0,0,1,0,0,0,1 @ F,0,0,1,0,0,0,1 @ F,0,0,1,0,0,0,1 @ F,0,0,1,0,0,0,1 @ F,0,0,1,0,0,0,1 @ F,0,0,1,0,0,0,1 @ F,0,0,1,0,0,0,1 @ F,0,0,1,0,0,0,1 @ F,0,0,1,0,0,0,1 @ F,0,0,1,0,0,0,1 @ F,0,0,1,0,0,0,1 @ F,0,0,1,0,0,0,1 @ F,0,0,1,0,0,0,1 @ F,0,0,1,0,0,0,1 @ F,0,0,1,0,0.15200954,0,1 @ F,0,0,1,0,0,0,1 @ F,0,0,1,0,0,0,1 @ F,0,0,1,0,0,0,1 @ F,0,0,1,0,0,0,1 @ F,0,0,1,0,0.28277027,0,1 @ F,0,0,1,0,0,0,1 @ F,0,0,1,0,0,0,1 @ F,0,0,1,0,0,0,1 @ F,0,0,1,0,0,0,1 @ F,0,0,1,0,0,0,1 @ F,0,0,1,0,0,0,1 @ F,0,0,1,0,0.090919506,0,1 @ F,0,0,1,0,0.50309162,0,1 @ F,0,0,1,0,0,0,1 @ F,0,0,1,0,0,0,1 @ F,0,0,1,0,0,0,1 @ F,0,0,1,0,0,0,1 @ F,0,0,1,0,0,0,1 @ F,0,0,1,0,0,0,1 @ F,0,0,1,0,0.17539563,0,1 @ F,0,0,1,0,0.19878171,0,1 @ F,0,0,1,0,0.19468044,0,1 @ F,0,0,1,0,0,0,1 @ F,0,0,1,0,0,0,1 @ F,0,0,1,0,0,0,1 @ F,0,0,1,0,0,0,1 @ F,0,0,1,0,0,0,1 @ F,0,0,1,0,0,0,1 @ F,0,0,1,0,0.25052173,0,1 @ F,0,0,1,0,0.35833225,0,1 @ F,0,0,1,0,0.98612426,0,1 @ F,0,0,1,0,0.3502272,0,1 @ F,0,0,1,0,0,0,1 @ F,0,0,1,0,0,0,1 @ F,0,0,1,0,0,0,1 @ F,0,0,1,0,0,0,1 @ F,0,0,1,0,0,0,1 @ F,0,0,1,0,0,0,1 @ F,0,0,1,0,0,0,1 @ F,0,0,1,0,0,0,1"
       unit="px"
       method="auto"
       mode="F"
       radius="0"
       chamfer_steps="1"
       flexible="false"
       use_knot_distance="true"
       apply_no_radius="true"
       apply_with_radius="true"
       only_selected="false"
       hide_knots="false" />
    <inkscape:path-effect
       effect="fillet_chamfer"
       id="path-effect25098"
       is_visible="true"
       lpeversion="1"
       satellites_param="F,0,0,1,0,0,0,1 @ F,0,0,1,0,0,0,1 @ F,0,0,1,0,0,0,1 @ F,0,0,1,0,0,0,1 | F,0,0,1,0,0,0,1 @ F,0,0,1,0,0,0,1 @ F,0,0,1,0,0,0,1 @ F,0,0,1,0,0,0,1 | F,0,0,1,0,0.35556237,0,1 @ F,0,0,1,0,0.321558,0,1 @ F,0,0,1,0,0,0,1 @ F,0,0,1,0,0,0,1 @ F,0,0,1,0,0,0,1 @ F,0,0,1,0,0,0,1 @ F,0,0,1,0,0.27285156,0,1 @ F,0,0,1,0,0,0,1 @ F,0,0,1,0,0,0,1 @ F,0,0,1,0,0.11162109,0,1 @ F,0,0,1,0,0,0,1 @ F,0,0,1,0,0,0,1 @ F,0,0,1,0,0,0,1 @ F,0,0,1,0,0,0,1 @ F,0,0,1,0,0,0,1 @ F,0,0,1,0,0,0,1 @ F,0,0,1,0,0,0,1 @ F,0,0,1,0,0,0,1 @ F,0,0,1,0,0,0,1 @ F,0,0,1,0,0,0,1 @ F,0,0,1,0,0,0,1 @ F,0,0,1,0,0,0,1 @ F,0,0,1,0,0,0,1 @ F,0,0,1,0,0.42167969,0,1 @ F,0,0,1,0,0.44648437,0,1 @ F,0,0,1,0,0,0,1 @ F,0,0,1,0,0.43303402,0,1 @ F,0,0,1,0,0.40238879,0,1 @ F,0,0,1,0,0.073342253,0,1 @ F,0,0,1,0,0,0,1 @ F,0,0,1,0,0,0,1 @ F,0,0,1,0,0.13642578,0,1 @ F,0,0,1,0,0.37207031,0,1 @ F,0,0,1,0,0.23977865,0,1 @ F,0,0,1,0,0,0,1 @ F,0,0,1,0,0,0,1 @ F,0,0,1,0,0,0,1 @ F,0,0,1,0,0.32771313,0,1 @ F,0,0,1,0,0.43522236,0,1 @ F,0,0,1,0,0.17009219,0,1 @ F,0,0,1,0,0,0,1 @ F,0,0,1,0,0,0,1 @ F,0,0,1,0,0,0,1 @ F,0,0,1,0,0,0,1 @ F,0,0,1,0,0,0,1 @ F,0,0,1,0,1.2609049,0,1 @ F,0,0,1,0,0.19645385,0,1 @ F,0,0,1,0,0,0,1 @ F,0,0,1,0,0,0,1"
       unit="px"
       method="auto"
       mode="F"
       radius="0"
       chamfer_steps="1"
       flexible="false"
       use_knot_distance="true"
       apply_no_radius="true"
       apply_with_radius="true"
       only_selected="false"
       hide_knots="false" />
    <inkscape:path-effect
       effect="fillet_chamfer"
       id="path-effect18333"
       is_visible="true"
       lpeversion="1"
       satellites_param="F,0,0,1,0,0,0,1 @ F,0,0,1,0,0,0,1 @ F,0,0,1,0,0,0,1 @ F,0,0,1,0,0,0,1 | F,0,0,1,0,0,0,1 @ F,0,0,1,0,0,0,1 @ F,0,0,1,0,0,0,1 @ F,0,0,1,0,0,0,1 | F,0,0,1,0,0,0,1 @ F,0,0,1,0,0,0,1 @ F,0,0,1,0,0,0,1 @ F,0,0,1,0,0,0,1 | F,0,0,1,0,0,0,1 @ F,0,0,1,0,0,0,1 @ F,0,0,1,0,0,0,1 @ F,0,0,1,0,0,0,1 | F,0,0,1,0,0,0,1 @ F,0,0,1,0,0,0,1 @ F,0,0,1,0,0,0,1 @ F,0,0,1,0,0,0,1 | F,0,0,1,0,0,0,1 @ F,0,0,1,0,0,0,1 @ F,0,0,1,0,0,0,1 @ F,0,0,1,0,0,0,1 | F,0,0,1,0,0,0,1 @ F,0,0,1,0,0,0,1 @ F,0,0,1,0,0,0,1 @ F,0,0,1,0,0,0,1 | F,0,0,1,0,0,0,1 @ F,0,0,1,0,0,0,1 @ F,0,0,1,0,0,0,1 @ F,0,0,1,0,0,0,1 | F,0,0,1,0,0,0,1 @ F,0,0,1,0,0,0,1 @ F,0,0,1,0,0,0,1 @ F,0,0,1,0,0,0,1 | F,0,0,1,0,0.14055026,0,1 @ F,0,0,1,0,0,0,1 @ F,0,0,1,0,0.19968369,0,1 @ F,0,0,1,0,1.3311298,0,1 @ F,0,0,1,0,0.51478976,0,1 @ F,0,0,1,0,0.15114367,0,1 @ F,0,0,1,0,0.15114367,0,1 @ F,0,0,1,0,0,0,1 @ F,0,0,1,0,0,0,1 @ F,0,0,1,0,0.14627579,0,1 @ F,0,0,1,0,0.80557763,0,1 @ F,0,0,1,0,0,0,1 @ F,0,0,1,0,0.59634513,0,1 @ F,0,0,1,0,0.280633,0,1 @ F,0,0,1,0,0.30949015,0,1 @ F,0,0,1,0,0.35079125,0,1 @ F,0,0,1,0,0.21674991,0,1 @ F,0,0,1,0,0,0,1 @ F,0,0,1,0,0,0,1 @ F,0,0,1,0,0.57757534,0,1 @ F,0,0,1,0,0.48271984,0,1 @ F,0,0,1,0,0,0,1 @ F,0,0,1,0,0,0,1 @ F,0,0,1,0,0,0,1 @ F,0,0,1,0,0,0,1 @ F,0,0,1,0,0,0,1 @ F,0,0,1,0,0,0,1 @ F,0,0,1,0,0,0,1 @ F,0,0,1,0,0,0,1 @ F,0,0,1,0,0,0,1 @ F,0,0,1,0,0,0,1 @ F,0,0,1,0,0,0,1 @ F,0,0,1,0,0,0,1 @ F,0,0,1,0,0,0,1 @ F,0,0,1,0,0.40935722,0,1 @ F,0,0,1,0,0.57987897,0,1 @ F,0,0,1,0,0,0,1 @ F,0,0,1,0,0.40925646,0,1 @ F,0,0,1,0,0.012402344,0,1 @ F,0,0,1,0,0,0,1 @ F,0,0,1,0,0.39756342,0,1 @ F,0,0,1,0,0.42216202,0,1 @ F,0,0,1,0,0.73587638,0,1"
       unit="px"
       method="auto"
       mode="F"
       radius="0"
       chamfer_steps="1"
       flexible="false"
       use_knot_distance="true"
       apply_no_radius="true"
       apply_with_radius="true"
       only_selected="false"
       hide_knots="false" />
    <inkscape:path-effect
       effect="fillet_chamfer"
       id="path-effect17653"
       is_visible="true"
       lpeversion="1"
       satellites_param="F,0,0,1,0,0,0,1 @ F,0,0,1,0,0,0,1 @ F,0,0,1,0,0,0,1 @ F,0,0,1,0,0,0,1 @ F,0,0,1,0,0,0,1 @ F,0,0,1,0,5.0270833,0,1 @ F,0,0,1,0,0,0,1 @ F,0,0,1,0,0,0,1 @ F,0,0,1,0,0,0,1 @ F,0,0,1,0,0,0,1 @ F,0,0,1,0,0,0,1 @ F,0,0,1,0,0,0,1 @ F,0,0,1,0,0,0,1"
       unit="px"
       method="auto"
       mode="F"
       radius="0"
       chamfer_steps="1"
       flexible="false"
       use_knot_distance="true"
       apply_no_radius="true"
       apply_with_radius="true"
       only_selected="false"
       hide_knots="false" />
    <inkscape:path-effect
       effect="fillet_chamfer"
       id="path-effect11060"
       is_visible="true"
       lpeversion="1"
       satellites_param="F,0,0,1,0,4.8947917,0,1 @ F,0,0,1,0,1.110839,0,1 @ F,0,0,1,0,0.96738281,0,1 @ F,0,0,1,0,0,0,1"
       unit="px"
       method="auto"
       mode="F"
       radius="0"
       chamfer_steps="1"
       flexible="false"
       use_knot_distance="true"
       apply_no_radius="true"
       apply_with_radius="true"
       only_selected="false"
       hide_knots="false" />
  </defs>
  <g
     inkscape:label="Scan"
     inkscape:groupmode="layer"
     id="layer1"
     style="display:inline"
     sodipodi:insensitive="true">
    <image
       width="135.93234"
       height="74.379662"
       preserveAspectRatio="none"
       xlink:href="gba-front.jpg"
       id="image17"
       x="39.198784"
       y="99.573059" />
  </g>
  <g
     inkscape:groupmode="layer"
     id="layer2"
     inkscape:label="PCB">
    <path
       id="path10956-2"
       style="fill:#000000;fill-opacity:1;stroke:#000000;stroke-width:0.00377953;stroke-miterlimit:4;stroke-dasharray:none"
       d="m 587.71289,417.7207 c -0.74215,-7e-5 -1.34375,0.60161 -1.34375,1.34375 v 0.002 42.15039 c 0,0.6712 -0.5467,1.22747 -1.20898,1.33398 -2.33492,0.37531 -4.72028,1.62428 -6.70313,4.2207 -0.37568,0.49187 -1.09779,1.13157 -1.65625,1.39844 l -25.54101,12.20703 c -0.94012,0.44928 -1.34464,1.57037 -0.90625,2.51563 l 2.79882,6.03711 c 0.2264,0.4879 0.19873,1.26476 -0.0488,1.74219 -0.78033,1.50439 -1.4159,2.96193 -1.92383,4.37695 -0.34621,0.96472 -1.40457,1.76367 -2.42969,1.76367 h -8.46877 A 1.65625,1.65625 45 0 1 538.625,495.15629 V 482.1875 a 2.5625,2.5625 45 0 0 -2.5625,-2.5625 h -27.18945 a 2.75,2.75 135 0 0 -2.75,2.75 v 19.12891 c -0.003,0.51559 -0.41936,0.93359 -0.93555,0.93359 h -3.125 c -0.0615,0 -0.12097,0.008 -0.17969,0.0176 H 344.73648 c -0.78105,0 -1.41289,-0.63316 -1.41259,-1.41421 9.8e-4,-2.58594 -0.008,-5.16064 -0.0108,-7.74264 -8.9e-4,-0.80545 -0.65381,-1.45839 -1.45927,-1.45839 h -85.41659 c -0.82986,0 -1.5637,-0.67088 -1.66797,-1.49414 -2.31352,-18.26574 -14.74766,-34.84783 -32.46289,-41.83398 -0.81973,-0.32315 -1.49414,-1.27505 -1.49414,-2.15625 V 420.9707 c 10e-6,-1.53604 -1.24521,-2.78126 -2.78125,-2.78125 h -5.3125 c -0.3534,-2.7e-4 -0.70621,0.0291 -1.05469,0.0879 v -0.002 l -10.53906,1.78711 1.75781,9.38281 c 0.0805,0.4289 0.4562,0.73885 0.89258,0.73633 l 1.30469,-0.008 c 2.76882,-0.019 5.01883,2.22922 5.00195,4.99805 l -0.0469,8.29101 c -0.006,1.07452 -0.87684,1.8337 -1.94727,1.74023 -1.22144,-0.10653 -2.4575,-0.17124 -3.70898,-0.1875 -0.31544,-0.004 -0.82515,-0.004 -1.14063,-0.002 -2.31257,0.0227 -4.67264,0.19794 -7.07031,0.53711 -0.31238,0.0442 -0.67842,0.31359 -0.80274,0.60352 -0.44441,1.03642 -0.68436,1.8311 -2.41406,2.13086 l -4.9707,0.86132 c -0.96362,0.16706 -1.99851,-0.10511 -2.69141,-0.62109 -0.24431,-0.18179 -0.64309,-0.30977 -0.9375,-0.22851 l -12.37304,3.40234 c -1.62138,0.44579 -1.72228,1.60292 -0.94727,3.08008 1.82732,3.48291 -0.76981,7.36132 -4.02148,7.36132 h -3.07227 c -1.2448,0 -2.25391,1.00911 -2.25391,2.25391 v 8.02149 c 0,0.58578 -0.21224,1.48518 -0.46484,2.01367 -8.34167,17.45397 -5.39526,32.27005 -0.0781,43.21093 0.28237,0.58103 0.52149,1.57077 0.52149,2.2168 v 3.00586 c 0,0.73225 0.33904,1.81341 0.77148,2.4043 5.80805,7.93538 13.56722,14.26656 24.02735,18.37695 0.42112,0.16554 0.97485,0.59363 1.23633,0.96289 l 7.57031,10.68946 c 3.87073,5.46586 8.25551,3.44723 12.94922,0.13281 l 6.32812,-4.46875 c 0.99542,-0.70264 2.36831,-0.49209 3.10742,0.47656 l 5.78907,7.58789 c 0.61124,0.80107 0.65964,2.13635 0.20507,3.03516 -1.26698,2.50526 -1.9785,5.33804 -1.96875,8.33789 l 0.0312,9.58789 c 0.002,0.57275 0.002,1.31823 1.17188,1.64062 4.55529,1.25564 5.66212,7.84397 0,9.5 -0.64662,0.18898 -1.1686,0.44011 -1.1875,1.34375 l -0.0156,2.95703 v 5.5293 c 1e-5,10.49341 8.5066,19 19,19 h 15.17383 c 2.01931,0 3.65627,-1.63696 3.65625,-3.65625 v -76.53125 a 1.96875,1.96875 45 0 0 -1.96875,-1.96875 h -7.125 a 2.15625,2.15625 135 0 0 -2.15625,2.15625 v 9.11298 a 2.8284272,2.8284272 135 0 1 -2.82843,2.82843 h -5.25165 c -1.1923,0 -2.35827,0.11269 -3.48828,0.32812 -0.8391,0.15988 -1.92512,-0.19769 -2.44336,-0.87695 l -5.75976,-7.55078 c -0.72556,-0.95163 -0.51643,-2.31537 0.46094,-3.00586 l 2.42773,-1.71485 c 9.68331,-6.87508 16.08648,-15.00138 19.78543,-23.54661 0.55528,-1.28279 2.07832,-2.34792 3.47629,-2.34792 h 9.05859 a 2,2 135 0 0 2,-2 v -8.70703 a 1.1875,1.1875 135 0 1 1.1875,-1.1875 l 66.16269,0 a 1.4584078,1.4584078 45 0 1 1.45841,1.45841 v 6.77823 a 1.6793786,1.6793786 45 0 0 1.67938,1.67938 h 7.13898 155.14648 a 2.5,2.5 45 0 1 2.5,2.5 v 8.18554 c 0,0.23282 0.18903,0.42188 0.42187,0.42188 h 0.71876 v -0.0156 c 0,-1.52743 1.2382,-2.76563 2.76562,-2.76563 1.52742,0 2.76563,1.2382 2.76562,2.76563 v 0.002 0.002 0.002 0.002 0.002 0.002 0.002 0.002 h 0.41016 c 0.31748,0 0.57422,-0.25708 0.57422,-0.57422 v -8.19153 a 1.171875,1.171875 135 0 1 1.17188,-1.17187 h 5.12044 a 0.95312501,0.95312501 45 0 1 0.95313,0.95313 v 8.36113 a 0.64081553,0.64081553 45 0 0 0.64082,0.64082 h 0.53691 c 0.0245,-1.50045 1.2474,-2.70422 2.74805,-2.70508 1.50141,-2e-4 2.72548,1.20387 2.75,2.70508 h 0.58276 a 0.59662135,0.59662135 135 0 0 0.59662,-0.59662 v -8.43658 a 0.92187501,0.92187501 135 0 1 0.92188,-0.92188 H 536.75 a 1.875,1.875 135 0 0 1.875,-1.875 v -2.875 A 1.625,1.625 135 0 1 540.25,506 h 7.65625 c 0.93196,0 1.73926,0.7553 1.87109,1.67773 0.54633,3.82247 1.92157,7.37184 3.64258,10.8086 0.26419,0.52766 0.30414,1.39418 0.0781,1.93945 l -2.7461,6.625 c -0.34885,0.84174 0.0337,1.80767 0.86719,2.17969 l 21.42969,9.58594 c 0.77491,0.34658 1.68539,0.02 2.06055,-0.74219 l 3.39257,-6.88672 c 0.076,-0.15383 0.22929,-0.25744 0.40039,-0.26953 l 0.69336,-0.0488 c 0.21581,-0.0151 0.42606,0.0715 0.56836,0.23438 l 4.96094,5.68359 c 0.69487,0.79597 1.89835,0.89063 2.70898,0.21289 l 19.67579,-16.45117 c 0.25549,-0.21355 0.57898,-0.33008 0.91211,-0.33008 H 637 c 0.77666,0 1.40625,-0.62959 1.40625,-1.40625 V 511.25 c 0,-0.56927 0.27378,-1.1032 0.73437,-1.4375 l 3.50977,-2.54883 c 0.33713,-0.24453 0.53711,-0.63435 0.53711,-1.05078 v -3.96094 c 0,-0.41491 0.18313,-1.03446 0.40234,-1.38672 2.87838,-4.62315 7.58825,-13.90207 -0.008,-26.15039 -0.21392,-0.34507 -0.39453,-0.95104 -0.39453,-1.35742 v -11.80664 c 0,-0.75458 -0.44063,-1.43836 -1.12695,-1.75195 l -14.06446,-6.42774 c -0.83463,-0.38139 -1.82204,-0.0345 -2.23242,0.78711 l -3.28906,6.58008 c -0.1818,0.36321 -0.5186,0.62335 -0.91602,0.70703 l -2.00781,0.42188 c -0.58129,0.12245 -1.18444,-0.0446 -1.62109,-0.44727 l -5.5586,-5.12695 c -0.55816,-0.51572 -1.42264,-0.50498 -1.96875,0.0234 l -8.53906,8.27539 c -1.39253,1.34967 -3.66649,1.10773 -4.74219,-0.50586 l -1.5957,-2.39258 c -0.47875,-0.71819 -0.73242,-1.5607 -0.73242,-2.42383 v -24.16797 c 0,-2.63603 2.13545,-4.77343 4.77148,-4.77344 h 1.91407 c 0.35981,0 0.66417,-0.26475 0.71289,-0.62109 l 1.32421,-9.6875 -10.41992,-2.06055 c -0.79956,-0.15826 -1.61266,-0.23807 -2.42773,-0.23828 z M 204,455.56641 c 5.69285,0 10.30861,4.61575 10.30859,10.30859 0,5.69284 -4.61575,10.30859 -10.30859,10.30859 -5.69284,0 -10.30859,-4.61575 -10.30859,-10.30859 -2e-5,-5.69284 4.61574,-10.30859 10.30859,-10.30859 z m 382.8125,9.86718 c 4.04111,0 7.31641,3.2753 7.31641,7.31641 0,4.04111 -3.2753,7.31641 -7.31641,7.31641 -4.04111,0 -7.31641,-3.2753 -7.31641,-7.31641 0,-4.04111 3.2753,-7.31641 7.31641,-7.31641 z m 38.49023,10.39649 c 6.74151,0 12.20704,5.46552 12.20704,12.20703 0,6.7415 -5.46553,12.20508 -12.20704,12.20508 -6.7415,0 -12.20507,-5.46358 -12.20507,-12.20508 0,-6.74151 5.46357,-12.20703 12.20507,-12.20703 z m -451.21679,9.75976 c 5.69284,0 10.30663,4.61576 10.30664,10.3086 -1e-5,5.69284 -4.6138,10.30664 -10.30664,10.30664 -5.69284,0 -10.30859,-4.6138 -10.3086,-10.30664 1e-5,-5.69284 4.61576,-10.3086 10.3086,-10.3086 z m 59.78906,0 c 5.69284,0 10.30859,4.61576 10.30859,10.3086 0,5.69284 -4.61575,10.30664 -10.30859,10.30664 -5.69284,0 -10.30859,-4.6138 -10.30859,-10.30664 0,-5.69284 4.61575,-10.3086 10.30859,-10.3086 z m 341.81445,6.89258 c 6.74151,0 12.20703,5.46553 12.20703,12.20703 0,6.74151 -5.46552,12.20703 -12.20703,12.20703 -6.7415,0 -12.20703,-5.46552 -12.20703,-12.20703 0,-6.7415 5.46553,-12.20703 12.20703,-12.20703 z M 260.375,506.05859 c 1.00309,2.2e-4 1.81619,0.81332 1.81641,1.81641 -2.2e-4,1.00309 -0.81332,1.81619 -1.81641,1.81641 -1.00309,-2.2e-4 -1.81619,-0.81332 -1.81641,-1.81641 2.2e-4,-1.00309 0.81332,-1.81619 1.81641,-1.81641 z m 345.75,2.06641 c 2.79594,0 5.0625,2.26656 5.0625,5.0625 0,2.79594 -2.26656,5.0625 -5.0625,5.0625 -2.79594,0 -5.0625,-2.26656 -5.0625,-5.0625 0,-2.79594 2.26656,-5.0625 5.0625,-5.0625 z M 204,515.44141 c 5.69284,0 10.30859,4.61575 10.30859,10.30859 0,5.69284 -4.61575,10.30859 -10.30859,10.30859 -5.69284,0 -10.30859,-4.61575 -10.30859,-10.30859 0,-5.69284 4.61575,-10.30859 10.30859,-10.30859 z m 50.6875,25.90039 c 1.12297,-1.5e-4 2.03335,0.91023 2.0332,2.0332 1.5e-4,1.12297 -0.91023,2.03335 -2.0332,2.0332 -1.12297,1.5e-4 -2.03335,-0.91023 -2.0332,-2.0332 -1.5e-4,-1.12297 0.91023,-2.03335 2.0332,-2.0332 z m -53.95703,4.54492 c 2.68486,0 4.86134,2.17646 4.86133,4.86133 -1e-5,2.68486 -2.17648,4.86133 -4.86133,4.86133 -2.68485,0 -4.86132,-2.17647 -4.86133,-4.86133 -10e-6,-2.68487 2.17647,-4.86133 4.86133,-4.86133 z m 39.86328,16.80078 c 4.64022,0 8.40038,3.76214 8.40039,8.40234 1e-5,4.64024 -3.76016,8.40235 -8.40039,8.40235 -4.64023,0 -8.40235,-3.76211 -8.40234,-8.40235 1e-5,-4.6402 3.76212,-8.40234 8.40234,-8.40234 z m 0,30.2168 c 4.64023,0 8.4004,3.7621 8.40039,8.40234 -10e-6,4.6402 -3.76017,8.40039 -8.40039,8.40039 -4.64022,0 -8.40233,-3.76019 -8.40234,-8.40039 -1e-5,-4.64024 3.76211,-8.40234 8.40234,-8.40234 z m 0.79492,18.47851 c 1.41564,0 2.56249,1.14688 2.5625,2.5625 1e-5,1.41566 -1.14684,2.5625 -2.5625,2.5625 -1.41565,0 -2.56251,-1.14684 -2.5625,-2.5625 2e-5,-1.41566 1.14686,-2.5625 2.5625,-2.5625 z"
       transform="scale(0.26458333)"
       sodipodi:nodetypes="cscscscccccssccccsscccsscsssccccccccccccsscccccssssscssscsccccccsscccccsssccccsscccccccccccsscsssccccccccssccccccccccsssccccccccccccssssccsscsssccccccccccccsssscccccsssssssssssssssssssssssssssssscccccsssssssssscccccssssssssssssssssssss" />
  </g>
</svg>
