  0
SECTION
  2
HEADER
  9
$ACADVER
  1
AC1014
  9
$HANDSEED
  5
FFFF
  9
$MEASUREMENT
 70
     1
  0
ENDSEC
  0
SECTION
  2
TABLES
  0
TABLE
  2
VPORT
  5
8
330
0
100
AcDbSymbolTable
 70
     4
  0
VPORT
  5
2E
330
8
100
AcDbSymbolTableRecord
100
AcDbViewportTableRecord
  2
*ACTIVE
 70
     0
 10
0.0
 20
0.0
 11
1.0
 21
1.0
 12
210.0
 22
148.5
 13
0.0
 23
0.0
 14
10.0
 24
10.0
 15
10.0
 25
10.0
 16
0.0
 26
0.0
 36
1.0
 17
0.0
 27
0.0
 37
0.0
 40
341.0
 41
1.24
 42
50.0
 43
0.0
 44
0.0
 50
0.0
 51
0.0
 71
     0
 72
   100
 73
     1
 74
     3
 75
     0
 76
     0
 77
     0
 78
     0
  0
ENDTAB
  0
TABLE
  2
LTYPE
  5
5
330
0
100
AcDbSymbolTable
 70
     1
  0
LTYPE
  5
14
330
5
100
AcDbSymbolTableRecord
100
AcDbLinetypeTableRecord
  2
BYBLOCK
 70
     0
  3

 72
    65
 73
     0
 40
0.0
  0
LTYPE
  5
15
330
5
100
AcDbSymbolTableRecord
100
AcDbLinetypeTableRecord
  2
BYLAYER
 70
     0
  3

 72
    65
 73
     0
 40
0.0
  0
LTYPE
  5
16
330
5
100
AcDbSymbolTableRecord
100
AcDbLinetypeTableRecord
  2
CONTINUOUS
 70
     0
  3
Solid line
 72
    65
 73
     0
 40
0.0
  0
ENDTAB
  0
TABLE
  2
LAYER
  5
2
100
AcDbSymbolTable
 70
3
  0
LAYER
  5
50
100
AcDbSymbolTableRecord
100
AcDbLayerTableRecord
  2
0
 70
0
  6
CONTINUOUS
  0
LAYER
  5
51
100
AcDbSymbolTableRecord
100
AcDbLayerTableRecord
  2
Scan
 70
0
  6
CONTINUOUS
  0
LAYER
  5
52
100
AcDbSymbolTableRecord
100
AcDbLayerTableRecord
  2
PCB
 70
0
  6
CONTINUOUS
  0
ENDTAB
  0
TABLE
  2
STYLE
  5
3
330
0
100
AcDbSymbolTable
 70
     1
  0
STYLE
  5
11
330
3
100
AcDbSymbolTableRecord
100
AcDbTextStyleTableRecord
  2
STANDARD
 70
     0
 40
0.0
 41
1.0
 50
0.0
 71
     0
 42
2.5
  3
txt
  4

  0
ENDTAB
  0
TABLE
  2
VIEW
  5
6
330
0
100
AcDbSymbolTable
 70
     0
  0
ENDTAB
  0
TABLE
  2
UCS
  5
7
330
0
100
AcDbSymbolTable
 70
     0
  0
ENDTAB
  0
TABLE
  2
APPID
  5
9
330
0
100
AcDbSymbolTable
 70
     2
  0
APPID
  5
12
330
9
100
AcDbSymbolTableRecord
100
AcDbRegAppTableRecord
  2
ACAD
 70
     0
  0
ENDTAB
  0
TABLE
  2
DIMSTYLE
  5
A
330
0
100
AcDbSymbolTable
 70
     1
  0
DIMSTYLE
105
27
330
A
100
AcDbSymbolTableRecord
100
AcDbDimStyleTableRecord
  2
ISO-25
 70
     0
  3

  4

  5

  6

  7

 40
1.0
 41
2.5
 42
0.625
 43
3.75
 44
1.25
 45
0.0
 46
0.0
 47
0.0
 48
0.0
140
2.5
141
2.5
142
0.0
143
0.03937007874016
144
1.0
145
0.0
146
1.0
147
0.625
 71
     0
 72
     0
 73
     0
 74
     0
 75
     0
 76
     0
 77
     1
 78
     8
170
     0
171
     3
172
     1
173
     0
174
     0
175
     0
176
     0
177
     0
178
     0
270
     2
271
     2
272
     2
273
     2
274
     3
340
11
275
     0
280
     0
281
     0
282
     0
283
     0
284
     8
285
     0
286
     0
287
     3
288
     0
  0
ENDTAB
  0
TABLE
  2
BLOCK_RECORD
  5
1
330
0
100
AcDbSymbolTable
 70
     1
  0
BLOCK_RECORD
  5
1F
330
1
100
AcDbSymbolTableRecord
100
AcDbBlockTableRecord
  2
*MODEL_SPACE
  0
BLOCK_RECORD
  5
1B
330
1
100
AcDbSymbolTableRecord
100
AcDbBlockTableRecord
  2
*PAPER_SPACE
  0
ENDTAB
  0
ENDSEC
  0
SECTION
  2
BLOCKS
  0
BLOCK
  5
20
330
1F
100
AcDbEntity
  8
0
100
AcDbBlockBegin
  2
*MODEL_SPACE
 70
     0
 10
0.0
 20
0.0
 30
0.0
  3
*MODEL_SPACE
  1

  0
ENDBLK
  5
21
330
1F
100
AcDbEntity
  8
0
100
AcDbBlockEnd
  0
BLOCK
  5
1C
330
1B
100
AcDbEntity
 67
     1
  8
0
100
AcDbBlockBegin
  2
*PAPER_SPACE
  1

  0
ENDBLK
  5
1D
330
1B
100
AcDbEntity
 67
     1
  8
0
100
AcDbBlockEnd
  0
ENDSEC
  0
SECTION
  2
ENTITIES
  0
SPLINE
  5
100
100
AcDbEntity
  8
PCB
 62
7
100
AcDbSpline
 70
8
 71
3
 72
8
 73
4
 74
0
 40
0
 40
0
 40
0
 40
0
 40
1
 40
1
 40
1
 40
1
 10
155.499034
 20
186.478066
 30
0.0
 10
155.302673
 20
186.478085
 30
0.0
 10
155.143500
 20
186.318890
 30
0.0
 10
155.143500
 20
186.122532
 30
0.0
  0
SPLINE
  5
101
100
AcDbEntity
  8
PCB
 62
7
100
AcDbSpline
 70
8
 71
3
 72
8
 73
4
 74
0
 40
0
 40
0
 40
0
 40
0
 40
1
 40
1
 40
1
 40
1
 10
155.143500
 20
174.969713
 30
0.0
 10
155.143500
 20
174.792124
 30
0.0
 10
154.998852
 20
174.644945
 30
0.0
 10
154.823624
 20
174.616764
 30
0.0
  0
SPLINE
  5
102
100
AcDbEntity
  8
PCB
 62
7
100
AcDbSpline
 70
8
 71
3
 72
8
 73
4
 74
0
 40
0
 40
0
 40
0
 40
0
 40
1
 40
1
 40
1
 40
1
 10
154.823624
 20
174.616764
 30
0.0
 10
154.205843
 20
174.517463
 30
0.0
 10
153.574716
 20
174.187006
 30
0.0
 10
153.050087
 20
173.500037
 30
0.0
  0
SPLINE
  5
103
100
AcDbEntity
  8
PCB
 62
7
100
AcDbSpline
 70
8
 71
3
 72
8
 73
4
 74
0
 40
0
 40
0
 40
0
 40
0
 40
1
 40
1
 40
1
 40
1
 10
153.050087
 20
173.500037
 30
0.0
 10
152.950689
 20
173.369896
 30
0.0
 10
152.759630
 20
173.200642
 30
0.0
 10
152.611871
 20
173.130033
 30
0.0
  0
LWPOLYLINE
  5
104
100
AcDbEntity
  8
PCB
 62
7
100
AcDbPolyline
 90
3
 70
0
 10
155.143500
 20
186.122532
 30
0.0
 10
155.143500
 20
186.122003
 30
0.0
 10
155.143500
 20
174.969713
 30
0.0
  0
SPLINE
  5
105
100
AcDbEntity
  8
PCB
 62
7
100
AcDbSpline
 70
8
 71
3
 72
8
 73
4
 74
0
 40
0
 40
0
 40
0
 40
0
 40
1
 40
1
 40
1
 40
1
 10
145.854146
 20
169.900256
 30
0.0
 10
145.605406
 20
169.781384
 30
0.0
 10
145.498376
 20
169.484763
 30
0.0
 10
145.614367
 20
169.234663
 30
0.0
  0
LWPOLYLINE
  5
106
100
AcDbEntity
  8
PCB
 62
7
100
AcDbPolyline
 90
2
 70
0
 10
152.611871
 20
173.130033
 30
0.0
 10
145.854146
 20
169.900256
 30
0.0
  0
SPLINE
  5
107
100
AcDbEntity
  8
PCB
 62
7
100
AcDbSpline
 70
8
 71
3
 72
8
 73
4
 74
0
 40
0
 40
0
 40
0
 40
0
 40
1
 40
1
 40
1
 40
1
 10
146.354888
 20
167.637344
 30
0.0
 10
146.414790
 20
167.508254
 30
0.0
 10
146.407448
 20
167.302709
 30
0.0
 10
146.341976
 20
167.176389
 30
0.0
  0
SPLINE
  5
108
100
AcDbEntity
  8
PCB
 62
7
100
AcDbSpline
 70
8
 71
3
 72
8
 73
4
 74
0
 40
0
 40
0
 40
0
 40
0
 40
1
 40
1
 40
1
 40
1
 10
146.341976
 20
167.176389
 30
0.0
 10
145.103674
 20
164.138602
 30
0.0
 10
145.181596
 20
162.872410
 30
0.0
 10
146.425691
 20
159.817150
 30
0.0
  0
SPLINE
  5
109
100
AcDbEntity
  8
PCB
 62
7
100
AcDbSpline
 70
8
 71
3
 72
8
 73
4
 74
0
 40
0
 40
0
 40
0
 40
0
 40
1
 40
1
 40
1
 40
1
 10
146.425691
 20
159.817150
 30
0.0
 10
146.495591
 20
159.677540
 30
0.0
 10
146.506193
 20
159.448273
 30
0.0
 10
146.446355
 20
159.304004
 30
0.0
  0
SPLINE
  5
10a
100
AcDbEntity
  8
PCB
 62
7
100
AcDbSpline
 70
8
 71
3
 72
8
 73
4
 74
0
 40
0
 40
0
 40
0
 40
0
 40
1
 40
1
 40
1
 40
1
 10
146.446355
 20
159.304004
 30
0.0
 10
146.242686
 20
158.774895
 30
0.0
 10
146.026556
 20
158.141951
 30
0.0
 10
145.879903
 20
157.697080
 30
0.0
  0
SPLINE
  5
10b
100
AcDbEntity
  8
PCB
 62
7
100
AcDbSpline
 70
8
 71
3
 72
8
 73
4
 74
0
 40
0
 40
0
 40
0
 40
0
 40
1
 40
1
 40
1
 40
1
 10
145.879903
 20
157.697080
 30
0.0
 10
145.789474
 20
157.422771
 30
0.0
 10
145.485578
 20
157.199222
 30
0.0
 10
145.196675
 20
157.199222
 30
0.0
  0
LWPOLYLINE
  5
10c
100
AcDbEntity
  8
PCB
 62
7
100
AcDbPolyline
 90
2
 70
0
 10
145.614367
 20
169.234663
 30
0.0
 10
146.354888
 20
167.637344
 30
0.0
  0
SPLINE
  5
10d
100
AcDbEntity
  8
PCB
 62
7
100
AcDbSpline
 70
8
 71
3
 72
8
 73
4
 74
0
 40
0
 40
0
 40
0
 40
0
 40
1
 40
1
 40
1
 40
1
 10
143.284269
 20
157.199222
 30
0.0
 10
142.846468
 20
157.199222
 30
0.0
 10
142.496499
 20
157.554097
 30
0.0
 10
142.500631
 20
157.991879
 30
0.0
  0
SPLINE
  5
10e
100
AcDbEntity
  8
PCB
 62
7
100
AcDbSpline
 70
8
 71
3
 72
8
 73
4
 74
0
 40
0
 40
0
 40
0
 40
0
 40
1
 40
1
 40
1
 40
1
 10
142.500631
 20
157.991879
 30
0.0
 10
142.534667
 20
161.596234
 30
0.0
 10
142.506108
 20
167.532704
 30
0.0
 10
142.495287
 20
169.467948
 30
0.0
  0
SPLINE
  5
10f
100
AcDbEntity
  8
PCB
 62
7
100
AcDbSpline
 70
8
 71
3
 72
8
 73
4
 74
0
 40
0
 40
0
 40
0
 40
0
 40
1
 40
1
 40
1
 40
1
 10
142.495287
 20
169.467948
 30
0.0
 10
142.493435
 20
169.816590
 30
0.0
 10
142.208854
 20
170.099220
 30
0.0
 10
141.860128
 20
170.099220
 30
0.0
  0
LWPOLYLINE
  5
110
100
AcDbEntity
  8
PCB
 62
7
100
AcDbPolyline
 90
2
 70
0
 10
145.196675
 20
157.199222
 30
0.0
 10
143.284269
 20
157.199222
 30
0.0
  0
SPLINE
  5
111
100
AcDbEntity
  8
PCB
 62
7
100
AcDbSpline
 70
8
 71
3
 72
8
 73
4
 74
0
 40
0
 40
0
 40
0
 40
0
 40
1
 40
1
 40
1
 40
1
 10
134.639321
 20
170.099220
 30
0.0
 10
134.237477
 20
170.099220
 30
0.0
 10
133.911717
 20
169.773460
 30
0.0
 10
133.911717
 20
169.371616
 30
0.0
  0
LWPOLYLINE
  5
112
100
AcDbEntity
  8
PCB
 62
7
100
AcDbPolyline
 90
2
 70
0
 10
141.860128
 20
170.099220
 30
0.0
 10
134.639321
 20
170.099220
 30
0.0
  0
SPLINE
  5
113
100
AcDbEntity
  8
PCB
 62
7
100
AcDbSpline
 70
8
 71
3
 72
8
 73
4
 74
0
 40
0
 40
0
 40
0
 40
0
 40
1
 40
1
 40
1
 40
1
 10
133.911717
 20
164.310425
 30
0.0
 10
133.910923
 20
164.174009
 30
0.0
 10
133.800761
 20
164.063413
 30
0.0
 10
133.664186
 20
164.063413
 30
0.0
  0
LWPOLYLINE
  5
114
100
AcDbEntity
  8
PCB
 62
7
100
AcDbPolyline
 90
2
 70
0
 10
133.911717
 20
169.371616
 30
0.0
 10
133.911717
 20
164.310425
 30
0.0
  0
SPLINE
  5
115
100
AcDbEntity
  8
PCB
 62
7
100
AcDbSpline
 70
8
 71
3
 72
8
 73
4
 74
0
 40
0
 40
0
 40
0
 40
0
 40
1
 40
1
 40
1
 40
1
 10
132.837363
 20
164.063413
 30
0.0
 10
132.821091
 20
164.063413
 30
0.0
 10
132.805356
 20
164.061296
 30
0.0
 10
132.789820
 20
164.058756
 30
0.0
  0
LWPOLYLINE
  5
116
100
AcDbEntity
  8
PCB
 62
7
100
AcDbPolyline
 90
2
 70
0
 10
133.664186
 20
164.063413
 30
0.0
 10
132.837363
 20
164.063413
 30
0.0
  0
SPLINE
  5
117
100
AcDbEntity
  8
PCB
 62
7
100
AcDbSpline
 70
8
 71
3
 72
8
 73
4
 74
0
 40
0
 40
0
 40
0
 40
0
 40
1
 40
1
 40
1
 40
1
 10
92.653775
 20
164.058756
 30
0.0
 10
92.227719
 20
164.058873
 30
0.0
 10
91.882361
 20
164.404231
 30
0.0
 10
91.882245
 20
164.830287
 30
0.0
  0
LWPOLYLINE
  5
118
100
AcDbEntity
  8
PCB
 62
7
100
AcDbPolyline
 90
2
 70
0
 10
132.789820
 20
164.058756
 30
0.0
 10
92.653775
 20
164.058756
 30
0.0
  0
SPLINE
  5
119
100
AcDbEntity
  8
PCB
 62
7
100
AcDbSpline
 70
8
 71
3
 72
8
 73
4
 74
0
 40
0
 40
0
 40
0
 40
0
 40
1
 40
1
 40
1
 40
1
 10
91.882245
 20
168.219742
 30
0.0
 10
91.882340
 20
168.659014
 30
0.0
 10
91.526216
 20
169.015138
 30
0.0
 10
91.086944
 20
169.015043
 30
0.0
  0
LWPOLYLINE
  5
11a
100
AcDbEntity
  8
PCB
 62
7
100
AcDbPolyline
 90
2
 70
0
 10
91.882245
 20
164.830287
 30
0.0
 10
91.882245
 20
168.219742
 30
0.0
  0
SPLINE
  5
11b
100
AcDbEntity
  8
PCB
 62
7
100
AcDbSpline
 70
8
 71
3
 72
8
 73
4
 74
0
 40
0
 40
0
 40
0
 40
0
 40
1
 40
1
 40
1
 40
1
 10
68.404094
 20
169.015043
 30
0.0
 10
67.651748
 20
169.015043
 30
0.0
 10
66.891193
 20
169.608040
 30
0.0
 10
66.626940
 20
170.312123
 30
0.0
  0
SPLINE
  5
11c
100
AcDbEntity
  8
PCB
 62
7
100
AcDbSpline
 70
8
 71
3
 72
8
 73
4
 74
0
 40
0
 40
0
 40
0
 40
0
 40
1
 40
1
 40
1
 40
1
 10
66.626940
 20
170.312123
 30
0.0
 10
65.290797
 20
173.872179
 30
0.0
 10
62.491418
 20
176.882878
 30
0.0
 10
58.818631
 20
178.331270
 30
0.0
  0
SPLINE
  5
11d
100
AcDbEntity
  8
PCB
 62
7
100
AcDbSpline
 70
8
 71
3
 72
8
 73
4
 74
0
 40
0
 40
0
 40
0
 40
0
 40
1
 40
1
 40
1
 40
1
 10
58.818631
 20
178.331270
 30
0.0
 10
58.601744
 20
178.416770
 30
0.0
 10
58.423307
 20
178.668627
 30
0.0
 10
58.423307
 20
178.901778
 30
0.0
  0
LWPOLYLINE
  5
11e
100
AcDbEntity
  8
PCB
 62
7
100
AcDbPolyline
 90
2
 70
0
 10
91.086944
 20
169.015043
 30
0.0
 10
68.404094
 20
169.015043
 30
0.0
  0
SPLINE
  5
11f
100
AcDbEntity
  8
PCB
 62
7
100
AcDbSpline
 70
8
 71
3
 72
8
 73
4
 74
0
 40
0
 40
0
 40
0
 40
0
 40
1
 40
1
 40
1
 40
1
 10
58.423307
 20
185.618170
 30
0.0
 10
58.423309
 20
186.024581
 30
0.0
 10
58.093845
 20
186.354045
 30
0.0
 10
57.687434
 20
186.354043
 30
0.0
  0
LWPOLYLINE
  5
120
100
AcDbEntity
  8
PCB
 62
7
100
AcDbPolyline
 90
2
 70
0
 10
58.423307
 20
178.901778
 30
0.0
 10
58.423307
 20
185.618170
 30
0.0
  0
SPLINE
  5
121
100
AcDbEntity
  8
PCB
 62
7
100
AcDbSpline
 70
8
 71
3
 72
8
 73
4
 74
0
 40
0
 40
0
 40
0
 40
0
 40
1
 40
1
 40
1
 40
1
 10
56.281835
 20
186.354043
 30
0.0
 10
56.188331
 20
186.354114
 30
0.0
 10
56.094984
 20
186.346343
 30
0.0
 10
56.002782
 20
186.330786
 30
0.0
  0
LWPOLYLINE
  5
122
100
AcDbEntity
  8
PCB
 62
7
100
AcDbPolyline
 90
2
 70
0
 10
57.687434
 20
186.354043
 30
0.0
 10
56.281835
 20
186.354043
 30
0.0
  0
SPLINE
  5
123
100
AcDbEntity
  8
PCB
 62
7
100
AcDbSpline
 70
8
 71
3
 72
8
 73
4
 74
0
 40
0
 40
0
 40
0
 40
0
 40
1
 40
1
 40
1
 40
1
 10
53.679409
 20
183.375940
 30
0.0
 10
53.700708
 20
183.262461
 30
0.0
 10
53.800112
 20
183.180453
 30
0.0
 10
53.915571
 20
183.181120
 30
0.0
  0
LWPOLYLINE
  5
124
100
AcDbEntity
  8
PCB
 62
7
100
AcDbPolyline
 90
4
 70
0
 10
56.002782
 20
186.330786
 30
0.0
 10
56.002782
 20
186.331315
 30
0.0
 10
53.214322
 20
185.858476
 30
0.0
 10
53.679409
 20
183.375940
 30
0.0
  0
SPLINE
  5
125
100
AcDbEntity
  8
PCB
 62
7
100
AcDbSpline
 70
8
 71
3
 72
8
 73
4
 74
0
 40
0
 40
0
 40
0
 40
0
 40
1
 40
1
 40
1
 40
1
 10
54.260770
 20
183.183236
 30
0.0
 10
54.993354
 20
183.188264
 30
0.0
 10
55.588669
 20
182.593422
 30
0.0
 10
55.584203
 20
181.860836
 30
0.0
  0
LWPOLYLINE
  5
126
100
AcDbEntity
  8
PCB
 62
7
100
AcDbPolyline
 90
2
 70
0
 10
53.915571
 20
183.181120
 30
0.0
 10
54.260770
 20
183.183236
 30
0.0
  0
SPLINE
  5
127
100
AcDbEntity
  8
PCB
 62
7
100
AcDbSpline
 70
8
 71
3
 72
8
 73
4
 74
0
 40
0
 40
0
 40
0
 40
0
 40
1
 40
1
 40
1
 40
1
 10
55.571794
 20
179.667173
 30
0.0
 10
55.570207
 20
179.382873
 30
0.0
 10
55.339797
 20
179.182006
 30
0.0
 10
55.056579
 20
179.206737
 30
0.0
  0
SPLINE
  5
128
100
AcDbEntity
  8
PCB
 62
7
100
AcDbSpline
 70
8
 71
3
 72
8
 73
4
 74
0
 40
0
 40
0
 40
0
 40
0
 40
1
 40
1
 40
1
 40
1
 10
55.056579
 20
179.206737
 30
0.0
 10
54.733406
 20
179.234889
 30
0.0
 10
54.406365
 20
179.252044
 30
0.0
 10
54.075245
 20
179.256346
 30
0.0
  0
SPLINE
  5
129
100
AcDbEntity
  8
PCB
 62
7
100
AcDbSpline
 70
8
 71
3
 72
8
 73
4
 74
0
 40
0
 40
0
 40
0
 40
0
 40
1
 40
1
 40
1
 40
1
 10
54.075245
 20
179.256346
 30
0.0
 10
53.991784
 20
179.257405
 30
0.0
 10
53.856924
 20
179.257405
 30
0.0
 10
53.773453
 20
179.256875
 30
0.0
  0
SPLINE
  5
12a
100
AcDbEntity
  8
PCB
 62
7
100
AcDbSpline
 70
8
 71
3
 72
8
 73
4
 74
0
 40
0
 40
0
 40
0
 40
0
 40
1
 40
1
 40
1
 40
1
 10
53.773453
 20
179.256875
 30
0.0
 10
53.161585
 20
179.250869
 30
0.0
 10
52.537150
 20
179.204504
 30
0.0
 10
51.902767
 20
179.114765
 30
0.0
  0
SPLINE
  5
12b
100
AcDbEntity
  8
PCB
 62
7
100
AcDbSpline
 70
8
 71
3
 72
8
 73
4
 74
0
 40
0
 40
0
 40
0
 40
0
 40
1
 40
1
 40
1
 40
1
 10
51.902767
 20
179.114765
 30
0.0
 10
51.820116
 20
179.103070
 30
0.0
 10
51.723268
 20
179.031794
 30
0.0
 10
51.690375
 20
178.955084
 30
0.0
  0
SPLINE
  5
12c
100
AcDbEntity
  8
PCB
 62
7
100
AcDbSpline
 70
8
 71
3
 72
8
 73
4
 74
0
 40
0
 40
0
 40
0
 40
0
 40
1
 40
1
 40
1
 40
1
 10
51.690375
 20
178.955084
 30
0.0
 10
51.572792
 20
178.680864
 30
0.0
 10
51.509305
 20
178.470605
 30
0.0
 10
51.051655
 20
178.391294
 30
0.0
  0
LWPOLYLINE
  5
12d
100
AcDbEntity
  8
PCB
 62
7
100
AcDbPolyline
 90
2
 70
0
 10
55.584203
 20
181.860836
 30
0.0
 10
55.571794
 20
179.667173
 30
0.0
  0
SPLINE
  5
12e
100
AcDbEntity
  8
PCB
 62
7
100
AcDbSpline
 70
8
 71
3
 72
8
 73
4
 74
0
 40
0
 40
0
 40
0
 40
0
 40
1
 40
1
 40
1
 40
1
 10
49.736491
 20
178.163403
 30
0.0
 10
49.481533
 20
178.119201
 30
0.0
 10
49.207718
 20
178.191213
 30
0.0
 10
49.024389
 20
178.327733
 30
0.0
  0
SPLINE
  5
12f
100
AcDbEntity
  8
PCB
 62
7
100
AcDbSpline
 70
8
 71
3
 72
8
 73
4
 74
0
 40
0
 40
0
 40
0
 40
0
 40
1
 40
1
 40
1
 40
1
 10
49.024389
 20
178.327733
 30
0.0
 10
48.959748
 20
178.375831
 30
0.0
 10
48.854238
 20
178.409693
 30
0.0
 10
48.776342
 20
178.388193
 30
0.0
  0
LWPOLYLINE
  5
130
100
AcDbEntity
  8
PCB
 62
7
100
AcDbPolyline
 90
2
 70
0
 10
51.051655
 20
178.391294
 30
0.0
 10
49.736491
 20
178.163403
 30
0.0
  0
SPLINE
  5
131
100
AcDbEntity
  8
PCB
 62
7
100
AcDbSpline
 70
8
 71
3
 72
8
 73
4
 74
0
 40
0
 40
0
 40
0
 40
0
 40
1
 40
1
 40
1
 40
1
 10
45.502642
 20
177.487990
 30
0.0
 10
45.073651
 20
177.370042
 30
0.0
 10
45.046955
 20
177.063884
 30
0.0
 10
45.252010
 20
176.673052
 30
0.0
  0
SPLINE
  5
132
100
AcDbEntity
  8
PCB
 62
7
100
AcDbSpline
 70
8
 71
3
 72
8
 73
4
 74
0
 40
0
 40
0
 40
0
 40
0
 40
1
 40
1
 40
1
 40
1
 10
45.252010
 20
176.673052
 30
0.0
 10
45.735488
 20
175.751533
 30
0.0
 10
45.048331
 20
174.725370
 30
0.0
 10
44.187993
 20
174.725370
 30
0.0
  0
LWPOLYLINE
  5
133
100
AcDbEntity
  8
PCB
 62
7
100
AcDbPolyline
 90
2
 70
0
 10
48.776342
 20
178.388193
 30
0.0
 10
45.502642
 20
177.487990
 30
0.0
  0
SPLINE
  5
134
100
AcDbEntity
  8
PCB
 62
7
100
AcDbSpline
 70
8
 71
3
 72
8
 73
4
 74
0
 40
0
 40
0
 40
0
 40
0
 40
1
 40
1
 40
1
 40
1
 10
43.375122
 20
174.725370
 30
0.0
 10
43.045768
 20
174.725370
 30
0.0
 10
42.778775
 20
174.458376
 30
0.0
 10
42.778775
 20
174.129023
 30
0.0
  0
LWPOLYLINE
  5
135
100
AcDbEntity
  8
PCB
 62
7
100
AcDbPolyline
 90
2
 70
0
 10
44.187993
 20
174.725370
 30
0.0
 10
43.375122
 20
174.725370
 30
0.0
  0
SPLINE
  5
136
100
AcDbEntity
  8
PCB
 62
7
100
AcDbSpline
 70
8
 71
3
 72
8
 73
4
 74
0
 40
0
 40
0
 40
0
 40
0
 40
1
 40
1
 40
1
 40
1
 10
42.778775
 20
172.006670
 30
0.0
 10
42.778775
 20
171.851683
 30
0.0
 10
42.722620
 20
171.613716
 30
0.0
 10
42.655786
 20
171.473887
 30
0.0
  0
SPLINE
  5
137
100
AcDbEntity
  8
PCB
 62
7
100
AcDbSpline
 70
8
 71
3
 72
8
 73
4
 74
0
 40
0
 40
0
 40
0
 40
0
 40
1
 40
1
 40
1
 40
1
 10
42.655786
 20
171.473887
 30
0.0
 10
40.448719
 20
166.855857
 30
0.0
 10
41.228293
 20
162.935735
 30
0.0
 10
42.635122
 20
160.040995
 30
0.0
  0
SPLINE
  5
138
100
AcDbEntity
  8
PCB
 62
7
100
AcDbSpline
 70
8
 71
3
 72
8
 73
4
 74
0
 40
0
 40
0
 40
0
 40
0
 40
1
 40
1
 40
1
 40
1
 10
42.635122
 20
160.040995
 30
0.0
 10
42.709832
 20
159.887264
 30
0.0
 10
42.773099
 20
159.625396
 30
0.0
 10
42.773099
 20
159.454467
 30
0.0
  0
LWPOLYLINE
  5
139
100
AcDbEntity
  8
PCB
 62
7
100
AcDbPolyline
 90
2
 70
0
 10
42.778775
 20
174.129023
 30
0.0
 10
42.778775
 20
172.006670
 30
0.0
  0
SPLINE
  5
13a
100
AcDbEntity
  8
PCB
 62
7
100
AcDbSpline
 70
8
 71
3
 72
8
 73
4
 74
0
 40
0
 40
0
 40
0
 40
0
 40
1
 40
1
 40
1
 40
1
 10
42.773099
 20
158.659166
 30
0.0
 10
42.773099
 20
158.465425
 30
0.0
 10
42.862804
 20
158.179368
 30
0.0
 10
42.977220
 20
158.023029
 30
0.0
  0
SPLINE
  5
13b
100
AcDbEntity
  8
PCB
 62
7
100
AcDbSpline
 70
8
 71
3
 72
8
 73
4
 74
0
 40
0
 40
0
 40
0
 40
0
 40
1
 40
1
 40
1
 40
1
 10
42.977220
 20
158.023029
 30
0.0
 10
44.513933
 20
155.923459
 30
0.0
 10
46.566880
 20
154.248335
 30
0.0
 10
49.334456
 20
153.160794
 30
0.0
  0
SPLINE
  5
13c
100
AcDbEntity
  8
PCB
 62
7
100
AcDbSpline
 70
8
 71
3
 72
8
 73
4
 74
0
 40
0
 40
0
 40
0
 40
0
 40
1
 40
1
 40
1
 40
1
 10
49.334456
 20
153.160794
 30
0.0
 10
49.445878
 20
153.116995
 30
0.0
 10
49.592385
 20
153.003729
 30
0.0
 10
49.661569
 20
152.906029
 30
0.0
  0
LWPOLYLINE
  5
13d
100
AcDbEntity
  8
PCB
 62
7
100
AcDbPolyline
 90
2
 70
0
 10
42.773099
 20
159.454467
 30
0.0
 10
42.773099
 20
158.659166
 30
0.0
  0
SPLINE
  5
13e
100
AcDbEntity
  8
PCB
 62
7
100
AcDbSpline
 70
8
 71
3
 72
8
 73
4
 74
0
 40
0
 40
0
 40
0
 40
0
 40
1
 40
1
 40
1
 40
1
 10
51.664547
 20
150.077776
 30
0.0
 10
52.688677
 20
148.631635
 30
0.0
 10
53.848817
 20
149.165697
 30
0.0
 10
55.090694
 20
150.042637
 30
0.0
  0
LWPOLYLINE
  5
13f
100
AcDbEntity
  8
PCB
 62
7
100
AcDbPolyline
 90
2
 70
0
 10
49.661569
 20
152.906029
 30
0.0
 10
51.664547
 20
150.077776
 30
0.0
  0
SPLINE
  5
140
100
AcDbEntity
  8
PCB
 62
7
100
AcDbSpline
 70
8
 71
3
 72
8
 73
4
 74
0
 40
0
 40
0
 40
0
 40
0
 40
1
 40
1
 40
1
 40
1
 10
56.765009
 20
151.224994
 30
0.0
 10
57.028381
 20
151.410901
 30
0.0
 10
57.391625
 20
151.355193
 30
0.0
 10
57.587181
 20
151.098904
 30
0.0
  0
LWPOLYLINE
  5
141
100
AcDbEntity
  8
PCB
 62
7
100
AcDbPolyline
 90
2
 70
0
 10
55.090694
 20
150.042637
 30
0.0
 10
56.765009
 20
151.224994
 30
0.0
  0
SPLINE
  5
142
100
AcDbEntity
  8
PCB
 62
7
100
AcDbSpline
 70
8
 71
3
 72
8
 73
4
 74
0
 40
0
 40
0
 40
0
 40
0
 40
1
 40
1
 40
1
 40
1
 10
59.118872
 20
149.091275
 30
0.0
 10
59.280596
 20
148.879325
 30
0.0
 10
59.293402
 20
148.526032
 30
0.0
 10
59.173130
 20
148.288222
 30
0.0
  0
SPLINE
  5
143
100
AcDbEntity
  8
PCB
 62
7
100
AcDbSpline
 70
8
 71
3
 72
8
 73
4
 74
0
 40
0
 40
0
 40
0
 40
0
 40
1
 40
1
 40
1
 40
1
 10
59.173130
 20
148.288222
 30
0.0
 10
58.837909
 20
147.625372
 30
0.0
 10
58.649652
 20
146.875866
 30
0.0
 10
58.652232
 20
146.082155
 30
0.0
  0
LWPOLYLINE
  5
144
100
AcDbEntity
  8
PCB
 62
7
100
AcDbPolyline
 90
2
 70
0
 10
57.587181
 20
151.098904
 30
0.0
 10
59.118872
 20
149.091275
 30
0.0
  0
SPLINE
  5
145
100
AcDbEntity
  8
PCB
 62
7
100
AcDbSpline
 70
8
 71
3
 72
8
 73
4
 74
0
 40
0
 40
0
 40
0
 40
0
 40
1
 40
1
 40
1
 40
1
 10
58.660487
 20
143.545360
 30
0.0
 10
58.661016
 20
143.393819
 30
0.0
 10
58.661016
 20
143.196578
 30
0.0
 10
58.970547
 20
143.111279
 30
0.0
  0
SPLINE
  5
146
100
AcDbEntity
  8
PCB
 62
7
100
AcDbSpline
 70
8
 71
3
 72
8
 73
4
 74
0
 40
0
 40
0
 40
0
 40
0
 40
1
 40
1
 40
1
 40
1
 10
58.970547
 20
143.111279
 30
0.0
 10
60.175801
 20
142.779057
 30
0.0
 10
60.468649
 20
141.035895
 30
0.0
 10
58.970547
 20
140.597737
 30
0.0
  0
SPLINE
  5
147
100
AcDbEntity
  8
PCB
 62
7
100
AcDbSpline
 70
8
 71
3
 72
8
 73
4
 74
0
 40
0
 40
0
 40
0
 40
0
 40
1
 40
1
 40
1
 40
1
 10
58.970547
 20
140.597737
 30
0.0
 10
58.799462
 20
140.547736
 30
0.0
 10
58.661355
 20
140.481291
 30
0.0
 10
58.656354
 20
140.242203
 30
0.0
  0
LWPOLYLINE
  5
148
100
AcDbEntity
  8
PCB
 62
7
100
AcDbPolyline
 90
2
 70
0
 10
58.652232
 20
146.082155
 30
0.0
 10
58.660487
 20
143.545360
 30
0.0
  0
SPLINE
  5
149
100
AcDbEntity
  8
PCB
 62
7
100
AcDbSpline
 70
8
 71
3
 72
8
 73
4
 74
0
 40
0
 40
0
 40
0
 40
0
 40
1
 40
1
 40
1
 40
1
 10
58.652227
 20
137.996862
 30
0.0
 10
58.652229
 20
135.220481
 30
0.0
 10
60.902931
 20
132.969779
 30
0.0
 10
63.679310
 20
132.969779
 30
0.0
  0
LWPOLYLINE
  5
14a
100
AcDbEntity
  8
PCB
 62
7
100
AcDbPolyline
 90
3
 70
0
 10
58.656354
 20
140.242203
 30
0.0
 10
58.652227
 20
139.459823
 30
0.0
 10
58.652227
 20
137.996862
 30
0.0
  0
SPLINE
  5
14b
100
AcDbEntity
  8
PCB
 62
7
100
AcDbSpline
 70
8
 71
3
 72
8
 73
4
 74
0
 40
0
 40
0
 40
0
 40
0
 40
1
 40
1
 40
1
 40
1
 10
67.694052
 20
132.969779
 30
0.0
 10
68.228328
 20
132.969779
 30
0.0
 10
68.661441
 20
133.402891
 30
0.0
 10
68.661435
 20
133.937161
 30
0.0
  0
LWPOLYLINE
  5
14c
100
AcDbEntity
  8
PCB
 62
7
100
AcDbPolyline
 90
2
 70
0
 10
63.679310
 20
132.969779
 30
0.0
 10
67.694052
 20
132.969779
 30
0.0
  0
SPLINE
  5
14d
100
AcDbEntity
  8
PCB
 62
7
100
AcDbSpline
 70
8
 71
3
 72
8
 73
4
 74
0
 40
0
 40
0
 40
0
 40
0
 40
1
 40
1
 40
1
 40
1
 10
68.661435
 20
152.937036
 30
0.0
 10
68.661435
 20
153.133391
 30
0.0
 10
68.502257
 20
153.292570
 30
0.0
 10
68.305901
 20
153.292570
 30
0.0
  0
LWPOLYLINE
  5
14e
100
AcDbEntity
  8
PCB
 62
7
100
AcDbPolyline
 90
2
 70
0
 10
68.661435
 20
133.937161
 30
0.0
 10
68.661435
 20
152.937036
 30
0.0
  0
SPLINE
  5
14f
100
AcDbEntity
  8
PCB
 62
7
100
AcDbSpline
 70
8
 71
3
 72
8
 73
4
 74
0
 40
0
 40
0
 40
0
 40
0
 40
1
 40
1
 40
1
 40
1
 10
67.911611
 20
153.292570
 30
0.0
 10
67.913993
 20
153.271747
 30
0.0
 10
67.924020
 20
153.253578
 30
0.0
 10
67.924020
 20
153.232107
 30
0.0
  0
SPLINE
  5
150
100
AcDbEntity
  8
PCB
 62
7
100
AcDbSpline
 70
8
 71
3
 72
8
 73
4
 74
0
 40
0
 40
0
 40
0
 40
0
 40
1
 40
1
 40
1
 40
1
 10
67.924020
 20
153.232107
 30
0.0
 10
67.924060
 20
152.934988
 30
0.0
 10
67.683189
 20
152.694117
 30
0.0
 10
67.386070
 20
152.694156
 30
0.0
  0
SPLINE
  5
151
100
AcDbEntity
  8
PCB
 62
7
100
AcDbSpline
 70
8
 71
3
 72
8
 73
4
 74
0
 40
0
 40
0
 40
0
 40
0
 40
1
 40
1
 40
1
 40
1
 10
67.386070
 20
152.694156
 30
0.0
 10
67.088950
 20
152.694117
 30
0.0
 10
66.848079
 20
152.934988
 30
0.0
 10
66.848119
 20
153.232107
 30
0.0
  0
SPLINE
  5
152
100
AcDbEntity
  8
PCB
 62
7
100
AcDbSpline
 70
8
 71
3
 72
8
 73
4
 74
0
 40
0
 40
0
 40
0
 40
0
 40
1
 40
1
 40
1
 40
1
 10
66.848119
 20
153.232107
 30
0.0
 10
66.848116
 20
153.253565
 30
0.0
 10
66.858067
 20
153.271755
 30
0.0
 10
66.860528
 20
153.292570
 30
0.0
  0
LWPOLYLINE
  5
153
100
AcDbEntity
  8
PCB
 62
7
100
AcDbPolyline
 90
2
 70
0
 10
68.305901
 20
153.292570
 30
0.0
 10
67.911611
 20
153.292570
 30
0.0
  0
SPLINE
  5
154
100
AcDbEntity
  8
PCB
 62
7
100
AcDbSpline
 70
8
 71
3
 72
8
 73
4
 74
0
 40
0
 40
0
 40
0
 40
0
 40
1
 40
1
 40
1
 40
1
 10
66.139641
 20
153.292570
 30
0.0
 10
65.888488
 20
153.292570
 30
0.0
 10
65.684889
 20
153.088970
 30
0.0
 10
65.684889
 20
152.837817
 30
0.0
  0
LWPOLYLINE
  5
155
100
AcDbEntity
  8
PCB
 62
7
100
AcDbPolyline
 90
2
 70
0
 10
66.860528
 20
153.292570
 30
0.0
 10
66.139641
 20
153.292570
 30
0.0
  0
SPLINE
  5
156
100
AcDbEntity
  8
PCB
 62
7
100
AcDbSpline
 70
8
 71
3
 72
8
 73
4
 74
0
 40
0
 40
0
 40
0
 40
0
 40
1
 40
1
 40
1
 40
1
 10
65.684889
 20
151.725223
 30
0.0
 10
65.684846
 20
151.311981
 30
0.0
 10
65.349857
 20
150.976992
 30
0.0
 10
64.936615
 20
150.976947
 30
0.0
  0
LWPOLYLINE
  5
157
100
AcDbEntity
  8
PCB
 62
7
100
AcDbPolyline
 90
2
 70
0
 10
65.684889
 20
152.837817
 30
0.0
 10
65.684889
 20
151.725223
 30
0.0
  0
SPLINE
  5
158
100
AcDbEntity
  8
PCB
 62
7
100
AcDbSpline
 70
8
 71
3
 72
8
 73
4
 74
0
 40
0
 40
0
 40
0
 40
0
 40
1
 40
1
 40
1
 40
1
 10
63.547034
 20
150.976947
 30
0.0
 10
63.231571
 20
150.976947
 30
0.0
 10
62.923075
 20
150.947131
 30
0.0
 10
62.624093
 20
150.890132
 30
0.0
  0
SPLINE
  5
159
100
AcDbEntity
  8
PCB
 62
7
100
AcDbSpline
 70
8
 71
3
 72
8
 73
4
 74
0
 40
0
 40
0
 40
0
 40
0
 40
1
 40
1
 40
1
 40
1
 10
62.624093
 20
150.890132
 30
0.0
 10
62.402082
 20
150.847830
 30
0.0
 10
62.114739
 20
150.942437
 30
0.0
 10
61.977621
 20
151.122158
 30
0.0
  0
LWPOLYLINE
  5
15a
100
AcDbEntity
  8
PCB
 62
7
100
AcDbPolyline
 90
2
 70
0
 10
64.936615
 20
150.976947
 30
0.0
 10
63.547034
 20
150.976947
 30
0.0
  0
SPLINE
  5
15b
100
AcDbEntity
  8
PCB
 62
7
100
AcDbSpline
 70
8
 71
3
 72
8
 73
4
 74
0
 40
0
 40
0
 40
0
 40
0
 40
1
 40
1
 40
1
 40
1
 10
60.453685
 20
153.119969
 30
0.0
 10
60.261714
 20
153.371754
 30
0.0
 10
60.317046
 20
153.732577
 30
0.0
 10
60.575642
 20
153.915269
 30
0.0
  0
LWPOLYLINE
  5
15c
100
AcDbEntity
  8
PCB
 62
7
100
AcDbPolyline
 90
2
 70
0
 10
61.977621
 20
151.122158
 30
0.0
 10
60.453685
 20
153.119969
 30
0.0
  0
SPLINE
  5
15d
100
AcDbEntity
  8
PCB
 62
7
100
AcDbSpline
 70
8
 71
3
 72
8
 73
4
 74
0
 40
0
 40
0
 40
0
 40
0
 40
1
 40
1
 40
1
 40
1
 10
61.217979
 20
154.368990
 30
0.0
 10
63.780021
 20
156.187987
 30
0.0
 10
65.474122
 20
158.338174
 30
0.0
 10
66.452802
 20
160.599099
 30
0.0
  0
SPLINE
  5
15e
100
AcDbEntity
  8
PCB
 62
7
100
AcDbSpline
 70
8
 71
3
 72
8
 73
4
 74
0
 40
0
 40
0
 40
0
 40
0
 40
1
 40
1
 40
1
 40
1
 10
66.452802
 20
160.599099
 30
0.0
 10
66.599720
 20
160.938504
 30
0.0
 10
67.002762
 20
161.220251
 30
0.0
 10
67.372642
 20
161.220251
 30
0.0
  0
LWPOLYLINE
  5
15f
100
AcDbEntity
  8
PCB
 62
7
100
AcDbPolyline
 90
2
 70
0
 10
60.575642
 20
153.915269
 30
0.0
 10
61.217979
 20
154.368990
 30
0.0
  0
SPLINE
  5
160
100
AcDbEntity
  8
PCB
 62
7
100
AcDbSpline
 70
8
 71
3
 72
8
 73
4
 74
0
 40
0
 40
0
 40
0
 40
0
 40
1
 40
1
 40
1
 40
1
 10
68.444927
 20
161.220251
 30
0.0
 10
68.667867
 20
161.220150
 30
0.0
 10
68.848620
 20
161.400903
 30
0.0
 10
68.848519
 20
161.623844
 30
0.0
  0
LWPOLYLINE
  5
161
100
AcDbEntity
  8
PCB
 62
7
100
AcDbPolyline
 90
2
 70
0
 10
67.372642
 20
161.220251
 30
0.0
 10
68.444927
 20
161.220251
 30
0.0
  0
SPLINE
  5
162
100
AcDbEntity
  8
PCB
 62
7
100
AcDbSpline
 70
8
 71
3
 72
8
 73
4
 74
0
 40
0
 40
0
 40
0
 40
0
 40
1
 40
1
 40
1
 40
1
 10
68.848519
 20
162.153010
 30
0.0
 10
68.604042
 20
162.175579
 30
0.0
 10
68.410359
 20
162.374461
 30
0.0
 10
68.410303
 20
162.624815
 30
0.0
  0
SPLINE
  5
163
100
AcDbEntity
  8
PCB
 62
7
100
AcDbSpline
 70
8
 71
3
 72
8
 73
4
 74
0
 40
0
 40
0
 40
0
 40
0
 40
1
 40
1
 40
1
 40
1
 10
68.410303
 20
162.624815
 30
0.0
 10
68.410362
 20
162.885636
 30
0.0
 10
68.618909
 20
163.095517
 30
0.0
 10
68.877976
 20
163.102822
 30
0.0
  0
LWPOLYLINE
  5
164
100
AcDbEntity
  8
PCB
 62
7
100
AcDbPolyline
 90
2
 70
0
 10
68.848519
 20
161.623844
 30
0.0
 10
68.848519
 20
162.153010
 30
0.0
  0
SPLINE
  5
165
100
AcDbEntity
  8
PCB
 62
7
100
AcDbSpline
 70
8
 71
3
 72
8
 73
4
 74
0
 40
0
 40
0
 40
0
 40
0
 40
1
 40
1
 40
1
 40
1
 10
68.897105
 20
165.746073
 30
0.0
 10
68.897190
 20
166.191547
 30
0.0
 10
69.258298
 20
166.552658
 30
0.0
 10
69.703774
 20
166.552740
 30
0.0
  0
LWPOLYLINE
  5
166
100
AcDbEntity
  8
PCB
 62
7
100
AcDbPolyline
 90
4
 70
0
 10
68.877976
 20
163.102822
 30
0.0
 10
68.897105
 20
163.102822
 30
0.0
 10
68.897105
 20
164.190612
 30
0.0
 10
68.897105
 20
165.746073
 30
0.0
  0
SPLINE
  5
167
100
AcDbEntity
  8
PCB
 62
7
100
AcDbSpline
 70
8
 71
3
 72
8
 73
4
 74
0
 40
0
 40
0
 40
0
 40
0
 40
1
 40
1
 40
1
 40
1
 10
87.938318
 20
166.552740
 30
0.0
 10
88.454872
 20
166.552685
 30
0.0
 10
88.873607
 20
166.133952
 30
0.0
 10
88.873662
 20
165.617398
 30
0.0
  0
LWPOLYLINE
  5
168
100
AcDbEntity
  8
PCB
 62
7
100
AcDbPolyline
 90
2
 70
0
 10
69.703774
 20
166.552740
 30
0.0
 10
87.938318
 20
166.552740
 30
0.0
  0
SPLINE
  5
169
100
AcDbEntity
  8
PCB
 62
7
100
AcDbSpline
 70
8
 71
3
 72
8
 73
4
 74
0
 40
0
 40
0
 40
0
 40
0
 40
1
 40
1
 40
1
 40
1
 10
88.873662
 20
162.679174
 30
0.0
 10
88.873663
 20
162.162544
 30
0.0
 10
89.292474
 20
161.743732
 30
0.0
 10
89.809105
 20
161.743732
 30
0.0
  0
LWPOLYLINE
  5
16a
100
AcDbEntity
  8
PCB
 62
7
100
AcDbPolyline
 90
2
 70
0
 10
88.873662
 20
165.617398
 30
0.0
 10
88.873662
 20
162.679174
 30
0.0
  0
SPLINE
  5
16b
100
AcDbEntity
  8
PCB
 62
7
100
AcDbSpline
 70
8
 71
3
 72
8
 73
4
 74
0
 40
0
 40
0
 40
0
 40
0
 40
1
 40
1
 40
1
 40
1
 10
131.858119
 20
161.743732
 30
0.0
 10
132.239127
 20
161.743726
 30
0.0
 10
132.547993
 20
161.434860
 30
0.0
 10
132.547999
 20
161.053852
 30
0.0
  0
LWPOLYLINE
  5
16c
100
AcDbEntity
  8
PCB
 62
7
100
AcDbPolyline
 90
2
 70
0
 10
89.809105
 20
161.743732
 30
0.0
 10
131.858119
 20
161.743732
 30
0.0
  0
SPLINE
  5
16d
100
AcDbEntity
  8
PCB
 62
7
100
AcDbSpline
 70
8
 71
3
 72
8
 73
4
 74
0
 40
0
 40
0
 40
0
 40
0
 40
1
 40
1
 40
1
 40
1
 10
132.547999
 20
159.966578
 30
0.0
 10
132.548057
 20
159.779383
 30
0.0
 10
132.699798
 20
159.627637
 30
0.0
 10
132.886996
 20
159.627584
 30
0.0
  0
LWPOLYLINE
  5
16e
100
AcDbEntity
  8
PCB
 62
7
100
AcDbPolyline
 90
2
 70
0
 10
132.547999
 20
161.053852
 30
0.0
 10
132.547999
 20
159.966578
 30
0.0
  0
SPLINE
  5
16f
100
AcDbEntity
  8
PCB
 62
7
100
AcDbSpline
 70
8
 71
3
 72
8
 73
4
 74
0
 40
0
 40
0
 40
0
 40
0
 40
1
 40
1
 40
1
 40
1
 10
139.633355
 20
159.627584
 30
0.0
 10
139.764927
 20
159.627584
 30
0.0
 10
139.891111
 20
159.575317
 30
0.0
 10
139.984146
 20
159.482281
 30
0.0
  0
SPLINE
  5
170
100
AcDbEntity
  8
PCB
 62
7
100
AcDbSpline
 70
8
 71
3
 72
8
 73
4
 74
0
 40
0
 40
0
 40
0
 40
0
 40
1
 40
1
 40
1
 40
1
 10
139.984146
 20
159.482281
 30
0.0
 10
140.077182
 20
159.389246
 30
0.0
 10
140.129449
 20
159.263062
 30
0.0
 10
140.129449
 20
159.131490
 30
0.0
  0
LWPOLYLINE
  5
171
100
AcDbEntity
  8
PCB
 62
7
100
AcDbPolyline
 90
2
 70
0
 10
132.886996
 20
159.627584
 30
0.0
 10
139.633355
 20
159.627584
 30
0.0
  0
SPLINE
  5
172
100
AcDbEntity
  8
PCB
 62
7
100
AcDbSpline
 70
8
 71
3
 72
8
 73
4
 74
0
 40
0
 40
0
 40
0
 40
0
 40
1
 40
1
 40
1
 40
1
 10
140.129449
 20
155.547206
 30
0.0
 10
140.129449
 20
155.117962
 30
0.0
 10
140.477418
 20
154.770373
 30
0.0
 10
140.906662
 20
154.770704
 30
0.0
  0
SPLINE
  5
173
100
AcDbEntity
  8
PCB
 62
7
100
AcDbSpline
 70
8
 71
3
 72
8
 73
4
 74
0
 40
0
 40
0
 40
0
 40
0
 40
1
 40
1
 40
1
 40
1
 10
140.906662
 20
154.770704
 30
0.0
 10
144.152245
 20
154.773085
 30
0.0
 10
147.398399
 20
154.770175
 30
0.0
 10
150.648181
 20
154.769910
 30
0.0
  0
SPLINE
  5
174
100
AcDbEntity
  8
PCB
 62
7
100
AcDbSpline
 70
8
 71
3
 72
8
 73
4
 74
0
 40
0
 40
0
 40
0
 40
0
 40
1
 40
1
 40
1
 40
1
 10
150.648181
 20
154.769910
 30
0.0
 10
150.774901
 20
154.769905
 30
0.0
 10
150.971399
 20
154.727953
 30
0.0
 10
151.087072
 20
154.676203
 30
0.0
  0
LWPOLYLINE
  5
175
100
AcDbEntity
  8
PCB
 62
7
100
AcDbPolyline
 90
2
 70
0
 10
140.129449
 20
159.131490
 30
0.0
 10
140.129449
 20
155.547206
 30
0.0
  0
SPLINE
  5
176
100
AcDbEntity
  8
PCB
 62
7
100
AcDbSpline
 70
8
 71
3
 72
8
 73
4
 74
0
 40
0
 40
0
 40
0
 40
0
 40
1
 40
1
 40
1
 40
1
 10
151.619186
 20
154.438141
 30
0.0
 10
151.824214
 20
154.346442
 30
0.0
 10
152.065112
 20
154.432850
 30
0.0
 10
152.164373
 20
154.634513
 30
0.0
  0
LWPOLYLINE
  5
177
100
AcDbEntity
  8
PCB
 62
7
100
AcDbPolyline
 90
2
 70
0
 10
151.087072
 20
154.676203
 30
0.0
 10
151.619186
 20
154.438141
 30
0.0
  0
SPLINE
  5
178
100
AcDbEntity
  8
PCB
 62
7
100
AcDbSpline
 70
8
 71
3
 72
8
 73
4
 74
0
 40
0
 40
0
 40
0
 40
0
 40
1
 40
1
 40
1
 40
1
 10
153.061991
 20
156.456624
 30
0.0
 10
153.082099
 20
156.497325
 30
0.0
 10
153.122657
 20
156.524738
 30
0.0
 10
153.167927
 20
156.527937
 30
0.0
  0
LWPOLYLINE
  5
179
100
AcDbEntity
  8
PCB
 62
7
100
AcDbPolyline
 90
2
 70
0
 10
152.164373
 20
154.634513
 30
0.0
 10
153.061991
 20
156.456624
 30
0.0
  0
SPLINE
  5
17a
100
AcDbEntity
  8
PCB
 62
7
100
AcDbSpline
 70
8
 71
3
 72
8
 73
4
 74
0
 40
0
 40
0
 40
0
 40
0
 40
1
 40
1
 40
1
 40
1
 10
153.351379
 20
156.540849
 30
0.0
 10
153.408479
 20
156.544844
 30
0.0
 10
153.464107
 20
156.521931
 30
0.0
 10
153.501757
 20
156.478836
 30
0.0
  0
LWPOLYLINE
  5
17b
100
AcDbEntity
  8
PCB
 62
7
100
AcDbPolyline
 90
2
 70
0
 10
153.167927
 20
156.527937
 30
0.0
 10
153.351379
 20
156.540849
 30
0.0
  0
SPLINE
  5
17c
100
AcDbEntity
  8
PCB
 62
7
100
AcDbSpline
 70
8
 71
3
 72
8
 73
4
 74
0
 40
0
 40
0
 40
0
 40
0
 40
1
 40
1
 40
1
 40
1
 10
154.814339
 20
154.975052
 30
0.0
 10
154.998191
 20
154.764452
 30
0.0
 10
155.316611
 20
154.739407
 30
0.0
 10
155.531090
 20
154.918725
 30
0.0
  0
LWPOLYLINE
  5
17d
100
AcDbEntity
  8
PCB
 62
7
100
AcDbPolyline
 90
2
 70
0
 10
153.501757
 20
156.478836
 30
0.0
 10
154.814339
 20
154.975052
 30
0.0
  0
SPLINE
  5
17e
100
AcDbEntity
  8
PCB
 62
7
100
AcDbSpline
 70
8
 71
3
 72
8
 73
4
 74
0
 40
0
 40
0
 40
0
 40
0
 40
1
 40
1
 40
1
 40
1
 10
160.736976
 20
159.271431
 30
0.0
 10
160.804575
 20
159.327932
 30
0.0
 10
160.890165
 20
159.358764
 30
0.0
 10
160.978306
 20
159.358764
 30
0.0
  0
LWPOLYLINE
  5
17f
100
AcDbEntity
  8
PCB
 62
7
100
AcDbPolyline
 90
2
 70
0
 10
155.531090
 20
154.918725
 30
0.0
 10
160.736976
 20
159.271431
 30
0.0
  0
SPLINE
  5
180
100
AcDbEntity
  8
PCB
 62
7
100
AcDbSpline
 70
8
 71
3
 72
8
 73
4
 74
0
 40
0
 40
0
 40
0
 40
0
 40
1
 40
1
 40
1
 40
1
 10
168.539581
 20
159.358764
 30
0.0
 10
168.745072
 20
159.358764
 30
0.0
 10
168.911652
 20
159.525343
 30
0.0
 10
168.911652
 20
159.730835
 30
0.0
  0
LWPOLYLINE
  5
181
100
AcDbEntity
  8
PCB
 62
7
100
AcDbPolyline
 90
2
 70
0
 10
160.978306
 20
159.358764
 30
0.0
 10
168.539581
 20
159.358764
 30
0.0
  0
SPLINE
  5
182
100
AcDbEntity
  8
PCB
 62
7
100
AcDbSpline
 70
8
 71
3
 72
8
 73
4
 74
0
 40
0
 40
0
 40
0
 40
0
 40
1
 40
1
 40
1
 40
1
 10
168.911652
 20
161.731773
 30
0.0
 10
168.911652
 20
161.882392
 30
0.0
 10
168.984124
 20
162.023661
 30
0.0
 10
169.105954
 20
162.112111
 30
0.0
  0
LWPOLYLINE
  5
183
100
AcDbEntity
  8
PCB
 62
7
100
AcDbPolyline
 90
2
 70
0
 10
168.911652
 20
159.730835
 30
0.0
 10
168.911652
 20
161.731773
 30
0.0
  0
SPLINE
  5
184
100
AcDbEntity
  8
PCB
 62
7
100
AcDbSpline
 70
8
 71
3
 72
8
 73
4
 74
0
 40
0
 40
0
 40
0
 40
0
 40
1
 40
1
 40
1
 40
1
 10
170.034580
 20
162.786489
 30
0.0
 10
170.123779
 20
162.851188
 30
0.0
 10
170.176691
 20
162.954327
 30
0.0
 10
170.176691
 20
163.064508
 30
0.0
  0
LWPOLYLINE
  5
185
100
AcDbEntity
  8
PCB
 62
7
100
AcDbPolyline
 90
2
 70
0
 10
169.105954
 20
162.112111
 30
0.0
 10
170.034580
 20
162.786489
 30
0.0
  0
SPLINE
  5
186
100
AcDbEntity
  8
PCB
 62
7
100
AcDbSpline
 70
8
 71
3
 72
8
 73
4
 74
0
 40
0
 40
0
 40
0
 40
0
 40
1
 40
1
 40
1
 40
1
 10
170.176691
 20
164.112507
 30
0.0
 10
170.176691
 20
164.222285
 30
0.0
 10
170.225144
 20
164.386207
 30
0.0
 10
170.283143
 20
164.479410
 30
0.0
  0
SPLINE
  5
187
100
AcDbEntity
  8
PCB
 62
7
100
AcDbSpline
 70
8
 71
3
 72
8
 73
4
 74
0
 40
0
 40
0
 40
0
 40
0
 40
1
 40
1
 40
1
 40
1
 10
170.283143
 20
164.479410
 30
0.0
 10
171.044714
 20
165.702618
 30
0.0
 10
172.291069
 20
168.157666
 30
0.0
 10
170.281026
 20
171.398367
 30
0.0
  0
SPLINE
  5
188
100
AcDbEntity
  8
PCB
 62
7
100
AcDbSpline
 70
8
 71
3
 72
8
 73
4
 74
0
 40
0
 40
0
 40
0
 40
0
 40
1
 40
1
 40
1
 40
1
 10
170.281026
 20
171.398367
 30
0.0
 10
170.224427
 20
171.489667
 30
0.0
 10
170.176640
 20
171.649996
 30
0.0
 10
170.176640
 20
171.757518
 30
0.0
  0
LWPOLYLINE
  5
189
100
AcDbEntity
  8
PCB
 62
7
100
AcDbPolyline
 90
2
 70
0
 10
170.176691
 20
163.064508
 30
0.0
 10
170.176691
 20
164.112507
 30
0.0
  0
SPLINE
  5
18a
100
AcDbEntity
  8
PCB
 62
7
100
AcDbSpline
 70
8
 71
3
 72
8
 73
4
 74
0
 40
0
 40
0
 40
0
 40
0
 40
1
 40
1
 40
1
 40
1
 10
170.176640
 20
174.881358
 30
0.0
 10
170.176640
 20
175.081007
 30
0.0
 10
170.060057
 20
175.261924
 30
0.0
 10
169.878468
 20
175.344894
 30
0.0
  0
LWPOLYLINE
  5
18b
100
AcDbEntity
  8
PCB
 62
7
100
AcDbPolyline
 90
2
 70
0
 10
170.176640
 20
171.757518
 30
0.0
 10
170.176640
 20
174.881358
 30
0.0
  0
SPLINE
  5
18c
100
AcDbEntity
  8
PCB
 62
7
100
AcDbSpline
 70
8
 71
3
 72
8
 73
4
 74
0
 40
0
 40
0
 40
0
 40
0
 40
1
 40
1
 40
1
 40
1
 10
166.157246
 20
177.045567
 30
0.0
 10
165.936417
 20
177.146477
 30
0.0
 10
165.675165
 20
177.054695
 30
0.0
 10
165.566585
 20
176.837311
 30
0.0
  0
LWPOLYLINE
  5
18d
100
AcDbEntity
  8
PCB
 62
7
100
AcDbPolyline
 90
2
 70
0
 10
169.878468
 20
175.344894
 30
0.0
 10
166.157246
 20
177.045567
 30
0.0
  0
SPLINE
  5
18e
100
AcDbEntity
  8
PCB
 62
7
100
AcDbSpline
 70
8
 71
3
 72
8
 73
4
 74
0
 40
0
 40
0
 40
0
 40
0
 40
1
 40
1
 40
1
 40
1
 10
164.696355
 20
175.096332
 30
0.0
 10
164.648254
 20
175.000232
 30
0.0
 10
164.559142
 20
174.931404
 30
0.0
 10
164.453991
 20
174.909263
 30
0.0
  0
LWPOLYLINE
  5
18f
100
AcDbEntity
  8
PCB
 62
7
100
AcDbPolyline
 90
2
 70
0
 10
165.566585
 20
176.837311
 30
0.0
 10
164.696355
 20
175.096332
 30
0.0
  0
SPLINE
  5
190
100
AcDbEntity
  8
PCB
 62
7
100
AcDbSpline
 70
8
 71
3
 72
8
 73
4
 74
0
 40
0
 40
0
 40
0
 40
0
 40
1
 40
1
 40
1
 40
1
 10
163.922758
 20
174.797641
 30
0.0
 10
163.768959
 20
174.765243
 30
0.0
 10
163.609375
 20
174.809441
 30
0.0
 10
163.493845
 20
174.915981
 30
0.0
  0
LWPOLYLINE
  5
191
100
AcDbEntity
  8
PCB
 62
7
100
AcDbPolyline
 90
2
 70
0
 10
164.453991
 20
174.909263
 30
0.0
 10
163.922758
 20
174.797641
 30
0.0
  0
SPLINE
  5
192
100
AcDbEntity
  8
PCB
 62
7
100
AcDbSpline
 70
8
 71
3
 72
8
 73
4
 74
0
 40
0
 40
0
 40
0
 40
0
 40
1
 40
1
 40
1
 40
1
 10
162.023132
 20
176.272487
 30
0.0
 10
161.875452
 20
176.408937
 30
0.0
 10
161.646725
 20
176.406053
 30
0.0
 10
161.502233
 20
176.266295
 30
0.0
  0
LWPOLYLINE
  5
193
100
AcDbEntity
  8
PCB
 62
7
100
AcDbPolyline
 90
2
 70
0
 10
163.493845
 20
174.915981
 30
0.0
 10
162.023132
 20
176.272487
 30
0.0
  0
SPLINE
  5
194
100
AcDbEntity
  8
PCB
 62
7
100
AcDbSpline
 70
8
 71
3
 72
8
 73
4
 74
0
 40
0
 40
0
 40
0
 40
0
 40
1
 40
1
 40
1
 40
1
 10
159.242941
 20
174.076765
 30
0.0
 10
158.874500
 20
173.719665
 30
0.0
 10
158.272848
 20
173.783678
 30
0.0
 10
157.988236
 20
174.210607
 30
0.0
  0
LWPOLYLINE
  5
195
100
AcDbEntity
  8
PCB
 62
7
100
AcDbPolyline
 90
2
 70
0
 10
161.502233
 20
176.266295
 30
0.0
 10
159.242941
 20
174.076765
 30
0.0
  0
SPLINE
  5
196
100
AcDbEntity
  8
PCB
 62
7
100
AcDbSpline
 70
8
 71
3
 72
8
 73
4
 74
0
 40
0
 40
0
 40
0
 40
0
 40
1
 40
1
 40
1
 40
1
 10
157.566041
 20
174.843644
 30
0.0
 10
157.439371
 20
175.033665
 30
0.0
 10
157.372254
 20
175.256579
 30
0.0
 10
157.372254
 20
175.484949
 30
0.0
  0
LWPOLYLINE
  5
197
100
AcDbEntity
  8
PCB
 62
7
100
AcDbPolyline
 90
2
 70
0
 10
157.988236
 20
174.210607
 30
0.0
 10
157.566041
 20
174.843644
 30
0.0
  0
SPLINE
  5
198
100
AcDbEntity
  8
PCB
 62
7
100
AcDbSpline
 70
8
 71
3
 72
8
 73
4
 74
0
 40
0
 40
0
 40
0
 40
0
 40
1
 40
1
 40
1
 40
1
 10
157.372254
 20
181.879391
 30
0.0
 10
157.372254
 20
182.576841
 30
0.0
 10
157.937259
 20
183.142361
 30
0.0
 10
158.634708
 20
183.142364
 30
0.0
  0
LWPOLYLINE
  5
199
100
AcDbEntity
  8
PCB
 62
7
100
AcDbPolyline
 90
2
 70
0
 10
157.372254
 20
175.484949
 30
0.0
 10
157.372254
 20
181.879391
 30
0.0
  0
SPLINE
  5
19a
100
AcDbEntity
  8
PCB
 62
7
100
AcDbSpline
 70
8
 71
3
 72
8
 73
4
 74
0
 40
0
 40
0
 40
0
 40
0
 40
1
 40
1
 40
1
 40
1
 10
159.141139
 20
183.142364
 30
0.0
 10
159.236339
 20
183.142364
 30
0.0
 10
159.316868
 20
183.212412
 30
0.0
 10
159.329758
 20
183.306694
 30
0.0
  0
LWPOLYLINE
  5
19b
100
AcDbEntity
  8
PCB
 62
7
100
AcDbPolyline
 90
2
 70
0
 10
158.634708
 20
183.142364
 30
0.0
 10
159.141139
 20
183.142364
 30
0.0
  0
SPLINE
  5
19c
100
AcDbEntity
  8
PCB
 62
7
100
AcDbSpline
 70
8
 71
3
 72
8
 73
4
 74
0
 40
0
 40
0
 40
0
 40
0
 40
1
 40
1
 40
1
 40
1
 10
156.923185
 20
186.415032
 30
0.0
 10
156.711635
 20
186.456905
 30
0.0
 10
156.496502
 20
186.478021
 30
0.0
 10
156.280848
 20
186.478077
 30
0.0
  0
LWPOLYLINE
  5
19d
100
AcDbEntity
  8
PCB
 62
7
100
AcDbPolyline
 90
3
 70
0
 10
159.329758
 20
183.306694
 30
0.0
 10
159.680122
 20
185.869845
 30
0.0
 10
156.923185
 20
186.415032
 30
0.0
  0
SPLINE
  5
19e
100
AcDbEntity
  8
PCB
 62
7
100
AcDbSpline
 70
8
 71
3
 72
8
 73
4
 74
0
 40
0
 40
0
 40
0
 40
0
 40
1
 40
1
 40
1
 40
1
 10
53.974999
 20
176.464722
 30
0.0
 10
55.481233
 20
176.464722
 30
0.0
 10
56.702486
 20
175.243472
 30
0.0
 10
56.702480
 20
173.737241
 30
0.0
  0
SPLINE
  5
19f
100
AcDbEntity
  8
PCB
 62
7
100
AcDbSpline
 70
8
 71
3
 72
8
 73
4
 74
0
 40
0
 40
0
 40
0
 40
0
 40
1
 40
1
 40
1
 40
1
 10
56.702480
 20
173.737241
 30
0.0
 10
56.702480
 20
172.231011
 30
0.0
 10
55.481230
 20
171.009760
 30
0.0
 10
53.974999
 20
171.009760
 30
0.0
  0
SPLINE
  5
1a0
100
AcDbEntity
  8
PCB
 62
7
100
AcDbSpline
 70
8
 71
3
 72
8
 73
4
 74
0
 40
0
 40
0
 40
0
 40
0
 40
1
 40
1
 40
1
 40
1
 10
53.974999
 20
171.009760
 30
0.0
 10
52.468769
 20
171.009760
 30
0.0
 10
51.247518
 20
172.231011
 30
0.0
 10
51.247518
 20
173.737241
 30
0.0
  0
SPLINE
  5
1a1
100
AcDbEntity
  8
PCB
 62
7
100
AcDbSpline
 70
8
 71
3
 72
8
 73
4
 74
0
 40
0
 40
0
 40
0
 40
0
 40
1
 40
1
 40
1
 40
1
 10
51.247518
 20
173.737241
 30
0.0
 10
51.247513
 20
175.243472
 30
0.0
 10
52.468766
 20
176.464722
 30
0.0
 10
53.974999
 20
176.464722
 30
0.0
  0
LWPOLYLINE
  5
1a2
100
AcDbEntity
  8
PCB
 62
7
100
AcDbPolyline
 90
2
 70
0
 10
156.280848
 20
186.478077
 30
0.0
 10
155.499034
 20
186.478066
 30
0.0
  0
SPLINE
  5
1a3
100
AcDbEntity
  8
PCB
 62
7
100
AcDbSpline
 70
8
 71
3
 72
8
 73
4
 74
0
 40
0
 40
0
 40
0
 40
0
 40
1
 40
1
 40
1
 40
1
 10
155.260805
 20
173.854031
 30
0.0
 10
156.330016
 20
173.854031
 30
0.0
 10
157.196605
 20
172.987441
 30
0.0
 10
157.196605
 20
171.918231
 30
0.0
  0
SPLINE
  5
1a4
100
AcDbEntity
  8
PCB
 62
7
100
AcDbSpline
 70
8
 71
3
 72
8
 73
4
 74
0
 40
0
 40
0
 40
0
 40
0
 40
1
 40
1
 40
1
 40
1
 10
157.196605
 20
171.918231
 30
0.0
 10
157.196605
 20
170.849020
 30
0.0
 10
156.330016
 20
169.982431
 30
0.0
 10
155.260805
 20
169.982431
 30
0.0
  0
SPLINE
  5
1a5
100
AcDbEntity
  8
PCB
 62
7
100
AcDbSpline
 70
8
 71
3
 72
8
 73
4
 74
0
 40
0
 40
0
 40
0
 40
0
 40
1
 40
1
 40
1
 40
1
 10
155.260805
 20
169.982431
 30
0.0
 10
154.191595
 20
169.982431
 30
0.0
 10
153.325005
 20
170.849020
 30
0.0
 10
153.325005
 20
171.918231
 30
0.0
  0
SPLINE
  5
1a6
100
AcDbEntity
  8
PCB
 62
7
100
AcDbSpline
 70
8
 71
3
 72
8
 73
4
 74
0
 40
0
 40
0
 40
0
 40
0
 40
1
 40
1
 40
1
 40
1
 10
153.325005
 20
171.918231
 30
0.0
 10
153.325005
 20
172.987441
 30
0.0
 10
154.191595
 20
173.854031
 30
0.0
 10
155.260805
 20
173.854031
 30
0.0
  0
LWPOLYLINE
  5
1a7
100
AcDbEntity
  8
PCB
 62
7
100
AcDbPolyline
 90
1
 70
1
 10
53.974999
 20
176.464722
 30
0.0
  0
SPLINE
  5
1a8
100
AcDbEntity
  8
PCB
 62
7
100
AcDbSpline
 70
8
 71
3
 72
8
 73
4
 74
0
 40
0
 40
0
 40
0
 40
0
 40
1
 40
1
 40
1
 40
1
 10
165.444679
 20
171.103293
 30
0.0
 10
167.228370
 20
171.103293
 30
0.0
 10
168.674458
 20
169.657207
 30
0.0
 10
168.674458
 20
167.873516
 30
0.0
  0
SPLINE
  5
1a9
100
AcDbEntity
  8
PCB
 62
7
100
AcDbSpline
 70
8
 71
3
 72
8
 73
4
 74
0
 40
0
 40
0
 40
0
 40
0
 40
1
 40
1
 40
1
 40
1
 10
168.674458
 20
167.873516
 30
0.0
 10
168.674458
 20
166.089828
 30
0.0
 10
167.228370
 20
164.644256
 30
0.0
 10
165.444679
 20
164.644256
 30
0.0
  0
SPLINE
  5
1aa
100
AcDbEntity
  8
PCB
 62
7
100
AcDbSpline
 70
8
 71
3
 72
8
 73
4
 74
0
 40
0
 40
0
 40
0
 40
0
 40
1
 40
1
 40
1
 40
1
 10
165.444679
 20
164.644256
 30
0.0
 10
163.660990
 20
164.644256
 30
0.0
 10
162.215420
 20
166.089828
 30
0.0
 10
162.215420
 20
167.873516
 30
0.0
  0
SPLINE
  5
1ab
100
AcDbEntity
  8
PCB
 62
7
100
AcDbSpline
 70
8
 71
3
 72
8
 73
4
 74
0
 40
0
 40
0
 40
0
 40
0
 40
1
 40
1
 40
1
 40
1
 10
162.215420
 20
167.873516
 30
0.0
 10
162.215420
 20
169.657207
 30
0.0
 10
163.660990
 20
171.103293
 30
0.0
 10
165.444679
 20
171.103293
 30
0.0
  0
LWPOLYLINE
  5
1ac
100
AcDbEntity
  8
PCB
 62
7
100
AcDbPolyline
 90
1
 70
1
 10
155.260805
 20
173.854031
 30
0.0
  0
SPLINE
  5
1ad
100
AcDbEntity
  8
PCB
 62
7
100
AcDbSpline
 70
8
 71
3
 72
8
 73
4
 74
0
 40
0
 40
0
 40
0
 40
0
 40
1
 40
1
 40
1
 40
1
 10
46.060238
 20
168.521023
 30
0.0
 10
47.566468
 20
168.521023
 30
0.0
 10
48.787200
 20
167.299770
 30
0.0
 10
48.787203
 20
165.793539
 30
0.0
  0
SPLINE
  5
1ae
100
AcDbEntity
  8
PCB
 62
7
100
AcDbSpline
 70
8
 71
3
 72
8
 73
4
 74
0
 40
0
 40
0
 40
0
 40
0
 40
1
 40
1
 40
1
 40
1
 10
48.787203
 20
165.793539
 30
0.0
 10
48.787200
 20
164.287309
 30
0.0
 10
47.566468
 20
163.066574
 30
0.0
 10
46.060238
 20
163.066574
 30
0.0
  0
SPLINE
  5
1af
100
AcDbEntity
  8
PCB
 62
7
100
AcDbSpline
 70
8
 71
3
 72
8
 73
4
 74
0
 40
0
 40
0
 40
0
 40
0
 40
1
 40
1
 40
1
 40
1
 10
46.060238
 20
163.066574
 30
0.0
 10
44.554007
 20
163.066574
 30
0.0
 10
43.332757
 20
164.287309
 30
0.0
 10
43.332754
 20
165.793539
 30
0.0
  0
SPLINE
  5
1b0
100
AcDbEntity
  8
PCB
 62
7
100
AcDbSpline
 70
8
 71
3
 72
8
 73
4
 74
0
 40
0
 40
0
 40
0
 40
0
 40
1
 40
1
 40
1
 40
1
 10
43.332754
 20
165.793539
 30
0.0
 10
43.332757
 20
167.299770
 30
0.0
 10
44.554007
 20
168.521023
 30
0.0
 10
46.060238
 20
168.521023
 30
0.0
  0
LWPOLYLINE
  5
1b1
100
AcDbEntity
  8
PCB
 62
7
100
AcDbPolyline
 90
1
 70
1
 10
165.444679
 20
171.103293
 30
0.0
  0
SPLINE
  5
1b2
100
AcDbEntity
  8
PCB
 62
7
100
AcDbSpline
 70
8
 71
3
 72
8
 73
4
 74
0
 40
0
 40
0
 40
0
 40
0
 40
1
 40
1
 40
1
 40
1
 10
61.879426
 20
168.521023
 30
0.0
 10
63.385657
 20
168.521023
 30
0.0
 10
64.606907
 20
167.299770
 30
0.0
 10
64.606907
 20
165.793539
 30
0.0
  0
SPLINE
  5
1b3
100
AcDbEntity
  8
PCB
 62
7
100
AcDbSpline
 70
8
 71
3
 72
8
 73
4
 74
0
 40
0
 40
0
 40
0
 40
0
 40
1
 40
1
 40
1
 40
1
 10
64.606907
 20
165.793539
 30
0.0
 10
64.606907
 20
164.287309
 30
0.0
 10
63.385657
 20
163.066574
 30
0.0
 10
61.879426
 20
163.066574
 30
0.0
  0
SPLINE
  5
1b4
100
AcDbEntity
  8
PCB
 62
7
100
AcDbSpline
 70
8
 71
3
 72
8
 73
4
 74
0
 40
0
 40
0
 40
0
 40
0
 40
1
 40
1
 40
1
 40
1
 10
61.879426
 20
163.066574
 30
0.0
 10
60.373196
 20
163.066574
 30
0.0
 10
59.151945
 20
164.287309
 30
0.0
 10
59.151945
 20
165.793539
 30
0.0
  0
SPLINE
  5
1b5
100
AcDbEntity
  8
PCB
 62
7
100
AcDbSpline
 70
8
 71
3
 72
8
 73
4
 74
0
 40
0
 40
0
 40
0
 40
0
 40
1
 40
1
 40
1
 40
1
 10
59.151945
 20
165.793539
 30
0.0
 10
59.151945
 20
167.299770
 30
0.0
 10
60.373196
 20
168.521023
 30
0.0
 10
61.879426
 20
168.521023
 30
0.0
  0
LWPOLYLINE
  5
1b6
100
AcDbEntity
  8
PCB
 62
7
100
AcDbPolyline
 90
1
 70
1
 10
46.060238
 20
168.521023
 30
0.0
  0
SPLINE
  5
1b7
100
AcDbEntity
  8
PCB
 62
7
100
AcDbSpline
 70
8
 71
3
 72
8
 73
4
 74
0
 40
0
 40
0
 40
0
 40
0
 40
1
 40
1
 40
1
 40
1
 10
152.317832
 20
166.697361
 30
0.0
 10
154.101523
 20
166.697361
 30
0.0
 10
155.547608
 20
165.251273
 30
0.0
 10
155.547608
 20
163.467585
 30
0.0
  0
SPLINE
  5
1b8
100
AcDbEntity
  8
PCB
 62
7
100
AcDbSpline
 70
8
 71
3
 72
8
 73
4
 74
0
 40
0
 40
0
 40
0
 40
0
 40
1
 40
1
 40
1
 40
1
 10
155.547608
 20
163.467585
 30
0.0
 10
155.547608
 20
161.683894
 30
0.0
 10
154.101523
 20
160.237808
 30
0.0
 10
152.317832
 20
160.237808
 30
0.0
  0
SPLINE
  5
1b9
100
AcDbEntity
  8
PCB
 62
7
100
AcDbSpline
 70
8
 71
3
 72
8
 73
4
 74
0
 40
0
 40
0
 40
0
 40
0
 40
1
 40
1
 40
1
 40
1
 10
152.317832
 20
160.237808
 30
0.0
 10
150.534143
 20
160.237808
 30
0.0
 10
149.088055
 20
161.683894
 30
0.0
 10
149.088055
 20
163.467585
 30
0.0
  0
SPLINE
  5
1ba
100
AcDbEntity
  8
PCB
 62
7
100
AcDbSpline
 70
8
 71
3
 72
8
 73
4
 74
0
 40
0
 40
0
 40
0
 40
0
 40
1
 40
1
 40
1
 40
1
 10
149.088055
 20
163.467585
 30
0.0
 10
149.088055
 20
165.251273
 30
0.0
 10
150.534143
 20
166.697361
 30
0.0
 10
152.317832
 20
166.697361
 30
0.0
  0
LWPOLYLINE
  5
1bb
100
AcDbEntity
  8
PCB
 62
7
100
AcDbPolyline
 90
1
 70
1
 10
61.879426
 20
168.521023
 30
0.0
  0
SPLINE
  5
1bc
100
AcDbEntity
  8
PCB
 62
7
100
AcDbSpline
 70
8
 71
3
 72
8
 73
4
 74
0
 40
0
 40
0
 40
0
 40
0
 40
1
 40
1
 40
1
 40
1
 10
160.370571
 20
162.558595
 30
0.0
 10
161.110330
 20
162.558595
 30
0.0
 10
161.710024
 20
161.958901
 30
0.0
 10
161.710024
 20
161.219142
 30
0.0
  0
SPLINE
  5
1bd
100
AcDbEntity
  8
PCB
 62
7
100
AcDbSpline
 70
8
 71
3
 72
8
 73
4
 74
0
 40
0
 40
0
 40
0
 40
0
 40
1
 40
1
 40
1
 40
1
 10
161.710024
 20
161.219142
 30
0.0
 10
161.710024
 20
160.479383
 30
0.0
 10
161.110330
 20
159.879689
 30
0.0
 10
160.370571
 20
159.879689
 30
0.0
  0
SPLINE
  5
1be
100
AcDbEntity
  8
PCB
 62
7
100
AcDbSpline
 70
8
 71
3
 72
8
 73
4
 74
0
 40
0
 40
0
 40
0
 40
0
 40
1
 40
1
 40
1
 40
1
 10
160.370571
 20
159.879689
 30
0.0
 10
159.630812
 20
159.879689
 30
0.0
 10
159.031118
 20
160.479383
 30
0.0
 10
159.031118
 20
161.219142
 30
0.0
  0
SPLINE
  5
1bf
100
AcDbEntity
  8
PCB
 62
7
100
AcDbSpline
 70
8
 71
3
 72
8
 73
4
 74
0
 40
0
 40
0
 40
0
 40
0
 40
1
 40
1
 40
1
 40
1
 10
159.031118
 20
161.219142
 30
0.0
 10
159.031118
 20
161.958901
 30
0.0
 10
159.630812
 20
162.558595
 30
0.0
 10
160.370571
 20
162.558595
 30
0.0
  0
LWPOLYLINE
  5
1c0
100
AcDbEntity
  8
PCB
 62
7
100
AcDbPolyline
 90
1
 70
1
 10
152.317832
 20
166.697361
 30
0.0
  0
SPLINE
  5
1c1
100
AcDbEntity
  8
PCB
 62
7
100
AcDbSpline
 70
8
 71
3
 72
8
 73
4
 74
0
 40
0
 40
0
 40
0
 40
0
 40
1
 40
1
 40
1
 40
1
 10
53.974999
 20
160.622795
 30
0.0
 10
55.481230
 20
160.622795
 30
0.0
 10
56.702480
 20
159.401545
 30
0.0
 10
56.702480
 20
157.895314
 30
0.0
  0
SPLINE
  5
1c2
100
AcDbEntity
  8
PCB
 62
7
100
AcDbSpline
 70
8
 71
3
 72
8
 73
4
 74
0
 40
0
 40
0
 40
0
 40
0
 40
1
 40
1
 40
1
 40
1
 10
56.702480
 20
157.895314
 30
0.0
 10
56.702480
 20
156.389084
 30
0.0
 10
55.481230
 20
155.167833
 30
0.0
 10
53.974999
 20
155.167833
 30
0.0
  0
SPLINE
  5
1c3
100
AcDbEntity
  8
PCB
 62
7
100
AcDbSpline
 70
8
 71
3
 72
8
 73
4
 74
0
 40
0
 40
0
 40
0
 40
0
 40
1
 40
1
 40
1
 40
1
 10
53.974999
 20
155.167833
 30
0.0
 10
52.468769
 20
155.167833
 30
0.0
 10
51.247518
 20
156.389084
 30
0.0
 10
51.247518
 20
157.895314
 30
0.0
  0
SPLINE
  5
1c4
100
AcDbEntity
  8
PCB
 62
7
100
AcDbSpline
 70
8
 71
3
 72
8
 73
4
 74
0
 40
0
 40
0
 40
0
 40
0
 40
1
 40
1
 40
1
 40
1
 10
51.247518
 20
157.895314
 30
0.0
 10
51.247518
 20
159.401545
 30
0.0
 10
52.468769
 20
160.622795
 30
0.0
 10
53.974999
 20
160.622795
 30
0.0
  0
LWPOLYLINE
  5
1c5
100
AcDbEntity
  8
PCB
 62
7
100
AcDbPolyline
 90
1
 70
1
 10
160.370571
 20
162.558595
 30
0.0
  0
SPLINE
  5
1c6
100
AcDbEntity
  8
PCB
 62
7
100
AcDbSpline
 70
8
 71
3
 72
8
 73
4
 74
0
 40
0
 40
0
 40
0
 40
0
 40
1
 40
1
 40
1
 40
1
 10
53.109936
 20
152.567474
 30
0.0
 10
53.820305
 20
152.567474
 30
0.0
 10
54.396166
 20
151.991619
 30
0.0
 10
54.396163
 20
151.281247
 30
0.0
  0
SPLINE
  5
1c7
100
AcDbEntity
  8
PCB
 62
7
100
AcDbSpline
 70
8
 71
3
 72
8
 73
4
 74
0
 40
0
 40
0
 40
0
 40
0
 40
1
 40
1
 40
1
 40
1
 10
54.396163
 20
151.281247
 30
0.0
 10
54.396160
 20
150.570878
 30
0.0
 10
53.820303
 20
149.995020
 30
0.0
 10
53.109936
 20
149.995020
 30
0.0
  0
SPLINE
  5
1c8
100
AcDbEntity
  8
PCB
 62
7
100
AcDbSpline
 70
8
 71
3
 72
8
 73
4
 74
0
 40
0
 40
0
 40
0
 40
0
 40
1
 40
1
 40
1
 40
1
 10
53.109936
 20
149.995020
 30
0.0
 10
52.399570
 20
149.995020
 30
0.0
 10
51.823712
 20
150.570878
 30
0.0
 10
51.823709
 20
151.281247
 30
0.0
  0
SPLINE
  5
1c9
100
AcDbEntity
  8
PCB
 62
7
100
AcDbSpline
 70
8
 71
3
 72
8
 73
4
 74
0
 40
0
 40
0
 40
0
 40
0
 40
1
 40
1
 40
1
 40
1
 10
51.823709
 20
151.281247
 30
0.0
 10
51.823707
 20
151.991619
 30
0.0
 10
52.399567
 20
152.567474
 30
0.0
 10
53.109936
 20
152.567474
 30
0.0
  0
LWPOLYLINE
  5
1ca
100
AcDbEntity
  8
PCB
 62
7
100
AcDbPolyline
 90
1
 70
1
 10
53.974999
 20
160.622795
 30
0.0
  0
SPLINE
  5
1cb
100
AcDbEntity
  8
PCB
 62
7
100
AcDbSpline
 70
8
 71
3
 72
8
 73
4
 74
0
 40
0
 40
0
 40
0
 40
0
 40
1
 40
1
 40
1
 40
1
 10
63.657096
 20
148.122268
 30
0.0
 10
64.884820
 20
148.122268
 30
0.0
 10
65.879696
 20
147.126868
 30
0.0
 10
65.879699
 20
145.899148
 30
0.0
  0
SPLINE
  5
1cc
100
AcDbEntity
  8
PCB
 62
7
100
AcDbSpline
 70
8
 71
3
 72
8
 73
4
 74
0
 40
0
 40
0
 40
0
 40
0
 40
1
 40
1
 40
1
 40
1
 10
65.879699
 20
145.899148
 30
0.0
 10
65.879701
 20
144.671418
 30
0.0
 10
64.884823
 20
143.676027
 30
0.0
 10
63.657096
 20
143.676027
 30
0.0
  0
SPLINE
  5
1cd
100
AcDbEntity
  8
PCB
 62
7
100
AcDbSpline
 70
8
 71
3
 72
8
 73
4
 74
0
 40
0
 40
0
 40
0
 40
0
 40
1
 40
1
 40
1
 40
1
 10
63.657096
 20
143.676027
 30
0.0
 10
62.429368
 20
143.676027
 30
0.0
 10
61.433974
 20
144.671418
 30
0.0
 10
61.433976
 20
145.899148
 30
0.0
  0
SPLINE
  5
1ce
100
AcDbEntity
  8
PCB
 62
7
100
AcDbSpline
 70
8
 71
3
 72
8
 73
4
 74
0
 40
0
 40
0
 40
0
 40
0
 40
1
 40
1
 40
1
 40
1
 10
61.433976
 20
145.899148
 30
0.0
 10
61.433979
 20
147.126868
 30
0.0
 10
62.429371
 20
148.122268
 30
0.0
 10
63.657096
 20
148.122268
 30
0.0
  0
LWPOLYLINE
  5
1cf
100
AcDbEntity
  8
PCB
 62
7
100
AcDbPolyline
 90
1
 70
1
 10
53.109936
 20
152.567474
 30
0.0
  0
SPLINE
  5
1d0
100
AcDbEntity
  8
PCB
 62
7
100
AcDbSpline
 70
8
 71
3
 72
8
 73
4
 74
0
 40
0
 40
0
 40
0
 40
0
 40
1
 40
1
 40
1
 40
1
 10
63.657096
 20
140.127406
 30
0.0
 10
64.884823
 20
140.127406
 30
0.0
 10
65.879701
 20
139.132017
 30
0.0
 10
65.879699
 20
137.904287
 30
0.0
  0
SPLINE
  5
1d1
100
AcDbEntity
  8
PCB
 62
7
100
AcDbSpline
 70
8
 71
3
 72
8
 73
4
 74
0
 40
0
 40
0
 40
0
 40
0
 40
1
 40
1
 40
1
 40
1
 10
65.879699
 20
137.904287
 30
0.0
 10
65.879696
 20
136.676567
 30
0.0
 10
64.884820
 20
135.681684
 30
0.0
 10
63.657096
 20
135.681684
 30
0.0
  0
SPLINE
  5
1d2
100
AcDbEntity
  8
PCB
 62
7
100
AcDbSpline
 70
8
 71
3
 72
8
 73
4
 74
0
 40
0
 40
0
 40
0
 40
0
 40
1
 40
1
 40
1
 40
1
 10
63.657096
 20
135.681684
 30
0.0
 10
62.429371
 20
135.681684
 30
0.0
 10
61.433979
 20
136.676567
 30
0.0
 10
61.433976
 20
137.904287
 30
0.0
  0
SPLINE
  5
1d3
100
AcDbEntity
  8
PCB
 62
7
100
AcDbSpline
 70
8
 71
3
 72
8
 73
4
 74
0
 40
0
 40
0
 40
0
 40
0
 40
1
 40
1
 40
1
 40
1
 10
61.433976
 20
137.904287
 30
0.0
 10
61.433974
 20
139.132017
 30
0.0
 10
62.429368
 20
140.127406
 30
0.0
 10
63.657096
 20
140.127406
 30
0.0
  0
LWPOLYLINE
  5
1d4
100
AcDbEntity
  8
PCB
 62
7
100
AcDbPolyline
 90
1
 70
1
 10
63.657096
 20
148.122268
 30
0.0
  0
SPLINE
  5
1d5
100
AcDbEntity
  8
PCB
 62
7
100
AcDbSpline
 70
8
 71
3
 72
8
 73
4
 74
0
 40
0
 40
0
 40
0
 40
0
 40
1
 40
1
 40
1
 40
1
 10
63.867418
 20
135.238300
 30
0.0
 10
64.241973
 20
135.238300
 30
0.0
 10
64.545410
 20
134.934855
 30
0.0
 10
64.545413
 20
134.560305
 30
0.0
  0
SPLINE
  5
1d6
100
AcDbEntity
  8
PCB
 62
7
100
AcDbSpline
 70
8
 71
3
 72
8
 73
4
 74
0
 40
0
 40
0
 40
0
 40
0
 40
1
 40
1
 40
1
 40
1
 10
64.545413
 20
134.560305
 30
0.0
 10
64.545416
 20
134.185745
 30
0.0
 10
64.241978
 20
133.882311
 30
0.0
 10
63.867418
 20
133.882311
 30
0.0
  0
SPLINE
  5
1d7
100
AcDbEntity
  8
PCB
 62
7
100
AcDbSpline
 70
8
 71
3
 72
8
 73
4
 74
0
 40
0
 40
0
 40
0
 40
0
 40
1
 40
1
 40
1
 40
1
 10
63.867418
 20
133.882311
 30
0.0
 10
63.492861
 20
133.882311
 30
0.0
 10
63.189421
 20
134.185745
 30
0.0
 10
63.189423
 20
134.560305
 30
0.0
  0
SPLINE
  5
1d8
100
AcDbEntity
  8
PCB
 62
7
100
AcDbSpline
 70
8
 71
3
 72
8
 73
4
 74
0
 40
0
 40
0
 40
0
 40
0
 40
1
 40
1
 40
1
 40
1
 10
63.189423
 20
134.560305
 30
0.0
 10
63.189429
 20
134.934865
 30
0.0
 10
63.492863
 20
135.238300
 30
0.0
 10
63.867418
 20
135.238300
 30
0.0
  0
LWPOLYLINE
  5
1d9
100
AcDbEntity
  8
PCB
 62
7
100
AcDbPolyline
 90
1
 70
1
 10
63.657096
 20
140.127406
 30
0.0
  0
LWPOLYLINE
  5
1da
100
AcDbEntity
  8
PCB
 62
7
100
AcDbPolyline
 90
1
 70
1
 10
63.867418
 20
135.238300
 30
0.0
  0
ENDSEC
  0
SECTION
  2
OBJECTS
  0
DICTIONARY
  5
C
330
0
100
AcDbDictionary
  3
ACAD_GROUP
350
D
  3
ACAD_MLINESTYLE
350
17
  0
DICTIONARY
  5
D
330
C
100
AcDbDictionary
  0
DICTIONARY
  5
1A
330
C
100
AcDbDictionary
  0
DICTIONARY
  5
17
330
C
100
AcDbDictionary
  3
STANDARD
350
18
  0
DICTIONARY
  5
19
330
C
100
AcDbDictionary
  0
ENDSEC
  0
EOF
