<?xml version="1.0" encoding="UTF-8" standalone="no"?>
<!-- Created with Inkscape (http://www.inkscape.org/) -->

<svg
   width="210mm"
   height="297mm"
   viewBox="0 0 210 297"
   version="1.1"
   id="svg5"
   inkscape:version="1.1.1 (3bf5ae0d25, 2021-09-20)"
   sodipodi:docname="GBA LED Board Shape.svg"
   xmlns:inkscape="http://www.inkscape.org/namespaces/inkscape"
   xmlns:sodipodi="http://sodipodi.sourceforge.net/DTD/sodipodi-0.dtd"
   xmlns:xlink="http://www.w3.org/1999/xlink"
   xmlns="http://www.w3.org/2000/svg"
   xmlns:svg="http://www.w3.org/2000/svg">
  <sodipodi:namedview
     id="namedview7"
     pagecolor="#ffffff"
     bordercolor="#666666"
     borderopacity="1.0"
     inkscape:pageshadow="2"
     inkscape:pageopacity="0.0"
     inkscape:pagecheckerboard="0"
     inkscape:document-units="mm"
     showgrid="false"
     inkscape:zoom="2.8284271"
     inkscape:cx="407.47028"
     inkscape:cy="526.61777"
     inkscape:window-width="3440"
     inkscape:window-height="1377"
     inkscape:window-x="-8"
     inkscape:window-y="-8"
     inkscape:window-maximized="1"
     inkscape:current-layer="layer2" />
  <defs
     id="defs2">
    <inkscape:path-effect
       effect="fillet_chamfer"
       id="path-effect3931"
       is_visible="true"
       lpeversion="1"
       satellites_param="F,0,0,1,0,0,0,1 @ F,0,0,1,0,0,0,1 @ F,0,0,1,0,0,0,1 @ F,0,0,1,0,0,0,1 | F,0,0,1,0,0,0,1 @ F,0,0,1,0,0,0,1 @ F,0,0,1,0,0,0,1 @ F,0,0,1,0,0,0,1 | F,0,0,1,0,0,0,1 @ F,0,0,1,0,0,0,1 @ F,0,0,1,0,0,0,1 @ F,0,0,1,0,0,0,1 | F,0,0,1,0,0,0,1 @ F,0,0,1,0,0,0,1 @ F,0,0,1,0,0,0,1 @ F,0,0,1,0,0,0,1 | F,0,0,1,0,0,0,1 @ F,0,0,1,0,0,0,1 @ F,0,0,1,0,0,0,1 @ F,0,0,1,0,0,0,1 @ F,0,0,1,0,0,0,1 @ F,0,0,1,0,0,0,1 @ F,0,0,1,0,0,0,1 @ F,0,0,1,0,0,0,1 @ F,0,0,1,0,0,0,1 @ F,0,0,1,0,0,0,1 @ F,0,0,1,0,0,0,1 @ F,0,0,1,0,0,0,1 @ F,0,0,1,0,0,0,1 @ F,0,0,1,0,0,0,1 @ F,0,0,1,0,0,0,1 @ F,0,0,1,0,0,0,1 @ F,0,0,1,0,0,0,1 @ F,0,0,1,0,0,0,1 @ F,0,0,1,0,0,0,1 @ F,0,0,1,0,0,0,1 @ F,0,0,1,0,0,0,1 @ F,0,0,1,0,0,0,1 @ F,0,0,1,0,0,0,1 @ F,0,0,1,0,0,0,1 @ F,0,0,1,0,0,0,1 @ F,0,0,1,0,0,0,1 @ F,0,0,1,0,0,0,1 @ F,0,0,1,0,0,0,1 @ F,0,0,1,0,0,0,1 @ F,0,0,1,0,0,0,1 @ F,0,0,1,0,0,0,1 @ F,0,0,1,0,0,0,1 @ F,0,0,1,0,0,0,1 @ F,0,0,1,0,0,0,1 @ F,0,0,1,0,0,0,1 @ F,0,0,1,0,0,0,1 @ F,0,0,1,0,0,0,1 @ F,0,0,1,0,0,0,1 @ F,0,0,1,0,0,0,1 @ F,0,0,1,0,0,0,1 @ F,0,0,1,0,0,0,1 @ F,0,0,1,0,0,0,1 @ F,0,0,1,0,0,0,1 @ F,0,0,1,0,0,0,1 @ F,0,0,1,0,0,0,1 @ F,0,0,1,0,0,0,1 @ F,0,0,1,0,0,0,1 @ F,0,0,1,0,0,0,1 @ F,0,0,1,0,0,0,1 @ F,0,0,1,0,0,0,1 @ F,0,0,1,0,0,0,1 @ F,0,0,1,0,0,0,1 @ F,0,0,1,0,0,0,1 @ F,0,0,1,0,0,0,1 @ F,0,0,1,0,0,0,1 @ F,0,0,1,0,0,0,1 @ F,0,0,1,0,0,0,1 @ F,0,0,1,0,0,0,1 @ F,0,0,1,0,0,0,1 @ F,0,0,1,0,0,0,1 @ F,0,0,1,0,0,0,1 @ F,0,0,1,0,0,0,1 @ F,0,0,1,0,0,0,1 @ F,0,0,1,0,0,0,1 @ F,0,0,1,0,0,0,1 @ F,0,0,1,0,0,0,1 @ F,0,0,1,0,0,0,1 @ F,0,0,1,0,0,0,1 @ F,0,0,1,0,0,0,1 @ F,0,0,1,0,0,0,1 @ F,0,0,1,0,0,0,1 @ F,0,0,1,0,0,0,1 @ F,0,0,1,0,0,0,1 @ F,0,0,1,0,0,0,1 @ F,0,0,1,0,0,0,1 @ F,0,0,1,0,0,0,1 @ F,0,0,1,0,0,0,1 @ F,0,0,1,0,0,0,1 @ F,0,0,1,0,0,0,1 @ F,0,0,1,0,0,0,1 @ F,0,0,1,0,0.32422174,0,1 @ F,0,0,1,0,0,0,1 @ F,0,0,1,0,0,0,1"
       unit="px"
       method="auto"
       mode="F"
       radius="0"
       chamfer_steps="1"
       flexible="false"
       use_knot_distance="true"
       apply_no_radius="true"
       apply_with_radius="true"
       only_selected="false"
       hide_knots="false" />
    <inkscape:path-effect
       effect="fillet_chamfer"
       id="path-effect3815"
       is_visible="true"
       lpeversion="1"
       satellites_param="F,0,0,1,0,0,0,1 @ F,0,0,1,0,0,0,1 @ F,0,0,1,0,0,0,1 @ F,0,0,1,0,0,0,1 | F,0,0,1,0,0,0,1 @ F,0,0,1,0,0,0,1 @ F,0,0,1,0,0,0,1 @ F,0,0,1,0,0,0,1 | F,0,0,1,0,0,0,1 @ F,0,0,1,0,0,0,1 @ F,0,0,1,0,0,0,1 @ F,0,0,1,0,0,0,1 | F,0,0,1,0,0,0,1 @ F,0,0,1,0,0,0,1 @ F,0,0,1,0,0,0,1 @ F,0,0,1,0,0,0,1 | F,0,0,1,0,0,0,1 @ F,0,0,1,0,0,0,1 @ F,0,0,1,0,0,0,1 @ F,0,0,1,0,0,0,1 @ F,0,0,1,0,0,0,1 @ F,0,0,1,0,0,0,1 @ F,0,0,1,0,0,0,1 @ F,0,0,1,0,0,0,1 @ F,0,0,1,0,0,0,1 @ F,0,0,1,0,0,0,1 @ F,0,0,1,0,0,0,1 @ F,0,0,1,0,0,0,1 @ F,0,0,1,0,0,0,1 @ F,0,0,1,0,0,0,1 @ F,0,0,1,0,0,0,1 @ F,0,0,1,0,0,0,1 @ F,0,0,1,0,0,0,1 @ F,0,0,1,0,0,0,1 @ F,0,0,1,0,0,0,1 @ F,0,0,1,0,0,0,1 @ F,0,0,1,0,0,0,1 @ F,0,0,1,0,0,0,1 @ F,0,0,1,0,0,0,1 @ F,0,0,1,0,0,0,1 @ F,0,0,1,0,0,0,1 @ F,0,0,1,0,0,0,1 @ F,0,0,1,0,0,0,1 @ F,0,0,1,0,0,0,1 @ F,0,0,1,0,0,0,1 @ F,0,0,1,0,0,0,1 @ F,0,0,1,0,0,0,1 @ F,0,0,1,0,0,0,1 @ F,0,0,1,0,0,0,1 @ F,0,0,1,0,0,0,1 @ F,0,0,1,0,0,0,1 @ F,0,0,1,0,0,0,1 @ F,0,0,1,0,0,0,1 @ F,0,0,1,0,0,0,1 @ F,0,0,1,0,0,0,1 @ F,0,0,1,0,0,0,1 @ F,0,0,1,0,0,0,1 @ F,0,0,1,0,0,0,1 @ F,0,0,1,0,0,0,1 @ F,0,0,1,0,0,0,1 @ F,0,0,1,0,0,0,1 @ F,0,0,1,0,0,0,1 @ F,0,0,1,0,0,0,1 @ F,0,0,1,0,0,0,1 @ F,0,0,1,0,0,0,1 @ F,0,0,1,0,0,0,1 @ F,0,0,1,0,0,0,1 @ F,0,0,1,0,0,0,1 @ F,0,0,1,0,0,0,1 @ F,0,0,1,0,0,0,1 @ F,0,0,1,0,0,0,1 @ F,0,0,1,0,0,0,1 @ F,0,0,1,0,0,0,1 @ F,0,0,1,0,0,0,1 @ F,0,0,1,0,0,0,1 @ F,0,0,1,0,0,0,1 @ F,0,0,1,0,0,0,1 @ F,0,0,1,0,0,0,1 @ F,0,0,1,0,0,0,1 @ F,0,0,1,0,0,0,1 @ F,0,0,1,0,0,0,1 @ F,0,0,1,0,0,0,1 @ F,0,0,1,0,0,0,1 @ F,0,0,1,0,0,0,1 @ F,0,0,1,0,0,0,1 @ F,0,0,1,0,0,0,1 @ F,0,0,1,0,0,0,1 @ F,0,0,1,0,0,0,1 @ F,0,0,1,0,0,0,1 @ F,0,0,1,0,0,0,1 @ F,0,0,1,0,0,0,1 @ F,0,0,1,0,1.2628485,0,1 @ F,0,0,1,0,0.16610869,0,1 @ F,0,0,1,0,0,0,1 @ F,0,0,1,0,0,0,1 @ F,0,0,1,0,0,0,1 @ F,0,0,1,0,0,0,1"
       unit="px"
       method="auto"
       mode="F"
       radius="0"
       chamfer_steps="1"
       flexible="false"
       use_knot_distance="true"
       apply_no_radius="true"
       apply_with_radius="true"
       only_selected="false"
       hide_knots="false" />
    <inkscape:path-effect
       effect="fillet_chamfer"
       id="path-effect2008"
       is_visible="true"
       lpeversion="1"
       satellites_param="F,0,0,1,0,0,0,1 @ F,0,0,1,0,0,0,1 @ F,0,0,1,0,0,0,1 @ F,0,0,1,0,0,0,1 | F,0,0,1,0,0,0,1 @ F,0,0,1,0,0,0,1 @ F,0,0,1,0,0,0,1 @ F,0,0,1,0,0,0,1 | F,0,0,1,0,0,0,1 @ F,0,0,1,0,0,0,1 @ F,0,0,1,0,0,0,1 @ F,0,0,1,0,0,0,1 | F,0,0,1,0,0,0,1 @ F,0,0,1,0,0,0,1 @ F,0,0,1,0,0,0,1 @ F,0,0,1,0,0,0,1 | F,0,0,1,0,0,0,1 @ F,0,0,1,0,0,0,1 @ F,0,0,1,0,0,0,1 @ F,0,0,1,0,0.29652848,0,1 @ F,0,0,1,0,0.4974969,0,1 @ F,0,0,1,0,0.25766842,0,1 @ F,0,0,1,0,0.49110776,0,1 @ F,0,0,1,0,0,0,1 @ F,0,0,1,0,0,0,1 @ F,0,0,1,0,0.24804687,0,1 @ F,0,0,1,0,0.28938802,0,1 @ F,0,0,1,0,0,0,1 @ F,0,0,1,0,0,0,1 @ F,0,0,1,0,0,0,1 @ F,0,0,1,0,0,0,1 @ F,0,0,1,0,0,0,1 @ F,0,0,1,0,0,0,1 @ F,0,0,1,0,0,0,1 @ F,0,0,1,0,0,0,1 @ F,0,0,1,0,0,0,1 @ F,0,0,1,0,0,0,1 @ F,0,0,1,0,0,0,1 @ F,0,0,1,0,0,0,1 @ F,0,0,1,0,0,0,1 @ F,0,0,1,0,0,0,1 @ F,0,0,1,0,0.15200954,0,1 @ F,0,0,1,0,0,0,1 @ F,0,0,1,0,0,0,1 @ F,0,0,1,0,0,0,1 @ F,0,0,1,0,0,0,1 @ F,0,0,1,0,0.28277027,0,1 @ F,0,0,1,0,0,0,1 @ F,0,0,1,0,0,0,1 @ F,0,0,1,0,0,0,1 @ F,0,0,1,0,0,0,1 @ F,0,0,1,0,0,0,1 @ F,0,0,1,0,0,0,1 @ F,0,0,1,0,0.090919506,0,1 @ F,0,0,1,0,0.50309162,0,1 @ F,0,0,1,0,0,0,1 @ F,0,0,1,0,0,0,1 @ F,0,0,1,0,0,0,1 @ F,0,0,1,0,0,0,1 @ F,0,0,1,0,0,0,1 @ F,0,0,1,0,0,0,1 @ F,0,0,1,0,0.17539563,0,1 @ F,0,0,1,0,0.19878171,0,1 @ F,0,0,1,0,0.19468044,0,1 @ F,0,0,1,0,0,0,1 @ F,0,0,1,0,0,0,1 @ F,0,0,1,0,0,0,1 @ F,0,0,1,0,0,0,1 @ F,0,0,1,0,0,0,1 @ F,0,0,1,0,0,0,1 @ F,0,0,1,0,0.25052173,0,1 @ F,0,0,1,0,0.35833225,0,1 @ F,0,0,1,0,0.98612426,0,1 @ F,0,0,1,0,0.3502272,0,1 @ F,0,0,1,0,0,0,1 @ F,0,0,1,0,0,0,1 @ F,0,0,1,0,0,0,1 @ F,0,0,1,0,0,0,1 @ F,0,0,1,0,0,0,1 @ F,0,0,1,0,0,0,1 @ F,0,0,1,0,0,0,1 @ F,0,0,1,0,0,0,1"
       unit="px"
       method="auto"
       mode="F"
       radius="0"
       chamfer_steps="1"
       flexible="false"
       use_knot_distance="true"
       apply_no_radius="true"
       apply_with_radius="true"
       only_selected="false"
       hide_knots="false" />
    <inkscape:path-effect
       effect="fillet_chamfer"
       id="path-effect25098"
       is_visible="true"
       lpeversion="1"
       satellites_param="F,0,0,1,0,0,0,1 @ F,0,0,1,0,0,0,1 @ F,0,0,1,0,0,0,1 @ F,0,0,1,0,0,0,1 | F,0,0,1,0,0,0,1 @ F,0,0,1,0,0,0,1 @ F,0,0,1,0,0,0,1 @ F,0,0,1,0,0,0,1 | F,0,0,1,0,0.35556237,0,1 @ F,0,0,1,0,0.321558,0,1 @ F,0,0,1,0,0,0,1 @ F,0,0,1,0,0,0,1 @ F,0,0,1,0,0,0,1 @ F,0,0,1,0,0,0,1 @ F,0,0,1,0,0.27285156,0,1 @ F,0,0,1,0,0,0,1 @ F,0,0,1,0,0,0,1 @ F,0,0,1,0,0.11162109,0,1 @ F,0,0,1,0,0,0,1 @ F,0,0,1,0,0,0,1 @ F,0,0,1,0,0,0,1 @ F,0,0,1,0,0,0,1 @ F,0,0,1,0,0,0,1 @ F,0,0,1,0,0,0,1 @ F,0,0,1,0,0,0,1 @ F,0,0,1,0,0,0,1 @ F,0,0,1,0,0,0,1 @ F,0,0,1,0,0,0,1 @ F,0,0,1,0,0,0,1 @ F,0,0,1,0,0,0,1 @ F,0,0,1,0,0,0,1 @ F,0,0,1,0,0.42167969,0,1 @ F,0,0,1,0,0.44648437,0,1 @ F,0,0,1,0,0,0,1 @ F,0,0,1,0,0.43303402,0,1 @ F,0,0,1,0,0.40238879,0,1 @ F,0,0,1,0,0.073342253,0,1 @ F,0,0,1,0,0,0,1 @ F,0,0,1,0,0,0,1 @ F,0,0,1,0,0.13642578,0,1 @ F,0,0,1,0,0.37207031,0,1 @ F,0,0,1,0,0.23977865,0,1 @ F,0,0,1,0,0,0,1 @ F,0,0,1,0,0,0,1 @ F,0,0,1,0,0,0,1 @ F,0,0,1,0,0.32771313,0,1 @ F,0,0,1,0,0.43522236,0,1 @ F,0,0,1,0,0.17009219,0,1 @ F,0,0,1,0,0,0,1 @ F,0,0,1,0,0,0,1 @ F,0,0,1,0,0,0,1 @ F,0,0,1,0,0,0,1 @ F,0,0,1,0,0,0,1 @ F,0,0,1,0,1.2609049,0,1 @ F,0,0,1,0,0.19645385,0,1 @ F,0,0,1,0,0,0,1 @ F,0,0,1,0,0,0,1"
       unit="px"
       method="auto"
       mode="F"
       radius="0"
       chamfer_steps="1"
       flexible="false"
       use_knot_distance="true"
       apply_no_radius="true"
       apply_with_radius="true"
       only_selected="false"
       hide_knots="false" />
    <inkscape:path-effect
       effect="fillet_chamfer"
       id="path-effect18333"
       is_visible="true"
       lpeversion="1"
       satellites_param="F,0,0,1,0,0,0,1 @ F,0,0,1,0,0,0,1 @ F,0,0,1,0,0,0,1 @ F,0,0,1,0,0,0,1 | F,0,0,1,0,0,0,1 @ F,0,0,1,0,0,0,1 @ F,0,0,1,0,0,0,1 @ F,0,0,1,0,0,0,1 | F,0,0,1,0,0,0,1 @ F,0,0,1,0,0,0,1 @ F,0,0,1,0,0,0,1 @ F,0,0,1,0,0,0,1 | F,0,0,1,0,0,0,1 @ F,0,0,1,0,0,0,1 @ F,0,0,1,0,0,0,1 @ F,0,0,1,0,0,0,1 | F,0,0,1,0,0,0,1 @ F,0,0,1,0,0,0,1 @ F,0,0,1,0,0,0,1 @ F,0,0,1,0,0,0,1 | F,0,0,1,0,0,0,1 @ F,0,0,1,0,0,0,1 @ F,0,0,1,0,0,0,1 @ F,0,0,1,0,0,0,1 | F,0,0,1,0,0,0,1 @ F,0,0,1,0,0,0,1 @ F,0,0,1,0,0,0,1 @ F,0,0,1,0,0,0,1 | F,0,0,1,0,0,0,1 @ F,0,0,1,0,0,0,1 @ F,0,0,1,0,0,0,1 @ F,0,0,1,0,0,0,1 | F,0,0,1,0,0,0,1 @ F,0,0,1,0,0,0,1 @ F,0,0,1,0,0,0,1 @ F,0,0,1,0,0,0,1 | F,0,0,1,0,0.14055026,0,1 @ F,0,0,1,0,0,0,1 @ F,0,0,1,0,0.19968369,0,1 @ F,0,0,1,0,1.3311298,0,1 @ F,0,0,1,0,0.51478976,0,1 @ F,0,0,1,0,0.15114367,0,1 @ F,0,0,1,0,0.15114367,0,1 @ F,0,0,1,0,0,0,1 @ F,0,0,1,0,0,0,1 @ F,0,0,1,0,0.14627579,0,1 @ F,0,0,1,0,0.80557763,0,1 @ F,0,0,1,0,0,0,1 @ F,0,0,1,0,0.59634513,0,1 @ F,0,0,1,0,0.280633,0,1 @ F,0,0,1,0,0.30949015,0,1 @ F,0,0,1,0,0.35079125,0,1 @ F,0,0,1,0,0.21674991,0,1 @ F,0,0,1,0,0,0,1 @ F,0,0,1,0,0,0,1 @ F,0,0,1,0,0.57757534,0,1 @ F,0,0,1,0,0.48271984,0,1 @ F,0,0,1,0,0,0,1 @ F,0,0,1,0,0,0,1 @ F,0,0,1,0,0,0,1 @ F,0,0,1,0,0,0,1 @ F,0,0,1,0,0,0,1 @ F,0,0,1,0,0,0,1 @ F,0,0,1,0,0,0,1 @ F,0,0,1,0,0,0,1 @ F,0,0,1,0,0,0,1 @ F,0,0,1,0,0,0,1 @ F,0,0,1,0,0,0,1 @ F,0,0,1,0,0,0,1 @ F,0,0,1,0,0,0,1 @ F,0,0,1,0,0.40935722,0,1 @ F,0,0,1,0,0.57987897,0,1 @ F,0,0,1,0,0,0,1 @ F,0,0,1,0,0.40925646,0,1 @ F,0,0,1,0,1.2160763,0,1 @ F,0,0,1,0,1.2043833,0,1 @ F,0,0,1,0,0.39756342,0,1 @ F,0,0,1,0,0.42216202,0,1 @ F,0,0,1,0,0.73587638,0,1"
       unit="px"
       method="auto"
       mode="F"
       radius="0"
       chamfer_steps="1"
       flexible="false"
       use_knot_distance="true"
       apply_no_radius="true"
       apply_with_radius="true"
       only_selected="false"
       hide_knots="false" />
    <inkscape:path-effect
       effect="fillet_chamfer"
       id="path-effect17653"
       is_visible="true"
       lpeversion="1"
       satellites_param="F,0,0,1,0,0,0,1 @ F,0,0,1,0,0,0,1 @ F,0,0,1,0,0,0,1 @ F,0,0,1,0,0,0,1 @ F,0,0,1,0,0,0,1 @ F,0,0,1,0,5.0270833,0,1 @ F,0,0,1,0,0,0,1 @ F,0,0,1,0,0,0,1 @ F,0,0,1,0,0,0,1 @ F,0,0,1,0,0,0,1 @ F,0,0,1,0,0,0,1 @ F,0,0,1,0,0,0,1 @ F,0,0,1,0,0,0,1"
       unit="px"
       method="auto"
       mode="F"
       radius="0"
       chamfer_steps="1"
       flexible="false"
       use_knot_distance="true"
       apply_no_radius="true"
       apply_with_radius="true"
       only_selected="false"
       hide_knots="false" />
    <inkscape:path-effect
       effect="fillet_chamfer"
       id="path-effect11060"
       is_visible="true"
       lpeversion="1"
       satellites_param="F,0,0,1,0,4.8947917,0,1 @ F,0,0,1,0,1.110839,0,1 @ F,0,0,1,0,0.96738281,0,1 @ F,0,0,1,0,0,0,1"
       unit="px"
       method="auto"
       mode="F"
       radius="0"
       chamfer_steps="1"
       flexible="false"
       use_knot_distance="true"
       apply_no_radius="true"
       apply_with_radius="true"
       only_selected="false"
       hide_knots="false" />
  </defs>
  <g
     inkscape:label="Scan"
     inkscape:groupmode="layer"
     id="layer1"
     style="display:inline"
     sodipodi:insensitive="true">
    <image
       width="135.93234"
       height="74.379662"
       preserveAspectRatio="none"
       xlink:href="gba-front.jpg"
       id="image17"
       x="39.198784"
       y="99.573059" />
  </g>
  <g
     inkscape:groupmode="layer"
     id="layer2"
     inkscape:label="PCB">
    <path
       id="path10956-2"
       style="fill:#000000;fill-opacity:1;stroke:#000000;stroke-width:0.0540092"
       d="m 65.879913,159.09554 c -3e-6,1.22772 -0.995271,2.22299 -2.222995,2.22299 -1.227725,0 -2.222993,-0.99527 -2.222996,-2.22299 -2e-6,-1.22773 0.995268,-2.223 2.222996,-2.223 1.227728,0 2.222997,0.99527 2.222995,2.223 z m 0,-7.99473 c 2e-6,1.22773 -0.995267,2.223 -2.222995,2.223 -1.227728,0 -2.222998,-0.99527 -2.222996,-2.223 3e-6,-1.22772 0.995271,-2.22299 2.222996,-2.22299 1.227724,0 2.222992,0.99527 2.222995,2.22299 z m -1.334327,11.33893 c 2e-6,0.37456 -0.303637,0.6782 -0.678196,0.6782 -0.374559,0 -0.678199,-0.30364 -0.678197,-0.6782 4e-6,-0.37456 0.303642,-0.67819 0.678197,-0.67819 0.374555,0 0.678192,0.30364 0.678196,0.67819 z m -7.843311,-23.33505 c -10e-7,1.50623 -1.221043,2.72727 -2.727273,2.72727 -1.50623,0 -2.727271,-1.22104 -2.727272,-2.72727 1e-6,-1.50623 1.221042,-2.72727 2.727272,-2.72727 1.50623,0 2.727272,1.22104 2.727273,2.72727 z m 0,-15.84193 c -10e-7,1.50623 -1.221043,2.72727 -2.727273,2.72727 -1.50623,0 -2.727271,-1.22104 -2.727272,-2.72727 -4e-6,-1.50623 1.221038,-2.72728 2.727272,-2.72728 1.506234,0 2.727277,1.22105 2.727273,2.72728 z m 7.904427,7.94363 c -10e-7,1.50623 -1.221043,2.72727 -2.727273,2.72727 -1.50623,0 -2.727272,-1.22104 -2.727273,-2.72727 1e-6,-1.50623 1.221043,-2.72727 2.727273,-2.72727 1.50623,0 2.727272,1.22104 2.727273,2.72727 z m -15.819275,0 c -10e-7,1.50623 -1.221043,2.72727 -2.727273,2.72727 -1.50623,0 -2.727272,-1.22104 -2.727273,-2.72727 10e-7,-1.50623 1.221043,-2.72727 2.727273,-2.72727 1.50623,0 2.727272,1.22104 2.727273,2.72727 z m 24.832888,0.17577 c -4e-6,0.29225 -0.236919,0.52916 -0.529167,0.52916 -0.292248,0 -0.529162,-0.23691 -0.529166,-0.52916 -2e-6,-0.29225 0.236914,-0.52917 0.529166,-0.52917 0.292252,0 0.529169,0.23692 0.529167,0.52917 z m -19.224286,14.33653 c -3e-6,0.71037 -0.575868,1.28623 -1.286234,1.28623 -0.710366,0 -1.286232,-0.57586 -1.286235,-1.28623 -3e-6,-0.71037 0.575865,-1.28624 1.286235,-1.28624 0.71037,0 1.286237,0.57587 1.286234,1.28624 z m 1.606672,-35.04976 -2.788379,0.47261 0.465014,2.48263 a 0.23888242,0.23888242 39.498507 0 0 0.236442,0.1949 l 0.345079,-0.002 a 1.3144199,1.3144199 44.967879 0 1 1.323437,1.32196 l -0.01263,2.19366 c -0.0016,0.2843 -0.231679,0.48561 -0.514896,0.46088 -0.323172,-0.0282 -0.650157,-0.0456 -0.981279,-0.0499 -0.08346,-0.001 -0.218806,-0.001 -0.302276,-4.2e-4 -0.611868,0.006 -1.235856,0.0525 -1.87024,0.14224 -0.08265,0.0117 -0.179634,0.0826 -0.212527,0.15931 -0.117585,0.27422 -0.181133,0.48457 -0.638783,0.56388 l -1.315164,0.2279 c -0.254958,0.0442 -0.528749,-0.0278 -0.712078,-0.16432 -0.06464,-0.0481 -0.17014,-0.0819 -0.248035,-0.0604 l -3.273679,0.90004 c -0.42899,0.11795 -0.455574,0.42416 -0.25052,0.81499 0.483479,0.92152 -0.203847,1.94777 -1.064186,1.94777 h -0.812873 a 0.59634513,0.59634513 135 0 0 -0.596345,0.59635 l 0,2.12232 c 0,0.15499 -0.05632,0.39296 -0.123153,0.53279 -2.207067,4.61803 -1.427438,8.53813 -0.0206,11.43292 0.07471,0.15373 0.138052,0.41554 0.138052,0.58647 v 0.79544 c 0,0.19374 0.08951,0.47987 0.203927,0.63621 1.536713,2.09957 3.589647,3.77462 6.357222,4.86216 0.111421,0.0438 0.258346,0.15714 0.327529,0.25484 l 2.00277,2.82809 c 1.02413,1.44619 2.18427,0.91204 3.426147,0.0351 l 1.674285,-1.18204 a 0.5993902,0.5993902 8.7162532 0 1 0.822204,0.12606 l 1.531866,2.00754 c 0.161724,0.21195 0.174281,0.56523 0.05401,0.80304 -0.335224,0.66285 -0.523413,1.41217 -0.520831,2.20588 l 0.0083,2.5368 c 4.98e-4,0.15154 4.98e-4,0.34878 0.31006,0.43408 1.205254,0.33222 1.498103,2.07538 0,2.51354 -0.171085,0.05 -0.309192,0.11644 -0.314193,0.35553 l -0.0041,0.78239 v 1.46296 c 2e-6,2.77638 2.250703,5.02708 5.027083,5.02708 h 4.014743 c 0.534275,0 0.967388,-0.43311 0.967383,-0.96738 v -15.92875 c 2e-6,-0.6135 -0.497026,-1.11104 -1.110525,-1.11104 h -4.003892 c -0.315463,0 -0.623963,0.0299 -0.922945,0.0869 -0.222012,0.0423 -0.509578,-0.0523 -0.646695,-0.23202 l -1.523933,-1.99781 a 0.55886929,0.55886929 98.720418 0 1 0.122019,-0.7955 l 0.642498,-0.45361 c 3.812042,-2.70654 5.718606,-6.14301 6.178448,-9.59185 0.02987,-0.22406 0.230758,-0.40651 0.456784,-0.40651 h 5.361322 a 1.2160763,1.2160763 135 0 0 1.216076,-1.21608 v -0.0796 a 1.2043833,1.2043833 45 0 0 -1.204383,-1.20438 h -5.376955 c -0.219568,0 -0.413935,-0.17729 -0.441524,-0.39511 -0.612118,-4.83281 -3.902146,-9.22009 -8.5893,-11.06851 -0.216888,-0.0855 -0.395129,-0.3376 -0.395129,-0.57075 v -6.71642 a 0.73586993,0.73586993 44.999749 0 0 -0.735876,-0.73587 l -1.405661,10e-6 a 1.6703866,1.6703866 175.18983 0 0 -0.279124,0.0235 z"
       inkscape:path-effect="#path-effect18333"
       inkscape:original-d="m 65.879913,159.09554 a 2.2229955,2.2229955 0 0 1 -2.222995,2.22299 2.2229955,2.2229955 0 0 1 -2.222996,-2.22299 2.2229955,2.2229955 0 0 1 2.222996,-2.223 2.2229955,2.2229955 0 0 1 2.222995,2.223 z m 0,-7.99473 a 2.2229955,2.2229955 0 0 1 -2.222995,2.223 2.2229955,2.2229955 0 0 1 -2.222996,-2.223 2.2229955,2.2229955 0 0 1 2.222996,-2.22299 2.2229955,2.2229955 0 0 1 2.222995,2.22299 z m -1.334327,11.33893 a 0.67819637,0.67819637 0 0 1 -0.678196,0.6782 0.67819637,0.67819637 0 0 1 -0.678197,-0.6782 0.67819637,0.67819637 0 0 1 0.678197,-0.67819 0.67819637,0.67819637 0 0 1 0.678196,0.67819 z m -7.843311,-23.33505 a 2.7272727,2.7272727 0 0 1 -2.727273,2.72727 2.7272727,2.7272727 0 0 1 -2.727272,-2.72727 2.7272727,2.7272727 0 0 1 2.727272,-2.72727 2.7272727,2.7272727 0 0 1 2.727273,2.72727 z m 0,-15.84193 a 2.7272727,2.7272727 0 0 1 -2.727273,2.72727 2.7272727,2.7272727 0 0 1 -2.727272,-2.72727 2.7272727,2.7272727 0 0 1 2.727272,-2.72728 2.7272727,2.7272727 0 0 1 2.727273,2.72728 z m 7.904427,7.94363 a 2.7272727,2.7272727 0 0 1 -2.727273,2.72727 2.7272727,2.7272727 0 0 1 -2.727273,-2.72727 2.7272727,2.7272727 0 0 1 2.727273,-2.72727 2.7272727,2.7272727 0 0 1 2.727273,2.72727 z m -15.819275,0 a 2.7272727,2.7272727 0 0 1 -2.727273,2.72727 2.7272727,2.7272727 0 0 1 -2.727273,-2.72727 2.7272727,2.7272727 0 0 1 2.727273,-2.72727 2.7272727,2.7272727 0 0 1 2.727273,2.72727 z m 24.832888,0.17577 a 0.52916664,0.52916664 0 0 1 -0.529167,0.52916 0.52916664,0.52916664 0 0 1 -0.529166,-0.52916 0.52916664,0.52916664 0 0 1 0.529166,-0.52917 0.52916664,0.52916664 0 0 1 0.529167,0.52917 z m -19.224286,14.33653 a 1.2862346,1.2862346 0 0 1 -1.286234,1.28623 1.2862346,1.2862346 0 0 1 -1.286235,-1.28623 1.2862346,1.2862346 0 0 1 1.286235,-1.28624 1.2862346,1.2862346 0 0 1 1.286234,1.28624 z m 1.745246,-35.07325 -2.926953,0.4961 0.501777,2.6789 1.875856,-0.0129 -0.02325,4.03955 c -0.537284,-0.066 -1.084887,-0.10429 -1.644346,-0.1049 -0.708014,-7.9e-4 -1.432554,0.0527 -2.170924,0.16484 -0.170323,0.34033 -0.170313,0.60915 -0.701768,0.70125 l -1.315164,0.2279 c -0.31123,0.054 -0.650523,-0.0653 -0.819071,-0.26355 l -4.191476,1.15238 c 1.314593,1.00075 0.518845,2.5492 -0.537951,2.5492 h -1.409218 v 2.9993 c -2.43305,4.87735 -1.5234,8.99118 -0.0057,11.96206 v 1.45572 c 1.593784,2.2851 3.767432,4.09334 6.763412,5.22553 l 2.128036,3.00498 c 1.02413,1.44619 2.18427,0.91204 3.426147,0.0351 l 2.14612,-1.51515 2.175063,2.85047 c -0.48328,0.7587 -0.762788,1.65904 -0.759645,2.62516 l 0.0083,2.5368 c 4.98e-4,0.15154 4.98e-4,0.34878 0.31006,0.43408 1.205254,0.33222 1.498103,2.07538 0,2.51354 -0.171085,0.05 -0.309192,0.11644 -0.314193,0.35553 l -0.0041,0.78239 v 1.46296 a 5.0270833,5.0270833 0 0 0 5.027083,5.02708 h 4.014743 c 0.534275,0 0.967388,-0.43311 0.967383,-0.96738 v -15.92875 c 2e-6,-0.6135 -0.497026,-1.11104 -1.110525,-1.11104 h -4.003892 c -0.457716,0 -0.900772,0.0629 -1.321367,0.18035 l -2.1239,-2.78433 1.116211,-0.78806 c 3.96181,-2.81288 5.865476,-6.41416 6.225976,-9.99836 h 6.986654 v -2.5001 h -6.978901 c -0.491197,-5.12282 -4.002059,-9.81305 -9.02839,-11.61221 v -7.87446 z" />
    <path
       id="path28318-9"
       style="fill:#000000;fill-opacity:1;stroke:#000000;stroke-width:0.0406885"
       d="m 168.6745,129.12627 c 0,1.78369 -1.44597,3.22965 -3.22966,3.22965 -1.78369,0 -3.22966,-1.44596 -3.22966,-3.22965 0,-1.78369 1.44597,-3.22966 3.22966,-3.22966 1.78369,0 3.22966,1.44597 3.22966,3.22966 z m -13.12713,4.40602 c 0,1.78369 -1.44596,3.22965 -3.22965,3.22965 -1.78369,0 -3.22966,-1.44596 -3.22966,-3.22965 0,-1.78369 1.44597,-3.22966 3.22966,-3.22966 1.78369,0 3.22965,1.44597 3.22965,3.22966 z m 6.16266,2.24858 c 0,0.73976 -0.5997,1.33945 -1.33946,1.33945 -0.73976,0 -1.33945,-0.59969 -1.33945,-1.33945 0,-0.73976 0.59969,-1.33945 1.33945,-1.33945 0.73976,0 1.33946,0.59969 1.33946,1.33945 z m -4.51326,-10.69911 c 0,1.06921 -0.86676,1.93597 -1.93597,1.93597 -1.06921,0 -1.93597,-0.86676 -1.93597,-1.93597 0,-1.06921 0.86676,-1.93597 1.93597,-1.93597 1.06921,0 1.93597,0.86676 1.93597,1.93597 z m -2.05327,-14.20375 v 11.15213 c 0,0.17759 -0.14458,0.32487 -0.31981,0.35305 -0.61778,0.0993 -1.24874,0.4298 -1.77337,1.11677 -0.0994,0.13014 -0.29055,0.2996 -0.43831,0.37021 l -6.75805,3.22951 c -0.24874,0.11887 -0.35556,0.41573 -0.23957,0.66583 l 0.74061,1.59696 c 0.0599,0.12909 0.0526,0.33473 -0.0129,0.46105 -0.20646,0.39805 -0.37455,0.78351 -0.50894,1.1579 -0.0916,0.25525 -0.37198,0.46689 -0.64321,0.46689 h -11.00483 c -0.15069,0 -0.27285,0.12216 -0.27285,0.27285 v 0.96738 c 0,0.13699 -0.11106,0.24805 -0.24805,0.24805 h -0.82682 c -0.15983,0 -0.28939,0.12956 -0.28939,0.28939 v 4.85758 c 0,0.0616 0.05,0.11162 0.11162,0.11162 h 0.19017 v -0.004 c 0,-0.40413 0.32761,-0.73174 0.73174,-0.73174 0.40413,0 0.73174,0.32761 0.73174,0.73174 v 5.1e-4 5.2e-4 5.2e-4 5.1e-4 5.2e-4 5.2e-4 5.1e-4 5.2e-4 h 0.10844 c 0.084,0 0.15201,-0.0681 0.15201,-0.15201 v -3.74233 c 0,-0.23289 0.18879,-0.42168 0.42168,-0.42168 h 9.97148 c 0.24658,0 0.46019,0.19969 0.49507,0.44375 0.14455,1.01136 0.50841,1.95055 0.96376,2.85986 0.0699,0.13961 0.0802,0.36869 0.0204,0.51296 l -0.72644,1.75305 c -0.0923,0.22271 0.009,0.47843 0.22952,0.57686 l 5.67008,2.53623 c 0.20503,0.0917 0.44589,0.005 0.54515,-0.19666 l 0.8977,-1.82221 c 0.0201,-0.0407 0.0603,-0.0678 0.10557,-0.071 l 0.18341,-0.0131 c 0.0571,-0.004 0.11283,0.0189 0.15048,0.062 l 1.31264,1.50379 c 0.18385,0.2106 0.50233,0.23562 0.71681,0.0563 l 5.20616,-4.35232 c 0.0676,-0.0565 0.15296,-0.0875 0.2411,-0.0875 h 7.56129 c 0.20549,0 0.37207,-0.16658 0.37207,-0.37207 v -2.00091 c 0,-0.15062 0.0722,-0.29213 0.19408,-0.38058 l 0.92899,-0.67397 c 0.0892,-0.0647 0.14197,-0.16822 0.14197,-0.2784 v -1.04796 c 0,-0.10978 0.0482,-0.27362 0.1062,-0.36682 0.76157,-1.22321 2.00779,-3.67829 -0.002,-6.91899 -0.0566,-0.0913 -0.1042,-0.25137 -0.1042,-0.35889 v -3.1239 c 0,-0.19965 -0.11648,-0.38094 -0.29807,-0.46391 l -3.7213,-1.70036 c -0.22083,-0.10091 -0.48192,-0.009 -0.5905,0.20839 l -0.87031,1.74063 c -0.0481,0.0961 -0.13736,0.16503 -0.24251,0.18717 l -0.53099,0.11178 c -0.1538,0.0324 -0.31377,-0.0117 -0.4293,-0.11825 l -1.47069,-1.35658 c -0.14768,-0.13645 -0.37621,-0.13381 -0.5207,0.006 l -2.2592,2.18968 c -0.36844,0.3571 -0.97047,0.29273 -1.25508,-0.1342 l -0.42173,-0.63263 c -0.12667,-0.19002 -0.19426,-0.41327 -0.19426,-0.64164 v -6.39438 c 0,-0.69745 0.5654,-1.26285 1.26285,-1.26285 h 0.50635 c 0.0952,0 0.17572,-0.0703 0.18861,-0.16458 l 0.35036,-2.56269 -2.7572,-0.54532 a 3.3124989,3.3124989 5.5974602 0 0 -0.64228,-0.063 l -0.78165,-1e-4 c -0.19636,-2e-5 -0.35556,0.15916 -0.35556,0.35552 z"
       sodipodi:nodetypes="sssssssssssssssssssscsscccccscccscssscccccccccsssscsscsccccccsssscccsscssscccccsssccsscssccssssccccscc" />
  </g>
</svg>
