  0
SECTION
  2
HEADER
  9
$ACADVER
  1
AC1014
  9
$HANDSEED
  5
FFFF
  9
$MEASUREMENT
 70
     1
  0
ENDSEC
  0
SECTION
  2
TABLES
  0
TABLE
  2
VPORT
  5
8
330
0
100
AcDbSymbolTable
 70
     4
  0
VPORT
  5
2E
330
8
100
AcDbSymbolTableRecord
100
AcDbViewportTableRecord
  2
*ACTIVE
 70
     0
 10
0.0
 20
0.0
 11
1.0
 21
1.0
 12
210.0
 22
148.5
 13
0.0
 23
0.0
 14
10.0
 24
10.0
 15
10.0
 25
10.0
 16
0.0
 26
0.0
 36
1.0
 17
0.0
 27
0.0
 37
0.0
 40
341.0
 41
1.24
 42
50.0
 43
0.0
 44
0.0
 50
0.0
 51
0.0
 71
     0
 72
   100
 73
     1
 74
     3
 75
     0
 76
     0
 77
     0
 78
     0
  0
ENDTAB
  0
TABLE
  2
LTYPE
  5
5
330
0
100
AcDbSymbolTable
 70
     1
  0
LTYPE
  5
14
330
5
100
AcDbSymbolTableRecord
100
AcDbLinetypeTableRecord
  2
BYBLOCK
 70
     0
  3

 72
    65
 73
     0
 40
0.0
  0
LTYPE
  5
15
330
5
100
AcDbSymbolTableRecord
100
AcDbLinetypeTableRecord
  2
BYLAYER
 70
     0
  3

 72
    65
 73
     0
 40
0.0
  0
LTYPE
  5
16
330
5
100
AcDbSymbolTableRecord
100
AcDbLinetypeTableRecord
  2
CONTINUOUS
 70
     0
  3
Solid line
 72
    65
 73
     0
 40
0.0
  0
ENDTAB
  0
TABLE
  2
LAYER
  5
2
100
AcDbSymbolTable
 70
3
  0
LAYER
  5
50
100
AcDbSymbolTableRecord
100
AcDbLayerTableRecord
  2
0
 70
0
  6
CONTINUOUS
  0
LAYER
  5
51
100
AcDbSymbolTableRecord
100
AcDbLayerTableRecord
  2
Scan
 70
0
  6
CONTINUOUS
  0
LAYER
  5
52
100
AcDbSymbolTableRecord
100
AcDbLayerTableRecord
  2
PCB
 70
0
  6
CONTINUOUS
  0
ENDTAB
  0
TABLE
  2
STYLE
  5
3
330
0
100
AcDbSymbolTable
 70
     1
  0
STYLE
  5
11
330
3
100
AcDbSymbolTableRecord
100
AcDbTextStyleTableRecord
  2
STANDARD
 70
     0
 40
0.0
 41
1.0
 50
0.0
 71
     0
 42
2.5
  3
txt
  4

  0
ENDTAB
  0
TABLE
  2
VIEW
  5
6
330
0
100
AcDbSymbolTable
 70
     0
  0
ENDTAB
  0
TABLE
  2
UCS
  5
7
330
0
100
AcDbSymbolTable
 70
     0
  0
ENDTAB
  0
TABLE
  2
APPID
  5
9
330
0
100
AcDbSymbolTable
 70
     2
  0
APPID
  5
12
330
9
100
AcDbSymbolTableRecord
100
AcDbRegAppTableRecord
  2
ACAD
 70
     0
  0
ENDTAB
  0
TABLE
  2
DIMSTYLE
  5
A
330
0
100
AcDbSymbolTable
 70
     1
  0
DIMSTYLE
105
27
330
A
100
AcDbSymbolTableRecord
100
AcDbDimStyleTableRecord
  2
ISO-25
 70
     0
  3

  4

  5

  6

  7

 40
1.0
 41
2.5
 42
0.625
 43
3.75
 44
1.25
 45
0.0
 46
0.0
 47
0.0
 48
0.0
140
2.5
141
2.5
142
0.0
143
0.03937007874016
144
1.0
145
0.0
146
1.0
147
0.625
 71
     0
 72
     0
 73
     0
 74
     0
 75
     0
 76
     0
 77
     1
 78
     8
170
     0
171
     3
172
     1
173
     0
174
     0
175
     0
176
     0
177
     0
178
     0
270
     2
271
     2
272
     2
273
     2
274
     3
340
11
275
     0
280
     0
281
     0
282
     0
283
     0
284
     8
285
     0
286
     0
287
     3
288
     0
  0
ENDTAB
  0
TABLE
  2
BLOCK_RECORD
  5
1
330
0
100
AcDbSymbolTable
 70
     1
  0
BLOCK_RECORD
  5
1F
330
1
100
AcDbSymbolTableRecord
100
AcDbBlockTableRecord
  2
*MODEL_SPACE
  0
BLOCK_RECORD
  5
1B
330
1
100
AcDbSymbolTableRecord
100
AcDbBlockTableRecord
  2
*PAPER_SPACE
  0
ENDTAB
  0
ENDSEC
  0
SECTION
  2
BLOCKS
  0
BLOCK
  5
20
330
1F
100
AcDbEntity
  8
0
100
AcDbBlockBegin
  2
*MODEL_SPACE
 70
     0
 10
0.0
 20
0.0
 30
0.0
  3
*MODEL_SPACE
  1

  0
ENDBLK
  5
21
330
1F
100
AcDbEntity
  8
0
100
AcDbBlockEnd
  0
BLOCK
  5
1C
330
1B
100
AcDbEntity
 67
     1
  8
0
100
AcDbBlockBegin
  2
*PAPER_SPACE
  1

  0
ENDBLK
  5
1D
330
1B
100
AcDbEntity
 67
     1
  8
0
100
AcDbBlockEnd
  0
ENDSEC
  0
SECTION
  2
ENTITIES
  0
SPLINE
  5
100
100
AcDbEntity
  8
PCB
 62
7
100
AcDbSpline
 70
8
 71
3
 72
8
 73
4
 74
0
 40
0
 40
0
 40
0
 40
0
 40
1
 40
1
 40
1
 40
1
 10
155.499034
 20
186.478066
 30
0.0
 10
155.302673
 20
186.478085
 30
0.0
 10
155.143500
 20
186.318890
 30
0.0
 10
155.143500
 20
186.122532
 30
0.0
  0
SPLINE
  5
101
100
AcDbEntity
  8
PCB
 62
7
100
AcDbSpline
 70
8
 71
3
 72
8
 73
4
 74
0
 40
0
 40
0
 40
0
 40
0
 40
1
 40
1
 40
1
 40
1
 10
155.143500
 20
174.969713
 30
0.0
 10
155.143500
 20
174.792124
 30
0.0
 10
154.998852
 20
174.644945
 30
0.0
 10
154.823624
 20
174.616764
 30
0.0
  0
SPLINE
  5
102
100
AcDbEntity
  8
PCB
 62
7
100
AcDbSpline
 70
8
 71
3
 72
8
 73
4
 74
0
 40
0
 40
0
 40
0
 40
0
 40
1
 40
1
 40
1
 40
1
 10
154.823624
 20
174.616764
 30
0.0
 10
154.205843
 20
174.517463
 30
0.0
 10
153.574716
 20
174.187006
 30
0.0
 10
153.050087
 20
173.500037
 30
0.0
  0
SPLINE
  5
103
100
AcDbEntity
  8
PCB
 62
7
100
AcDbSpline
 70
8
 71
3
 72
8
 73
4
 74
0
 40
0
 40
0
 40
0
 40
0
 40
1
 40
1
 40
1
 40
1
 10
153.050087
 20
173.500037
 30
0.0
 10
152.950689
 20
173.369896
 30
0.0
 10
152.759630
 20
173.200642
 30
0.0
 10
152.611871
 20
173.130033
 30
0.0
  0
LWPOLYLINE
  5
104
100
AcDbEntity
  8
PCB
 62
7
100
AcDbPolyline
 90
3
 70
0
 10
155.143500
 20
186.122532
 30
0.0
 10
155.143500
 20
186.122003
 30
0.0
 10
155.143500
 20
174.969713
 30
0.0
  0
SPLINE
  5
105
100
AcDbEntity
  8
PCB
 62
7
100
AcDbSpline
 70
8
 71
3
 72
8
 73
4
 74
0
 40
0
 40
0
 40
0
 40
0
 40
1
 40
1
 40
1
 40
1
 10
145.854146
 20
169.900256
 30
0.0
 10
145.605406
 20
169.781384
 30
0.0
 10
145.498376
 20
169.484763
 30
0.0
 10
145.614367
 20
169.234663
 30
0.0
  0
LWPOLYLINE
  5
106
100
AcDbEntity
  8
PCB
 62
7
100
AcDbPolyline
 90
2
 70
0
 10
152.611871
 20
173.130033
 30
0.0
 10
145.854146
 20
169.900256
 30
0.0
  0
SPLINE
  5
107
100
AcDbEntity
  8
PCB
 62
7
100
AcDbSpline
 70
8
 71
3
 72
8
 73
4
 74
0
 40
0
 40
0
 40
0
 40
0
 40
1
 40
1
 40
1
 40
1
 10
146.354888
 20
167.637344
 30
0.0
 10
146.414790
 20
167.508254
 30
0.0
 10
146.407469
 20
167.302709
 30
0.0
 10
146.341976
 20
167.176389
 30
0.0
  0
SPLINE
  5
108
100
AcDbEntity
  8
PCB
 62
7
100
AcDbSpline
 70
8
 71
3
 72
8
 73
4
 74
0
 40
0
 40
0
 40
0
 40
0
 40
1
 40
1
 40
1
 40
1
 10
146.341976
 20
167.176389
 30
0.0
 10
146.135514
 20
166.778353
 30
0.0
 10
145.967353
 20
166.392712
 30
0.0
 10
145.832963
 20
166.018321
 30
0.0
  0
SPLINE
  5
109
100
AcDbEntity
  8
PCB
 62
7
100
AcDbSpline
 70
8
 71
3
 72
8
 73
4
 74
0
 40
0
 40
0
 40
0
 40
0
 40
1
 40
1
 40
1
 40
1
 10
145.832963
 20
166.018321
 30
0.0
 10
145.741362
 20
165.763073
 30
0.0
 10
145.461337
 20
165.551684
 30
0.0
 10
145.190108
 20
165.551684
 30
0.0
  0
LWPOLYLINE
  5
10a
100
AcDbEntity
  8
PCB
 62
7
100
AcDbPolyline
 90
2
 70
0
 10
145.614367
 20
169.234663
 30
0.0
 10
146.354888
 20
167.637344
 30
0.0
  0
SPLINE
  5
10b
100
AcDbEntity
  8
PCB
 62
7
100
AcDbSpline
 70
8
 71
3
 72
8
 73
4
 74
0
 40
0
 40
0
 40
0
 40
0
 40
1
 40
1
 40
1
 40
1
 10
142.949412
 20
165.551684
 30
0.0
 10
142.833190
 20
165.551684
 30
0.0
 10
142.721728
 20
165.597853
 30
0.0
 10
142.639547
 20
165.680034
 30
0.0
  0
SPLINE
  5
10c
100
AcDbEntity
  8
PCB
 62
7
100
AcDbSpline
 70
8
 71
3
 72
8
 73
4
 74
0
 40
0
 40
0
 40
0
 40
0
 40
1
 40
1
 40
1
 40
1
 10
142.639547
 20
165.680034
 30
0.0
 10
142.557365
 20
165.762216
 30
0.0
 10
142.511196
 20
165.873678
 30
0.0
 10
142.511196
 20
165.989900
 30
0.0
  0
LWPOLYLINE
  5
10d
100
AcDbEntity
  8
PCB
 62
7
100
AcDbPolyline
 90
2
 70
0
 10
145.190108
 20
165.551684
 30
0.0
 10
142.949412
 20
165.551684
 30
0.0
  0
SPLINE
  5
10e
100
AcDbEntity
  8
PCB
 62
7
100
AcDbSpline
 70
8
 71
3
 72
8
 73
4
 74
0
 40
0
 40
0
 40
0
 40
0
 40
1
 40
1
 40
1
 40
1
 10
142.511196
 20
169.421226
 30
0.0
 10
142.511196
 20
169.601041
 30
0.0
 10
142.439765
 20
169.773492
 30
0.0
 10
142.312616
 20
169.900640
 30
0.0
  0
SPLINE
  5
10f
100
AcDbEntity
  8
PCB
 62
7
100
AcDbSpline
 70
8
 71
3
 72
8
 73
4
 74
0
 40
0
 40
0
 40
0
 40
0
 40
1
 40
1
 40
1
 40
1
 10
142.312616
 20
169.900640
 30
0.0
 10
142.185467
 20
170.027789
 30
0.0
 10
142.013017
 20
170.099220
 30
0.0
 10
141.833201
 20
170.099220
 30
0.0
  0
LWPOLYLINE
  5
110
100
AcDbEntity
  8
PCB
 62
7
100
AcDbPolyline
 90
2
 70
0
 10
142.511196
 20
165.989900
 30
0.0
 10
142.511196
 20
169.421226
 30
0.0
  0
SPLINE
  5
111
100
AcDbEntity
  8
PCB
 62
7
100
AcDbSpline
 70
8
 71
3
 72
8
 73
4
 74
0
 40
0
 40
0
 40
0
 40
0
 40
1
 40
1
 40
1
 40
1
 10
134.639326
 20
170.099220
 30
0.0
 10
134.446353
 20
170.099220
 30
0.0
 10
134.261285
 20
170.022562
 30
0.0
 10
134.124832
 20
169.886110
 30
0.0
  0
SPLINE
  5
112
100
AcDbEntity
  8
PCB
 62
7
100
AcDbSpline
 70
8
 71
3
 72
8
 73
4
 74
0
 40
0
 40
0
 40
0
 40
0
 40
1
 40
1
 40
1
 40
1
 10
134.124832
 20
169.886110
 30
0.0
 10
133.988380
 20
169.749658
 30
0.0
 10
133.911722
 20
169.564589
 30
0.0
 10
133.911722
 20
169.371616
 30
0.0
  0
LWPOLYLINE
  5
113
100
AcDbEntity
  8
PCB
 62
7
100
AcDbPolyline
 90
2
 70
0
 10
141.833201
 20
170.099220
 30
0.0
 10
134.639326
 20
170.099220
 30
0.0
  0
SPLINE
  5
114
100
AcDbEntity
  8
PCB
 62
7
100
AcDbSpline
 70
8
 71
3
 72
8
 73
4
 74
0
 40
0
 40
0
 40
0
 40
0
 40
1
 40
1
 40
1
 40
1
 10
133.911722
 20
164.310425
 30
0.0
 10
133.910928
 20
164.174009
 30
0.0
 10
133.800766
 20
164.063413
 30
0.0
 10
133.664191
 20
164.063413
 30
0.0
  0
LWPOLYLINE
  5
115
100
AcDbEntity
  8
PCB
 62
7
100
AcDbPolyline
 90
2
 70
0
 10
133.911722
 20
169.371616
 30
0.0
 10
133.911722
 20
164.310425
 30
0.0
  0
SPLINE
  5
116
100
AcDbEntity
  8
PCB
 62
7
100
AcDbSpline
 70
8
 71
3
 72
8
 73
4
 74
0
 40
0
 40
0
 40
0
 40
0
 40
1
 40
1
 40
1
 40
1
 10
132.837368
 20
164.063413
 30
0.0
 10
132.821096
 20
164.063413
 30
0.0
 10
132.805361
 20
164.061296
 30
0.0
 10
132.789825
 20
164.058756
 30
0.0
  0
LWPOLYLINE
  5
117
100
AcDbEntity
  8
PCB
 62
7
100
AcDbPolyline
 90
2
 70
0
 10
133.664191
 20
164.063413
 30
0.0
 10
132.837368
 20
164.063413
 30
0.0
  0
SPLINE
  5
118
100
AcDbEntity
  8
PCB
 62
7
100
AcDbSpline
 70
8
 71
3
 72
8
 73
4
 74
0
 40
0
 40
0
 40
0
 40
0
 40
1
 40
1
 40
1
 40
1
 10
91.211526
 20
164.058756
 30
0.0
 10
91.004873
 20
164.058756
 30
0.0
 10
90.837699
 20
164.226280
 30
0.0
 10
90.837778
 20
164.432933
 30
0.0
  0
SPLINE
  5
119
100
AcDbEntity
  8
PCB
 62
7
100
AcDbSpline
 70
8
 71
3
 72
8
 73
4
 74
0
 40
0
 40
0
 40
0
 40
0
 40
1
 40
1
 40
1
 40
1
 10
90.837778
 20
164.432933
 30
0.0
 10
90.838037
 20
165.117129
 30
0.0
 10
90.835661
 20
165.798352
 30
0.0
 10
90.834921
 20
166.481506
 30
0.0
  0
SPLINE
  5
11a
100
AcDbEntity
  8
PCB
 62
7
100
AcDbSpline
 70
8
 71
3
 72
8
 73
4
 74
0
 40
0
 40
0
 40
0
 40
0
 40
1
 40
1
 40
1
 40
1
 10
90.834921
 20
166.481506
 30
0.0
 10
90.834685
 20
166.694615
 30
0.0
 10
90.661933
 20
166.867372
 30
0.0
 10
90.448822
 20
166.867372
 30
0.0
  0
LWPOLYLINE
  5
11b
100
AcDbEntity
  8
PCB
 62
7
100
AcDbPolyline
 90
2
 70
0
 10
132.789825
 20
164.058756
 30
0.0
 10
91.211526
 20
164.058756
 30
0.0
  0
SPLINE
  5
11c
100
AcDbEntity
  8
PCB
 62
7
100
AcDbSpline
 70
8
 71
3
 72
8
 73
4
 74
0
 40
0
 40
0
 40
0
 40
0
 40
1
 40
1
 40
1
 40
1
 10
67.849016
 20
166.867372
 30
0.0
 10
67.629449
 20
166.867372
 30
0.0
 10
67.435287
 20
167.044876
 30
0.0
 10
67.407699
 20
167.262697
 30
0.0
  0
SPLINE
  5
11d
100
AcDbEntity
  8
PCB
 62
7
100
AcDbSpline
 70
8
 71
3
 72
8
 73
4
 74
0
 40
0
 40
0
 40
0
 40
0
 40
1
 40
1
 40
1
 40
1
 10
67.407699
 20
167.262697
 30
0.0
 10
66.795580
 20
172.095507
 30
0.0
 10
63.505714
 20
176.482851
 30
0.0
 10
58.818560
 20
178.331270
 30
0.0
  0
SPLINE
  5
11e
100
AcDbEntity
  8
PCB
 62
7
100
AcDbSpline
 70
8
 71
3
 72
8
 73
4
 74
0
 40
0
 40
0
 40
0
 40
0
 40
1
 40
1
 40
1
 40
1
 10
58.818560
 20
178.331270
 30
0.0
 10
58.601673
 20
178.416770
 30
0.0
 10
58.423235
 20
178.668627
 30
0.0
 10
58.423235
 20
178.901778
 30
0.0
  0
LWPOLYLINE
  5
11f
100
AcDbEntity
  8
PCB
 62
7
100
AcDbPolyline
 90
2
 70
0
 10
90.448822
 20
166.867372
 30
0.0
 10
67.849016
 20
166.867372
 30
0.0
  0
SPLINE
  5
120
100
AcDbEntity
  8
PCB
 62
7
100
AcDbSpline
 70
8
 71
3
 72
8
 73
4
 74
0
 40
0
 40
0
 40
0
 40
0
 40
1
 40
1
 40
1
 40
1
 10
58.423235
 20
185.618170
 30
0.0
 10
58.423238
 20
186.024581
 30
0.0
 10
58.093773
 20
186.354045
 30
0.0
 10
57.687363
 20
186.354043
 30
0.0
  0
LWPOLYLINE
  5
121
100
AcDbEntity
  8
PCB
 62
7
100
AcDbPolyline
 90
2
 70
0
 10
58.423235
 20
178.901778
 30
0.0
 10
58.423235
 20
185.618170
 30
0.0
  0
SPLINE
  5
122
100
AcDbEntity
  8
PCB
 62
7
100
AcDbSpline
 70
8
 71
3
 72
8
 73
4
 74
0
 40
0
 40
0
 40
0
 40
0
 40
1
 40
1
 40
1
 40
1
 10
56.281764
 20
186.354043
 30
0.0
 10
56.188260
 20
186.354114
 30
0.0
 10
56.094912
 20
186.346343
 30
0.0
 10
56.002710
 20
186.330786
 30
0.0
  0
LWPOLYLINE
  5
123
100
AcDbEntity
  8
PCB
 62
7
100
AcDbPolyline
 90
2
 70
0
 10
57.687363
 20
186.354043
 30
0.0
 10
56.281764
 20
186.354043
 30
0.0
  0
SPLINE
  5
124
100
AcDbEntity
  8
PCB
 62
7
100
AcDbSpline
 70
8
 71
3
 72
8
 73
4
 74
0
 40
0
 40
0
 40
0
 40
0
 40
1
 40
1
 40
1
 40
1
 10
53.679338
 20
183.375940
 30
0.0
 10
53.700637
 20
183.262461
 30
0.0
 10
53.800041
 20
183.180453
 30
0.0
 10
53.915500
 20
183.181120
 30
0.0
  0
LWPOLYLINE
  5
125
100
AcDbEntity
  8
PCB
 62
7
100
AcDbPolyline
 90
4
 70
0
 10
56.002710
 20
186.330786
 30
0.0
 10
56.002710
 20
186.331315
 30
0.0
 10
53.214251
 20
185.858476
 30
0.0
 10
53.679338
 20
183.375940
 30
0.0
  0
SPLINE
  5
126
100
AcDbEntity
  8
PCB
 62
7
100
AcDbSpline
 70
8
 71
3
 72
8
 73
4
 74
0
 40
0
 40
0
 40
0
 40
0
 40
1
 40
1
 40
1
 40
1
 10
54.260699
 20
183.183236
 30
0.0
 10
54.993283
 20
183.188264
 30
0.0
 10
55.588598
 20
182.593422
 30
0.0
 10
55.584132
 20
181.860836
 30
0.0
  0
LWPOLYLINE
  5
127
100
AcDbEntity
  8
PCB
 62
7
100
AcDbPolyline
 90
2
 70
0
 10
53.915500
 20
183.181120
 30
0.0
 10
54.260699
 20
183.183236
 30
0.0
  0
SPLINE
  5
128
100
AcDbEntity
  8
PCB
 62
7
100
AcDbSpline
 70
8
 71
3
 72
8
 73
4
 74
0
 40
0
 40
0
 40
0
 40
0
 40
1
 40
1
 40
1
 40
1
 10
55.571723
 20
179.667173
 30
0.0
 10
55.570135
 20
179.382873
 30
0.0
 10
55.339725
 20
179.182006
 30
0.0
 10
55.056507
 20
179.206737
 30
0.0
  0
SPLINE
  5
129
100
AcDbEntity
  8
PCB
 62
7
100
AcDbSpline
 70
8
 71
3
 72
8
 73
4
 74
0
 40
0
 40
0
 40
0
 40
0
 40
1
 40
1
 40
1
 40
1
 10
55.056507
 20
179.206737
 30
0.0
 10
54.733335
 20
179.234923
 30
0.0
 10
54.406294
 20
179.252044
 30
0.0
 10
54.075173
 20
179.256346
 30
0.0
  0
SPLINE
  5
12a
100
AcDbEntity
  8
PCB
 62
7
100
AcDbSpline
 70
8
 71
3
 72
8
 73
4
 74
0
 40
0
 40
0
 40
0
 40
0
 40
1
 40
1
 40
1
 40
1
 10
54.075173
 20
179.256346
 30
0.0
 10
53.991713
 20
179.257405
 30
0.0
 10
53.856852
 20
179.257405
 30
0.0
 10
53.773382
 20
179.256875
 30
0.0
  0
SPLINE
  5
12b
100
AcDbEntity
  8
PCB
 62
7
100
AcDbSpline
 70
8
 71
3
 72
8
 73
4
 74
0
 40
0
 40
0
 40
0
 40
0
 40
1
 40
1
 40
1
 40
1
 10
53.773382
 20
179.256875
 30
0.0
 10
53.161514
 20
179.250869
 30
0.0
 10
52.537079
 20
179.204504
 30
0.0
 10
51.902695
 20
179.114765
 30
0.0
  0
SPLINE
  5
12c
100
AcDbEntity
  8
PCB
 62
7
100
AcDbSpline
 70
8
 71
3
 72
8
 73
4
 74
0
 40
0
 40
0
 40
0
 40
0
 40
1
 40
1
 40
1
 40
1
 10
51.902695
 20
179.114765
 30
0.0
 10
51.820045
 20
179.103070
 30
0.0
 10
51.723197
 20
179.031794
 30
0.0
 10
51.690304
 20
178.955084
 30
0.0
  0
SPLINE
  5
12d
100
AcDbEntity
  8
PCB
 62
7
100
AcDbSpline
 70
8
 71
3
 72
8
 73
4
 74
0
 40
0
 40
0
 40
0
 40
0
 40
1
 40
1
 40
1
 40
1
 10
51.690304
 20
178.955084
 30
0.0
 10
51.572720
 20
178.680864
 30
0.0
 10
51.509233
 20
178.470605
 30
0.0
 10
51.051584
 20
178.391294
 30
0.0
  0
LWPOLYLINE
  5
12e
100
AcDbEntity
  8
PCB
 62
7
100
AcDbPolyline
 90
2
 70
0
 10
55.584132
 20
181.860836
 30
0.0
 10
55.571723
 20
179.667173
 30
0.0
  0
SPLINE
  5
12f
100
AcDbEntity
  8
PCB
 62
7
100
AcDbSpline
 70
8
 71
3
 72
8
 73
4
 74
0
 40
0
 40
0
 40
0
 40
0
 40
1
 40
1
 40
1
 40
1
 10
49.736419
 20
178.163403
 30
0.0
 10
49.481462
 20
178.119201
 30
0.0
 10
49.207647
 20
178.191213
 30
0.0
 10
49.024317
 20
178.327733
 30
0.0
  0
SPLINE
  5
130
100
AcDbEntity
  8
PCB
 62
7
100
AcDbSpline
 70
8
 71
3
 72
8
 73
4
 74
0
 40
0
 40
0
 40
0
 40
0
 40
1
 40
1
 40
1
 40
1
 10
49.024317
 20
178.327733
 30
0.0
 10
48.959677
 20
178.375831
 30
0.0
 10
48.854166
 20
178.409693
 30
0.0
 10
48.776270
 20
178.388193
 30
0.0
  0
LWPOLYLINE
  5
131
100
AcDbEntity
  8
PCB
 62
7
100
AcDbPolyline
 90
2
 70
0
 10
51.051584
 20
178.391294
 30
0.0
 10
49.736419
 20
178.163403
 30
0.0
  0
SPLINE
  5
132
100
AcDbEntity
  8
PCB
 62
7
100
AcDbSpline
 70
8
 71
3
 72
8
 73
4
 74
0
 40
0
 40
0
 40
0
 40
0
 40
1
 40
1
 40
1
 40
1
 10
45.502570
 20
177.487990
 30
0.0
 10
45.073580
 20
177.370042
 30
0.0
 10
45.046884
 20
177.063884
 30
0.0
 10
45.251938
 20
176.673052
 30
0.0
  0
SPLINE
  5
133
100
AcDbEntity
  8
PCB
 62
7
100
AcDbSpline
 70
8
 71
3
 72
8
 73
4
 74
0
 40
0
 40
0
 40
0
 40
0
 40
1
 40
1
 40
1
 40
1
 10
45.251938
 20
176.673052
 30
0.0
 10
45.735417
 20
175.751533
 30
0.0
 10
45.048259
 20
174.725370
 30
0.0
 10
44.187922
 20
174.725370
 30
0.0
  0
LWPOLYLINE
  5
134
100
AcDbEntity
  8
PCB
 62
7
100
AcDbPolyline
 90
2
 70
0
 10
48.776270
 20
178.388193
 30
0.0
 10
45.502570
 20
177.487990
 30
0.0
  0
SPLINE
  5
135
100
AcDbEntity
  8
PCB
 62
7
100
AcDbSpline
 70
8
 71
3
 72
8
 73
4
 74
0
 40
0
 40
0
 40
0
 40
0
 40
1
 40
1
 40
1
 40
1
 10
43.375050
 20
174.725370
 30
0.0
 10
43.045697
 20
174.725370
 30
0.0
 10
42.778703
 20
174.458376
 30
0.0
 10
42.778703
 20
174.129023
 30
0.0
  0
LWPOLYLINE
  5
136
100
AcDbEntity
  8
PCB
 62
7
100
AcDbPolyline
 90
2
 70
0
 10
44.187922
 20
174.725370
 30
0.0
 10
43.375050
 20
174.725370
 30
0.0
  0
SPLINE
  5
137
100
AcDbEntity
  8
PCB
 62
7
100
AcDbSpline
 70
8
 71
3
 72
8
 73
4
 74
0
 40
0
 40
0
 40
0
 40
0
 40
1
 40
1
 40
1
 40
1
 10
42.778703
 20
172.006670
 30
0.0
 10
42.778703
 20
171.851683
 30
0.0
 10
42.722548
 20
171.613716
 30
0.0
 10
42.655714
 20
171.473887
 30
0.0
  0
SPLINE
  5
138
100
AcDbEntity
  8
PCB
 62
7
100
AcDbSpline
 70
8
 71
3
 72
8
 73
4
 74
0
 40
0
 40
0
 40
0
 40
0
 40
1
 40
1
 40
1
 40
1
 10
42.655714
 20
171.473887
 30
0.0
 10
40.448648
 20
166.855857
 30
0.0
 10
41.228219
 20
162.935770
 30
0.0
 10
42.635050
 20
160.040995
 30
0.0
  0
SPLINE
  5
139
100
AcDbEntity
  8
PCB
 62
7
100
AcDbSpline
 70
8
 71
3
 72
8
 73
4
 74
0
 40
0
 40
0
 40
0
 40
0
 40
1
 40
1
 40
1
 40
1
 10
42.635050
 20
160.040995
 30
0.0
 10
42.709761
 20
159.887264
 30
0.0
 10
42.773028
 20
159.625396
 30
0.0
 10
42.773028
 20
159.454467
 30
0.0
  0
LWPOLYLINE
  5
13a
100
AcDbEntity
  8
PCB
 62
7
100
AcDbPolyline
 90
2
 70
0
 10
42.778703
 20
174.129023
 30
0.0
 10
42.778703
 20
172.006670
 30
0.0
  0
SPLINE
  5
13b
100
AcDbEntity
  8
PCB
 62
7
100
AcDbSpline
 70
8
 71
3
 72
8
 73
4
 74
0
 40
0
 40
0
 40
0
 40
0
 40
1
 40
1
 40
1
 40
1
 10
42.773028
 20
158.659166
 30
0.0
 10
42.773028
 20
158.465425
 30
0.0
 10
42.862732
 20
158.179368
 30
0.0
 10
42.977149
 20
158.023029
 30
0.0
  0
SPLINE
  5
13c
100
AcDbEntity
  8
PCB
 62
7
100
AcDbSpline
 70
8
 71
3
 72
8
 73
4
 74
0
 40
0
 40
0
 40
0
 40
0
 40
1
 40
1
 40
1
 40
1
 10
42.977149
 20
158.023029
 30
0.0
 10
44.513862
 20
155.923459
 30
0.0
 10
46.566809
 20
154.248335
 30
0.0
 10
49.334385
 20
153.160794
 30
0.0
  0
SPLINE
  5
13d
100
AcDbEntity
  8
PCB
 62
7
100
AcDbSpline
 70
8
 71
3
 72
8
 73
4
 74
0
 40
0
 40
0
 40
0
 40
0
 40
1
 40
1
 40
1
 40
1
 10
49.334385
 20
153.160794
 30
0.0
 10
49.445806
 20
153.116995
 30
0.0
 10
49.592314
 20
153.003729
 30
0.0
 10
49.661497
 20
152.906029
 30
0.0
  0
LWPOLYLINE
  5
13e
100
AcDbEntity
  8
PCB
 62
7
100
AcDbPolyline
 90
2
 70
0
 10
42.773028
 20
159.454467
 30
0.0
 10
42.773028
 20
158.659166
 30
0.0
  0
SPLINE
  5
13f
100
AcDbEntity
  8
PCB
 62
7
100
AcDbSpline
 70
8
 71
3
 72
8
 73
4
 74
0
 40
0
 40
0
 40
0
 40
0
 40
1
 40
1
 40
1
 40
1
 10
51.664475
 20
150.077776
 30
0.0
 10
52.688606
 20
148.631601
 30
0.0
 10
53.848745
 20
149.165697
 30
0.0
 10
55.090623
 20
150.042637
 30
0.0
  0
LWPOLYLINE
  5
140
100
AcDbEntity
  8
PCB
 62
7
100
AcDbPolyline
 90
2
 70
0
 10
49.661497
 20
152.906029
 30
0.0
 10
51.664475
 20
150.077776
 30
0.0
  0
SPLINE
  5
141
100
AcDbEntity
  8
PCB
 62
7
100
AcDbSpline
 70
8
 71
3
 72
8
 73
4
 74
0
 40
0
 40
0
 40
0
 40
0
 40
1
 40
1
 40
1
 40
1
 10
56.764938
 20
151.224994
 30
0.0
 10
57.028309
 20
151.410901
 30
0.0
 10
57.391553
 20
151.355193
 30
0.0
 10
57.587109
 20
151.098904
 30
0.0
  0
LWPOLYLINE
  5
142
100
AcDbEntity
  8
PCB
 62
7
100
AcDbPolyline
 90
2
 70
0
 10
55.090623
 20
150.042637
 30
0.0
 10
56.764938
 20
151.224994
 30
0.0
  0
SPLINE
  5
143
100
AcDbEntity
  8
PCB
 62
7
100
AcDbSpline
 70
8
 71
3
 72
8
 73
4
 74
0
 40
0
 40
0
 40
0
 40
0
 40
1
 40
1
 40
1
 40
1
 10
59.118801
 20
149.091275
 30
0.0
 10
59.280525
 20
148.879325
 30
0.0
 10
59.293331
 20
148.526032
 30
0.0
 10
59.173059
 20
148.288222
 30
0.0
  0
SPLINE
  5
144
100
AcDbEntity
  8
PCB
 62
7
100
AcDbSpline
 70
8
 71
3
 72
8
 73
4
 74
0
 40
0
 40
0
 40
0
 40
0
 40
1
 40
1
 40
1
 40
1
 10
59.173059
 20
148.288222
 30
0.0
 10
58.837837
 20
147.625372
 30
0.0
 10
58.649581
 20
146.875866
 30
0.0
 10
58.652161
 20
146.082155
 30
0.0
  0
LWPOLYLINE
  5
145
100
AcDbEntity
  8
PCB
 62
7
100
AcDbPolyline
 90
2
 70
0
 10
57.587109
 20
151.098904
 30
0.0
 10
59.118801
 20
149.091275
 30
0.0
  0
SPLINE
  5
146
100
AcDbEntity
  8
PCB
 62
7
100
AcDbSpline
 70
8
 71
3
 72
8
 73
4
 74
0
 40
0
 40
0
 40
0
 40
0
 40
1
 40
1
 40
1
 40
1
 10
58.660416
 20
143.545360
 30
0.0
 10
58.660945
 20
143.393819
 30
0.0
 10
58.660945
 20
143.196578
 30
0.0
 10
58.970475
 20
143.111279
 30
0.0
  0
SPLINE
  5
147
100
AcDbEntity
  8
PCB
 62
7
100
AcDbSpline
 70
8
 71
3
 72
8
 73
4
 74
0
 40
0
 40
0
 40
0
 40
0
 40
1
 40
1
 40
1
 40
1
 10
58.970475
 20
143.111279
 30
0.0
 10
60.175729
 20
142.779057
 30
0.0
 10
60.468578
 20
141.035895
 30
0.0
 10
58.970475
 20
140.597737
 30
0.0
  0
SPLINE
  5
148
100
AcDbEntity
  8
PCB
 62
7
100
AcDbSpline
 70
8
 71
3
 72
8
 73
4
 74
0
 40
0
 40
0
 40
0
 40
0
 40
1
 40
1
 40
1
 40
1
 10
58.970475
 20
140.597737
 30
0.0
 10
58.799391
 20
140.547736
 30
0.0
 10
58.661283
 20
140.481291
 30
0.0
 10
58.656283
 20
140.242203
 30
0.0
  0
LWPOLYLINE
  5
149
100
AcDbEntity
  8
PCB
 62
7
100
AcDbPolyline
 90
2
 70
0
 10
58.652161
 20
146.082155
 30
0.0
 10
58.660416
 20
143.545360
 30
0.0
  0
SPLINE
  5
14a
100
AcDbEntity
  8
PCB
 62
7
100
AcDbSpline
 70
8
 71
3
 72
8
 73
4
 74
0
 40
0
 40
0
 40
0
 40
0
 40
1
 40
1
 40
1
 40
1
 10
58.652155
 20
137.996862
 30
0.0
 10
58.652158
 20
135.220481
 30
0.0
 10
60.902860
 20
132.969779
 30
0.0
 10
63.679239
 20
132.969779
 30
0.0
  0
LWPOLYLINE
  5
14b
100
AcDbEntity
  8
PCB
 62
7
100
AcDbPolyline
 90
3
 70
0
 10
58.656283
 20
140.242203
 30
0.0
 10
58.652155
 20
139.459823
 30
0.0
 10
58.652155
 20
137.996862
 30
0.0
  0
SPLINE
  5
14c
100
AcDbEntity
  8
PCB
 62
7
100
AcDbSpline
 70
8
 71
3
 72
8
 73
4
 74
0
 40
0
 40
0
 40
0
 40
0
 40
1
 40
1
 40
1
 40
1
 10
67.693981
 20
132.969779
 30
0.0
 10
68.228257
 20
132.969779
 30
0.0
 10
68.661369
 20
133.402891
 30
0.0
 10
68.661364
 20
133.937161
 30
0.0
  0
LWPOLYLINE
  5
14d
100
AcDbEntity
  8
PCB
 62
7
100
AcDbPolyline
 90
2
 70
0
 10
63.679239
 20
132.969779
 30
0.0
 10
67.693981
 20
132.969779
 30
0.0
  0
SPLINE
  5
14e
100
AcDbEntity
  8
PCB
 62
7
100
AcDbSpline
 70
8
 71
3
 72
8
 73
4
 74
0
 40
0
 40
0
 40
0
 40
0
 40
1
 40
1
 40
1
 40
1
 10
68.661364
 20
154.186054
 30
0.0
 10
68.661364
 20
154.324205
 30
0.0
 10
68.606484
 20
154.456698
 30
0.0
 10
68.508796
 20
154.554385
 30
0.0
  0
SPLINE
  5
14f
100
AcDbEntity
  8
PCB
 62
7
100
AcDbSpline
 70
8
 71
3
 72
8
 73
4
 74
0
 40
0
 40
0
 40
0
 40
0
 40
1
 40
1
 40
1
 40
1
 10
68.508796
 20
154.554385
 30
0.0
 10
68.411109
 20
154.652073
 30
0.0
 10
68.278616
 20
154.706953
 30
0.0
 10
68.140465
 20
154.706953
 30
0.0
  0
LWPOLYLINE
  5
150
100
AcDbEntity
  8
PCB
 62
7
100
AcDbPolyline
 90
2
 70
0
 10
68.661364
 20
133.937161
 30
0.0
 10
68.661364
 20
154.186054
 30
0.0
  0
SPLINE
  5
151
100
AcDbEntity
  8
PCB
 62
7
100
AcDbSpline
 70
8
 71
3
 72
8
 73
4
 74
0
 40
0
 40
0
 40
0
 40
0
 40
1
 40
1
 40
1
 40
1
 10
66.255309
 20
154.706953
 30
0.0
 10
66.104001
 20
154.706953
 30
0.0
 10
65.958890
 20
154.646846
 30
0.0
 10
65.851899
 20
154.539855
 30
0.0
  0
SPLINE
  5
152
100
AcDbEntity
  8
PCB
 62
7
100
AcDbSpline
 70
8
 71
3
 72
8
 73
4
 74
0
 40
0
 40
0
 40
0
 40
0
 40
1
 40
1
 40
1
 40
1
 10
65.851899
 20
154.539855
 30
0.0
 10
65.744908
 20
154.432864
 30
0.0
 10
65.684801
 20
154.287753
 30
0.0
 10
65.684801
 20
154.136445
 30
0.0
  0
LWPOLYLINE
  5
153
100
AcDbEntity
  8
PCB
 62
7
100
AcDbPolyline
 90
2
 70
0
 10
68.140465
 20
154.706953
 30
0.0
 10
66.255309
 20
154.706953
 30
0.0
  0
SPLINE
  5
154
100
AcDbEntity
  8
PCB
 62
7
100
AcDbSpline
 70
8
 71
3
 72
8
 73
4
 74
0
 40
0
 40
0
 40
0
 40
0
 40
1
 40
1
 40
1
 40
1
 10
65.684801
 20
151.725302
 30
0.0
 10
65.684802
 20
151.526826
 30
0.0
 10
65.605957
 20
151.336479
 30
0.0
 10
65.465613
 20
151.196135
 30
0.0
  0
SPLINE
  5
155
100
AcDbEntity
  8
PCB
 62
7
100
AcDbSpline
 70
8
 71
3
 72
8
 73
4
 74
0
 40
0
 40
0
 40
0
 40
0
 40
1
 40
1
 40
1
 40
1
 10
65.465613
 20
151.196135
 30
0.0
 10
65.325269
 20
151.055791
 30
0.0
 10
65.134922
 20
150.976947
 30
0.0
 10
64.936446
 20
150.976947
 30
0.0
  0
LWPOLYLINE
  5
156
100
AcDbEntity
  8
PCB
 62
7
100
AcDbPolyline
 90
2
 70
0
 10
65.684801
 20
154.136445
 30
0.0
 10
65.684801
 20
151.725302
 30
0.0
  0
SPLINE
  5
157
100
AcDbEntity
  8
PCB
 62
7
100
AcDbSpline
 70
8
 71
3
 72
8
 73
4
 74
0
 40
0
 40
0
 40
0
 40
0
 40
1
 40
1
 40
1
 40
1
 10
63.546947
 20
150.976947
 30
0.0
 10
63.231484
 20
150.976947
 30
0.0
 10
62.922988
 20
150.947131
 30
0.0
 10
62.624006
 20
150.890132
 30
0.0
  0
SPLINE
  5
158
100
AcDbEntity
  8
PCB
 62
7
100
AcDbSpline
 70
8
 71
3
 72
8
 73
4
 74
0
 40
0
 40
0
 40
0
 40
0
 40
1
 40
1
 40
1
 40
1
 10
62.624006
 20
150.890132
 30
0.0
 10
62.401994
 20
150.847830
 30
0.0
 10
62.114651
 20
150.942437
 30
0.0
 10
61.977534
 20
151.122158
 30
0.0
  0
LWPOLYLINE
  5
159
100
AcDbEntity
  8
PCB
 62
7
100
AcDbPolyline
 90
2
 70
0
 10
64.936446
 20
150.976947
 30
0.0
 10
63.546947
 20
150.976947
 30
0.0
  0
SPLINE
  5
15a
100
AcDbEntity
  8
PCB
 62
7
100
AcDbSpline
 70
8
 71
3
 72
8
 73
4
 74
0
 40
0
 40
0
 40
0
 40
0
 40
1
 40
1
 40
1
 40
1
 10
60.453597
 20
153.119969
 30
0.0
 10
60.261626
 20
153.371754
 30
0.0
 10
60.316959
 20
153.732577
 30
0.0
 10
60.575554
 20
153.915269
 30
0.0
  0
LWPOLYLINE
  5
15b
100
AcDbEntity
  8
PCB
 62
7
100
AcDbPolyline
 90
2
 70
0
 10
61.977534
 20
151.122158
 30
0.0
 10
60.453597
 20
153.119969
 30
0.0
  0
SPLINE
  5
15c
100
AcDbEntity
  8
PCB
 62
7
100
AcDbSpline
 70
8
 71
3
 72
8
 73
4
 74
0
 40
0
 40
0
 40
0
 40
0
 40
1
 40
1
 40
1
 40
1
 10
61.217891
 20
154.368990
 30
0.0
 10
63.779934
 20
156.188022
 30
0.0
 10
65.474106
 20
158.338105
 30
0.0
 10
66.452786
 20
160.599030
 30
0.0
  0
SPLINE
  5
15d
100
AcDbEntity
  8
PCB
 62
7
100
AcDbSpline
 70
8
 71
3
 72
8
 73
4
 74
0
 40
0
 40
0
 40
0
 40
0
 40
1
 40
1
 40
1
 40
1
 10
66.452786
 20
160.599030
 30
0.0
 10
66.599704
 20
160.938435
 30
0.0
 10
67.002675
 20
161.220251
 30
0.0
 10
67.372555
 20
161.220251
 30
0.0
  0
LWPOLYLINE
  5
15e
100
AcDbEntity
  8
PCB
 62
7
100
AcDbPolyline
 90
2
 70
0
 10
60.575554
 20
153.915269
 30
0.0
 10
61.217891
 20
154.368990
 30
0.0
  0
SPLINE
  5
15f
100
AcDbEntity
  8
PCB
 62
7
100
AcDbSpline
 70
8
 71
3
 72
8
 73
4
 74
0
 40
0
 40
0
 40
0
 40
0
 40
1
 40
1
 40
1
 40
1
 10
69.769306
 20
161.220251
 30
0.0
 10
69.909650
 20
161.220251
 30
0.0
 10
70.044246
 20
161.276002
 30
0.0
 10
70.143484
 20
161.375240
 30
0.0
  0
SPLINE
  5
160
100
AcDbEntity
  8
PCB
 62
7
100
AcDbSpline
 70
8
 71
3
 72
8
 73
4
 74
0
 40
0
 40
0
 40
0
 40
0
 40
1
 40
1
 40
1
 40
1
 10
70.143484
 20
161.375240
 30
0.0
 10
70.242722
 20
161.474478
 30
0.0
 10
70.298473
 20
161.609074
 30
0.0
 10
70.298473
 20
161.749418
 30
0.0
  0
LWPOLYLINE
  5
161
100
AcDbEntity
  8
PCB
 62
7
100
AcDbPolyline
 90
2
 70
0
 10
67.372555
 20
161.220251
 30
0.0
 10
69.769306
 20
161.220251
 30
0.0
  0
SPLINE
  5
162
100
AcDbEntity
  8
PCB
 62
7
100
AcDbSpline
 70
8
 71
3
 72
8
 73
4
 74
0
 40
0
 40
0
 40
0
 40
0
 40
1
 40
1
 40
1
 40
1
 10
70.298473
 20
164.053153
 30
0.0
 10
70.298473
 20
164.136482
 30
0.0
 10
70.331576
 20
164.216398
 30
0.0
 10
70.390498
 20
164.275320
 30
0.0
  0
SPLINE
  5
163
100
AcDbEntity
  8
PCB
 62
7
100
AcDbSpline
 70
8
 71
3
 72
8
 73
4
 74
0
 40
0
 40
0
 40
0
 40
0
 40
1
 40
1
 40
1
 40
1
 10
70.390498
 20
164.275320
 30
0.0
 10
70.449421
 20
164.334243
 30
0.0
 10
70.529337
 20
164.367345
 30
0.0
 10
70.612666
 20
164.367345
 30
0.0
  0
LWPOLYLINE
  5
164
100
AcDbEntity
  8
PCB
 62
7
100
AcDbPolyline
 90
2
 70
0
 10
70.298473
 20
161.749418
 30
0.0
 10
70.298473
 20
164.053153
 30
0.0
  0
SPLINE
  5
165
100
AcDbEntity
  8
PCB
 62
7
100
AcDbSpline
 70
8
 71
3
 72
8
 73
4
 74
0
 40
0
 40
0
 40
0
 40
0
 40
1
 40
1
 40
1
 40
1
 10
88.118211
 20
164.367345
 30
0.0
 10
88.220550
 20
164.367345
 30
0.0
 10
88.318698
 20
164.326691
 30
0.0
 10
88.391063
 20
164.254326
 30
0.0
  0
SPLINE
  5
166
100
AcDbEntity
  8
PCB
 62
7
100
AcDbSpline
 70
8
 71
3
 72
8
 73
4
 74
0
 40
0
 40
0
 40
0
 40
0
 40
1
 40
1
 40
1
 40
1
 10
88.391063
 20
164.254326
 30
0.0
 10
88.463428
 20
164.181962
 30
0.0
 10
88.504082
 20
164.083814
 30
0.0
 10
88.504082
 20
163.981474
 30
0.0
  0
LWPOLYLINE
  5
167
100
AcDbEntity
  8
PCB
 62
7
100
AcDbPolyline
 90
2
 70
0
 10
70.612666
 20
164.367345
 30
0.0
 10
88.118211
 20
164.367345
 30
0.0
  0
SPLINE
  5
168
100
AcDbEntity
  8
PCB
 62
7
100
AcDbSpline
 70
8
 71
3
 72
8
 73
4
 74
0
 40
0
 40
0
 40
0
 40
0
 40
1
 40
1
 40
1
 40
1
 10
88.504082
 20
162.188068
 30
0.0
 10
88.504082
 20
162.070222
 30
0.0
 10
88.550895
 20
161.957204
 30
0.0
 10
88.634225
 20
161.873875
 30
0.0
  0
SPLINE
  5
169
100
AcDbEntity
  8
PCB
 62
7
100
AcDbSpline
 70
8
 71
3
 72
8
 73
4
 74
0
 40
0
 40
0
 40
0
 40
0
 40
1
 40
1
 40
1
 40
1
 10
88.634225
 20
161.873875
 30
0.0
 10
88.717554
 20
161.790545
 30
0.0
 10
88.830572
 20
161.743732
 30
0.0
 10
88.948418
 20
161.743732
 30
0.0
  0
LWPOLYLINE
  5
16a
100
AcDbEntity
  8
PCB
 62
7
100
AcDbPolyline
 90
2
 70
0
 10
88.504082
 20
163.981474
 30
0.0
 10
88.504082
 20
162.188068
 30
0.0
  0
SPLINE
  5
16b
100
AcDbEntity
  8
PCB
 62
7
100
AcDbSpline
 70
8
 71
3
 72
8
 73
4
 74
0
 40
0
 40
0
 40
0
 40
0
 40
1
 40
1
 40
1
 40
1
 10
131.886445
 20
161.743732
 30
0.0
 10
132.061875
 20
161.743732
 30
0.0
 10
132.230119
 20
161.674043
 30
0.0
 10
132.354167
 20
161.549995
 30
0.0
  0
SPLINE
  5
16c
100
AcDbEntity
  8
PCB
 62
7
100
AcDbSpline
 70
8
 71
3
 72
8
 73
4
 74
0
 40
0
 40
0
 40
0
 40
0
 40
1
 40
1
 40
1
 40
1
 10
132.354167
 20
161.549995
 30
0.0
 10
132.478214
 20
161.425948
 30
0.0
 10
132.547903
 20
161.257703
 30
0.0
 10
132.547903
 20
161.082273
 30
0.0
  0
LWPOLYLINE
  5
16d
100
AcDbEntity
  8
PCB
 62
7
100
AcDbPolyline
 90
3
 70
0
 10
88.948418
 20
161.743732
 30
0.0
 10
90.837273
 20
161.743732
 30
0.0
 10
131.886445
 20
161.743732
 30
0.0
  0
SPLINE
  5
16e
100
AcDbEntity
  8
PCB
 62
7
100
AcDbSpline
 70
8
 71
3
 72
8
 73
4
 74
0
 40
0
 40
0
 40
0
 40
0
 40
1
 40
1
 40
1
 40
1
 10
132.547903
 20
158.916516
 30
0.0
 10
132.547903
 20
158.854916
 30
0.0
 10
132.597918
 20
158.804894
 30
0.0
 10
132.659523
 20
158.804894
 30
0.0
  0
LWPOLYLINE
  5
16f
100
AcDbEntity
  8
PCB
 62
7
100
AcDbPolyline
 90
2
 70
0
 10
132.547903
 20
161.082273
 30
0.0
 10
132.547903
 20
158.916516
 30
0.0
  0
SPLINE
  5
170
100
AcDbEntity
  8
PCB
 62
7
100
AcDbSpline
 70
8
 71
3
 72
8
 73
4
 74
0
 40
0
 40
0
 40
0
 40
0
 40
1
 40
1
 40
1
 40
1
 10
132.849695
 20
158.809021
 30
0.0
 10
132.849695
 20
159.213154
 30
0.0
 10
133.177302
 20
159.540761
 30
0.0
 10
133.581432
 20
159.540761
 30
0.0
  0
SPLINE
  5
171
100
AcDbEntity
  8
PCB
 62
7
100
AcDbSpline
 70
8
 71
3
 72
8
 73
4
 74
0
 40
0
 40
0
 40
0
 40
0
 40
1
 40
1
 40
1
 40
1
 10
133.581432
 20
159.540761
 30
0.0
 10
133.985562
 20
159.540761
 30
0.0
 10
134.313172
 20
159.213154
 30
0.0
 10
134.313169
 20
158.809021
 30
0.0
  0
LWPOLYLINE
  5
172
100
AcDbEntity
  8
PCB
 62
7
100
AcDbPolyline
 90
3
 70
0
 10
132.659523
 20
158.804894
 30
0.0
 10
132.849695
 20
158.804894
 30
0.0
 10
132.849695
 20
158.809021
 30
0.0
  0
SPLINE
  5
173
100
AcDbEntity
  8
PCB
 62
7
100
AcDbSpline
 70
8
 71
3
 72
8
 73
4
 74
0
 40
0
 40
0
 40
0
 40
0
 40
1
 40
1
 40
1
 40
1
 10
134.421690
 20
158.804788
 30
0.0
 10
134.505690
 20
158.804788
 30
0.0
 10
134.573619
 20
158.872807
 30
0.0
 10
134.573619
 20
158.956717
 30
0.0
  0
LWPOLYLINE
  5
174
100
AcDbEntity
  8
PCB
 62
7
100
AcDbPolyline
 90
10
 70
0
 10
134.313169
 20
158.809021
 30
0.0
 10
134.313169
 20
158.808492
 30
0.0
 10
134.313169
 20
158.807963
 30
0.0
 10
134.313169
 20
158.807434
 30
0.0
 10
134.313169
 20
158.806904
 30
0.0
 10
134.313169
 20
158.806375
 30
0.0
 10
134.313169
 20
158.805846
 30
0.0
 10
134.313169
 20
158.805317
 30
0.0
 10
134.313169
 20
158.804788
 30
0.0
 10
134.421690
 20
158.804788
 30
0.0
  0
SPLINE
  5
175
100
AcDbEntity
  8
PCB
 62
7
100
AcDbSpline
 70
8
 71
3
 72
8
 73
4
 74
0
 40
0
 40
0
 40
0
 40
0
 40
1
 40
1
 40
1
 40
1
 10
134.573619
 20
161.124059
 30
0.0
 10
134.573620
 20
161.206292
 30
0.0
 10
134.606287
 20
161.285156
 30
0.0
 10
134.664434
 20
161.343303
 30
0.0
  0
SPLINE
  5
176
100
AcDbEntity
  8
PCB
 62
7
100
AcDbSpline
 70
8
 71
3
 72
8
 73
4
 74
0
 40
0
 40
0
 40
0
 40
0
 40
1
 40
1
 40
1
 40
1
 10
134.664434
 20
161.343303
 30
0.0
 10
134.722582
 20
161.401450
 30
0.0
 10
134.801447
 20
161.434117
 30
0.0
 10
134.883679
 20
161.434116
 30
0.0
  0
LWPOLYLINE
  5
177
100
AcDbEntity
  8
PCB
 62
7
100
AcDbPolyline
 90
2
 70
0
 10
134.573619
 20
158.956717
 30
0.0
 10
134.573619
 20
161.124059
 30
0.0
  0
SPLINE
  5
178
100
AcDbEntity
  8
PCB
 62
7
100
AcDbSpline
 70
8
 71
3
 72
8
 73
4
 74
0
 40
0
 40
0
 40
0
 40
0
 40
1
 40
1
 40
1
 40
1
 10
136.238462
 20
161.434116
 30
0.0
 10
136.305345
 20
161.434117
 30
0.0
 10
136.369489
 20
161.407548
 30
0.0
 10
136.416783
 20
161.360254
 30
0.0
  0
SPLINE
  5
179
100
AcDbEntity
  8
PCB
 62
7
100
AcDbSpline
 70
8
 71
3
 72
8
 73
4
 74
0
 40
0
 40
0
 40
0
 40
0
 40
1
 40
1
 40
1
 40
1
 10
136.416783
 20
161.360254
 30
0.0
 10
136.464076
 20
161.312961
 30
0.0
 10
136.490645
 20
161.248817
 30
0.0
 10
136.490645
 20
161.181934
 30
0.0
  0
LWPOLYLINE
  5
17a
100
AcDbEntity
  8
PCB
 62
7
100
AcDbPolyline
 90
2
 70
0
 10
134.883679
 20
161.434116
 30
0.0
 10
136.238462
 20
161.434116
 30
0.0
  0
SPLINE
  5
17b
100
AcDbEntity
  8
PCB
 62
7
100
AcDbSpline
 70
8
 71
3
 72
8
 73
4
 74
0
 40
0
 40
0
 40
0
 40
0
 40
1
 40
1
 40
1
 40
1
 10
136.490645
 20
158.969718
 30
0.0
 10
136.490644
 20
158.924751
 30
0.0
 10
136.508508
 20
158.881625
 30
0.0
 10
136.540305
 20
158.849828
 30
0.0
  0
SPLINE
  5
17c
100
AcDbEntity
  8
PCB
 62
7
100
AcDbSpline
 70
8
 71
3
 72
8
 73
4
 74
0
 40
0
 40
0
 40
0
 40
0
 40
1
 40
1
 40
1
 40
1
 10
136.540305
 20
158.849828
 30
0.0
 10
136.572101
 20
158.818031
 30
0.0
 10
136.615227
 20
158.800168
 30
0.0
 10
136.660195
 20
158.800168
 30
0.0
  0
LWPOLYLINE
  5
17d
100
AcDbEntity
  8
PCB
 62
7
100
AcDbPolyline
 90
2
 70
0
 10
136.490645
 20
161.181934
 30
0.0
 10
136.490645
 20
158.969718
 30
0.0
  0
SPLINE
  5
17e
100
AcDbEntity
  8
PCB
 62
7
100
AcDbSpline
 70
8
 71
3
 72
8
 73
4
 74
0
 40
0
 40
0
 40
0
 40
0
 40
1
 40
1
 40
1
 40
1
 10
136.802253
 20
158.800168
 30
0.0
 10
136.808735
 20
159.197162
 30
0.0
 10
137.132294
 20
159.515660
 30
0.0
 10
137.529341
 20
159.515887
 30
0.0
  0
SPLINE
  5
17f
100
AcDbEntity
  8
PCB
 62
7
100
AcDbSpline
 70
8
 71
3
 72
8
 73
4
 74
0
 40
0
 40
0
 40
0
 40
0
 40
1
 40
1
 40
1
 40
1
 10
137.529341
 20
159.515887
 30
0.0
 10
137.926589
 20
159.515940
 30
0.0
 10
138.250457
 20
159.197363
 30
0.0
 10
138.256945
 20
158.800168
 30
0.0
  0
LWPOLYLINE
  5
180
100
AcDbEntity
  8
PCB
 62
7
100
AcDbPolyline
 90
2
 70
0
 10
136.660195
 20
158.800168
 30
0.0
 10
136.802253
 20
158.800168
 30
0.0
  0
SPLINE
  5
181
100
AcDbEntity
  8
PCB
 62
7
100
AcDbSpline
 70
8
 71
3
 72
8
 73
4
 74
0
 40
0
 40
0
 40
0
 40
0
 40
1
 40
1
 40
1
 40
1
 10
138.411133
 20
158.800168
 30
0.0
 10
138.498315
 20
158.800168
 30
0.0
 10
138.568989
 20
158.870843
 30
0.0
 10
138.568989
 20
158.958024
 30
0.0
  0
LWPOLYLINE
  5
182
100
AcDbEntity
  8
PCB
 62
7
100
AcDbPolyline
 90
2
 70
0
 10
138.256945
 20
158.800168
 30
0.0
 10
138.411133
 20
158.800168
 30
0.0
  0
SPLINE
  5
183
100
AcDbEntity
  8
PCB
 62
7
100
AcDbSpline
 70
8
 71
3
 72
8
 73
4
 74
0
 40
0
 40
0
 40
0
 40
0
 40
1
 40
1
 40
1
 40
1
 10
138.568989
 20
161.190202
 30
0.0
 10
138.568989
 20
161.254892
 30
0.0
 10
138.594687
 20
161.316933
 30
0.0
 10
138.640430
 20
161.362676
 30
0.0
  0
SPLINE
  5
184
100
AcDbEntity
  8
PCB
 62
7
100
AcDbSpline
 70
8
 71
3
 72
8
 73
4
 74
0
 40
0
 40
0
 40
0
 40
0
 40
1
 40
1
 40
1
 40
1
 10
138.640430
 20
161.362676
 30
0.0
 10
138.686172
 20
161.408419
 30
0.0
 10
138.748213
 20
161.434117
 30
0.0
 10
138.812903
 20
161.434116
 30
0.0
  0
LWPOLYLINE
  5
185
100
AcDbEntity
  8
PCB
 62
7
100
AcDbPolyline
 90
2
 70
0
 10
138.568989
 20
158.958024
 30
0.0
 10
138.568989
 20
161.190202
 30
0.0
  0
SPLINE
  5
186
100
AcDbEntity
  8
PCB
 62
7
100
AcDbSpline
 70
8
 71
3
 72
8
 73
4
 74
0
 40
0
 40
0
 40
0
 40
0
 40
1
 40
1
 40
1
 40
1
 10
142.015102
 20
161.434116
 30
0.0
 10
142.146675
 20
161.434116
 30
0.0
 10
142.272858
 20
161.486383
 30
0.0
 10
142.365894
 20
161.579419
 30
0.0
  0
SPLINE
  5
187
100
AcDbEntity
  8
PCB
 62
7
100
AcDbSpline
 70
8
 71
3
 72
8
 73
4
 74
0
 40
0
 40
0
 40
0
 40
0
 40
1
 40
1
 40
1
 40
1
 10
142.365894
 20
161.579419
 30
0.0
 10
142.458929
 20
161.672454
 30
0.0
 10
142.511196
 20
161.798638
 30
0.0
 10
142.511196
 20
161.930210
 30
0.0
  0
LWPOLYLINE
  5
188
100
AcDbEntity
  8
PCB
 62
7
100
AcDbPolyline
 90
2
 70
0
 10
138.812903
 20
161.434116
 30
0.0
 10
142.015102
 20
161.434116
 30
0.0
  0
SPLINE
  5
189
100
AcDbEntity
  8
PCB
 62
7
100
AcDbSpline
 70
8
 71
3
 72
8
 73
4
 74
0
 40
0
 40
0
 40
0
 40
0
 40
1
 40
1
 40
1
 40
1
 10
142.511196
 20
162.690887
 30
0.0
 10
142.511196
 20
162.804916
 30
0.0
 10
142.556494
 20
162.914275
 30
0.0
 10
142.637125
 20
162.994906
 30
0.0
  0
SPLINE
  5
18a
100
AcDbEntity
  8
PCB
 62
7
100
AcDbSpline
 70
8
 71
3
 72
8
 73
4
 74
0
 40
0
 40
0
 40
0
 40
0
 40
1
 40
1
 40
1
 40
1
 10
142.637125
 20
162.994906
 30
0.0
 10
142.717756
 20
163.075537
 30
0.0
 10
142.827115
 20
163.120835
 30
0.0
 10
142.941144
 20
163.120835
 30
0.0
  0
LWPOLYLINE
  5
18b
100
AcDbEntity
  8
PCB
 62
7
100
AcDbPolyline
 90
2
 70
0
 10
142.511196
 20
161.930210
 30
0.0
 10
142.511196
 20
162.690887
 30
0.0
  0
SPLINE
  5
18c
100
AcDbEntity
  8
PCB
 62
7
100
AcDbSpline
 70
8
 71
3
 72
8
 73
4
 74
0
 40
0
 40
0
 40
0
 40
0
 40
1
 40
1
 40
1
 40
1
 10
144.966860
 20
163.120835
 30
0.0
 10
145.213441
 20
163.120835
 30
0.0
 10
145.427039
 20
162.920995
 30
0.0
 10
145.461919
 20
162.676936
 30
0.0
  0
SPLINE
  5
18d
100
AcDbEntity
  8
PCB
 62
7
100
AcDbSpline
 70
8
 71
3
 72
8
 73
4
 74
0
 40
0
 40
0
 40
0
 40
0
 40
1
 40
1
 40
1
 40
1
 10
145.461919
 20
162.676936
 30
0.0
 10
145.606469
 20
161.665574
 30
0.0
 10
145.970335
 20
160.726470
 30
0.0
 10
146.425685
 20
159.817160
 30
0.0
  0
SPLINE
  5
18e
100
AcDbEntity
  8
PCB
 62
7
100
AcDbSpline
 70
8
 71
3
 72
8
 73
4
 74
0
 40
0
 40
0
 40
0
 40
0
 40
1
 40
1
 40
1
 40
1
 10
146.425685
 20
159.817160
 30
0.0
 10
146.495586
 20
159.677550
 30
0.0
 10
146.506156
 20
159.448283
 30
0.0
 10
146.446349
 20
159.304014
 30
0.0
  0
LWPOLYLINE
  5
18f
100
AcDbEntity
  8
PCB
 62
7
100
AcDbPolyline
 90
2
 70
0
 10
142.941144
 20
163.120835
 30
0.0
 10
144.966860
 20
163.120835
 30
0.0
  0
SPLINE
  5
190
100
AcDbEntity
  8
PCB
 62
7
100
AcDbSpline
 70
8
 71
3
 72
8
 73
4
 74
0
 40
0
 40
0
 40
0
 40
0
 40
1
 40
1
 40
1
 40
1
 10
145.719777
 20
157.551150
 30
0.0
 10
145.627477
 20
157.328439
 30
0.0
 10
145.728693
 20
157.072870
 30
0.0
 10
145.949221
 20
156.974440
 30
0.0
  0
LWPOLYLINE
  5
191
100
AcDbEntity
  8
PCB
 62
7
100
AcDbPolyline
 90
2
 70
0
 10
146.446349
 20
159.304014
 30
0.0
 10
145.719777
 20
157.551150
 30
0.0
  0
SPLINE
  5
192
100
AcDbEntity
  8
PCB
 62
7
100
AcDbSpline
 70
8
 71
3
 72
8
 73
4
 74
0
 40
0
 40
0
 40
0
 40
0
 40
1
 40
1
 40
1
 40
1
 10
151.619160
 20
154.438160
 30
0.0
 10
151.824188
 20
154.346461
 30
0.0
 10
152.065086
 20
154.432868
 30
0.0
 10
152.164347
 20
154.634531
 30
0.0
  0
LWPOLYLINE
  5
193
100
AcDbEntity
  8
PCB
 62
7
100
AcDbPolyline
 90
2
 70
0
 10
145.949221
 20
156.974440
 30
0.0
 10
151.619160
 20
154.438160
 30
0.0
  0
SPLINE
  5
194
100
AcDbEntity
  8
PCB
 62
7
100
AcDbSpline
 70
8
 71
3
 72
8
 73
4
 74
0
 40
0
 40
0
 40
0
 40
0
 40
1
 40
1
 40
1
 40
1
 10
153.061964
 20
156.456642
 30
0.0
 10
153.082073
 20
156.497343
 30
0.0
 10
153.122631
 20
156.524757
 30
0.0
 10
153.167901
 20
156.527956
 30
0.0
  0
LWPOLYLINE
  5
195
100
AcDbEntity
  8
PCB
 62
7
100
AcDbPolyline
 90
2
 70
0
 10
152.164347
 20
154.634531
 30
0.0
 10
153.061964
 20
156.456642
 30
0.0
  0
SPLINE
  5
196
100
AcDbEntity
  8
PCB
 62
7
100
AcDbSpline
 70
8
 71
3
 72
8
 73
4
 74
0
 40
0
 40
0
 40
0
 40
0
 40
1
 40
1
 40
1
 40
1
 10
153.351352
 20
156.540867
 30
0.0
 10
153.408452
 20
156.544862
 30
0.0
 10
153.464081
 20
156.521949
 30
0.0
 10
153.501731
 20
156.478854
 30
0.0
  0
LWPOLYLINE
  5
197
100
AcDbEntity
  8
PCB
 62
7
100
AcDbPolyline
 90
2
 70
0
 10
153.167901
 20
156.527956
 30
0.0
 10
153.351352
 20
156.540867
 30
0.0
  0
SPLINE
  5
198
100
AcDbEntity
  8
PCB
 62
7
100
AcDbSpline
 70
8
 71
3
 72
8
 73
4
 74
0
 40
0
 40
0
 40
0
 40
0
 40
1
 40
1
 40
1
 40
1
 10
154.814313
 20
154.975071
 30
0.0
 10
154.998164
 20
154.764471
 30
0.0
 10
155.316585
 20
154.739425
 30
0.0
 10
155.531064
 20
154.918744
 30
0.0
  0
LWPOLYLINE
  5
199
100
AcDbEntity
  8
PCB
 62
7
100
AcDbPolyline
 90
2
 70
0
 10
153.501731
 20
156.478854
 30
0.0
 10
154.814313
 20
154.975071
 30
0.0
  0
SPLINE
  5
19a
100
AcDbEntity
  8
PCB
 62
7
100
AcDbSpline
 70
8
 71
3
 72
8
 73
4
 74
0
 40
0
 40
0
 40
0
 40
0
 40
1
 40
1
 40
1
 40
1
 10
160.736950
 20
159.271449
 30
0.0
 10
160.804548
 20
159.327951
 30
0.0
 10
160.890138
 20
159.358783
 30
0.0
 10
160.978279
 20
159.358783
 30
0.0
  0
LWPOLYLINE
  5
19b
100
AcDbEntity
  8
PCB
 62
7
100
AcDbPolyline
 90
2
 70
0
 10
155.531064
 20
154.918744
 30
0.0
 10
160.736950
 20
159.271449
 30
0.0
  0
SPLINE
  5
19c
100
AcDbEntity
  8
PCB
 62
7
100
AcDbSpline
 70
8
 71
3
 72
8
 73
4
 74
0
 40
0
 40
0
 40
0
 40
0
 40
1
 40
1
 40
1
 40
1
 10
168.539581
 20
159.358783
 30
0.0
 10
168.745072
 20
159.358783
 30
0.0
 10
168.911652
 20
159.525362
 30
0.0
 10
168.911652
 20
159.730853
 30
0.0
  0
LWPOLYLINE
  5
19d
100
AcDbEntity
  8
PCB
 62
7
100
AcDbPolyline
 90
2
 70
0
 10
160.978279
 20
159.358783
 30
0.0
 10
168.539581
 20
159.358783
 30
0.0
  0
SPLINE
  5
19e
100
AcDbEntity
  8
PCB
 62
7
100
AcDbSpline
 70
8
 71
3
 72
8
 73
4
 74
0
 40
0
 40
0
 40
0
 40
0
 40
1
 40
1
 40
1
 40
1
 10
168.911652
 20
161.731773
 30
0.0
 10
168.911652
 20
161.882392
 30
0.0
 10
168.984089
 20
162.023661
 30
0.0
 10
169.105954
 20
162.112111
 30
0.0
  0
LWPOLYLINE
  5
19f
100
AcDbEntity
  8
PCB
 62
7
100
AcDbPolyline
 90
2
 70
0
 10
168.911652
 20
159.730853
 30
0.0
 10
168.911652
 20
161.731773
 30
0.0
  0
SPLINE
  5
1a0
100
AcDbEntity
  8
PCB
 62
7
100
AcDbSpline
 70
8
 71
3
 72
8
 73
4
 74
0
 40
0
 40
0
 40
0
 40
0
 40
1
 40
1
 40
1
 40
1
 10
170.034580
 20
162.786489
 30
0.0
 10
170.123779
 20
162.851188
 30
0.0
 10
170.176691
 20
162.954327
 30
0.0
 10
170.176691
 20
163.064508
 30
0.0
  0
LWPOLYLINE
  5
1a1
100
AcDbEntity
  8
PCB
 62
7
100
AcDbPolyline
 90
2
 70
0
 10
169.105954
 20
162.112111
 30
0.0
 10
170.034580
 20
162.786489
 30
0.0
  0
SPLINE
  5
1a2
100
AcDbEntity
  8
PCB
 62
7
100
AcDbSpline
 70
8
 71
3
 72
8
 73
4
 74
0
 40
0
 40
0
 40
0
 40
0
 40
1
 40
1
 40
1
 40
1
 10
170.176691
 20
164.112507
 30
0.0
 10
170.176691
 20
164.222285
 30
0.0
 10
170.225144
 20
164.386207
 30
0.0
 10
170.283143
 20
164.479410
 30
0.0
  0
SPLINE
  5
1a3
100
AcDbEntity
  8
PCB
 62
7
100
AcDbSpline
 70
8
 71
3
 72
8
 73
4
 74
0
 40
0
 40
0
 40
0
 40
0
 40
1
 40
1
 40
1
 40
1
 10
170.283143
 20
164.479410
 30
0.0
 10
171.044714
 20
165.702618
 30
0.0
 10
172.290867
 20
168.157666
 30
0.0
 10
170.281026
 20
171.398367
 30
0.0
  0
SPLINE
  5
1a4
100
AcDbEntity
  8
PCB
 62
7
100
AcDbSpline
 70
8
 71
3
 72
8
 73
4
 74
0
 40
0
 40
0
 40
0
 40
0
 40
1
 40
1
 40
1
 40
1
 10
170.281026
 20
171.398367
 30
0.0
 10
170.224427
 20
171.489667
 30
0.0
 10
170.176640
 20
171.649996
 30
0.0
 10
170.176640
 20
171.757518
 30
0.0
  0
LWPOLYLINE
  5
1a5
100
AcDbEntity
  8
PCB
 62
7
100
AcDbPolyline
 90
2
 70
0
 10
170.176691
 20
163.064508
 30
0.0
 10
170.176691
 20
164.112507
 30
0.0
  0
SPLINE
  5
1a6
100
AcDbEntity
  8
PCB
 62
7
100
AcDbSpline
 70
8
 71
3
 72
8
 73
4
 74
0
 40
0
 40
0
 40
0
 40
0
 40
1
 40
1
 40
1
 40
1
 10
170.176640
 20
174.881358
 30
0.0
 10
170.176640
 20
175.081007
 30
0.0
 10
170.060057
 20
175.261924
 30
0.0
 10
169.878468
 20
175.344894
 30
0.0
  0
LWPOLYLINE
  5
1a7
100
AcDbEntity
  8
PCB
 62
7
100
AcDbPolyline
 90
2
 70
0
 10
170.176640
 20
171.757518
 30
0.0
 10
170.176640
 20
174.881358
 30
0.0
  0
SPLINE
  5
1a8
100
AcDbEntity
  8
PCB
 62
7
100
AcDbSpline
 70
8
 71
3
 72
8
 73
4
 74
0
 40
0
 40
0
 40
0
 40
0
 40
1
 40
1
 40
1
 40
1
 10
166.157246
 20
177.045567
 30
0.0
 10
165.936417
 20
177.146477
 30
0.0
 10
165.675165
 20
177.054695
 30
0.0
 10
165.566585
 20
176.837311
 30
0.0
  0
LWPOLYLINE
  5
1a9
100
AcDbEntity
  8
PCB
 62
7
100
AcDbPolyline
 90
2
 70
0
 10
169.878468
 20
175.344894
 30
0.0
 10
166.157246
 20
177.045567
 30
0.0
  0
SPLINE
  5
1aa
100
AcDbEntity
  8
PCB
 62
7
100
AcDbSpline
 70
8
 71
3
 72
8
 73
4
 74
0
 40
0
 40
0
 40
0
 40
0
 40
1
 40
1
 40
1
 40
1
 10
164.696355
 20
175.096332
 30
0.0
 10
164.648254
 20
175.000232
 30
0.0
 10
164.559142
 20
174.931404
 30
0.0
 10
164.453991
 20
174.909263
 30
0.0
  0
LWPOLYLINE
  5
1ab
100
AcDbEntity
  8
PCB
 62
7
100
AcDbPolyline
 90
2
 70
0
 10
165.566585
 20
176.837311
 30
0.0
 10
164.696355
 20
175.096332
 30
0.0
  0
SPLINE
  5
1ac
100
AcDbEntity
  8
PCB
 62
7
100
AcDbSpline
 70
8
 71
3
 72
8
 73
4
 74
0
 40
0
 40
0
 40
0
 40
0
 40
1
 40
1
 40
1
 40
1
 10
163.922758
 20
174.797641
 30
0.0
 10
163.768959
 20
174.765243
 30
0.0
 10
163.609375
 20
174.809441
 30
0.0
 10
163.493845
 20
174.915981
 30
0.0
  0
LWPOLYLINE
  5
1ad
100
AcDbEntity
  8
PCB
 62
7
100
AcDbPolyline
 90
2
 70
0
 10
164.453991
 20
174.909263
 30
0.0
 10
163.922758
 20
174.797641
 30
0.0
  0
SPLINE
  5
1ae
100
AcDbEntity
  8
PCB
 62
7
100
AcDbSpline
 70
8
 71
3
 72
8
 73
4
 74
0
 40
0
 40
0
 40
0
 40
0
 40
1
 40
1
 40
1
 40
1
 10
162.023132
 20
176.272487
 30
0.0
 10
161.875452
 20
176.408937
 30
0.0
 10
161.646725
 20
176.406096
 30
0.0
 10
161.502233
 20
176.266295
 30
0.0
  0
LWPOLYLINE
  5
1af
100
AcDbEntity
  8
PCB
 62
7
100
AcDbPolyline
 90
2
 70
0
 10
163.493845
 20
174.915981
 30
0.0
 10
162.023132
 20
176.272487
 30
0.0
  0
SPLINE
  5
1b0
100
AcDbEntity
  8
PCB
 62
7
100
AcDbSpline
 70
8
 71
3
 72
8
 73
4
 74
0
 40
0
 40
0
 40
0
 40
0
 40
1
 40
1
 40
1
 40
1
 10
159.242941
 20
174.076765
 30
0.0
 10
158.874500
 20
173.719665
 30
0.0
 10
158.272848
 20
173.783678
 30
0.0
 10
157.988236
 20
174.210607
 30
0.0
  0
LWPOLYLINE
  5
1b1
100
AcDbEntity
  8
PCB
 62
7
100
AcDbPolyline
 90
2
 70
0
 10
161.502233
 20
176.266295
 30
0.0
 10
159.242941
 20
174.076765
 30
0.0
  0
SPLINE
  5
1b2
100
AcDbEntity
  8
PCB
 62
7
100
AcDbSpline
 70
8
 71
3
 72
8
 73
4
 74
0
 40
0
 40
0
 40
0
 40
0
 40
1
 40
1
 40
1
 40
1
 10
157.566041
 20
174.843644
 30
0.0
 10
157.439371
 20
175.033665
 30
0.0
 10
157.372254
 20
175.256579
 30
0.0
 10
157.372254
 20
175.484949
 30
0.0
  0
LWPOLYLINE
  5
1b3
100
AcDbEntity
  8
PCB
 62
7
100
AcDbPolyline
 90
2
 70
0
 10
157.988236
 20
174.210607
 30
0.0
 10
157.566041
 20
174.843644
 30
0.0
  0
SPLINE
  5
1b4
100
AcDbEntity
  8
PCB
 62
7
100
AcDbSpline
 70
8
 71
3
 72
8
 73
4
 74
0
 40
0
 40
0
 40
0
 40
0
 40
1
 40
1
 40
1
 40
1
 10
157.372254
 20
181.879391
 30
0.0
 10
157.372254
 20
182.576841
 30
0.0
 10
157.937259
 20
183.142361
 30
0.0
 10
158.634708
 20
183.142364
 30
0.0
  0
LWPOLYLINE
  5
1b5
100
AcDbEntity
  8
PCB
 62
7
100
AcDbPolyline
 90
2
 70
0
 10
157.372254
 20
175.484949
 30
0.0
 10
157.372254
 20
181.879391
 30
0.0
  0
SPLINE
  5
1b6
100
AcDbEntity
  8
PCB
 62
7
100
AcDbSpline
 70
8
 71
3
 72
8
 73
4
 74
0
 40
0
 40
0
 40
0
 40
0
 40
1
 40
1
 40
1
 40
1
 10
159.141139
 20
183.142364
 30
0.0
 10
159.236339
 20
183.142364
 30
0.0
 10
159.316868
 20
183.212412
 30
0.0
 10
159.329758
 20
183.306694
 30
0.0
  0
LWPOLYLINE
  5
1b7
100
AcDbEntity
  8
PCB
 62
7
100
AcDbPolyline
 90
2
 70
0
 10
158.634708
 20
183.142364
 30
0.0
 10
159.141139
 20
183.142364
 30
0.0
  0
SPLINE
  5
1b8
100
AcDbEntity
  8
PCB
 62
7
100
AcDbSpline
 70
8
 71
3
 72
8
 73
4
 74
0
 40
0
 40
0
 40
0
 40
0
 40
1
 40
1
 40
1
 40
1
 10
156.923185
 20
186.415032
 30
0.0
 10
156.711635
 20
186.456905
 30
0.0
 10
156.496502
 20
186.478021
 30
0.0
 10
156.280848
 20
186.478077
 30
0.0
  0
LWPOLYLINE
  5
1b9
100
AcDbEntity
  8
PCB
 62
7
100
AcDbPolyline
 90
3
 70
0
 10
159.329758
 20
183.306694
 30
0.0
 10
159.680122
 20
185.869845
 30
0.0
 10
156.923185
 20
186.415032
 30
0.0
  0
SPLINE
  5
1ba
100
AcDbEntity
  8
PCB
 62
7
100
AcDbSpline
 70
8
 71
3
 72
8
 73
4
 74
0
 40
0
 40
0
 40
0
 40
0
 40
1
 40
1
 40
1
 40
1
 10
53.974999
 20
176.464722
 30
0.0
 10
55.481233
 20
176.464722
 30
0.0
 10
56.702486
 20
175.243472
 30
0.0
 10
56.702480
 20
173.737241
 30
0.0
  0
SPLINE
  5
1bb
100
AcDbEntity
  8
PCB
 62
7
100
AcDbSpline
 70
8
 71
3
 72
8
 73
4
 74
0
 40
0
 40
0
 40
0
 40
0
 40
1
 40
1
 40
1
 40
1
 10
56.702480
 20
173.737241
 30
0.0
 10
56.702480
 20
172.231011
 30
0.0
 10
55.481230
 20
171.009760
 30
0.0
 10
53.974999
 20
171.009760
 30
0.0
  0
SPLINE
  5
1bc
100
AcDbEntity
  8
PCB
 62
7
100
AcDbSpline
 70
8
 71
3
 72
8
 73
4
 74
0
 40
0
 40
0
 40
0
 40
0
 40
1
 40
1
 40
1
 40
1
 10
53.974999
 20
171.009760
 30
0.0
 10
52.468769
 20
171.009760
 30
0.0
 10
51.247518
 20
172.231011
 30
0.0
 10
51.247518
 20
173.737241
 30
0.0
  0
SPLINE
  5
1bd
100
AcDbEntity
  8
PCB
 62
7
100
AcDbSpline
 70
8
 71
3
 72
8
 73
4
 74
0
 40
0
 40
0
 40
0
 40
0
 40
1
 40
1
 40
1
 40
1
 10
51.247518
 20
173.737241
 30
0.0
 10
51.247513
 20
175.243472
 30
0.0
 10
52.468766
 20
176.464722
 30
0.0
 10
53.974999
 20
176.464722
 30
0.0
  0
LWPOLYLINE
  5
1be
100
AcDbEntity
  8
PCB
 62
7
100
AcDbPolyline
 90
2
 70
0
 10
156.280848
 20
186.478077
 30
0.0
 10
155.499034
 20
186.478066
 30
0.0
  0
SPLINE
  5
1bf
100
AcDbEntity
  8
PCB
 62
7
100
AcDbSpline
 70
8
 71
3
 72
8
 73
4
 74
0
 40
0
 40
0
 40
0
 40
0
 40
1
 40
1
 40
1
 40
1
 10
155.260805
 20
173.854031
 30
0.0
 10
156.330016
 20
173.854031
 30
0.0
 10
157.196605
 20
172.987441
 30
0.0
 10
157.196605
 20
171.918231
 30
0.0
  0
SPLINE
  5
1c0
100
AcDbEntity
  8
PCB
 62
7
100
AcDbSpline
 70
8
 71
3
 72
8
 73
4
 74
0
 40
0
 40
0
 40
0
 40
0
 40
1
 40
1
 40
1
 40
1
 10
157.196605
 20
171.918231
 30
0.0
 10
157.196605
 20
170.849020
 30
0.0
 10
156.330016
 20
169.982431
 30
0.0
 10
155.260805
 20
169.982431
 30
0.0
  0
SPLINE
  5
1c1
100
AcDbEntity
  8
PCB
 62
7
100
AcDbSpline
 70
8
 71
3
 72
8
 73
4
 74
0
 40
0
 40
0
 40
0
 40
0
 40
1
 40
1
 40
1
 40
1
 10
155.260805
 20
169.982431
 30
0.0
 10
154.191595
 20
169.982431
 30
0.0
 10
153.325005
 20
170.849020
 30
0.0
 10
153.325005
 20
171.918231
 30
0.0
  0
SPLINE
  5
1c2
100
AcDbEntity
  8
PCB
 62
7
100
AcDbSpline
 70
8
 71
3
 72
8
 73
4
 74
0
 40
0
 40
0
 40
0
 40
0
 40
1
 40
1
 40
1
 40
1
 10
153.325005
 20
171.918231
 30
0.0
 10
153.325005
 20
172.987441
 30
0.0
 10
154.191595
 20
173.854031
 30
0.0
 10
155.260805
 20
173.854031
 30
0.0
  0
LWPOLYLINE
  5
1c3
100
AcDbEntity
  8
PCB
 62
7
100
AcDbPolyline
 90
1
 70
1
 10
53.974999
 20
176.464722
 30
0.0
  0
SPLINE
  5
1c4
100
AcDbEntity
  8
PCB
 62
7
100
AcDbSpline
 70
8
 71
3
 72
8
 73
4
 74
0
 40
0
 40
0
 40
0
 40
0
 40
1
 40
1
 40
1
 40
1
 10
165.444679
 20
171.103293
 30
0.0
 10
167.228370
 20
171.103293
 30
0.0
 10
168.674458
 20
169.657207
 30
0.0
 10
168.674458
 20
167.873516
 30
0.0
  0
SPLINE
  5
1c5
100
AcDbEntity
  8
PCB
 62
7
100
AcDbSpline
 70
8
 71
3
 72
8
 73
4
 74
0
 40
0
 40
0
 40
0
 40
0
 40
1
 40
1
 40
1
 40
1
 10
168.674458
 20
167.873516
 30
0.0
 10
168.674458
 20
166.089828
 30
0.0
 10
167.228370
 20
164.644256
 30
0.0
 10
165.444679
 20
164.644256
 30
0.0
  0
SPLINE
  5
1c6
100
AcDbEntity
  8
PCB
 62
7
100
AcDbSpline
 70
8
 71
3
 72
8
 73
4
 74
0
 40
0
 40
0
 40
0
 40
0
 40
1
 40
1
 40
1
 40
1
 10
165.444679
 20
164.644256
 30
0.0
 10
163.660990
 20
164.644256
 30
0.0
 10
162.215420
 20
166.089828
 30
0.0
 10
162.215420
 20
167.873516
 30
0.0
  0
SPLINE
  5
1c7
100
AcDbEntity
  8
PCB
 62
7
100
AcDbSpline
 70
8
 71
3
 72
8
 73
4
 74
0
 40
0
 40
0
 40
0
 40
0
 40
1
 40
1
 40
1
 40
1
 10
162.215420
 20
167.873516
 30
0.0
 10
162.215420
 20
169.657207
 30
0.0
 10
163.660990
 20
171.103293
 30
0.0
 10
165.444679
 20
171.103293
 30
0.0
  0
LWPOLYLINE
  5
1c8
100
AcDbEntity
  8
PCB
 62
7
100
AcDbPolyline
 90
1
 70
1
 10
155.260805
 20
173.854031
 30
0.0
  0
SPLINE
  5
1c9
100
AcDbEntity
  8
PCB
 62
7
100
AcDbSpline
 70
8
 71
3
 72
8
 73
4
 74
0
 40
0
 40
0
 40
0
 40
0
 40
1
 40
1
 40
1
 40
1
 10
46.060238
 20
168.521023
 30
0.0
 10
47.566468
 20
168.521023
 30
0.0
 10
48.787200
 20
167.299770
 30
0.0
 10
48.787203
 20
165.793539
 30
0.0
  0
SPLINE
  5
1ca
100
AcDbEntity
  8
PCB
 62
7
100
AcDbSpline
 70
8
 71
3
 72
8
 73
4
 74
0
 40
0
 40
0
 40
0
 40
0
 40
1
 40
1
 40
1
 40
1
 10
48.787203
 20
165.793539
 30
0.0
 10
48.787200
 20
164.287309
 30
0.0
 10
47.566468
 20
163.066574
 30
0.0
 10
46.060238
 20
163.066574
 30
0.0
  0
SPLINE
  5
1cb
100
AcDbEntity
  8
PCB
 62
7
100
AcDbSpline
 70
8
 71
3
 72
8
 73
4
 74
0
 40
0
 40
0
 40
0
 40
0
 40
1
 40
1
 40
1
 40
1
 10
46.060238
 20
163.066574
 30
0.0
 10
44.554007
 20
163.066574
 30
0.0
 10
43.332757
 20
164.287309
 30
0.0
 10
43.332754
 20
165.793539
 30
0.0
  0
SPLINE
  5
1cc
100
AcDbEntity
  8
PCB
 62
7
100
AcDbSpline
 70
8
 71
3
 72
8
 73
4
 74
0
 40
0
 40
0
 40
0
 40
0
 40
1
 40
1
 40
1
 40
1
 10
43.332754
 20
165.793539
 30
0.0
 10
43.332757
 20
167.299770
 30
0.0
 10
44.554007
 20
168.521023
 30
0.0
 10
46.060238
 20
168.521023
 30
0.0
  0
LWPOLYLINE
  5
1cd
100
AcDbEntity
  8
PCB
 62
7
100
AcDbPolyline
 90
1
 70
1
 10
165.444679
 20
171.103293
 30
0.0
  0
SPLINE
  5
1ce
100
AcDbEntity
  8
PCB
 62
7
100
AcDbSpline
 70
8
 71
3
 72
8
 73
4
 74
0
 40
0
 40
0
 40
0
 40
0
 40
1
 40
1
 40
1
 40
1
 10
61.879426
 20
168.521023
 30
0.0
 10
63.385657
 20
168.521023
 30
0.0
 10
64.606907
 20
167.299770
 30
0.0
 10
64.606907
 20
165.793539
 30
0.0
  0
SPLINE
  5
1cf
100
AcDbEntity
  8
PCB
 62
7
100
AcDbSpline
 70
8
 71
3
 72
8
 73
4
 74
0
 40
0
 40
0
 40
0
 40
0
 40
1
 40
1
 40
1
 40
1
 10
64.606907
 20
165.793539
 30
0.0
 10
64.606907
 20
164.287309
 30
0.0
 10
63.385657
 20
163.066574
 30
0.0
 10
61.879426
 20
163.066574
 30
0.0
  0
SPLINE
  5
1d0
100
AcDbEntity
  8
PCB
 62
7
100
AcDbSpline
 70
8
 71
3
 72
8
 73
4
 74
0
 40
0
 40
0
 40
0
 40
0
 40
1
 40
1
 40
1
 40
1
 10
61.879426
 20
163.066574
 30
0.0
 10
60.373196
 20
163.066574
 30
0.0
 10
59.151945
 20
164.287309
 30
0.0
 10
59.151945
 20
165.793539
 30
0.0
  0
SPLINE
  5
1d1
100
AcDbEntity
  8
PCB
 62
7
100
AcDbSpline
 70
8
 71
3
 72
8
 73
4
 74
0
 40
0
 40
0
 40
0
 40
0
 40
1
 40
1
 40
1
 40
1
 10
59.151945
 20
165.793539
 30
0.0
 10
59.151945
 20
167.299770
 30
0.0
 10
60.373196
 20
168.521023
 30
0.0
 10
61.879426
 20
168.521023
 30
0.0
  0
LWPOLYLINE
  5
1d2
100
AcDbEntity
  8
PCB
 62
7
100
AcDbPolyline
 90
1
 70
1
 10
46.060238
 20
168.521023
 30
0.0
  0
SPLINE
  5
1d3
100
AcDbEntity
  8
PCB
 62
7
100
AcDbSpline
 70
8
 71
3
 72
8
 73
4
 74
0
 40
0
 40
0
 40
0
 40
0
 40
1
 40
1
 40
1
 40
1
 10
152.317832
 20
166.697361
 30
0.0
 10
154.101523
 20
166.697361
 30
0.0
 10
155.547608
 20
165.251273
 30
0.0
 10
155.547608
 20
163.467585
 30
0.0
  0
SPLINE
  5
1d4
100
AcDbEntity
  8
PCB
 62
7
100
AcDbSpline
 70
8
 71
3
 72
8
 73
4
 74
0
 40
0
 40
0
 40
0
 40
0
 40
1
 40
1
 40
1
 40
1
 10
155.547608
 20
163.467585
 30
0.0
 10
155.547608
 20
161.683894
 30
0.0
 10
154.101523
 20
160.237808
 30
0.0
 10
152.317832
 20
160.237808
 30
0.0
  0
SPLINE
  5
1d5
100
AcDbEntity
  8
PCB
 62
7
100
AcDbSpline
 70
8
 71
3
 72
8
 73
4
 74
0
 40
0
 40
0
 40
0
 40
0
 40
1
 40
1
 40
1
 40
1
 10
152.317832
 20
160.237808
 30
0.0
 10
150.534143
 20
160.237808
 30
0.0
 10
149.088055
 20
161.683894
 30
0.0
 10
149.088055
 20
163.467585
 30
0.0
  0
SPLINE
  5
1d6
100
AcDbEntity
  8
PCB
 62
7
100
AcDbSpline
 70
8
 71
3
 72
8
 73
4
 74
0
 40
0
 40
0
 40
0
 40
0
 40
1
 40
1
 40
1
 40
1
 10
149.088055
 20
163.467585
 30
0.0
 10
149.088055
 20
165.251273
 30
0.0
 10
150.534143
 20
166.697361
 30
0.0
 10
152.317832
 20
166.697361
 30
0.0
  0
LWPOLYLINE
  5
1d7
100
AcDbEntity
  8
PCB
 62
7
100
AcDbPolyline
 90
1
 70
1
 10
61.879426
 20
168.521023
 30
0.0
  0
SPLINE
  5
1d8
100
AcDbEntity
  8
PCB
 62
7
100
AcDbSpline
 70
8
 71
3
 72
8
 73
4
 74
0
 40
0
 40
0
 40
0
 40
0
 40
1
 40
1
 40
1
 40
1
 10
68.890885
 20
163.105333
 30
0.0
 10
69.156285
 20
163.105275
 30
0.0
 10
69.371418
 20
162.890142
 30
0.0
 10
69.371476
 20
162.624741
 30
0.0
  0
SPLINE
  5
1d9
100
AcDbEntity
  8
PCB
 62
7
100
AcDbSpline
 70
8
 71
3
 72
8
 73
4
 74
0
 40
0
 40
0
 40
0
 40
0
 40
1
 40
1
 40
1
 40
1
 10
69.371476
 20
162.624741
 30
0.0
 10
69.371418
 20
162.359340
 30
0.0
 10
69.156285
 20
162.144208
 30
0.0
 10
68.890885
 20
162.144149
 30
0.0
  0
SPLINE
  5
1da
100
AcDbEntity
  8
PCB
 62
7
100
AcDbSpline
 70
8
 71
3
 72
8
 73
4
 74
0
 40
0
 40
0
 40
0
 40
0
 40
1
 40
1
 40
1
 40
1
 10
68.890885
 20
162.144149
 30
0.0
 10
68.625484
 20
162.144208
 30
0.0
 10
68.410351
 20
162.359340
 30
0.0
 10
68.410293
 20
162.624741
 30
0.0
  0
SPLINE
  5
1db
100
AcDbEntity
  8
PCB
 62
7
100
AcDbSpline
 70
8
 71
3
 72
8
 73
4
 74
0
 40
0
 40
0
 40
0
 40
0
 40
1
 40
1
 40
1
 40
1
 10
68.410293
 20
162.624741
 30
0.0
 10
68.410351
 20
162.890142
 30
0.0
 10
68.625484
 20
163.105275
 30
0.0
 10
68.890885
 20
163.105333
 30
0.0
  0
LWPOLYLINE
  5
1dc
100
AcDbEntity
  8
PCB
 62
7
100
AcDbPolyline
 90
1
 70
1
 10
152.317832
 20
166.697361
 30
0.0
  0
SPLINE
  5
1dd
100
AcDbEntity
  8
PCB
 62
7
100
AcDbSpline
 70
8
 71
3
 72
8
 73
4
 74
0
 40
0
 40
0
 40
0
 40
0
 40
1
 40
1
 40
1
 40
1
 10
160.370571
 20
162.558595
 30
0.0
 10
161.110330
 20
162.558595
 30
0.0
 10
161.710024
 20
161.958901
 30
0.0
 10
161.710024
 20
161.219142
 30
0.0
  0
SPLINE
  5
1de
100
AcDbEntity
  8
PCB
 62
7
100
AcDbSpline
 70
8
 71
3
 72
8
 73
4
 74
0
 40
0
 40
0
 40
0
 40
0
 40
1
 40
1
 40
1
 40
1
 10
161.710024
 20
161.219142
 30
0.0
 10
161.710024
 20
160.479383
 30
0.0
 10
161.110330
 20
159.879689
 30
0.0
 10
160.370571
 20
159.879689
 30
0.0
  0
SPLINE
  5
1df
100
AcDbEntity
  8
PCB
 62
7
100
AcDbSpline
 70
8
 71
3
 72
8
 73
4
 74
0
 40
0
 40
0
 40
0
 40
0
 40
1
 40
1
 40
1
 40
1
 10
160.370571
 20
159.879689
 30
0.0
 10
159.630812
 20
159.879689
 30
0.0
 10
159.031118
 20
160.479383
 30
0.0
 10
159.031118
 20
161.219142
 30
0.0
  0
SPLINE
  5
1e0
100
AcDbEntity
  8
PCB
 62
7
100
AcDbSpline
 70
8
 71
3
 72
8
 73
4
 74
0
 40
0
 40
0
 40
0
 40
0
 40
1
 40
1
 40
1
 40
1
 10
159.031118
 20
161.219142
 30
0.0
 10
159.031118
 20
161.958901
 30
0.0
 10
159.630812
 20
162.558595
 30
0.0
 10
160.370571
 20
162.558595
 30
0.0
  0
LWPOLYLINE
  5
1e1
100
AcDbEntity
  8
PCB
 62
7
100
AcDbPolyline
 90
1
 70
1
 10
68.890885
 20
163.105333
 30
0.0
  0
SPLINE
  5
1e2
100
AcDbEntity
  8
PCB
 62
7
100
AcDbSpline
 70
8
 71
3
 72
8
 73
4
 74
0
 40
0
 40
0
 40
0
 40
0
 40
1
 40
1
 40
1
 40
1
 10
53.974999
 20
160.622795
 30
0.0
 10
55.481230
 20
160.622795
 30
0.0
 10
56.702480
 20
159.401545
 30
0.0
 10
56.702480
 20
157.895314
 30
0.0
  0
SPLINE
  5
1e3
100
AcDbEntity
  8
PCB
 62
7
100
AcDbSpline
 70
8
 71
3
 72
8
 73
4
 74
0
 40
0
 40
0
 40
0
 40
0
 40
1
 40
1
 40
1
 40
1
 10
56.702480
 20
157.895314
 30
0.0
 10
56.702480
 20
156.389084
 30
0.0
 10
55.481230
 20
155.167833
 30
0.0
 10
53.974999
 20
155.167833
 30
0.0
  0
SPLINE
  5
1e4
100
AcDbEntity
  8
PCB
 62
7
100
AcDbSpline
 70
8
 71
3
 72
8
 73
4
 74
0
 40
0
 40
0
 40
0
 40
0
 40
1
 40
1
 40
1
 40
1
 10
53.974999
 20
155.167833
 30
0.0
 10
52.468769
 20
155.167833
 30
0.0
 10
51.247518
 20
156.389084
 30
0.0
 10
51.247518
 20
157.895314
 30
0.0
  0
SPLINE
  5
1e5
100
AcDbEntity
  8
PCB
 62
7
100
AcDbSpline
 70
8
 71
3
 72
8
 73
4
 74
0
 40
0
 40
0
 40
0
 40
0
 40
1
 40
1
 40
1
 40
1
 10
51.247518
 20
157.895314
 30
0.0
 10
51.247518
 20
159.401545
 30
0.0
 10
52.468769
 20
160.622795
 30
0.0
 10
53.974999
 20
160.622795
 30
0.0
  0
LWPOLYLINE
  5
1e6
100
AcDbEntity
  8
PCB
 62
7
100
AcDbPolyline
 90
1
 70
1
 10
160.370571
 20
162.558595
 30
0.0
  0
SPLINE
  5
1e7
100
AcDbEntity
  8
PCB
 62
7
100
AcDbSpline
 70
8
 71
3
 72
8
 73
4
 74
0
 40
0
 40
0
 40
0
 40
0
 40
1
 40
1
 40
1
 40
1
 10
67.386067
 20
153.769984
 30
0.0
 10
67.683186
 20
153.770024
 30
0.0
 10
67.924057
 20
153.529152
 30
0.0
 10
67.924018
 20
153.232033
 30
0.0
  0
SPLINE
  5
1e8
100
AcDbEntity
  8
PCB
 62
7
100
AcDbSpline
 70
8
 71
3
 72
8
 73
4
 74
0
 40
0
 40
0
 40
0
 40
0
 40
1
 40
1
 40
1
 40
1
 10
67.924018
 20
153.232033
 30
0.0
 10
67.924057
 20
152.934914
 30
0.0
 10
67.683186
 20
152.694043
 30
0.0
 10
67.386067
 20
152.694082
 30
0.0
  0
SPLINE
  5
1e9
100
AcDbEntity
  8
PCB
 62
7
100
AcDbSpline
 70
8
 71
3
 72
8
 73
4
 74
0
 40
0
 40
0
 40
0
 40
0
 40
1
 40
1
 40
1
 40
1
 10
67.386067
 20
152.694082
 30
0.0
 10
67.088948
 20
152.694043
 30
0.0
 10
66.848076
 20
152.934914
 30
0.0
 10
66.848116
 20
153.232033
 30
0.0
  0
SPLINE
  5
1ea
100
AcDbEntity
  8
PCB
 62
7
100
AcDbSpline
 70
8
 71
3
 72
8
 73
4
 74
0
 40
0
 40
0
 40
0
 40
0
 40
1
 40
1
 40
1
 40
1
 10
66.848116
 20
153.232033
 30
0.0
 10
66.848076
 20
153.529152
 30
0.0
 10
67.088948
 20
153.770024
 30
0.0
 10
67.386067
 20
153.769984
 30
0.0
  0
LWPOLYLINE
  5
1eb
100
AcDbEntity
  8
PCB
 62
7
100
AcDbPolyline
 90
1
 70
1
 10
53.974999
 20
160.622795
 30
0.0
  0
SPLINE
  5
1ec
100
AcDbEntity
  8
PCB
 62
7
100
AcDbSpline
 70
8
 71
3
 72
8
 73
4
 74
0
 40
0
 40
0
 40
0
 40
0
 40
1
 40
1
 40
1
 40
1
 10
53.109936
 20
152.567474
 30
0.0
 10
53.820305
 20
152.567474
 30
0.0
 10
54.396166
 20
151.991619
 30
0.0
 10
54.396163
 20
151.281247
 30
0.0
  0
SPLINE
  5
1ed
100
AcDbEntity
  8
PCB
 62
7
100
AcDbSpline
 70
8
 71
3
 72
8
 73
4
 74
0
 40
0
 40
0
 40
0
 40
0
 40
1
 40
1
 40
1
 40
1
 10
54.396163
 20
151.281247
 30
0.0
 10
54.396160
 20
150.570878
 30
0.0
 10
53.820303
 20
149.995020
 30
0.0
 10
53.109936
 20
149.995020
 30
0.0
  0
SPLINE
  5
1ee
100
AcDbEntity
  8
PCB
 62
7
100
AcDbSpline
 70
8
 71
3
 72
8
 73
4
 74
0
 40
0
 40
0
 40
0
 40
0
 40
1
 40
1
 40
1
 40
1
 10
53.109936
 20
149.995020
 30
0.0
 10
52.399570
 20
149.995020
 30
0.0
 10
51.823712
 20
150.570878
 30
0.0
 10
51.823709
 20
151.281247
 30
0.0
  0
SPLINE
  5
1ef
100
AcDbEntity
  8
PCB
 62
7
100
AcDbSpline
 70
8
 71
3
 72
8
 73
4
 74
0
 40
0
 40
0
 40
0
 40
0
 40
1
 40
1
 40
1
 40
1
 10
51.823709
 20
151.281247
 30
0.0
 10
51.823707
 20
151.991619
 30
0.0
 10
52.399567
 20
152.567474
 30
0.0
 10
53.109936
 20
152.567474
 30
0.0
  0
LWPOLYLINE
  5
1f0
100
AcDbEntity
  8
PCB
 62
7
100
AcDbPolyline
 90
1
 70
1
 10
67.386067
 20
153.769984
 30
0.0
  0
SPLINE
  5
1f1
100
AcDbEntity
  8
PCB
 62
7
100
AcDbSpline
 70
8
 71
3
 72
8
 73
4
 74
0
 40
0
 40
0
 40
0
 40
0
 40
1
 40
1
 40
1
 40
1
 10
63.657096
 20
148.122268
 30
0.0
 10
64.884820
 20
148.122268
 30
0.0
 10
65.879696
 20
147.126868
 30
0.0
 10
65.879699
 20
145.899148
 30
0.0
  0
SPLINE
  5
1f2
100
AcDbEntity
  8
PCB
 62
7
100
AcDbSpline
 70
8
 71
3
 72
8
 73
4
 74
0
 40
0
 40
0
 40
0
 40
0
 40
1
 40
1
 40
1
 40
1
 10
65.879699
 20
145.899148
 30
0.0
 10
65.879701
 20
144.671418
 30
0.0
 10
64.884823
 20
143.676027
 30
0.0
 10
63.657096
 20
143.676027
 30
0.0
  0
SPLINE
  5
1f3
100
AcDbEntity
  8
PCB
 62
7
100
AcDbSpline
 70
8
 71
3
 72
8
 73
4
 74
0
 40
0
 40
0
 40
0
 40
0
 40
1
 40
1
 40
1
 40
1
 10
63.657096
 20
143.676027
 30
0.0
 10
62.429368
 20
143.676027
 30
0.0
 10
61.433974
 20
144.671418
 30
0.0
 10
61.433976
 20
145.899148
 30
0.0
  0
SPLINE
  5
1f4
100
AcDbEntity
  8
PCB
 62
7
100
AcDbSpline
 70
8
 71
3
 72
8
 73
4
 74
0
 40
0
 40
0
 40
0
 40
0
 40
1
 40
1
 40
1
 40
1
 10
61.433976
 20
145.899148
 30
0.0
 10
61.433979
 20
147.126868
 30
0.0
 10
62.429371
 20
148.122268
 30
0.0
 10
63.657096
 20
148.122268
 30
0.0
  0
LWPOLYLINE
  5
1f5
100
AcDbEntity
  8
PCB
 62
7
100
AcDbPolyline
 90
1
 70
1
 10
53.109936
 20
152.567474
 30
0.0
  0
SPLINE
  5
1f6
100
AcDbEntity
  8
PCB
 62
7
100
AcDbSpline
 70
8
 71
3
 72
8
 73
4
 74
0
 40
0
 40
0
 40
0
 40
0
 40
1
 40
1
 40
1
 40
1
 10
63.657096
 20
140.127406
 30
0.0
 10
64.884823
 20
140.127406
 30
0.0
 10
65.879701
 20
139.132017
 30
0.0
 10
65.879699
 20
137.904287
 30
0.0
  0
SPLINE
  5
1f7
100
AcDbEntity
  8
PCB
 62
7
100
AcDbSpline
 70
8
 71
3
 72
8
 73
4
 74
0
 40
0
 40
0
 40
0
 40
0
 40
1
 40
1
 40
1
 40
1
 10
65.879699
 20
137.904287
 30
0.0
 10
65.879696
 20
136.676567
 30
0.0
 10
64.884820
 20
135.681684
 30
0.0
 10
63.657096
 20
135.681684
 30
0.0
  0
SPLINE
  5
1f8
100
AcDbEntity
  8
PCB
 62
7
100
AcDbSpline
 70
8
 71
3
 72
8
 73
4
 74
0
 40
0
 40
0
 40
0
 40
0
 40
1
 40
1
 40
1
 40
1
 10
63.657096
 20
135.681684
 30
0.0
 10
62.429371
 20
135.681684
 30
0.0
 10
61.433979
 20
136.676567
 30
0.0
 10
61.433976
 20
137.904287
 30
0.0
  0
SPLINE
  5
1f9
100
AcDbEntity
  8
PCB
 62
7
100
AcDbSpline
 70
8
 71
3
 72
8
 73
4
 74
0
 40
0
 40
0
 40
0
 40
0
 40
1
 40
1
 40
1
 40
1
 10
61.433976
 20
137.904287
 30
0.0
 10
61.433974
 20
139.132017
 30
0.0
 10
62.429368
 20
140.127406
 30
0.0
 10
63.657096
 20
140.127406
 30
0.0
  0
LWPOLYLINE
  5
1fa
100
AcDbEntity
  8
PCB
 62
7
100
AcDbPolyline
 90
1
 70
1
 10
63.657096
 20
148.122268
 30
0.0
  0
SPLINE
  5
1fb
100
AcDbEntity
  8
PCB
 62
7
100
AcDbSpline
 70
8
 71
3
 72
8
 73
4
 74
0
 40
0
 40
0
 40
0
 40
0
 40
1
 40
1
 40
1
 40
1
 10
63.867418
 20
135.238300
 30
0.0
 10
64.241973
 20
135.238300
 30
0.0
 10
64.545410
 20
134.934855
 30
0.0
 10
64.545413
 20
134.560305
 30
0.0
  0
SPLINE
  5
1fc
100
AcDbEntity
  8
PCB
 62
7
100
AcDbSpline
 70
8
 71
3
 72
8
 73
4
 74
0
 40
0
 40
0
 40
0
 40
0
 40
1
 40
1
 40
1
 40
1
 10
64.545413
 20
134.560305
 30
0.0
 10
64.545416
 20
134.185745
 30
0.0
 10
64.241978
 20
133.882311
 30
0.0
 10
63.867418
 20
133.882311
 30
0.0
  0
SPLINE
  5
1fd
100
AcDbEntity
  8
PCB
 62
7
100
AcDbSpline
 70
8
 71
3
 72
8
 73
4
 74
0
 40
0
 40
0
 40
0
 40
0
 40
1
 40
1
 40
1
 40
1
 10
63.867418
 20
133.882311
 30
0.0
 10
63.492861
 20
133.882311
 30
0.0
 10
63.189421
 20
134.185745
 30
0.0
 10
63.189423
 20
134.560305
 30
0.0
  0
SPLINE
  5
1fe
100
AcDbEntity
  8
PCB
 62
7
100
AcDbSpline
 70
8
 71
3
 72
8
 73
4
 74
0
 40
0
 40
0
 40
0
 40
0
 40
1
 40
1
 40
1
 40
1
 10
63.189423
 20
134.560305
 30
0.0
 10
63.189429
 20
134.934865
 30
0.0
 10
63.492863
 20
135.238300
 30
0.0
 10
63.867418
 20
135.238300
 30
0.0
  0
LWPOLYLINE
  5
1ff
100
AcDbEntity
  8
PCB
 62
7
100
AcDbPolyline
 90
1
 70
1
 10
63.657096
 20
140.127406
 30
0.0
  0
LWPOLYLINE
  5
200
100
AcDbEntity
  8
PCB
 62
7
100
AcDbPolyline
 90
1
 70
1
 10
63.867418
 20
135.238300
 30
0.0
  0
ENDSEC
  0
SECTION
  2
OBJECTS
  0
DICTIONARY
  5
C
330
0
100
AcDbDictionary
  3
ACAD_GROUP
350
D
  3
ACAD_MLINESTYLE
350
17
  0
DICTIONARY
  5
D
330
C
100
AcDbDictionary
  0
DICTIONARY
  5
1A
330
C
100
AcDbDictionary
  0
DICTIONARY
  5
17
330
C
100
AcDbDictionary
  3
STANDARD
350
18
  0
DICTIONARY
  5
19
330
C
100
AcDbDictionary
  0
ENDSEC
  0
EOF
