G04*
G04 #@! TF.GenerationSoftware,Altium Limited,Altium Designer,21.9.2 (33)*
G04*
G04 Layer_Color=2752767*
%FSLAX44Y44*%
%MOMM*%
G71*
G04*
G04 #@! TF.SameCoordinates,6EA3AFA9-0330-4775-ACE0-DBF6802BEFD6*
G04*
G04*
G04 #@! TF.FilePolarity,Positive*
G04*
G01*
G75*
%ADD10C,0.2540*%
%ADD26C,0.0508*%
%ADD27C,0.0677*%
D10*
X0D02*
X75000D01*
X0Y110000D02*
X75000D01*
Y0D02*
Y110000D01*
X0Y0D02*
Y110000D01*
D26*
X-2032Y29968D02*
Y34032D01*
X2032D01*
Y29968D01*
X-2032D01*
X72968Y93968D02*
Y98032D01*
X77032D01*
Y93968D01*
X72968D01*
X-2032Y37968D02*
Y42032D01*
X2032D01*
Y37968D01*
X-2032D01*
Y93968D02*
Y98032D01*
X2032D01*
Y93968D01*
X-2032D01*
X72968Y29968D02*
Y34032D01*
X77032D01*
Y29968D01*
X72968D01*
X-2032Y85968D02*
Y90032D01*
X2032D01*
Y85968D01*
X-2032D01*
X72968Y37968D02*
Y42032D01*
X77032D01*
Y37968D01*
X72968D01*
X-2032Y45968D02*
Y50032D01*
X2032D01*
Y45968D01*
X-2032D01*
D27*
X5605Y106160D02*
G03*
X5605Y106160I-2032J0D01*
G01*
X59032Y22000D02*
G03*
X59032Y22000I-2032J0D01*
G01*
X26103Y47000D02*
G03*
X26103Y47000I-2032J0D01*
G01*
X44032Y39071D02*
G03*
X44032Y39071I-2032J0D01*
G01*
X68689Y47343D02*
G03*
X68689Y47343I-2032J0D01*
G01*
X57032Y40000D02*
G03*
X57032Y40000I-2032J0D01*
G01*
X53032Y34000D02*
G03*
X53032Y34000I-2032J0D01*
G01*
X50032Y24000D02*
G03*
X50032Y24000I-2032J0D01*
G01*
X10389Y54572D02*
G03*
X10389Y54572I-2032J0D01*
G01*
X32032Y38250D02*
G03*
X32032Y38250I-2032J0D01*
G01*
X25232Y29000D02*
G03*
X25232Y29000I-2032J0D01*
G01*
X50042Y13510D02*
G03*
X50042Y13510I-2032J0D01*
G01*
X47032Y71000D02*
G03*
X47032Y71000I-2032J0D01*
G01*
X59032Y80000D02*
G03*
X59032Y80000I-2032J0D01*
G01*
X50326Y86000D02*
G03*
X50326Y86000I-2032J0D01*
G01*
X68883Y88213D02*
G03*
X68883Y88213I-2032J0D01*
G01*
X73093Y83938D02*
G03*
X73093Y83938I-2032J0D01*
G01*
X6262Y81858D02*
G03*
X6262Y81858I-2032J0D01*
G01*
X16997Y55036D02*
G03*
X16997Y55036I-2032J0D01*
G01*
X17174Y62213D02*
G03*
X17174Y62213I-2032J0D01*
G01*
X21032Y80000D02*
G03*
X21032Y80000I-2032J0D01*
G01*
Y86000D02*
G03*
X21032Y86000I-2032J0D01*
G01*
X41032Y55000D02*
G03*
X41032Y55000I-2032J0D01*
G01*
X37542Y88261D02*
G03*
X37542Y88261I-2032J0D01*
G01*
M02*
