G04*
G04 #@! TF.GenerationSoftware,Altium Limited,Altium Designer,21.9.2 (33)*
G04*
G04 Layer_Physical_Order=2*
G04 Layer_Color=16711680*
%FSLAX44Y44*%
%MOMM*%
G71*
G04*
G04 #@! TF.SameCoordinates,6EA3AFA9-0330-4775-ACE0-DBF6802BEFD6*
G04*
G04*
G04 #@! TF.FilePolarity,Positive*
G04*
G01*
G75*
%ADD10C,0.2540*%
%ADD19C,0.5000*%
%ADD20C,0.2000*%
%ADD22C,0.5000*%
%ADD23C,0.4000*%
%ADD24C,1.0000*%
D10*
X0D02*
X75000D01*
X0Y110000D02*
X75000D01*
Y0D02*
Y110000D01*
X0Y0D02*
Y110000D01*
D19*
Y32000D02*
D03*
X75000Y96000D02*
D03*
X0Y40000D02*
D03*
Y96000D02*
D03*
X75000Y32000D02*
D03*
X0Y88000D02*
D03*
X75000Y40000D02*
D03*
X0Y48000D02*
D03*
D20*
X3573Y100162D02*
X5500Y98235D01*
X3573Y100162D02*
Y106160D01*
X8123Y92122D02*
X8708Y92708D01*
Y94365D01*
X5500Y98235D02*
X8708Y94365D01*
X7500Y91500D02*
X8123Y92122D01*
X7500Y85892D02*
Y91500D01*
Y85892D02*
X9517Y83876D01*
X16000Y93000D02*
Y95000D01*
X39000Y47000D02*
Y55000D01*
X32800Y95000D02*
X35701D01*
X35127Y88644D02*
X35510Y88261D01*
X38274Y92427D02*
X39973D01*
X52000Y28000D02*
Y30000D01*
X51383Y30617D02*
X52000Y30000D01*
X46000Y36071D02*
X49929Y40000D01*
X46000Y36000D02*
Y36071D01*
X51000Y34000D02*
X51383Y33617D01*
Y30617D02*
Y33617D01*
X49929Y40000D02*
X55000D01*
X48929Y46000D02*
X63828D01*
X65000Y44828D01*
Y30000D02*
Y44828D01*
Y46000D01*
X66343Y47343D01*
X66657D01*
X58000Y71000D02*
X62000Y75000D01*
Y83657D01*
X32271Y88644D02*
X35127D01*
X56459Y80000D02*
X57000D01*
X33439Y83261D02*
X45014D01*
X54000Y83000D02*
X56965Y80035D01*
X45014Y83261D02*
X47753Y86000D01*
X48294D01*
X54000Y83000D02*
Y88365D01*
X58000Y87657D02*
X62000Y83657D01*
X45000Y71000D02*
X58000D01*
X50400Y103000D02*
X51657D01*
X66800D02*
X66828Y102972D01*
X23741Y29000D02*
X28741Y24000D01*
X43020Y18500D02*
X48010Y13510D01*
X40520Y18500D02*
X43020D01*
X28741Y24000D02*
X48000D01*
X52000Y28000D01*
X57000Y22000D02*
X65000Y30000D01*
X27929Y33250D02*
X43250D01*
X27179Y34000D02*
X27929Y33250D01*
X27849Y50778D02*
X28778D01*
X30843Y52843D01*
X30000Y38250D02*
X30250D01*
X30843Y52843D02*
Y54500D01*
X30250Y38250D02*
X39000Y47000D01*
X39973Y92427D02*
X41400Y91000D01*
X51365D01*
X24800Y103000D02*
X32800Y95000D01*
X35701D02*
X38274Y92427D01*
X51365Y91000D02*
X54000Y88365D01*
X42000Y39071D02*
X48929Y46000D01*
X66828Y96172D02*
Y102972D01*
X31782Y79261D02*
X55720D01*
X56459Y80000D01*
X37600Y103000D02*
X45600Y95000D01*
X54000D01*
X51657Y103000D02*
X66444Y88213D01*
X43250Y33250D02*
X46000Y36000D01*
X66828Y96172D02*
X72000Y91000D01*
X66444Y88213D02*
X66851D01*
X54000Y95000D02*
X58000Y91000D01*
X71444Y84321D02*
Y85735D01*
X58000Y87657D02*
Y91000D01*
X71061Y83938D02*
X71444Y84321D01*
Y85735D02*
X72000Y86291D01*
Y91000D01*
X3000Y67000D02*
Y79000D01*
X3847Y79847D01*
Y81475D01*
X4230Y81858D01*
X9517Y75826D02*
Y83876D01*
X23200Y29000D02*
X23741D01*
X15142Y62213D02*
X15683D01*
X17000Y38000D02*
Y50000D01*
X3000Y67000D02*
X14964Y55036D01*
X15683Y62213D02*
X18039Y59858D01*
X19000Y86000D02*
X26919D01*
X18039Y59858D02*
X19828D01*
X9517Y75826D02*
X30843Y54500D01*
X26919Y86000D02*
X28919Y84000D01*
X20000Y91000D02*
X29915D01*
X28919Y84000D02*
X32700D01*
X31043Y80000D02*
X31782Y79261D01*
X19000Y80000D02*
X31043D01*
X32700Y84000D02*
X33439Y83261D01*
X29915Y91000D02*
X32271Y88644D01*
X17000Y94000D02*
X20000Y91000D01*
X21000Y34000D02*
X27179D01*
X17000Y38000D02*
X21000Y34000D01*
X8357Y41643D02*
Y54572D01*
X24071Y47000D02*
X27849Y50778D01*
X17000Y50000D02*
X21000Y54000D01*
Y58686D01*
X19828Y59858D02*
X21000Y58686D01*
D22*
X12000Y101647D02*
Y103000D01*
Y101647D02*
X16000Y97647D01*
X26463Y18500D02*
X40520D01*
X16000Y95000D02*
Y97647D01*
X23920Y21043D02*
X26463Y18500D01*
X13957Y21043D02*
X23920D01*
X13000Y22000D02*
X13957Y21043D01*
X12160Y22840D02*
X13500Y21500D01*
X8357Y22840D02*
X12160D01*
X8357D02*
Y41643D01*
X16000Y95000D02*
X17000Y94000D01*
D23*
X3573Y106160D02*
D03*
X57000Y22000D02*
D03*
X24071Y47000D02*
D03*
X42000Y39071D02*
D03*
X66657Y47343D02*
D03*
X55000Y40000D02*
D03*
X51000Y34000D02*
D03*
X48000Y24000D02*
D03*
X8357Y54572D02*
D03*
X30000Y38250D02*
D03*
X23200Y29000D02*
D03*
X48010Y13510D02*
D03*
X45000Y71000D02*
D03*
X57000Y80000D02*
D03*
X48294Y86000D02*
D03*
X66851Y88213D02*
D03*
X71061Y83938D02*
D03*
X4230Y81858D02*
D03*
X14964Y55036D02*
D03*
X15142Y62213D02*
D03*
X19000Y80000D02*
D03*
Y86000D02*
D03*
X39000Y55000D02*
D03*
X35510Y88261D02*
D03*
D24*
X12000Y103000D02*
D03*
X24800D02*
D03*
X37600D02*
D03*
X50400D02*
D03*
X63200D02*
D03*
M02*
