G04*
G04 #@! TF.GenerationSoftware,Altium Limited,Altium Designer,21.9.2 (33)*
G04*
G04 Layer_Color=8421504*
%FSLAX44Y44*%
%MOMM*%
G71*
G04*
G04 #@! TF.SameCoordinates,6EA3AFA9-0330-4775-ACE0-DBF6802BEFD6*
G04*
G04*
G04 #@! TF.FilePolarity,Positive*
G04*
G01*
G75*
%ADD10C,0.2540*%
%ADD11R,0.5000X0.6000*%
%ADD12C,1.5000*%
%ADD13R,0.3000X0.3000*%
%ADD14R,0.7200X0.3000*%
%ADD15R,0.3000X0.7200*%
%ADD16R,2.2000X2.2000*%
%ADD17R,0.3000X0.3000*%
D10*
X0D02*
X75000D01*
X0Y110000D02*
X75000D01*
Y0D02*
Y110000D01*
X0Y0D02*
Y110000D01*
D11*
X41500Y7000D02*
D03*
X30500D02*
D03*
X41500Y17000D02*
D03*
X30500D02*
D03*
D12*
X63000Y13000D02*
D03*
X27500Y105000D02*
D03*
X49000D02*
D03*
D13*
X33084Y27234D02*
D03*
X39084D02*
D03*
D14*
X57150Y67250D02*
D03*
Y73750D02*
D03*
Y54250D02*
D03*
Y60750D02*
D03*
X20850Y67250D02*
D03*
Y73750D02*
D03*
Y54250D02*
D03*
Y60750D02*
D03*
D15*
X42250Y82150D02*
D03*
X35750D02*
D03*
X48750D02*
D03*
X42250Y45850D02*
D03*
X35750D02*
D03*
X48750D02*
D03*
X29250Y82150D02*
D03*
Y45850D02*
D03*
D16*
X38999Y64001D02*
D03*
D17*
X11000Y74000D02*
D03*
Y68000D02*
D03*
M02*
