G04*
G04 #@! TF.GenerationSoftware,Altium Limited,Altium Designer,21.9.2 (33)*
G04*
G04 Layer_Color=8388736*
%FSLAX44Y44*%
%MOMM*%
G71*
G04*
G04 #@! TF.SameCoordinates,6EA3AFA9-0330-4775-ACE0-DBF6802BEFD6*
G04*
G04*
G04 #@! TF.FilePolarity,Positive*
G04*
G01*
G75*
%ADD10C,0.2540*%
%ADD25C,0.1000*%
G36*
X32087Y108242D02*
X32462Y108173D01*
X32781Y108062D01*
X33058Y107951D01*
X33183Y107882D01*
X33280Y107826D01*
X33377Y107771D01*
X33446Y107715D01*
X33502Y107674D01*
X33543Y107646D01*
X33571Y107632D01*
X33585Y107618D01*
X33849Y107355D01*
X34056Y107064D01*
X34223Y106758D01*
X34362Y106453D01*
X34445Y106190D01*
X34486Y106079D01*
X34514Y105982D01*
X34528Y105899D01*
X34542Y105843D01*
X34556Y105801D01*
Y105788D01*
X33377Y105580D01*
X33321Y105885D01*
X33238Y106148D01*
X33141Y106370D01*
X33044Y106550D01*
X32947Y106689D01*
X32864Y106786D01*
X32808Y106855D01*
X32794Y106869D01*
X32614Y107008D01*
X32420Y107119D01*
X32240Y107188D01*
X32059Y107244D01*
X31893Y107272D01*
X31768Y107299D01*
X31657D01*
X31408Y107285D01*
X31186Y107230D01*
X30992Y107161D01*
X30825Y107091D01*
X30700Y107008D01*
X30603Y106939D01*
X30534Y106883D01*
X30520Y106869D01*
X30368Y106703D01*
X30257Y106523D01*
X30187Y106342D01*
X30132Y106176D01*
X30104Y106023D01*
X30076Y105913D01*
Y105829D01*
Y105815D01*
Y105801D01*
Y105649D01*
X30104Y105510D01*
X30173Y105274D01*
X30270Y105066D01*
X30381Y104886D01*
X30492Y104761D01*
X30589Y104664D01*
X30659Y104609D01*
X30673Y104595D01*
X30687D01*
X30922Y104470D01*
X31144Y104373D01*
X31380Y104304D01*
X31588Y104262D01*
X31768Y104234D01*
X31921Y104207D01*
X32101D01*
X32157Y104221D01*
X32226D01*
X32365Y103180D01*
X32184Y103222D01*
X32018Y103250D01*
X31879Y103278D01*
X31754Y103291D01*
X31657Y103305D01*
X31532D01*
X31241Y103278D01*
X30978Y103222D01*
X30742Y103139D01*
X30548Y103042D01*
X30395Y102945D01*
X30284Y102861D01*
X30215Y102806D01*
X30187Y102778D01*
X30007Y102570D01*
X29868Y102348D01*
X29771Y102126D01*
X29716Y101904D01*
X29674Y101724D01*
X29660Y101572D01*
X29646Y101516D01*
Y101475D01*
Y101447D01*
Y101433D01*
X29674Y101128D01*
X29743Y100850D01*
X29827Y100615D01*
X29938Y100407D01*
X30048Y100240D01*
X30132Y100115D01*
X30201Y100032D01*
X30229Y100005D01*
X30451Y99810D01*
X30687Y99672D01*
X30922Y99575D01*
X31144Y99505D01*
X31338Y99464D01*
X31491Y99450D01*
X31546Y99436D01*
X31630D01*
X31879Y99450D01*
X32115Y99505D01*
X32323Y99575D01*
X32489Y99658D01*
X32628Y99727D01*
X32739Y99796D01*
X32794Y99852D01*
X32822Y99866D01*
X32989Y100060D01*
X33127Y100282D01*
X33252Y100518D01*
X33349Y100767D01*
X33419Y100975D01*
X33446Y101072D01*
X33460Y101156D01*
X33474Y101225D01*
X33488Y101280D01*
X33502Y101308D01*
Y101322D01*
X34681Y101170D01*
X34653Y100948D01*
X34611Y100739D01*
X34486Y100351D01*
X34334Y100018D01*
X34251Y99880D01*
X34167Y99741D01*
X34084Y99616D01*
X34001Y99519D01*
X33932Y99422D01*
X33862Y99353D01*
X33821Y99297D01*
X33779Y99256D01*
X33751Y99228D01*
X33737Y99214D01*
X33571Y99089D01*
X33405Y98964D01*
X33238Y98867D01*
X33058Y98784D01*
X32711Y98645D01*
X32378Y98562D01*
X32226Y98534D01*
X32087Y98507D01*
X31962Y98493D01*
X31851Y98479D01*
X31768Y98465D01*
X31643D01*
X31380Y98479D01*
X31144Y98507D01*
X30908Y98548D01*
X30687Y98604D01*
X30478Y98673D01*
X30298Y98743D01*
X30118Y98826D01*
X29965Y98909D01*
X29813Y98978D01*
X29688Y99061D01*
X29577Y99131D01*
X29494Y99200D01*
X29425Y99256D01*
X29369Y99297D01*
X29341Y99325D01*
X29327Y99339D01*
X29161Y99505D01*
X29022Y99686D01*
X28898Y99866D01*
X28786Y100046D01*
X28703Y100213D01*
X28620Y100393D01*
X28509Y100726D01*
X28481Y100878D01*
X28454Y101017D01*
X28426Y101142D01*
X28412Y101253D01*
X28398Y101336D01*
Y101405D01*
Y101447D01*
Y101461D01*
X28412Y101793D01*
X28468Y102099D01*
X28551Y102362D01*
X28634Y102584D01*
X28717Y102764D01*
X28800Y102903D01*
X28856Y102986D01*
X28870Y103014D01*
X29064Y103222D01*
X29272Y103402D01*
X29494Y103541D01*
X29716Y103652D01*
X29910Y103735D01*
X30062Y103791D01*
X30118Y103805D01*
X30159Y103818D01*
X30187Y103832D01*
X30201D01*
X29965Y103957D01*
X29771Y104082D01*
X29605Y104221D01*
X29466Y104345D01*
X29355Y104456D01*
X29272Y104553D01*
X29230Y104609D01*
X29216Y104637D01*
X29106Y104831D01*
X29022Y105025D01*
X28953Y105219D01*
X28911Y105399D01*
X28884Y105552D01*
X28870Y105663D01*
Y105746D01*
Y105774D01*
X28884Y106010D01*
X28925Y106245D01*
X28981Y106453D01*
X29050Y106634D01*
X29119Y106786D01*
X29175Y106911D01*
X29216Y106980D01*
X29230Y107008D01*
X29369Y107216D01*
X29535Y107396D01*
X29702Y107549D01*
X29868Y107688D01*
X30007Y107785D01*
X30132Y107868D01*
X30215Y107909D01*
X30229Y107923D01*
X30243D01*
X30492Y108034D01*
X30742Y108118D01*
X30992Y108187D01*
X31214Y108229D01*
X31394Y108256D01*
X31546Y108270D01*
X31893D01*
X32087Y108242D01*
D02*
G37*
G36*
X38619Y108034D02*
X38772Y107812D01*
X38952Y107591D01*
X39118Y107396D01*
X39285Y107230D01*
X39410Y107091D01*
X39465Y107050D01*
X39507Y107008D01*
X39521Y106994D01*
X39534Y106980D01*
X39826Y106745D01*
X40117Y106523D01*
X40394Y106328D01*
X40672Y106176D01*
X40908Y106037D01*
X41005Y105982D01*
X41088Y105940D01*
X41157Y105899D01*
X41213Y105885D01*
X41240Y105857D01*
X41254D01*
Y104720D01*
X41046Y104803D01*
X40838Y104900D01*
X40630Y104997D01*
X40436Y105094D01*
X40269Y105177D01*
X40131Y105247D01*
X40048Y105302D01*
X40034Y105316D01*
X40020D01*
X39770Y105469D01*
X39548Y105621D01*
X39354Y105760D01*
X39202Y105885D01*
X39063Y105982D01*
X38980Y106065D01*
X38910Y106121D01*
X38897Y106134D01*
Y98632D01*
X37718D01*
Y108270D01*
X38481D01*
X38619Y108034D01*
D02*
G37*
G36*
X45026Y101613D02*
Y101322D01*
X45054Y101072D01*
X45068Y100864D01*
X45096Y100698D01*
X45124Y100573D01*
X45137Y100476D01*
X45165Y100421D01*
Y100407D01*
X45221Y100268D01*
X45290Y100157D01*
X45373Y100060D01*
X45443Y99963D01*
X45526Y99907D01*
X45581Y99852D01*
X45623Y99824D01*
X45637Y99810D01*
X45775Y99741D01*
X45914Y99686D01*
X46053Y99658D01*
X46178Y99630D01*
X46302Y99616D01*
X46385Y99602D01*
X46469D01*
X46691Y99616D01*
X46899Y99672D01*
X47065Y99727D01*
X47218Y99810D01*
X47329Y99880D01*
X47412Y99949D01*
X47467Y99991D01*
X47481Y100005D01*
X47551Y100088D01*
X47606Y100185D01*
X47689Y100407D01*
X47772Y100656D01*
X47814Y100906D01*
X47856Y101142D01*
Y101239D01*
X47869Y101322D01*
X47883Y101405D01*
Y101461D01*
Y101488D01*
Y101502D01*
X49034Y101336D01*
Y101072D01*
X49021Y100837D01*
X48979Y100601D01*
X48951Y100393D01*
X48896Y100199D01*
X48840Y100032D01*
X48785Y99866D01*
X48729Y99727D01*
X48660Y99602D01*
X48604Y99491D01*
X48549Y99394D01*
X48493Y99325D01*
X48452Y99270D01*
X48424Y99214D01*
X48410Y99200D01*
X48396Y99186D01*
X48258Y99061D01*
X48119Y98951D01*
X47966Y98853D01*
X47800Y98770D01*
X47481Y98645D01*
X47176Y98562D01*
X46885Y98507D01*
X46774Y98493D01*
X46663Y98479D01*
X46580Y98465D01*
X46455D01*
X46150Y98479D01*
X45872Y98521D01*
X45623Y98576D01*
X45401Y98645D01*
X45221Y98701D01*
X45096Y98756D01*
X45012Y98798D01*
X44985Y98812D01*
X44763Y98951D01*
X44569Y99117D01*
X44416Y99283D01*
X44278Y99436D01*
X44180Y99588D01*
X44111Y99699D01*
X44069Y99783D01*
X44056Y99796D01*
Y99810D01*
X43959Y100088D01*
X43875Y100379D01*
X43820Y100698D01*
X43792Y101003D01*
X43764Y101266D01*
Y101377D01*
X43751Y101488D01*
Y101572D01*
Y101627D01*
Y101669D01*
Y101683D01*
Y108229D01*
X45026D01*
Y101613D01*
D02*
G37*
D10*
X0Y0D02*
X75000D01*
X0Y110000D02*
X75000D01*
Y0D02*
Y110000D01*
X0Y0D02*
Y110000D01*
D25*
X4000Y96000D02*
Y111000D01*
X71070D01*
X4000Y96000D02*
X71070D01*
Y111000D01*
M02*
