M48
;Layer_Color=9474304
;FILE_FORMAT=4:4
METRIC,LZ
;TYPE=PLATED
T1F00S00C0.2000
T2F00S00C0.3500
%
T01
X000232Y00029
X0003Y0003825
X00042Y00039071
X00055Y0004
X00051Y00034
X00048Y00024
X0004801Y0001351
X00057Y00022
X00066657Y00047343
X00039Y00055
X00045Y00071
X00048294Y00086
X00057Y0008
X00071061Y00083938
X00066851Y00088213
X0003551Y00088261
X00019Y00086
Y0008
X0000423Y00081858
X00003573Y0010616
X00015142Y00062213
X00014964Y00055036
X00008357Y00054572
X00024071Y00047
T02
X0Y00032
Y0004
Y00048
Y00088
Y00096
X00075
Y0004
Y00032
M30
