<?xml version="1.0" encoding="UTF-8" standalone="no"?>
<!DOCTYPE svg PUBLIC "-//W3C//DTD SVG 1.1//EN" "http://www.w3.org/Graphics/SVG/1.1/DTD/svg11.dtd">
<svg width="100%" height="100%" viewBox="0 0 199 123" version="1.1" xmlns="http://www.w3.org/2000/svg" xmlns:xlink="http://www.w3.org/1999/xlink" xml:space="preserve" xmlns:serif="http://www.serif.com/" style="fill-rule:evenodd;clip-rule:evenodd;stroke-linejoin:round;stroke-miterlimit:2;">
    <g id="VDD" transform="matrix(0.0841305,0,0,0.0841305,-0.820427,0.76915)">
        <g id="Back">
            <path id="VDD1" serif:id="VDD" d="M359.964,853.663C356.539,857.054 354.613,861.673 354.613,866.493C354.613,877.953 354.613,900.016 354.613,914.969C354.613,923.48 361.513,930.38 370.024,930.38C401.606,930.38 472.822,930.38 498.055,930.38C500.462,930.38 502.77,929.424 504.472,927.723C506.173,926.021 507.129,923.713 507.129,921.306C507.129,920.903 507.129,920.497 507.129,920.094C507.129,915.082 503.067,911.02 498.055,911.02C495.948,911.02 493.601,911.02 491.156,911.02C484.21,911.02 477.549,908.261 472.637,903.349C467.726,898.438 464.967,891.777 464.967,884.831C464.967,883.934 464.967,883.036 464.967,882.139C464.967,867.675 476.692,855.95 491.155,855.95C491.915,855.95 492.539,855.95 492.988,855.95C493.521,855.95 494.051,856.03 494.561,856.186C497.069,856.956 505.11,859.423 509.605,860.802C511.52,861.39 513.603,860.861 515.006,859.432C520.644,853.686 535.293,838.759 542.534,831.381C545.211,828.653 546.711,824.984 546.711,821.162C546.711,786.353 546.711,609.365 546.711,563.003C546.711,555.877 549.541,549.043 554.58,544.004C560.112,538.472 567.469,531.115 572.92,525.664C577.73,520.854 584.254,518.152 591.057,518.152C609.607,518.152 647.879,518.152 668.378,518.152C677.132,518.152 685.527,521.629 691.717,527.819C699.202,535.304 709.115,545.217 714.155,550.257C716.231,552.333 719.046,553.499 721.982,553.499C742.404,553.499 824.964,553.499 844.993,553.499C847.503,553.5 849.62,551.63 849.93,549.14C850.029,548.347 850.138,547.473 850.254,546.541C851.81,534.074 862.308,524.656 874.871,524.459C877.509,524.418 879.293,524.39 879.293,524.39C885.038,524.338 890.49,527.44 895.322,532.271C896.907,533.852 899.423,534 901.183,532.616C912.147,523.948 923.331,522.372 935.367,527.642C936.953,528.34 938.768,528.288 940.312,527.501C942.363,526.523 945.19,525.083 947.114,524.103C948.52,523.386 950.075,523.013 951.653,523.013C968.749,523.013 1072.17,523.013 1100.03,523.013C1104.48,523.013 1108.77,524.639 1112.11,527.585C1119.77,534.354 1133.84,546.783 1139.52,551.802C1141.12,553.211 1143.17,553.99 1145.3,553.99C1157.99,553.99 1203.6,553.99 1218.66,553.99C1221.78,553.99 1224.77,552.77 1227.01,550.592C1245.09,532.948 1328.31,451.754 1350.56,430.052C1354.07,426.624 1358.78,424.705 1363.69,424.705C1374.97,424.705 1395.75,424.705 1405.44,424.705C1408.79,424.705 1412.01,423.375 1414.37,421.007C1431.44,403.94 1502.76,332.617 1526.4,308.982C1531.29,304.087 1537.93,301.337 1544.86,301.337C1561.54,301.337 1592.59,301.337 1601.57,301.337C1603.23,301.337 1604.88,301.186 1606.52,300.885C1611.92,299.889 1624.82,297.514 1630.22,296.518C1631.85,296.218 1633.51,296.066 1635.17,296.066C1651.96,296.066 1748.54,296.066 1769.54,296.066C1772.2,296.066 1774.82,296.666 1777.2,297.819C1778.53,298.459 1780.05,299.192 1781.45,299.868C1784.34,301.259 1787.69,301.312 1790.62,300.014C1796.95,297.383 1804.4,296.884 1812.11,296.86C1816.01,296.803 1819.15,293.622 1819.15,289.719C1819.18,278.77 1819.18,257.271 1819.18,238.82C1819.18,220.776 1833.81,206.148 1851.85,206.148C1853.21,206.148 1854.51,206.148 1855.72,206.148C1860.61,206.148 1864.57,202.188 1864.57,197.303C1864.57,190.602 1864.57,181.003 1864.57,171.779C1864.57,156.307 1877.11,143.765 1892.58,143.765C1893.19,143.765 1893.81,143.765 1894.42,143.765C1909.89,143.765 1922.43,156.307 1922.43,171.779C1922.43,173.735 1922.43,175.516 1922.43,177C1922.43,179.863 1923.36,182.649 1925.08,184.941C1927.16,187.733 1930.11,191.668 1932.45,194.803C1934.94,198.118 1936.28,202.148 1936.28,206.289C1936.28,241.972 1936.28,416.549 1936.28,452.906C1936.28,457.156 1937.98,461.23 1941,464.22C1951.93,475.045 1979.82,502.657 2002.87,525.481C2025.23,547.622 2037.81,577.786 2037.81,609.255C2037.81,691.234 2037.81,850.726 2037.81,889.951C2037.81,894.853 2041.78,898.826 2046.68,898.826C2064.17,898.826 2103.26,898.826 2124.96,898.826C2129.01,898.826 2132.89,897.219 2135.75,894.357C2138.61,891.496 2140.22,887.615 2140.22,883.568C2140.22,868.399 2140.22,845.801 2140.22,834.448C2140.22,829.936 2138.43,825.609 2135.24,822.418C2126.1,813.282 2106.87,794.049 2098.77,785.952C2096.39,783.572 2095.05,780.345 2095.05,776.979C2095.05,745.876 2095.05,585.653 2095.05,537.21C2095.05,528.316 2091.52,519.787 2085.23,513.498C2062.27,490.534 2005.64,433.911 1987.54,415.806C1983.91,412.18 1981.88,407.262 1981.88,402.133C1981.88,360.714 1981.88,170.673 1981.88,116.875C1981.88,113.102 1980.38,109.483 1977.71,106.815C1975.04,104.147 1971.42,102.648 1967.65,102.648C1935.26,102.648 1856.62,102.648 1827.99,102.648C1821.16,102.648 1814.62,105.358 1809.8,110.182C1798.92,121.06 1779.02,140.964 1768.93,151.052C1764.95,155.031 1762.72,160.429 1762.72,166.056C1762.73,179.52 1762.76,205.705 1762.78,224.904C1762.8,238.708 1751.8,250.005 1738,250.353C1723.95,250.844 1719.78,248.045 1710.41,237.489C1709.56,236.611 1708.39,236.116 1707.16,236.116C1696.07,236.045 1641.71,236.045 1627.44,236.045C1625.28,236.049 1623.23,236.989 1621.81,238.621C1617.23,244.021 1609.26,251.885 1595.76,251.885L1513.15,251.885C1510.22,251.885 1507.42,253.047 1505.35,255.114C1500.19,260.279 1490.06,270.404 1484.3,276.169C1481.55,278.914 1477.83,280.455 1473.95,280.455C1459.22,280.455 1422.12,280.455 1413.56,280.455C1412.38,280.455 1411.22,280.675 1410.12,281.103C1408.59,281.701 1406.22,282.626 1403.98,283.499C1400.53,284.852 1398.26,288.175 1398.24,291.882C1398.37,312.613 1388.12,322.821 1366.99,321.836C1363.99,321.71 1361.07,322.849 1358.94,324.976C1347.12,336.709 1308.31,375.52 1288.18,395.652C1280.27,403.566 1269.53,408.012 1258.34,408.012C1246.55,408.012 1231.92,408.012 1224.94,408.012C1223.86,408.012 1222.82,407.583 1222.06,406.819C1221.29,406.055 1220.86,405.019 1220.86,403.938C1220.86,403.848 1220.86,403.758 1220.86,403.668C1220.86,401.89 1219.42,400.449 1217.64,400.449C1207.55,400.449 1176.15,400.449 1159.27,400.449C1153.19,400.449 1148.26,405.375 1148.26,411.452C1148.26,414.918 1148.26,418.96 1148.26,423.216C1148.26,433.313 1144.25,442.996 1137.11,450.136C1129.97,457.275 1120.29,461.286 1110.19,461.286C1039.66,461.286 893.919,461.286 872.853,461.286C871.157,461.286 869.471,461.551 867.857,462.072C865.957,462.685 863.361,463.522 861.653,464.073C860.474,464.454 859.243,464.647 858.004,464.647C833.877,464.647 583.682,464.647 542.568,464.647C538.916,464.648 535.414,466.098 532.832,468.68C525.392,476.12 509.425,492.087 500.179,501.333C495.691,505.821 493.169,511.909 493.169,518.256C493.169,553.753 493.169,674.347 493.169,711.074C493.169,717.924 490.431,724.489 485.564,729.308C460.567,754.057 381.329,832.51 359.964,853.663Z" style="fill:rgb(242,13,13);fill-opacity:0.37;"/>
        </g>
    </g>
</svg>
