<?xml version="1.0" encoding="UTF-8" standalone="no"?>
<!DOCTYPE svg PUBLIC "-//W3C//DTD SVG 1.1//EN" "http://www.w3.org/Graphics/SVG/1.1/DTD/svg11.dtd">
<svg width="100%" height="100%" viewBox="0 0 199 123" version="1.1" xmlns="http://www.w3.org/2000/svg" xmlns:xlink="http://www.w3.org/1999/xlink" xml:space="preserve" xmlns:serif="http://www.serif.com/" style="fill-rule:evenodd;clip-rule:evenodd;stroke-linejoin:round;stroke-miterlimit:2;">
    <g id="Back">
        <path id="Ground" d="M181.711,94.323C181.636,94.316 181.56,94.312 181.483,94.312C180.425,94.312 179.53,95.029 179.247,96.01C179.13,96.333 178.952,96.6 178.643,96.61C178.336,96.6 178.158,96.335 178.041,96.015C177.759,95.031 176.863,94.312 175.803,94.312C174.743,94.312 173.847,95.031 173.565,96.015C173.448,96.335 173.271,96.6 172.963,96.61C172.653,96.6 172.475,96.331 172.358,96.007C172.074,95.028 171.18,94.312 170.123,94.312C169.09,94.312 168.214,94.995 167.908,95.939C167.9,95.964 167.892,95.989 167.885,96.015C167.768,96.339 167.59,96.608 167.28,96.617C166.973,96.608 166.795,96.343 166.678,96.022C166.396,95.039 165.5,94.32 164.44,94.32C163.38,94.32 162.484,95.039 162.202,96.022C162.085,96.343 161.907,96.608 161.6,96.617C161.291,96.608 161.113,96.34 160.996,96.018C160.713,95.037 159.818,94.32 158.76,94.32C157.701,94.32 156.807,95.037 156.523,96.018C156.406,96.34 156.228,96.608 155.92,96.617C155.612,96.608 155.434,96.343 155.317,96.022C155.035,95.039 154.139,94.32 153.08,94.32C152.02,94.32 151.124,95.039 150.842,96.022C150.725,96.343 150.547,96.608 150.24,96.617C149.948,96.608 149.773,96.37 149.656,96.072C149.393,95.059 148.483,94.312 147.403,94.312C146.478,94.312 145.679,94.859 145.303,95.652C145.245,95.771 145.198,95.896 145.161,96.026C145.044,96.341 144.866,96.6 144.563,96.61C144.255,96.6 144.077,96.335 143.96,96.015C143.678,95.031 142.782,94.312 141.723,94.312C140.663,94.312 139.767,95.031 139.485,96.015C139.368,96.335 139.19,96.6 138.883,96.61C138.574,96.6 138.396,96.333 138.279,96.01C137.995,95.029 137.101,94.312 136.042,94.312C134.984,94.312 134.089,95.029 133.806,96.01C133.689,96.333 133.511,96.6 133.202,96.61C132.895,96.6 132.717,96.335 132.6,96.015C132.318,95.031 131.422,94.312 130.362,94.312C129.302,94.312 128.406,95.031 128.124,96.015C128.007,96.335 127.829,96.6 127.522,96.61C127.212,96.6 127.034,96.331 126.917,96.007C126.633,95.028 125.739,94.312 124.682,94.312C123.649,94.312 122.773,94.995 122.467,95.939C122.459,95.964 122.451,95.989 122.444,96.015C122.327,96.339 122.149,96.608 121.839,96.617C121.531,96.608 121.354,96.343 121.237,96.022C120.955,95.039 120.059,94.32 118.999,94.32C117.939,94.32 117.043,95.039 116.761,96.022C116.644,96.343 116.466,96.608 116.159,96.617C115.85,96.608 115.672,96.34 115.555,96.018C115.272,95.037 114.377,94.32 113.319,94.32C112.26,94.32 111.366,95.037 111.082,96.018C110.965,96.34 110.787,96.608 110.478,96.617C110.171,96.608 109.993,96.343 109.876,96.022C109.594,95.039 108.698,94.32 107.638,94.32C106.578,94.32 105.683,95.039 105.401,96.022C105.284,96.343 105.106,96.608 104.798,96.617C104.488,96.608 104.31,96.339 104.193,96.015C104.119,95.758 104.003,95.52 103.853,95.308C103.43,94.708 102.738,94.317 101.956,94.317C100.899,94.317 100.005,95.033 99.721,96.012C99.604,96.336 99.426,96.605 99.116,96.615C98.808,96.605 98.63,96.34 98.513,96.019C98.231,95.036 97.336,94.317 96.276,94.317C95.216,94.317 94.32,95.036 94.038,96.019C93.921,96.34 93.743,96.605 93.436,96.615C93.127,96.605 92.949,96.338 92.832,96.015C92.548,95.034 91.654,94.317 90.595,94.317C89.537,94.317 88.643,95.034 88.359,96.015C88.242,96.338 88.064,96.605 87.755,96.615C87.448,96.605 87.27,96.34 87.153,96.019C86.871,95.036 85.975,94.317 84.915,94.317C83.855,94.317 82.959,95.036 82.678,96.019C82.561,96.34 82.383,96.605 82.075,96.615C81.765,96.605 81.587,96.336 81.47,96.012C81.186,95.033 80.292,94.317 79.235,94.317C78.202,94.317 77.326,95 77.02,95.944C77.012,95.969 77.005,95.994 76.997,96.02C76.88,96.344 76.702,96.613 76.392,96.622C76.085,96.613 75.907,96.348 75.79,96.027C75.508,95.044 74.612,94.325 73.552,94.325C72.492,94.325 71.596,95.044 71.314,96.027C71.197,96.348 71.019,96.613 70.712,96.622C70.403,96.613 70.225,96.345 70.108,96.023C69.825,95.042 68.93,94.325 67.872,94.325C66.813,94.325 65.919,95.042 65.635,96.023C65.518,96.345 65.34,96.613 65.032,96.622C64.724,96.613 64.546,96.348 64.429,96.027C64.147,95.044 63.252,94.325 62.192,94.325C61.132,94.325 60.236,95.044 59.954,96.027C59.837,96.348 59.659,96.613 59.352,96.622C59.06,96.613 58.885,96.375 58.768,96.077C58.505,95.064 57.595,94.317 56.515,94.317C55.59,94.317 54.791,94.864 54.415,95.657C54.357,95.776 54.31,95.901 54.273,96.031C54.156,96.346 53.978,96.605 53.675,96.615C53.367,96.605 53.189,96.34 53.072,96.019C52.79,95.036 51.895,94.317 50.835,94.317C49.775,94.317 48.879,95.036 48.597,96.019C48.48,96.34 48.302,96.605 47.995,96.615C47.686,96.605 47.508,96.338 47.391,96.015C47.107,95.034 46.213,94.317 45.154,94.317C44.096,94.317 43.201,95.034 42.918,96.015C42.801,96.338 42.623,96.605 42.314,96.615C42.007,96.605 41.829,96.34 41.712,96.019C41.43,95.036 40.534,94.317 39.474,94.317C38.414,94.317 37.518,95.036 37.236,96.019C37.119,96.34 36.942,96.605 36.634,96.615C36.324,96.605 36.146,96.336 36.029,96.012C35.745,95.033 34.851,94.317 33.794,94.317C32.761,94.317 31.885,95 31.579,95.944C31.571,95.969 31.563,95.994 31.556,96.02C31.439,96.344 31.261,96.613 30.951,96.622C30.644,96.613 30.466,96.348 30.349,96.027C30.067,95.044 29.171,94.325 28.111,94.325C27.051,94.325 26.155,95.044 25.873,96.027C25.756,96.348 25.578,96.613 25.271,96.622C24.962,96.613 24.784,96.345 24.667,96.023C24.384,95.042 23.489,94.325 22.431,94.325C21.372,94.325 20.478,95.042 20.194,96.023C20.077,96.345 19.899,96.613 19.59,96.622C19.283,96.613 19.105,96.348 18.988,96.027C18.706,95.044 17.81,94.325 16.75,94.325C15.691,94.325 14.795,95.044 14.513,96.027C14.396,96.348 14.218,96.613 13.91,96.622C13.601,96.613 13.422,96.344 13.305,96.02C13.021,95.04 12.127,94.325 11.07,94.325C9.784,94.325 8.74,95.383 8.74,96.687L8.74,97.642C8.74,97.75 8.698,97.853 8.621,97.929C8.545,98.005 8.442,98.048 8.334,98.048L8.138,98.048C8.007,98.048 7.882,97.996 7.789,97.904C7.696,97.811 7.644,97.686 7.644,97.555L7.644,87.596C7.644,86.617 6.851,85.823 5.872,85.823L5.446,85.823C5.286,85.823 5.134,85.76 5.021,85.648C4.909,85.535 4.846,85.383 4.846,85.223L4.846,61.232C4.846,61.031 4.925,60.838 5.067,60.696C5.209,60.554 5.402,60.474 5.603,60.474L10.439,60.474C11.018,60.474 11.574,60.244 11.983,59.835C12.393,59.425 12.623,58.87 12.623,58.291L12.623,51.902C12.623,51.323 12.393,50.767 11.983,50.358C11.574,49.948 11.018,49.718 10.439,49.718L5.341,49.718C5.064,49.718 4.84,49.494 4.84,49.217L4.84,8.889C4.84,8.192 5.117,7.523 5.61,7.03C6.103,6.536 6.772,6.259 7.469,6.259L83.495,6.259C84.373,6.259 85.091,6.958 85.117,7.835C85.296,11.822 86.973,21.989 99.264,21.989C110.049,21.989 112.281,11.622 112.739,7.721C112.822,6.894 113.518,6.264 114.349,6.264C124.215,6.259 179.991,6.259 191.453,6.259C191.999,6.259 192.523,6.476 192.909,6.863C193.295,7.249 193.512,7.773 193.512,8.319L193.512,41.876C193.512,42.423 193.069,42.866 192.522,42.866L187.837,42.866C186.536,42.866 185.482,43.921 185.482,45.222L185.482,51.259C185.482,52.56 186.536,53.615 187.837,53.615L192.55,53.615C192.813,53.615 193.065,53.719 193.251,53.905C193.436,54.091 193.541,54.343 193.541,54.605L193.541,84.796C193.541,84.929 193.488,85.057 193.394,85.15C193.3,85.244 193.173,85.297 193.04,85.297L192.736,85.297C192.164,85.297 191.615,85.524 191.21,85.929C190.805,86.334 190.578,86.883 190.578,87.455L190.578,93.248C190.578,93.842 190.097,94.323 189.503,94.323L187.391,94.323C187.316,94.316 187.24,94.312 187.164,94.312C187.087,94.312 187.011,94.316 186.936,94.323L181.711,94.323ZM189.52,68.821L185.817,68.821L185.817,72.524L189.52,72.524L189.52,68.821ZM20.444,41.905C20.797,41.267 20.999,40.534 20.999,39.753C20.999,37.297 19.005,35.304 16.549,35.304C14.094,35.304 12.1,37.297 12.1,39.753C12.1,42.209 14.094,44.203 16.549,44.203C17.383,44.203 18.163,43.973 18.83,43.574L25.895,50.712C26.414,51.23 26.705,51.934 26.705,52.667L26.705,78.326C26.705,79.928 28.004,81.226 29.605,81.227L42.15,81.229C42.789,81.229 43.403,81.483 43.855,81.936L51.716,89.797C52.613,90.693 53.829,91.197 55.097,91.197L87.34,91.197C90.128,91.197 92.723,89.772 94.219,87.418L95.763,84.989C95.872,84.817 96.089,84.749 96.277,84.826C96.78,85.022 97.355,85.092 98.02,85.007C98.193,84.984 98.368,85.02 98.517,85.109C99.332,85.589 100.184,85.923 101.867,85.923L112.311,85.923C112.727,85.923 113.127,86.088 113.421,86.383C113.716,86.678 113.881,87.077 113.881,87.493L113.881,89.055C113.881,89.626 114.126,90.171 114.554,90.55L117.535,93.191C117.729,93.363 117.979,93.457 118.238,93.457L119.892,93.457C120.415,93.457 120.901,93.19 121.18,92.748L121.346,92.486C121.431,92.352 121.558,92.25 121.708,92.197C123.274,91.634 124.182,90.371 124.182,88.993L124.182,87.844C124.182,87.688 124.244,87.539 124.354,87.428C124.465,87.318 124.614,87.256 124.77,87.256L125.179,87.256C125.855,87.256 126.504,86.987 126.982,86.509C127.46,86.031 127.729,85.382 127.729,84.706C127.729,84.382 127.992,84.119 128.316,84.119L132.64,84.119C133.036,84.119 133.418,84.269 133.708,84.539L139.74,90.151C140.24,90.617 140.898,90.875 141.581,90.875L163.164,90.875C163.369,90.875 163.558,90.988 163.656,91.169C163.751,91.339 163.863,91.552 163.924,91.72C164.09,92.176 164.798,93.198 166.164,93.198C167.689,93.198 167.898,92.187 168.268,91.768C168.454,91.557 168.949,91.549 169.185,91.744C169.727,92.192 171.745,92.701 173.48,91.706C175.489,90.553 175.248,88.616 175.169,87.739C175.136,87.378 175.457,87.051 175.772,86.942C176.149,86.812 177.793,86.41 177.48,84.299C177.27,82.879 175.76,82.301 175.097,82.382C174.636,82.438 174.391,82.231 174.18,82.02L171.034,78.896C170.839,78.702 170.729,78.438 170.729,78.163L170.729,77.65C170.729,77.451 170.89,77.29 171.088,77.29L177.981,77.29C179.133,77.29 180.067,76.356 180.067,75.204L180.067,70.459C180.067,70.121 179.933,69.796 179.693,69.557L176.784,66.647C176.53,66.393 176.387,66.049 176.387,65.69L176.387,45.636C176.387,44.803 176.057,44.005 175.468,43.416L167.393,35.341C167.099,35.047 166.934,34.648 166.934,34.232L166.934,10.481C166.934,9.318 165.991,8.376 164.829,8.376L153.029,8.376C152.107,8.376 151.222,8.742 150.57,9.394L147.277,12.688C146.839,13.126 146.592,13.719 146.591,14.338L146.586,16.546C146.585,16.75 146.489,16.944 146.327,17.068C146.164,17.193 145.953,17.235 145.755,17.182C145.554,17.129 145.324,17.096 145.076,17.105C144.512,17.126 143.722,17.458 143.129,18.143C143.028,18.261 142.88,18.329 142.724,18.329C141.677,18.331 137.684,18.331 136.358,18.331C136.244,18.331 136.134,18.286 136.053,18.205C135.973,18.124 135.927,18.014 135.927,17.9L135.927,16.398C135.927,16.107 135.836,15.823 135.666,15.587L134.77,14.341C134.659,14.186 134.599,14 134.598,13.809C134.585,13.068 134.356,11.149 132.375,11.149C130.087,11.149 129.915,13.13 129.917,13.744C129.92,13.855 129.947,13.965 129.996,14.065C130.078,14.239 130.221,14.53 130.314,14.721C130.375,14.844 130.405,14.979 130.402,15.116L130.395,15.514C130.389,15.821 130.139,16.066 129.832,16.066L126.782,16.066C126.581,16.066 126.386,15.989 126.239,15.851L123.778,13.537C123.224,13.016 122.493,12.726 121.733,12.726L117.397,12.726C116.84,12.726 116.305,12.948 115.911,13.342L114.595,14.658C114.12,15.133 113.853,15.778 113.853,16.45L113.853,17.144C113.853,17.368 113.764,17.584 113.605,17.743L108.291,23.057C108.159,23.188 107.982,23.262 107.796,23.262L96.635,23.262C96.462,23.262 96.291,23.296 96.131,23.363L95.578,23.595C95.464,23.642 95.336,23.638 95.226,23.582C93.131,22.53 91.108,24.481 91.972,26.645C92.589,28.192 95.149,28.506 96.18,26.761C96.377,26.426 96.514,25.506 97.358,25.506L107.627,25.506C107.867,25.506 108.085,25.649 108.181,25.87C108.276,26.091 108.231,26.348 108.066,26.523L105.187,29.58C105.031,29.746 104.814,29.84 104.587,29.84L95.118,29.84C94.142,29.84 93.205,30.227 92.515,30.918L91.468,31.965C91.313,32.119 91.127,32.239 90.922,32.314L90.242,32.566C89.966,32.668 89.66,32.652 89.396,32.523L74.86,25.398C74.582,25.261 74.38,25.007 74.31,24.705C73.936,23.017 71.916,22.35 70.497,23.287C70.042,23.588 70.089,24.142 69.367,24.142L66.969,24.142C66.77,24.142 66.58,24.06 66.444,23.915L65.549,22.964C65.412,22.817 65.335,22.624 65.335,22.423L65.335,19.785C65.335,19.268 65.14,18.77 64.79,18.39L61.693,15.028C61.319,14.622 60.831,14.337 60.293,14.211L59.566,14.041C59.373,13.996 59.212,13.865 59.128,13.686L58.765,12.911C58.684,12.737 58.697,12.534 58.8,12.372C58.903,12.21 59.082,12.112 59.274,12.112L64.771,12.112C64.966,12.112 65.154,12.189 65.293,12.327L70.017,17.023C70.09,17.096 70.131,17.195 70.131,17.299L70.131,17.756C70.131,19.492 72.518,20.894 74.102,19.35C75.576,17.913 74.671,15.442 72.472,15.442C72.126,15.442 71.715,15.324 71.47,15.08L67.092,10.702C66.543,10.152 65.798,9.844 65.021,9.844L25.593,9.844C24.766,9.844 23.973,10.172 23.388,10.757L16.004,18.141C15.755,18.391 15.615,18.728 15.615,19.081L15.615,24.06C13.599,24.501 12.089,26.298 12.089,28.444C12.089,30.921 14.1,32.933 16.577,32.933C19.054,32.933 21.065,30.921 21.065,28.444C21.065,26.372 19.657,24.626 17.747,24.11L17.847,24.11L17.847,19.983C17.847,19.671 17.971,19.372 18.191,19.151L24.739,12.603C25.019,12.323 25.399,12.166 25.795,12.166L51.747,12.166C51.94,12.166 52.12,12.267 52.221,12.432C52.323,12.597 52.331,12.802 52.243,12.975L52.232,12.997C52.053,13.254 51.903,13.534 51.79,13.831C51.667,13.978 51.484,14.066 51.287,14.066L48.015,14.066C47.683,14.066 47.364,14.198 47.129,14.433L45.998,15.565C45.75,15.812 45.415,15.951 45.064,15.951L27.333,15.951C26.921,15.213 26.133,14.714 25.229,14.714C23.9,14.714 22.822,15.792 22.822,17.12C22.822,18.449 23.9,19.527 25.229,19.527C26.133,19.527 26.921,19.027 27.333,18.289L45.251,18.289C46.013,18.289 46.743,17.986 47.282,17.448L48.25,16.479C48.395,16.335 48.592,16.253 48.797,16.253L51.682,16.253C52.139,17.876 53.631,19.066 55.398,19.066C56.292,19.066 56.581,19.13 57.161,18.67C57.245,18.604 57.363,18.597 57.454,18.654L57.611,18.749C57.736,18.826 57.812,18.962 57.812,19.109L57.812,24.647C57.812,25.539 58.168,26.394 58.802,27.023L68.351,36.498C68.503,36.649 68.589,36.854 68.589,37.068L68.589,38.036C68.589,38.458 68.247,38.8 67.825,38.8L44.799,38.8C44.247,38.8 43.718,39.019 43.328,39.409L40.093,42.644C39.686,43.05 39.458,43.602 39.458,44.176L39.458,60.64C39.458,60.909 39.351,61.166 39.161,61.357L29.668,70.85C29.571,70.946 29.425,70.975 29.299,70.923C29.172,70.871 29.09,70.747 29.09,70.61L29.09,52.573C29.09,51.267 28.571,50.014 27.647,49.09L20.444,41.905ZM12.623,12.196L8.644,12.196L8.644,16.087L12.623,16.087L12.623,12.196Z" style="fill:rgb(17,255,0);"/>
    </g>
</svg>
