<?xml version="1.0" encoding="UTF-8" standalone="no"?>
<!DOCTYPE svg PUBLIC "-//W3C//DTD SVG 1.1//EN" "http://www.w3.org/Graphics/SVG/1.1/DTD/svg11.dtd">
<svg width="100%" height="100%" viewBox="0 0 199 123" version="1.1" xmlns="http://www.w3.org/2000/svg" xmlns:xlink="http://www.w3.org/1999/xlink" xml:space="preserve" xmlns:serif="http://www.serif.com/" style="fill-rule:evenodd;clip-rule:evenodd;stroke-linejoin:round;stroke-miterlimit:2;">
    <g id="Front" transform="matrix(0.0841305,0,0,0.0841305,-1.03846,0.756751)">
        <path id="VDD" d="M2131.19,801.828C2131.19,806.699 2133.16,811.362 2136.65,814.76C2136.71,814.811 2136.77,814.868 2136.83,814.925C2139.46,817.561 2140.94,821.135 2140.94,824.863L2140.94,884.807C2140.94,888.534 2139.46,892.109 2136.83,894.745C2134.19,897.38 2130.62,898.861 2126.89,898.861L2119.43,898.861C2111.67,898.861 2105.38,892.569 2105.38,884.807L2105.38,862.873C2105.38,858.676 2101.97,855.273 2097.78,855.273L2038.7,855.273L2038.7,843.43L2097.78,843.43C2101.97,843.43 2105.38,840.027 2105.38,835.829L2105.38,824.863C2105.38,821.984 2106.24,819.307 2107.73,817.079C2111.71,811.088 2113.83,804.056 2113.83,796.865C2114.13,794.874 2114.13,793.504 2114.13,793.504L2131.19,793.504L2131.19,801.828ZM1433.79,374.311L1433.79,425.352C1433.79,429.355 1435.55,433.154 1438.62,435.733L1446.32,444.46C1448.79,446.533 1451.9,447.67 1455.12,447.67L1487.99,447.67L1487.99,459.602L1440.28,459.602C1436.31,459.602 1432.49,458.022 1429.68,455.212L1383.76,411.179C1380.53,407.952 1378.72,403.575 1378.72,399.012L1378.72,338.806L1397.36,338.806L1397.36,382.882C1397.36,387.189 1400.82,390.699 1405.12,390.767L1412.68,390.861C1414.24,390.88 1415.75,390.274 1416.86,389.177C1417.97,388.08 1418.6,386.584 1418.6,385.023L1418.6,374.311L1433.79,374.311ZM1187.08,676.647L1123.88,676.647L1123.88,667.96L1163.57,667.96C1165.35,667.96 1167.04,667.192 1168.2,665.854L1177.82,654.837C1180.32,651.971 1181.69,648.297 1181.69,644.494L1181.69,482.159C1181.69,478.973 1182.96,475.917 1185.21,473.664C1187.46,471.411 1190.52,470.146 1193.71,470.146L1207.32,470.146C1210.51,470.146 1213.57,471.411 1215.82,473.664C1218.07,475.917 1219.34,478.973 1219.34,482.159L1219.34,566.517C1219.34,569.558 1220.7,572.439 1223.04,574.373L1223.7,574.916C1225.55,576.437 1226.62,578.704 1226.62,581.096L1226.62,619.074L1211.55,619.074L1211.55,600.205C1211.55,596.687 1208.7,593.835 1205.18,593.835L1199.36,593.835C1197.15,593.835 1195.03,594.713 1193.47,596.276C1191.91,597.839 1191.03,599.959 1191.03,602.17L1191.03,672.697C1191.03,674.879 1189.26,676.647 1187.08,676.647ZM100.314,1166.01L100.314,1028.67C100.314,1016.8 90.692,1007.18 78.823,1007.18L78.71,1007.18C72.425,1007.18 67.33,1002.09 67.33,995.802L67.33,974.463C67.33,968.179 72.425,963.084 78.71,963.084L262.81,963.084C264.879,963.084 266.863,962.262 268.326,960.799C269.789,959.336 270.611,957.352 270.611,955.282L270.611,903.569L340.829,903.569C344.741,903.569 348.493,902.015 351.26,899.249C354.026,896.483 355.58,892.731 355.58,888.818L355.58,862.391C355.58,858.479 357.134,854.727 359.901,851.961C362.667,849.194 366.419,847.64 370.331,847.64L419.345,847.64C423.257,847.64 427.009,849.194 429.775,851.961C432.542,854.727 434.096,858.479 434.096,862.391L434.096,976.398C434.096,983.416 430.185,989.849 423.955,993.079L309.7,1052.31C308.261,1053.06 306.77,1053.7 305.239,1054.23L173.009,1100.4C167.477,1102.33 163.772,1107.55 163.772,1113.41L163.772,1166.01L100.314,1166.01ZM1568.16,231.095L1650.75,231.095C1655.17,231.095 1659.4,232.849 1662.52,235.97L1690.67,264.123C1692.85,266.299 1694.07,269.249 1694.07,272.326L1694.07,286.307C1694.07,291.614 1689.77,295.916 1684.46,295.916L1635.08,295.916C1632.27,295.916 1629.57,294.798 1627.58,292.809L1585.74,248.56C1583.21,246.027 1579.77,244.604 1576.19,244.604L1568.16,244.604L1568.16,231.095ZM1995.28,423.078C1992.19,423.078 1989.69,425.582 1989.69,428.671L1989.69,463.725C1989.69,469.665 1984.87,474.48 1978.93,474.48L1961.15,474.48C1953.78,474.48 1947.81,468.509 1947.81,461.143L1947.81,405.788C1947.81,398.422 1953.78,392.451 1961.15,392.451L1981.51,392.451C1986.03,392.451 1989.69,396.111 1989.69,400.625L1989.69,404.924C1989.69,406.407 1990.28,407.83 1991.33,408.879C1992.37,409.928 1993.8,410.517 1995.28,410.517L2010.91,410.517L2010.91,423.078L1995.28,423.078ZM1213.04,391.404C1213.04,392.365 1213.42,393.287 1214.1,393.967C1214.78,394.646 1215.7,395.028 1216.66,395.028C1222.78,395.028 1227.74,399.986 1227.74,406.102L1227.74,419.314C1227.74,426.692 1221.76,432.673 1214.38,432.673L1162.22,432.673C1154.85,432.673 1148.87,426.692 1148.87,419.314L1148.87,404.384C1148.87,401.903 1149.85,399.523 1151.61,397.768C1153.36,396.014 1155.74,395.028 1158.22,395.028L1158.22,395.028C1159.39,395.028 1160.34,394.082 1160.34,392.914L1160.34,388.209C1160.34,386.035 1162.1,384.272 1164.27,384.272L1206.83,384.272C1208.48,384.272 1210.06,384.927 1211.22,386.091C1212.39,387.255 1213.04,388.834 1213.04,390.48L1213.04,391.404Z" style="fill:rgb(255,0,0);fill-opacity:0.37;"/>
    </g>
</svg>
