<?xml version="1.0" encoding="UTF-8" standalone="no"?>
<!DOCTYPE svg PUBLIC "-//W3C//DTD SVG 1.1//EN" "http://www.w3.org/Graphics/SVG/1.1/DTD/svg11.dtd">
<svg width="100%" height="100%" viewBox="0 0 199 123" version="1.1" xmlns="http://www.w3.org/2000/svg" xmlns:xlink="http://www.w3.org/1999/xlink" xml:space="preserve" xmlns:serif="http://www.serif.com/" style="fill-rule:evenodd;clip-rule:evenodd;stroke-linejoin:round;stroke-miterlimit:2;">
    <g id="Back" transform="matrix(0.0841305,0,0,0.0841305,0,0)">
        <path id="Ground" d="M2159.87,1121.15C2158.98,1121.06 2158.08,1121.02 2157.17,1121.02L2157.16,1121.02C2144.58,1121.02 2133.95,1129.55 2130.58,1141.21C2129.19,1145.04 2127.08,1148.21 2123.41,1148.33C2119.75,1148.21 2117.64,1145.07 2116.25,1141.26C2112.9,1129.57 2102.25,1121.02 2089.65,1121.02L2089.65,1121.02C2077.05,1121.02 2066.4,1129.57 2063.05,1141.26C2061.66,1145.07 2059.55,1148.21 2055.89,1148.33C2052.21,1148.21 2050.09,1145.02 2048.7,1141.17C2045.32,1129.53 2034.7,1121.02 2022.13,1121.02C2009.86,1121.02 1999.44,1129.13 1995.81,1140.36C1995.71,1140.66 1995.62,1140.96 1995.53,1141.26C1994.14,1145.11 1992.02,1148.31 1988.34,1148.42C1984.69,1148.31 1982.57,1145.16 1981.18,1141.35C1977.83,1129.66 1967.18,1121.11 1954.59,1121.11L1954.58,1121.11C1941.98,1121.11 1931.34,1129.66 1927.98,1141.35C1926.59,1145.16 1924.48,1148.31 1920.83,1148.42C1917.15,1148.31 1915.04,1145.13 1913.65,1141.3C1910.28,1129.64 1899.65,1121.11 1887.07,1121.11L1887.06,1121.11C1874.48,1121.11 1863.85,1129.64 1860.48,1141.3C1859.09,1145.13 1856.98,1148.31 1853.31,1148.42C1849.65,1148.31 1847.54,1145.16 1846.15,1141.35C1842.8,1129.66 1832.15,1121.11 1819.55,1121.11L1819.55,1121.11C1806.95,1121.11 1796.3,1129.66 1792.95,1141.35C1791.56,1145.16 1789.44,1148.31 1785.79,1148.42C1782.33,1148.31 1780.25,1145.48 1778.86,1141.94C1775.73,1129.9 1764.92,1121.02 1752.07,1121.02C1741.09,1121.02 1731.58,1127.53 1727.11,1136.94C1726.43,1138.36 1725.86,1139.85 1725.42,1141.39C1724.03,1145.14 1721.92,1148.22 1718.31,1148.33C1714.66,1148.21 1712.55,1145.07 1711.15,1141.26C1707.8,1129.57 1697.16,1121.02 1684.56,1121.02L1684.55,1121.02C1671.95,1121.02 1661.31,1129.57 1657.96,1141.26C1656.57,1145.07 1654.45,1148.21 1650.8,1148.33C1647.13,1148.21 1645.01,1145.04 1643.62,1141.21C1640.25,1129.55 1629.62,1121.02 1617.04,1121.02L1617.04,1121.02C1604.46,1121.02 1593.83,1129.55 1590.46,1141.21C1589.07,1145.04 1586.95,1148.21 1583.28,1148.33C1579.63,1148.21 1577.51,1145.07 1576.12,1141.26C1572.77,1129.57 1562.12,1121.02 1549.53,1121.02L1549.52,1121.02C1536.92,1121.02 1526.28,1129.57 1522.92,1141.26C1521.53,1145.07 1519.42,1148.21 1515.77,1148.33C1512.08,1148.21 1509.96,1145.02 1508.57,1141.17C1505.19,1129.53 1494.57,1121.02 1482,1121.02C1469.73,1121.02 1459.31,1129.13 1455.68,1140.36C1455.59,1140.66 1455.49,1140.96 1455.4,1141.26C1454.02,1145.11 1451.9,1148.31 1448.21,1148.42C1444.56,1148.31 1442.44,1145.16 1441.05,1141.35C1437.7,1129.66 1427.06,1121.11 1414.46,1121.11L1414.45,1121.11C1401.85,1121.11 1391.21,1129.66 1387.86,1141.35C1386.47,1145.16 1384.35,1148.31 1380.7,1148.42C1377.03,1148.31 1374.91,1145.13 1373.52,1141.3C1370.15,1129.64 1359.52,1121.11 1346.94,1121.11L1346.94,1121.11C1334.36,1121.11 1323.73,1129.64 1320.36,1141.3C1318.97,1145.13 1316.85,1148.31 1313.18,1148.42C1309.53,1148.31 1307.41,1145.16 1306.02,1141.35C1302.67,1129.66 1292.02,1121.11 1279.42,1121.11L1279.42,1121.11C1266.82,1121.11 1256.17,1129.66 1252.82,1141.35C1251.43,1145.16 1249.32,1148.31 1245.66,1148.42C1241.98,1148.31 1239.86,1145.11 1238.47,1141.26C1237.59,1138.21 1236.2,1135.38 1234.42,1132.86C1229.4,1125.73 1221.17,1121.08 1211.88,1121.08C1199.31,1121.08 1188.69,1129.59 1185.31,1141.23C1183.92,1145.08 1181.8,1148.27 1178.12,1148.39C1174.46,1148.27 1172.35,1145.13 1170.96,1141.32C1167.61,1129.63 1156.96,1121.08 1144.37,1121.08L1144.36,1121.08C1131.76,1121.08 1121.12,1129.63 1117.76,1141.32C1116.37,1145.13 1114.26,1148.27 1110.6,1148.39C1106.93,1148.27 1104.82,1145.1 1103.43,1141.27C1100.06,1129.6 1089.43,1121.08 1076.85,1121.08L1076.84,1121.08C1064.26,1121.08 1053.63,1129.6 1050.26,1141.27C1048.87,1145.1 1046.76,1148.27 1043.09,1148.39C1039.43,1148.27 1037.32,1145.13 1035.93,1141.32C1032.58,1129.63 1021.93,1121.08 1009.33,1121.08L1009.33,1121.08C996.726,1121.08 986.081,1129.63 982.73,1141.32C981.339,1145.13 979.225,1148.27 975.57,1148.39C971.887,1148.27 969.769,1145.08 968.378,1141.23C964.998,1129.59 954.375,1121.08 941.81,1121.08C929.536,1121.08 919.116,1129.19 915.488,1140.42C915.391,1140.72 915.298,1141.02 915.211,1141.32C913.82,1145.17 911.702,1148.37 908.019,1148.48C904.365,1148.37 902.251,1145.22 900.86,1141.41C897.508,1129.72 886.863,1121.17 874.265,1121.17L874.258,1121.17C861.659,1121.17 851.014,1129.72 847.663,1141.41C846.272,1145.22 844.158,1148.37 840.504,1148.48C836.833,1148.37 834.717,1145.19 833.326,1141.36C829.958,1129.7 819.326,1121.17 806.746,1121.17L806.743,1121.17C794.163,1121.17 783.531,1129.7 780.163,1141.36C778.772,1145.19 776.655,1148.37 772.985,1148.48C769.331,1148.37 767.217,1145.22 765.826,1141.41C762.474,1129.72 751.829,1121.17 739.231,1121.17L739.224,1121.17C726.625,1121.17 715.981,1129.72 712.629,1141.41C711.238,1145.22 709.124,1148.37 705.47,1148.48C702.007,1148.37 699.927,1145.54 698.535,1142C695.409,1129.96 684.596,1121.08 671.753,1121.08C660.764,1121.08 651.261,1127.58 646.789,1137C646.108,1138.42 645.542,1139.91 645.103,1141.45C643.711,1145.2 641.604,1148.28 637.992,1148.39C634.338,1148.27 632.224,1145.13 630.833,1141.32C627.482,1129.63 616.837,1121.08 604.238,1121.08L604.231,1121.08C591.633,1121.08 580.988,1129.63 577.637,1141.32C576.246,1145.13 574.132,1148.27 570.477,1148.39C566.807,1148.27 564.69,1145.1 563.3,1141.27C559.932,1129.6 549.3,1121.08 536.719,1121.08L536.717,1121.08C524.136,1121.08 513.504,1129.6 510.136,1141.27C508.746,1145.1 506.629,1148.27 502.959,1148.39C499.304,1148.27 497.19,1145.13 495.799,1141.32C492.448,1129.63 481.803,1121.08 469.205,1121.08L469.198,1121.08C456.599,1121.08 445.954,1129.63 442.603,1141.32C441.212,1145.13 439.098,1148.27 435.444,1148.39C431.76,1148.27 429.642,1145.08 428.251,1141.23C424.871,1129.59 414.249,1121.08 401.683,1121.08C389.409,1121.08 378.989,1129.19 375.361,1140.42C375.264,1140.72 375.172,1141.02 375.084,1141.32C373.694,1145.17 371.575,1148.37 367.892,1148.48C364.238,1148.37 362.124,1145.22 360.733,1141.41C357.381,1129.72 346.736,1121.17 334.138,1121.17L334.131,1121.17C321.532,1121.17 310.888,1129.72 307.536,1141.41C306.145,1145.22 304.031,1148.37 300.377,1148.48C296.706,1148.37 294.59,1145.19 293.199,1141.36C289.831,1129.7 279.199,1121.17 266.619,1121.17L266.616,1121.17C254.036,1121.17 243.404,1129.7 240.036,1141.36C238.645,1145.19 236.529,1148.37 232.858,1148.48C229.204,1148.37 227.09,1145.22 225.699,1141.41C222.348,1129.72 211.703,1121.17 199.104,1121.17L199.097,1121.17C186.499,1121.17 175.854,1129.72 172.502,1141.41C171.111,1145.22 168.997,1148.37 165.343,1148.48C161.66,1148.37 159.541,1145.17 158.151,1141.32C154.77,1129.68 144.148,1121.17 131.582,1121.17C116.299,1121.17 103.89,1133.76 103.89,1149.26L103.89,1160.61C103.89,1161.88 103.382,1163.11 102.477,1164.02C101.572,1164.92 100.344,1165.43 99.065,1165.43L96.731,1165.43C95.175,1165.43 93.683,1164.81 92.583,1163.71C91.483,1162.61 90.865,1161.12 90.865,1159.56L90.865,1041.19C90.865,1029.56 81.43,1020.12 69.792,1020.12L64.728,1020.12C62.836,1020.12 61.022,1019.37 59.685,1018.03C58.347,1016.7 57.596,1014.88 57.596,1012.99L57.596,727.817C57.596,725.43 58.544,723.141 60.232,721.453C61.92,719.765 64.209,718.817 66.597,718.817L124.083,718.817C130.967,718.817 137.569,716.082 142.437,711.214C147.304,706.347 150.039,699.745 150.039,692.861L150.039,616.923C150.039,610.039 147.304,603.437 142.437,598.57C137.569,593.702 130.967,590.967 124.083,590.967L63.485,590.967C60.193,590.967 57.524,588.299 57.524,585.006L57.524,105.656C57.524,97.367 60.817,89.417 66.678,83.555C72.54,77.694 80.489,74.401 88.779,74.401L992.441,74.401C1002.88,74.401 1011.42,82.703 1011.72,93.135C1013.85,140.516 1033.79,261.364 1179.88,261.364C1308.07,261.364 1334.6,138.145 1340.05,91.771C1341.03,81.941 1349.3,74.456 1359.18,74.456C1476.45,74.401 2139.42,74.401 2275.67,74.401C2282.16,74.401 2288.39,76.98 2292.97,81.57C2297.57,86.161 2300.14,92.386 2300.14,98.878L2300.14,497.75C2300.14,504.251 2294.87,509.522 2288.37,509.522L2232.69,509.522C2217.23,509.522 2204.69,522.058 2204.69,537.522L2204.69,609.282C2204.69,624.746 2217.23,637.282 2232.69,637.282L2288.71,637.282C2291.83,637.282 2294.83,638.522 2297.03,640.73C2299.24,642.938 2300.48,645.932 2300.48,649.054L2300.48,1007.92C2300.48,1009.49 2299.86,1011.01 2298.74,1012.12C2297.62,1013.24 2296.11,1013.86 2294.53,1013.86L2290.92,1013.86C2284.12,1013.86 2277.59,1016.57 2272.78,1021.38C2267.97,1026.19 2265.26,1032.72 2265.26,1039.52L2265.26,1108.38C2265.26,1115.43 2259.55,1121.15 2252.49,1121.15L2227.39,1121.15C2226.5,1121.06 2225.6,1121.02 2224.69,1121.02L2224.68,1121.02C2223.77,1121.02 2222.87,1121.06 2221.98,1121.15L2159.87,1121.15ZM243.003,498.099C247.205,490.516 249.599,481.794 249.599,472.518C249.599,443.328 225.9,419.629 196.71,419.629C167.52,419.629 143.821,443.328 143.821,472.518C143.821,501.708 167.52,525.407 196.71,525.407C206.616,525.407 215.89,522.677 223.82,517.929L307.8,602.776C313.965,608.941 317.429,617.302 317.429,626.021L317.429,931.009C317.429,950.046 332.859,965.479 351.895,965.483L501.005,965.512C508.607,965.514 515.898,968.535 521.273,973.91L614.713,1067.35C625.371,1078.01 639.826,1084 654.898,1084L1038.14,1084C1071.29,1084 1102.14,1067.05 1119.92,1039.08L1138.27,1010.21C1139.57,1008.16 1142.14,1007.35 1144.38,1008.26C1150.35,1010.6 1157.19,1011.43 1165.1,1010.41C1167.15,1010.15 1169.23,1010.58 1171.01,1011.62C1180.69,1017.33 1190.82,1021.31 1210.82,1021.31L1334.96,1021.31C1339.91,1021.31 1344.66,1023.27 1348.16,1026.77C1351.66,1030.27 1353.63,1035.02 1353.63,1039.97L1353.63,1058.53C1353.63,1065.33 1356.54,1071.8 1361.63,1076.3L1397.06,1107.69C1399.36,1109.74 1402.33,1110.86 1405.41,1110.86L1425.07,1110.86C1431.28,1110.86 1437.06,1107.68 1440.38,1102.43L1442.35,1099.32C1443.36,1097.72 1444.88,1096.51 1446.66,1095.88C1465.27,1089.19 1476.06,1074.18 1476.06,1057.8L1476.06,1044.14C1476.06,1042.29 1476.8,1040.51 1478.11,1039.2C1479.42,1037.89 1481.2,1037.15 1483.06,1037.15L1487.91,1037.15C1495.95,1037.15 1503.66,1033.96 1509.35,1028.27C1515.03,1022.59 1518.23,1014.88 1518.23,1006.84C1518.23,1002.99 1521.35,999.864 1525.2,999.864L1576.6,999.864C1581.31,999.864 1585.85,1001.65 1589.3,1004.86L1660.99,1071.57C1666.93,1077.1 1674.75,1080.17 1682.87,1080.17L1939.41,1080.17C1941.86,1080.17 1944.1,1081.51 1945.27,1083.66C1946.4,1085.68 1947.73,1088.21 1948.45,1090.21C1950.42,1095.63 1958.84,1107.78 1975.08,1107.78C1993.2,1107.78 1995.69,1095.77 2000.08,1090.79C2002.3,1088.27 2008.18,1088.18 2010.98,1090.5C2017.43,1095.83 2041.41,1101.88 2062.03,1090.04C2085.91,1076.34 2083.05,1053.32 2082.11,1042.89C2081.72,1038.6 2085.54,1034.72 2089.28,1033.42C2093.76,1031.87 2113.3,1027.1 2109.58,1002C2107.08,985.13 2089.14,978.251 2081.25,979.213C2075.77,979.881 2072.86,977.421 2070.35,974.911L2032.96,937.785C2030.64,935.479 2029.34,932.343 2029.34,929.071L2029.34,922.967C2029.34,920.608 2031.25,918.695 2033.61,918.695L2115.53,918.695C2129.23,918.695 2140.33,907.591 2140.33,893.894L2140.33,837.5C2140.33,833.476 2138.74,829.617 2135.89,826.772L2101.3,792.185C2098.29,789.17 2096.59,785.08 2096.59,780.816L2096.59,542.441C2096.59,532.543 2092.66,523.051 2085.66,516.052L1989.68,420.07C1986.19,416.576 1984.22,411.837 1984.22,406.896L1984.22,124.581C1984.22,110.761 1973.02,99.558 1959.2,99.558L1818.95,99.558C1807.99,99.558 1797.48,103.913 1789.72,111.666L1750.57,150.815C1745.37,156.017 1742.44,163.068 1742.42,170.426L1742.36,196.666C1742.35,199.101 1741.22,201.396 1739.28,202.877C1737.35,204.358 1734.84,204.857 1732.49,204.229C1730.1,203.602 1727.37,203.209 1724.41,203.319C1717.71,203.567 1708.33,207.513 1701.27,215.657C1700.07,217.061 1698.31,217.869 1696.46,217.869C1684.02,217.889 1636.55,217.889 1620.79,217.889C1619.43,217.889 1618.13,217.349 1617.17,216.388C1616.21,215.428 1615.67,214.125 1615.67,212.766L1615.67,194.907C1615.67,191.449 1614.58,188.079 1612.57,185.272L1601.92,170.458C1600.6,168.617 1599.88,166.409 1599.87,164.141C1599.72,155.325 1596.99,132.515 1573.45,132.515C1546.25,132.515 1544.21,156.065 1544.23,163.365C1544.27,164.689 1544.59,165.99 1545.17,167.18C1546.15,169.246 1547.85,172.708 1548.95,174.973C1549.67,176.436 1550.03,178.048 1550,179.677L1549.91,184.408C1549.84,188.05 1546.87,190.966 1543.23,190.966L1506.97,190.966C1504.57,190.966 1502.26,190.051 1500.52,188.407L1471.26,160.903C1464.68,154.715 1455.99,151.271 1446.96,151.271L1395.41,151.271C1388.79,151.271 1382.44,153.901 1377.76,158.584L1362.12,174.223C1356.46,179.875 1353.29,187.54 1353.29,195.532L1353.29,203.777C1353.29,206.446 1352.23,209.006 1350.34,210.894L1287.17,274.062C1285.62,275.62 1283.5,276.495 1281.3,276.495L1148.63,276.495C1146.58,276.495 1144.54,276.904 1142.65,277.699L1136.07,280.456C1134.72,281.02 1133.19,280.965 1131.89,280.306C1106.99,267.798 1082.94,290.99 1093.2,316.707C1100.54,335.101 1130.97,338.834 1143.22,318.084C1145.57,314.108 1147.2,303.169 1157.22,303.169L1279.28,303.169C1282.14,303.169 1284.73,304.871 1285.87,307.499C1287,310.127 1286.47,313.178 1284.5,315.262L1250.28,351.601C1248.43,353.567 1245.85,354.681 1243.15,354.681L1130.61,354.681C1119,354.681 1107.87,359.293 1099.66,367.5L1087.21,379.946C1085.38,381.782 1083.17,383.198 1080.73,384.098L1072.64,387.087C1069.36,388.299 1065.73,388.114 1062.59,386.575L889.812,301.884C886.505,300.263 884.104,297.239 883.274,293.652C878.824,273.59 854.812,265.659 837.952,276.799C832.536,280.377 833.093,286.96 824.513,286.96L796.012,286.96C793.648,286.96 791.389,285.983 789.77,284.261L779.139,272.953C777.501,271.212 776.59,268.912 776.59,266.521L776.59,235.171C776.59,229.025 774.278,223.105 770.114,218.585L733.3,178.624C728.853,173.796 723.057,170.416 716.665,168.922L708.015,166.9C705.726,166.365 703.809,164.809 702.813,162.68L698.504,153.464C697.538,151.397 697.695,148.981 698.919,147.057C700.144,145.133 702.266,143.967 704.547,143.967L769.882,143.967C772.207,143.967 774.438,144.887 776.088,146.527L832.238,202.34C833.11,203.208 833.601,204.387 833.601,205.617L833.601,211.055C833.601,231.69 861.975,248.358 880.798,230.005C898.321,212.919 887.559,183.548 861.418,183.548C857.314,183.548 852.421,182.148 849.519,179.246L797.475,127.201C790.947,120.674 782.094,117.006 772.862,117.006L304.202,117.006C294.374,117.006 284.949,120.91 278,127.86L190.225,215.635C187.264,218.596 185.601,222.611 185.601,226.799L185.601,285.982C161.647,291.224 143.692,312.581 143.692,338.099C143.692,367.542 167.597,391.446 197.04,391.446C226.484,391.446 250.388,367.542 250.388,338.099C250.388,313.464 233.654,292.707 210.944,286.584L212.129,286.584L212.129,237.523C212.129,233.814 213.603,230.256 216.226,227.634L294.052,149.807C297.38,146.479 301.895,144.609 306.602,144.609L615.078,144.609C617.379,144.609 619.515,145.805 620.719,147.766C621.923,149.728 622.021,152.173 620.979,154.225L620.849,154.482C618.712,157.537 616.937,160.865 615.588,164.402C614.128,166.15 611.949,167.196 609.612,167.196L570.724,167.196C566.775,167.196 562.987,168.765 560.195,171.558L546.745,185.007C543.802,187.95 539.81,189.604 535.648,189.604L324.883,189.604C319.994,180.831 310.623,174.891 299.876,174.891C284.088,174.891 271.27,187.709 271.27,203.497C271.27,219.286 284.088,232.104 299.876,232.104C310.624,232.104 319.996,226.163 324.884,217.389L537.868,217.389C546.922,217.389 555.604,213.793 562.006,207.391L573.517,195.88C575.24,194.157 577.577,193.189 580.014,193.189L614.303,193.189C619.735,212.474 637.469,226.628 658.481,226.628C669.103,226.628 672.542,227.38 679.427,221.921C680.436,221.133 681.828,221.054 682.92,221.722L684.779,222.861C686.265,223.771 687.171,225.388 687.171,227.131L687.171,292.959C687.171,303.564 691.405,313.731 698.934,321.2L812.443,433.824C814.25,435.617 815.266,438.057 815.266,440.602L815.266,452.103C815.266,457.118 811.201,461.184 806.186,461.184L532.495,461.184C525.936,461.184 519.645,463.79 515.007,468.428L476.554,506.881C471.724,511.711 469.01,518.262 469.01,525.092L469.01,720.78C469.01,723.977 467.74,727.043 465.48,729.303L352.644,842.139C351.492,843.291 349.76,843.635 348.255,843.012C346.75,842.389 345.768,840.92 345.768,839.291L345.768,624.898C345.768,609.372 339.6,594.481 328.621,583.502L243.003,498.099Z" style="fill:rgb(17,255,0);fill-opacity:0.34;"/>
    </g>
</svg>
