<?xml version="1.0" encoding="UTF-8" standalone="no"?>
<!DOCTYPE svg PUBLIC "-//W3C//DTD SVG 1.1//EN" "http://www.w3.org/Graphics/SVG/1.1/DTD/svg11.dtd">
<svg width="100%" height="100%" viewBox="0 0 199 123" version="1.1" xmlns="http://www.w3.org/2000/svg" xmlns:xlink="http://www.w3.org/1999/xlink" xml:space="preserve" xmlns:serif="http://www.serif.com/" style="fill-rule:evenodd;clip-rule:evenodd;stroke-linejoin:round;stroke-miterlimit:2;">
    <g id="GND" transform="matrix(0.0841305,0,0,0.0841305,0,0)">
        <g id="Front">
            <path id="GND1" serif:id="GND" d="M1662.7,488.874C1664.74,488.721 1666.75,489.452 1668.21,490.881C1675.35,497.841 1696.49,518.488 1706.33,528.098C1709.62,531.311 1711.48,535.716 1711.48,540.315C1711.48,587.933 1711.48,855.866 1711.48,855.866C1711.48,860.457 1709.55,864.836 1706.15,867.931L1683.76,888.388C1682.61,889.434 1681.05,889.902 1679.52,889.659C1678.09,889.426 1676.63,889.312 1675.14,889.312C1659.38,889.312 1646.58,902.112 1646.58,917.879C1646.58,919.415 1646.35,922.586 1646.07,925.839C1645.94,928.002 1644.62,929.917 1642.65,930.813C1640.68,931.709 1638.37,931.438 1636.66,930.11C1630.83,925.598 1624.75,920.632 1617.55,920.632C1601.72,920.632 1588.87,933.484 1588.87,949.314C1588.87,957.938 1592.69,965.678 1598.72,970.938C1601.1,973.011 1602.49,975.991 1602.56,979.146C1602.77,985.93 1603.01,997.628 1603.18,1005.5C1603.28,1010.5 1600.57,1015.14 1596.16,1017.5L1483.24,1077.87C1481.26,1078.92 1478.84,1078.65 1477.15,1077.19C1475.45,1075.73 1474.83,1073.37 1475.59,1071.27L1486.99,1039.49C1487.75,1037.38 1489.56,1035.83 1491.77,1035.41C1504.72,1032.84 1514.48,1021.39 1514.48,1007.68C1514.48,992.037 1501.78,979.335 1486.13,979.335C1472.11,979.335 1460.45,989.436 1458.18,1002.8C1457.77,1005.38 1455.54,1007.28 1452.93,1007.28C1452.16,1007.28 1451.32,1007.29 1450.43,1007.29C1444.57,1004.78 1438.11,1003.39 1431.33,1003.39C1404.47,1003.39 1382.67,1025.2 1382.67,1052.06C1382.67,1066.87 1389.3,1080.14 1399.75,1089.07C1401.68,1090.73 1402.84,1093.12 1402.95,1095.67C1403.07,1098.22 1402.12,1100.71 1400.34,1102.54C1398.96,1104.04 1397.57,1105.47 1396.45,1106.62C1394.87,1108.24 1392.69,1109.16 1390.42,1109.16L1337.05,1109.16C1335.43,1109.16 1333.82,1108.91 1332.27,1108.43L1100.91,1036.52C1098.05,1035.63 1095.43,1034.06 1093.28,1031.96L1071.07,1010.17C1069.19,1008.33 1068.42,1005.63 1069.05,1003.07C1069.6,1001 1069.87,998.822 1069.87,996.585C1069.87,989.314 1067.08,982.69 1062.51,977.724C1061.41,976.531 1060.9,974.9 1061.13,973.289C1061.13,973.186 1061.15,973.088 1061.16,972.99C1061.32,971.921 1061.81,970.928 1062.57,970.157C1067.25,965.39 1069.35,960.296 1069.35,952.802C1069.35,945.941 1066.87,939.654 1062.77,934.784C1061.27,933.01 1060.45,930.764 1060.45,928.442C1060.44,927.255 1060.44,925.829 1060.44,924.211C1060.44,922.764 1060.88,921.351 1061.7,920.161C1064.5,916.12 1066.12,911.216 1066.12,905.935C1066.12,901.221 1064.83,896.809 1062.57,893.035C1061.18,890.689 1060.45,888.013 1060.45,885.287C1060.41,881.73 1060.41,878.412 1060.41,875.535C1060.41,872.762 1061.51,870.103 1063.47,868.143C1065.43,866.182 1068.09,865.081 1070.86,865.081L1144.02,865.081C1147.08,865.081 1150.02,863.864 1152.18,861.699C1154.35,859.535 1155.56,856.598 1155.56,853.537L1155.56,734.098C1155.56,733.008 1155.13,731.964 1154.36,731.194C1153.59,730.423 1152.55,729.991 1151.46,729.991L1071.16,729.991C1070.29,729.991 1069.45,730.338 1068.83,730.957C1068.21,731.575 1067.87,732.414 1067.87,733.289C1067.87,734.164 1067.52,735.003 1066.9,735.621C1066.28,736.24 1065.44,736.587 1064.57,736.587L1002.65,736.587C996.661,736.587 990.913,738.968 986.676,743.206L899.467,830.414C898.099,831.782 896.242,832.547 894.308,832.54C892.373,832.533 890.522,831.754 889.164,830.376C884.481,825.653 876.833,819.424 867.749,818.29C865.932,818.096 864.553,816.563 864.553,814.736C864.514,795.725 864.514,702.362 864.514,688.424C864.514,687.263 864.448,686.104 864.316,684.951L853.792,593.058C853.592,591.309 854.224,589.568 855.499,588.355C856.774,587.142 858.545,586.598 860.281,586.886C861.869,587.211 863.51,587.352 865.184,587.352C872.5,587.352 879.19,584.647 884.306,580.183C886.55,578.248 889.874,578.253 892.111,580.195C897.36,584.798 904.236,587.59 911.759,587.59C913.21,587.59 914.638,587.486 916.034,587.285C918.484,586.928 920.961,587.723 922.747,589.437C931.902,598.184 958.558,623.783 958.558,623.783C962.213,627.292 967.084,629.252 972.151,629.252L1065.14,629.252C1065.87,629.252 1068.96,630.823 1069.36,630.823L1107.48,630.823L1107.48,641.518L1071,641.518C1070.17,641.518 1069.37,641.848 1068.79,642.437C1068.2,643.025 1067.87,643.823 1067.87,644.655L1067.87,661.269C1067.87,663.981 1065.67,666.18 1062.95,666.18L1056.95,666.18C1054.01,666.18 1051.22,664.871 1049.34,662.608C1044.17,656.324 1036.33,652.348 1027.57,652.348C1011.9,652.348 999.173,665.072 999.173,680.744C999.173,696.417 1011.9,709.141 1027.57,709.141C1029.77,709.141 1031.91,708.89 1033.96,708.416C1035.99,707.932 1038.13,708.173 1039.99,709.096C1047.1,712.555 1064.05,720.93 1064.05,720.93C1065.62,721.706 1067.34,722.109 1069.09,722.109L1151.46,722.109C1153.72,722.109 1155.56,720.27 1155.56,718.002L1155.56,704.299C1155.56,701.766 1156.57,699.337 1158.36,697.546C1160.15,695.755 1162.58,694.749 1165.11,694.749L1195.78,694.749C1196.71,694.749 1197.61,694.377 1198.28,693.714C1198.94,693.051 1199.31,692.152 1199.31,691.215L1199.31,670.201L1214.5,670.201L1214.5,715.461C1214.5,717.356 1213.42,719.085 1211.73,719.923L1195.9,727.236C1193.38,728.481 1191.39,730.599 1190.32,733.198L1171.5,778.588C1169.02,784.556 1169.2,791.294 1171.98,797.124L1221,899.833C1223.12,904.293 1221.71,909.637 1217.65,912.459L1202.08,923.291C1199.99,924.748 1197.11,924.243 1195.64,922.161L1172.04,888.804C1169.8,885.641 1166.17,883.76 1162.29,883.76L1092.64,883.76C1090.39,883.76 1088.23,884.655 1086.63,886.248C1085.04,887.84 1084.15,890 1084.15,892.252L1084.15,903.553C1084.15,906.295 1085.24,908.924 1087.17,910.863C1089.11,912.802 1091.74,913.891 1094.48,913.891L1111.51,913.891L1111.51,920.468L1094.48,920.468C1091.74,920.468 1089.11,921.557 1087.17,923.496C1085.24,925.434 1084.15,928.064 1084.15,930.805L1084.15,941.88C1084.15,943.885 1084.94,945.808 1086.36,947.226C1087.78,948.644 1089.7,949.441 1091.71,949.441L1106.62,949.441C1111.95,949.441 1116.27,953.761 1116.27,959.09L1116.27,986.718C1116.27,1006.68 1132.45,1022.87 1152.42,1022.87L1276.61,1022.87C1282.11,1022.87 1287.56,1021.89 1292.71,1019.99L1374.26,989.785C1377.27,988.672 1380.62,988.919 1383.44,990.461C1387.34,992.828 1393.59,995.589 1399.72,995.534C1416.4,995.386 1429.94,981.993 1429.94,965.315C1429.94,964.599 1429.91,963.888 1429.87,963.184C1429.71,960.911 1430.88,958.752 1432.86,957.628C1437.71,954.864 1445.97,950.182 1445.97,950.182C1450.53,947.596 1456.29,948.651 1459.63,952.687L1461.47,954.904C1462.82,956.531 1464.83,957.472 1466.94,957.472L1536.41,957.472C1540.76,957.472 1544.92,955.744 1548,952.67C1551.08,949.595 1552.8,945.425 1552.8,941.076L1552.8,871.457C1552.8,869.16 1551.89,865.881 1550.27,864.256C1548.64,862.632 1546.44,861.719 1544.14,861.719L1515.28,861.719L1515.28,849.876L1544.14,849.876C1546.44,849.876 1548.64,848.964 1550.27,847.339C1551.89,845.715 1552.8,843.865 1552.8,841.568L1552.8,837.962C1552.8,837.061 1553.03,836.468 1553.66,835.832C1554.3,835.195 1555.3,835.289 1556.2,835.289L1626.15,835.289C1641.61,835.289 1656.44,829.146 1667.38,818.213C1678.31,807.28 1684.45,792.451 1684.45,776.989L1684.45,737.69C1684.45,734.949 1685.76,732.374 1687.98,730.762C1695.32,725.442 1700.07,716.79 1700.07,707.038C1700.07,690.778 1686.87,677.577 1670.61,677.577C1666.97,677.577 1664.27,678.239 1661.22,679.45C1660.49,679.742 1659.68,679.793 1658.91,679.597C1658.81,679.577 1658.71,679.551 1658.6,679.524C1656.68,679.032 1655.34,677.299 1655.34,675.313L1655.34,657.537C1655.34,653.42 1656.92,649.746 1660.79,648.352C1671.73,644.413 1679.55,633.939 1679.55,621.652C1679.55,610.213 1672.77,600.345 1663.01,595.849C1659.94,594.422 1658.49,590.859 1659.7,587.691C1660.83,584.497 1661.48,581.065 1661.48,577.482C1661.48,570.677 1659.13,564.417 1655.19,559.471C1654.63,558.766 1654.2,557.956 1653.95,557.088C1653.7,556.28 1653.39,555.228 1653.12,554.288C1652.71,552.9 1653.06,551.401 1654.03,550.334C1658.4,545.533 1661.05,539.157 1661.05,532.165C1661.05,517.206 1648.9,505.061 1633.94,505.061C1632.72,505.061 1631.51,505.143 1630.33,505.301C1627.96,505.618 1625.6,504.716 1624.04,502.904C1620.57,498.917 1615.04,492.476 1615.04,492.476C1609.91,487.029 1602.77,483.94 1595.29,483.94L1558.36,483.94C1555.9,483.94 1553.54,482.961 1551.79,481.22C1550.05,479.478 1549.07,477.115 1549.07,474.652L1549.07,429.961L1452.19,429.961C1449.51,429.961 1446.94,428.898 1445.05,427.005C1443.15,425.111 1442.09,422.544 1442.09,419.866L1442.09,327.452C1442.09,323.923 1440.69,320.538 1438.19,318.043C1436.17,316.023 1433.14,316.375 1429.43,316.375C1425.73,316.375 1422.08,317.148 1422.08,320.851L1422.08,340.358L1406.35,340.358L1406.35,320.851C1406.35,317.148 1403.35,314.145 1399.65,314.145L1393.42,314.145C1392.43,314.145 1391.46,313.846 1390.65,313.286L1390.62,313.269C1389.26,312.334 1388.56,310.701 1388.82,309.07C1389.05,307.587 1389.17,306.066 1389.17,304.518C1389.17,287.976 1375.74,274.546 1359.2,274.546C1354.76,274.546 1350.55,275.512 1346.76,277.245C1345.19,277.988 1343.35,277.851 1341.91,276.884C1340.4,275.905 1338.45,274.593 1336.78,273.473C1334.5,271.941 1331.82,271.123 1329.08,271.123L1211.31,271.123C1207.29,271.123 1203.33,272.133 1199.8,274.059L1175.82,287.137C1174.39,287.921 1172.77,288.332 1171.14,288.332L1148.2,288.332C1144.69,288.332 1141.34,286.857 1138.97,284.268C1133.75,278.431 1126.14,274.797 1117.7,274.797C1109.2,274.797 1101.56,278.477 1096.28,284.328C1094.01,286.832 1090.79,288.261 1087.41,288.261C1080.27,288.332 1069.1,288.332 1069.1,288.332C1067.58,288.332 1066.15,287.61 1065.25,286.386C1064.35,285.163 1064.09,283.585 1064.54,282.136C1066.34,276.228 1067.3,269.948 1067.3,263.442C1067.3,228.221 1039.27,199.626 1004.74,199.626C994.39,199.626 984.627,202.193 976.027,206.737C973.604,208.025 970.745,208.207 968.179,207.236C965,206.049 961.181,204.605 961.181,204.605C959.802,204.083 958.339,203.816 956.864,203.816L895.493,203.816C891.377,203.815 887.633,201.434 885.889,197.706C881.532,188.343 872.035,181.853 861.035,181.853C845.898,181.853 833.608,194.142 833.608,209.279C833.608,224.417 844.898,238.706 860.035,238.706C860.317,238.706 860.597,238.702 860.877,238.693C864.086,238.608 867.193,239.824 869.493,242.063C871.793,244.303 873.09,247.377 873.09,250.587C873.099,257.844 873.099,264.972 873.099,264.972C873.099,267.158 872.032,269.207 870.241,270.461C868.45,271.715 866.16,272.016 864.106,271.268C861.029,270.122 858.699,269.507 855.227,269.507C839.318,269.507 826.402,281.423 826.402,297.332C826.402,305.712 829.986,313.262 835.703,318.53C837.54,320.203 838.595,322.566 838.616,325.05C838.637,327.534 837.622,329.914 835.814,331.617C830.019,337.135 826.402,344.922 826.402,353.547C826.402,370.248 839.961,383.806 856.661,383.806C860.401,383.806 863.984,383.126 867.292,381.883C868.809,381.298 870.517,381.497 871.858,382.417C873.199,383.337 874,384.859 874,386.485C874.099,389.676 874.099,392.58 874.099,392.58C874.099,393.863 873.589,395.093 872.683,396C871.776,396.906 870.546,397.416 869.263,397.416L829.228,397.416C795.866,397.416 768.82,424.461 768.82,457.824L768.82,625.712C768.82,628.298 769.022,630.881 769.422,633.436L777.658,685.989C778.11,688.877 776.653,691.728 774.047,693.053C771.441,694.378 768.279,693.876 766.212,691.809L713.652,639.249C708.941,634.539 706.295,628.149 706.295,621.487L706.295,570.925C706.295,526.603 670.365,490.672 626.043,490.672L541.137,490.672C538.816,490.672 536.545,490.001 534.598,488.74L520.374,479.526C518.426,478.265 516.155,477.594 513.835,477.594L462.298,477.594C459.496,477.594 456.781,478.572 454.623,480.361L447.534,486.236C445.376,488.025 442.661,489.004 439.858,489.004L270.522,489.004C269.164,489.004 267.861,488.464 266.901,487.503C265.94,486.543 265.4,485.239 265.4,483.881C265.4,482.522 264.861,481.219 263.9,480.258C262.94,479.298 261.637,478.758 260.278,478.758L181.504,478.758C179.144,478.758 176.881,479.695 175.213,481.364C173.544,483.032 172.607,485.295 172.607,487.655L172.607,648.756C172.607,652.53 175.666,655.589 179.44,655.589L521.36,655.589L521.36,662.328L179.44,662.328C177.628,662.328 175.89,663.048 174.608,664.329C173.327,665.611 172.607,667.349 172.607,669.161L172.607,851.068C172.607,854.743 174.067,858.267 176.665,860.865C179.263,863.464 182.788,864.923 186.462,864.923L257.965,864.923C260.878,864.923 263.241,862.56 263.241,859.646C263.241,856.732 265.603,854.369 268.517,854.369L321.966,854.369C324.343,854.369 326.623,855.313 328.304,856.994C329.985,858.675 330.929,860.954 330.929,863.331L330.929,894.05C330.929,899 326.916,903.012 321.966,903.012L270.696,903.012C266.198,903.012 262.552,899.365 262.552,894.867C262.552,892.707 261.694,890.634 260.167,889.107C258.64,887.579 256.568,886.721 254.408,886.721L145.232,886.721C139.442,886.721 134.747,891.416 134.747,897.206L134.747,950.579C134.747,956.37 130.053,961.064 124.263,961.064L64.796,961.064C62.098,961.064 59.511,959.992 57.604,958.085C55.696,956.178 54.625,953.591 54.625,950.893L54.625,726.457C54.625,720.84 59.178,716.286 64.796,716.286L122.592,716.286C137.139,716.286 148.932,704.494 148.932,689.946L148.932,612.598C148.932,598.051 137.139,586.258 122.592,586.258L67.867,586.258C65.224,586.258 62.689,585.208 60.82,583.339C58.951,581.47 57.901,578.936 57.901,576.293L57.901,99.9C57.901,86.166 69.035,75.033 82.769,75.033L1000.51,75.033C1003.51,75.033 1006.37,76.258 1008.44,78.422C1010.51,80.587 1011.6,83.504 1011.47,86.496C1011.34,89.088 1011.28,91.696 1011.28,94.319C1011.28,185.68 1084.83,259.854 1175.42,259.854C1266,259.854 1339.55,185.68 1339.55,94.319C1339.55,91.781 1339.49,89.257 1339.38,86.747C1339.25,83.69 1340.37,80.711 1342.49,78.501C1344.6,76.29 1347.53,75.041 1350.59,75.041C1460.05,75.033 2272.48,75.033 2272.48,75.033C2279.08,75.033 2285.4,77.653 2290.06,82.316C2294.73,86.98 2297.35,93.305 2297.35,99.9L2297.35,501.481C2297.35,503.973 2296.36,506.363 2294.6,508.125C2292.83,509.887 2290.44,510.877 2287.95,510.877L2222.45,510.877C2217.4,510.877 2212.56,512.882 2208.99,516.451C2205.42,520.02 2203.42,524.861 2203.42,529.909L2203.42,619.119C2203.42,624.166 2205.42,629.007 2208.99,632.576C2212.56,636.146 2217.4,638.151 2222.45,638.151L2291.3,638.151C2292.69,638.151 2294.02,638.703 2295,639.685C2295.99,640.668 2296.54,642 2296.54,643.389L2296.54,1004.69C2296.54,1007.66 2295.36,1010.51 2293.26,1012.61C2291.15,1014.71 2288.3,1015.89 2285.33,1015.89L2280.87,1015.89C2270.71,1015.89 2262.48,1024.13 2262.48,1034.29L2262.48,1135.55L2199.29,1135.55L2199.29,1127.2C2199.29,1122.41 2195.4,1118.52 2190.61,1118.52L2184.27,1118.52C2182.39,1118.52 2180.58,1117.86 2179.14,1116.66L2101.53,1051.92C2099.02,1049.82 2097.56,1046.71 2097.56,1043.44L2097.56,1037.1C2097.56,1033.44 2098.79,1029.89 2101.06,1027.02C2105.2,1021.9 2107.65,1015.38 2107.65,1008.29C2107.65,991.636 2094.13,978.113 2077.47,978.113C2077.01,978.113 2076.44,978.089 2075.82,978.05C2071.95,977.922 2068.89,974.752 2068.89,970.886C2068.88,961.554 2068.88,944.139 2068.88,932.307C2068.88,929.041 2070.18,925.908 2072.49,923.598C2074.8,921.289 2077.93,919.991 2081.2,919.991L2112.46,919.991C2119.2,919.991 2125.67,917.311 2130.44,912.541C2135.21,907.771 2137.89,901.301 2137.89,894.555L2137.89,745.111C2137.89,742.651 2136.92,740.292 2135.18,738.552C2133.44,736.813 2131.08,735.835 2128.62,735.835L2127.01,735.835C2125.11,735.835 2123.28,736.591 2121.94,737.935C2120.59,739.28 2119.84,741.103 2119.84,743.004L2119.84,760.14L2101.84,760.14L2101.84,743.004C2101.84,741.103 2101.09,739.28 2099.74,737.935C2098.4,736.591 2096.58,735.835 2094.67,735.835L2092.69,735.835C2090.23,735.835 2087.87,736.813 2086.13,738.552C2084.39,740.292 2083.41,742.651 2083.41,745.111L2083.41,818.439C2083.41,822.562 2080.07,825.905 2075.95,825.905L2036.43,825.905L2036.43,813.742L2062.62,813.742C2064.6,813.742 2066.5,812.955 2067.9,811.555C2069.3,810.155 2070.09,808.256 2070.09,806.276L2070.09,472.255C2070.09,468.718 2067.22,465.85 2063.68,465.85L2043.3,465.85L2043.3,455.974L2063.68,455.974C2065.38,455.974 2067.01,455.299 2068.21,454.098C2069.41,452.897 2070.09,451.267 2070.09,449.569L2070.09,261.974C2070.09,255.824 2065.1,250.838 2058.95,250.838L2024.98,250.838L2024.98,239.802L2058.95,239.802C2061.91,239.802 2064.74,238.629 2066.83,236.54C2068.92,234.452 2070.09,231.619 2070.09,228.666L2070.09,155.707C2070.09,154.075 2069.44,152.509 2068.29,151.354C2067.13,150.2 2065.57,149.551 2063.93,149.551L1979.74,149.551C1978.12,149.551 1976.58,150.193 1975.43,151.336C1974.29,152.479 1973.65,154.029 1973.65,155.646C1973.65,157.262 1973.01,158.813 1971.86,159.956C1970.72,161.098 1969.17,161.741 1967.55,161.741L1904.81,161.741L1903.5,162.452C1902.23,163.141 1900.66,162.922 1899.62,161.911C1894.54,156.987 1887.61,153.961 1879.98,153.961C1864.37,153.961 1851.69,166.637 1851.69,182.252C1851.69,185.013 1852.09,187.681 1852.83,190.205C1853.16,191.314 1853.21,192.489 1852.97,193.622C1852.94,193.849 1852.89,194.085 1852.83,194.329C1852.2,197.278 1849.6,199.385 1846.58,199.385L1761.35,199.385C1759.04,199.385 1756.66,199.206 1754.78,199.806L1744.93,205.639C1742.86,206.864 1740.29,206.885 1738.2,205.697C1734.06,203.309 1729.26,201.951 1724.15,201.951C1708.5,201.951 1695.8,214.651 1695.8,230.294C1695.8,245.937 1708.5,258.637 1724.15,258.637C1739.79,258.637 1752.49,245.936 1752.49,230.293C1752.49,229.433 1752.83,228.607 1753.44,227.998C1754.05,227.39 1754.87,227.048 1755.73,227.048L1801.14,228.425C1803.38,228.425 1805.47,229.501 1806.77,231.315C1808.08,233.129 1808.42,235.459 1807.71,237.574C1806.78,240.279 1806.06,243.117 1806.06,245.375C1806.06,252.948 1809.1,259.816 1814.03,264.821C1814.96,265.746 1815.39,267.049 1815.22,268.344C1815.21,268.492 1815.19,268.634 1815.17,268.77C1815.08,269.424 1814.79,270.033 1814.33,270.507C1809.59,275.475 1806.68,282.202 1806.68,289.602C1806.68,291.565 1806.97,295.89 1807.3,300.314C1807.42,302.6 1806.41,304.798 1804.59,306.193C1802.78,307.587 1800.39,308 1798.22,307.296C1795.49,306.388 1792.58,305.902 1789.55,305.902C1774.25,305.902 1761.83,318.323 1761.83,333.622C1761.83,348.921 1774.25,361.342 1789.55,361.342C1791.43,361.342 1793.26,361.156 1795.03,360.8C1797.44,360.304 1799.94,361.063 1801.66,362.816C1803.74,364.899 1806.58,367.782 1809.14,370.398C1812.47,373.787 1813.15,378.975 1810.81,383.107C1808.54,387.131 1807.24,391.777 1807.24,396.723C1807.24,398.343 1807.38,399.931 1807.65,401.475C1807.84,402.545 1807.78,403.644 1807.48,404.687C1807.41,404.958 1807.34,405.23 1807.26,405.482C1807.05,406.221 1806.65,406.894 1806.11,407.438L1775.77,437.772C1772.89,440.659 1768.21,440.659 1765.32,437.772L1741.38,413.864C1739.22,411.705 1738.08,408.73 1738.23,405.678C1738.28,405.115 1738.3,404.546 1738.3,403.974C1738.3,387.151 1724.64,373.493 1707.82,373.493C1701.42,373.493 1695.48,376.795 1690.57,380.66C1688.69,382.138 1686,381.996 1684.28,380.327C1674.49,370.829 1644.08,341.304 1628.3,325.984C1626.7,324.425 1626.2,322.049 1627.04,319.975C1627.88,317.902 1629.89,316.545 1632.13,316.545L1675.07,316.545C1684.54,316.545 1692.21,308.872 1692.21,299.406L1692.21,276.958C1692.21,270.234 1689.45,263.803 1684.59,259.165L1658.88,234.68C1653.7,229.744 1646.82,226.991 1639.66,226.991L1599.24,226.991C1597.73,226.991 1596.33,226.209 1595.54,224.925C1594.76,223.641 1594.69,222.04 1595.37,220.696C1597.72,216.065 1599.05,210.598 1599.05,205.435C1599.05,199.019 1596.99,193.082 1593.49,188.25C1591.36,185.266 1591.36,181.261 1593.48,178.27C1596.99,173.382 1599.05,167.389 1599.05,160.916C1599.05,144.475 1585.71,131.127 1569.27,131.127C1559.57,131.127 1550.95,135.77 1545.51,142.954C1543.6,145.484 1540.61,146.972 1537.44,146.972C1521.33,147.041 1474.54,147.041 1464.88,147.041C1463.73,147.041 1462.61,147.381 1461.65,148.018L1455.17,152.184C1453.53,153.239 1451.48,153.426 1449.67,152.686C1446.34,151.329 1442.69,150.603 1438.88,150.603C1428.51,150.603 1419.39,155.96 1414.13,164.054C1412.74,166.213 1410.64,167.816 1408.19,168.58C1389.18,174.542 1375.36,192.288 1375.36,213.239C1375.36,239.007 1396.28,259.928 1422.04,259.928L1445.43,259.928C1450.77,259.928 1455.11,264.261 1455.11,269.607L1455.13,411.195C1455.13,415.331 1458.48,418.684 1462.62,418.684L1543.29,418.684C1544.99,418.684 1546.61,418.011 1547.81,416.812C1549.01,415.614 1549.68,413.989 1549.68,412.295L1549.68,411.449C1549.68,409.754 1550.36,408.129 1551.55,406.931C1552.75,405.733 1554.38,405.06 1556.07,405.06L1556.93,405.06C1558.63,405.06 1560.25,405.733 1561.45,406.931C1561.45,406.931 1577.84,423.13 1586.91,432.092C1590.19,435.33 1591.89,439.831 1591.59,444.426C1591.49,445.134 1591.47,445.852 1591.47,446.576C1591.47,462.723 1604.58,475.832 1620.72,475.832C1621.88,475.832 1623.03,475.764 1624.15,475.633C1626.59,475.354 1629.02,476.168 1630.8,477.855C1638.34,484.787 1648.4,488.997 1659.44,488.997C1660.54,488.997 1661.63,488.955 1662.7,488.874ZM708.331,424.344L624.053,424.344C622.465,424.344 620.942,424.975 619.819,426.098C618.696,427.221 618.065,428.744 618.065,430.332L618.065,439.311C618.065,444.521 622.289,448.745 627.5,448.745L703.704,448.745C709.516,448.745 714.228,444.034 714.228,438.222L714.228,430.241C714.228,428.677 713.606,427.177 712.501,426.071C711.395,424.965 709.895,424.344 708.331,424.344ZM222.707,278.666C222.707,280.088 221.554,281.241 220.132,281.241L130.383,281.241L130.383,404.96L339.754,404.96L339.754,281.241L255.916,281.241C254.518,281.241 253.375,280.124 253.342,278.726C253.203,274.17 252.997,269.564 256.08,266.3L286.737,233.84C289.196,231.236 292.734,229.939 296.293,230.335C297.362,230.51 298.454,230.573 299.561,230.573C315.269,230.573 328.022,217.82 328.022,202.112C328.022,186.404 315.269,173.652 299.561,173.652C283.853,173.652 270.101,185.404 270.101,201.112C270.101,202.805 270.249,204.464 270.533,206.076C271.189,209.816 269.872,213.631 267.048,216.169C256.063,226.162 231.689,249.972 231.689,249.972C225.972,255.111 222.707,262.438 222.707,270.126L222.707,278.666ZM470.767,194.679C460.352,194.679 450.362,198.817 442.997,206.182C435.632,213.547 431.494,223.536 431.494,233.951L431.494,451.118C431.494,453.644 432.497,456.067 434.284,457.853C436.07,459.639 438.492,460.642 441.018,460.642L568.149,460.642C570.675,460.642 573.097,459.639 574.883,457.853C576.669,456.067 577.673,453.644 577.673,451.118L577.673,426.787C577.673,422.37 579.427,418.135 582.55,415.012L607.276,390.286C608.337,389.225 609.785,388.644 611.285,388.676C612.784,388.709 614.206,389.352 615.219,390.458L619.15,394.747C620.382,396.09 622.121,396.855 623.943,396.855L710.784,396.855C712.605,396.855 714.351,396.132 715.639,394.844C716.926,393.557 717.65,391.81 717.65,389.989L717.65,376.926C717.65,374.371 718.665,371.92 720.472,370.113L771.014,319.57C774.568,316.017 776.564,311.198 776.564,306.172L776.564,242.703C776.564,214.08 753.36,191.185 724.737,191.185C724.737,191.185 716.217,191.185 710.182,191.175C708.765,191.175 707.416,190.566 706.478,189.505C705.54,188.443 705.103,187.029 705.277,185.623C705.568,183.744 705.796,181.871 705.796,180.493C705.796,153.972 684.264,132.44 657.743,132.44C650.764,132.44 644.13,133.932 638.154,136.637C636.603,137.351 634.878,137.603 633.187,137.361L615.365,134.815C612.468,134.402 609.516,134.966 606.976,136.42L555.06,166.138C550.051,169.005 543.768,168.329 539.484,164.463L532.096,157.796C529.784,155.709 526.779,154.553 523.664,154.553L441.904,154.553C436.155,154.553 431.494,159.217 431.494,164.966C431.494,168.755 432.999,172.393 435.679,175.072C438.358,177.751 441.992,179.257 445.782,179.257L470.769,179.257L470.767,194.679ZM2144.67,409.735L2117.33,344.947L2103.39,350.831C2101.5,351.628 2100.61,353.805 2101.41,355.693L2125.86,413.643C2126.66,415.532 2128.84,416.416 2130.72,415.62L2144.67,409.735ZM2174.93,244.962L2122.26,270.168C2121.37,270.593 2120.69,271.353 2120.36,272.282C2120.03,273.21 2120.09,274.23 2120.51,275.118L2125.67,285.901L2185.04,257.491L2179.88,246.707C2179.45,245.819 2178.7,245.137 2177.77,244.809C2176.84,244.482 2175.82,244.537 2174.93,244.962ZM2249.3,820.993L2203.8,820.993L2203.8,866.49L2249.3,866.49L2249.3,820.993ZM2260.5,383.084L2231.24,397.083L2236.4,407.867C2236.83,408.755 2237.59,409.437 2238.52,409.765C2239.45,410.092 2240.47,410.037 2241.35,409.612L2263.91,398.817C2264.8,398.393 2265.48,397.632 2265.81,396.704C2266.14,395.776 2266.08,394.756 2265.66,393.868L2260.5,383.084ZM150.168,142.141L99.227,142.141L99.227,190.867L150.168,190.867L150.168,142.141Z" style="fill:rgb(17,255,0);fill-opacity:0.34;"/>
        </g>
    </g>
</svg>
