G04*
G04 #@! TF.GenerationSoftware,Altium Limited,Altium Designer,21.9.2 (33)*
G04*
G04 Layer_Color=128*
%FSLAX44Y44*%
%MOMM*%
G71*
G04*
G04 #@! TF.SameCoordinates,6EA3AFA9-0330-4775-ACE0-DBF6802BEFD6*
G04*
G04*
G04 #@! TF.FilePolarity,Positive*
G04*
G01*
G75*
%ADD10C,0.2540*%
%ADD26C,0.0508*%
D10*
X0D02*
X75000D01*
X0Y110000D02*
X75000D01*
Y0D02*
Y110000D01*
X0Y0D02*
Y110000D01*
D26*
X-1750Y32000D02*
X1750D01*
X0Y30250D02*
Y33750D01*
X73250Y96000D02*
X76750D01*
X75000Y94250D02*
Y97750D01*
X-1750Y40000D02*
X1750D01*
X0Y38250D02*
Y41750D01*
X-1750Y96000D02*
X1750D01*
X0Y94250D02*
Y97750D01*
X73250Y32000D02*
X76750D01*
X75000Y30250D02*
Y33750D01*
X-1750Y88000D02*
X1750D01*
X0Y86250D02*
Y89750D01*
X73250Y40000D02*
X76750D01*
X75000Y38250D02*
Y41750D01*
X-1750Y48000D02*
X1750D01*
X0Y46250D02*
Y49750D01*
X2573Y106160D02*
X4573D01*
X3573Y105160D02*
Y107160D01*
X56000Y22000D02*
X58000D01*
X57000Y21000D02*
Y23000D01*
X23071Y47000D02*
X25071D01*
X24071Y46000D02*
Y48000D01*
X41000Y39071D02*
X43000D01*
X42000Y38071D02*
Y40071D01*
X65657Y47343D02*
X67657D01*
X66657Y46343D02*
Y48343D01*
X54000Y40000D02*
X56000D01*
X55000Y39000D02*
Y41000D01*
X50000Y34000D02*
X52000D01*
X51000Y33000D02*
Y35000D01*
X47000Y24000D02*
X49000D01*
X48000Y23000D02*
Y25000D01*
X7357Y54572D02*
X9357D01*
X8357Y53572D02*
Y55572D01*
X29000Y38250D02*
X31000D01*
X30000Y37250D02*
Y39250D01*
X22200Y29000D02*
X24200D01*
X23200Y28000D02*
Y30000D01*
X47010Y13510D02*
X49010D01*
X48010Y12510D02*
Y14510D01*
X44000Y71000D02*
X46000D01*
X45000Y70000D02*
Y72000D01*
X56000Y80000D02*
X58000D01*
X57000Y79000D02*
Y81000D01*
X47294Y86000D02*
X49294D01*
X48294Y85000D02*
Y87000D01*
X65851Y88213D02*
X67851D01*
X66851Y87213D02*
Y89213D01*
X70061Y83938D02*
X72061D01*
X71061Y82938D02*
Y84938D01*
X3230Y81858D02*
X5230D01*
X4230Y80858D02*
Y82858D01*
X13965Y55036D02*
X15964D01*
X14964Y54036D02*
Y56035D01*
X14142Y62213D02*
X16142D01*
X15142Y61213D02*
Y63213D01*
X18000Y80000D02*
X20000D01*
X19000Y79000D02*
Y81000D01*
X18000Y86000D02*
X20000D01*
X19000Y85000D02*
Y87000D01*
X38000Y55000D02*
X40000D01*
X39000Y54000D02*
Y56000D01*
X34510Y88261D02*
X36510D01*
X35510Y87261D02*
Y89261D01*
M02*
