G04*
G04 #@! TF.GenerationSoftware,Altium Limited,Altium Designer,21.9.2 (33)*
G04*
G04 Layer_Physical_Order=1*
G04 Layer_Color=255*
%FSLAX44Y44*%
%MOMM*%
G71*
G04*
G04 #@! TF.SameCoordinates,6EA3AFA9-0330-4775-ACE0-DBF6802BEFD6*
G04*
G04*
G04 #@! TF.FilePolarity,Positive*
G04*
G01*
G75*
%ADD10C,0.2540*%
%ADD11R,0.5000X0.6000*%
%ADD12C,1.5000*%
%ADD13R,0.3000X0.3000*%
%ADD14R,0.7200X0.3000*%
%ADD15R,0.3000X0.7200*%
%ADD16R,2.2000X2.2000*%
%ADD17R,0.3000X0.3000*%
%ADD18R,1.2000X0.5000*%
%ADD19C,0.5000*%
%ADD20C,0.2000*%
%ADD21C,0.8000*%
%ADD22C,0.5000*%
%ADD23C,0.4000*%
D10*
X0D02*
X75000D01*
X0Y110000D02*
X75000D01*
Y0D02*
Y110000D01*
X0Y0D02*
Y110000D01*
D11*
X41500Y7000D02*
D03*
X30500D02*
D03*
X41500Y17000D02*
D03*
X30500D02*
D03*
D12*
X63000Y13000D02*
D03*
X27500Y105000D02*
D03*
X49000D02*
D03*
D13*
X33084Y27234D02*
D03*
X39084D02*
D03*
D14*
X57150Y67250D02*
D03*
Y73750D02*
D03*
Y54250D02*
D03*
Y60750D02*
D03*
X20850Y67250D02*
D03*
Y73750D02*
D03*
Y54250D02*
D03*
Y60750D02*
D03*
D15*
X42250Y82150D02*
D03*
X35750D02*
D03*
X48750D02*
D03*
X42250Y45850D02*
D03*
X35750D02*
D03*
X48750D02*
D03*
X29250Y82150D02*
D03*
Y45850D02*
D03*
D16*
X38999Y64001D02*
D03*
D17*
X11000Y74000D02*
D03*
Y68000D02*
D03*
D18*
X6000Y31982D02*
D03*
X69000Y96018D02*
D03*
X6000Y39982D02*
D03*
X6000Y95982D02*
D03*
X69000Y32018D02*
D03*
X6000Y87982D02*
D03*
X69000Y40018D02*
D03*
X6000Y47982D02*
D03*
D19*
X0Y32000D02*
D03*
X75000Y96000D02*
D03*
X0Y40000D02*
D03*
Y96000D02*
D03*
X75000Y32000D02*
D03*
X0Y88000D02*
D03*
X75000Y40000D02*
D03*
X0Y48000D02*
D03*
D20*
X5500Y97482D02*
X6518D01*
X8000Y96000D01*
X3573Y100205D02*
X5500Y98278D01*
X3573Y100205D02*
Y106160D01*
X5500Y97482D02*
Y98278D01*
X35630Y82270D02*
X35750Y82150D01*
X23623Y91377D02*
X24000Y91000D01*
Y77929D02*
Y91000D01*
X35510Y88261D02*
X35630Y88141D01*
Y82270D02*
Y88141D01*
X29250Y82150D02*
Y90250D01*
X4230Y81858D02*
Y82399D01*
X5500Y83669D01*
Y86483D01*
X7000Y87983D01*
Y88000D01*
X29250Y90250D02*
X37000Y98000D01*
X23623Y91377D02*
Y92691D01*
X9261Y78500D02*
X16378Y85617D01*
X18617D01*
X17459Y79000D02*
X18459Y80000D01*
X19000D01*
X18617Y85617D02*
X19000Y86000D01*
X22657Y93657D02*
X23623Y92691D01*
X21000Y17000D02*
X30500D01*
X0Y48000D02*
X1241Y49241D01*
X2260D01*
X2500Y49481D01*
X2260Y49241D02*
X3759D01*
X6000Y47000D01*
X16000Y22000D02*
Y32000D01*
Y22000D02*
X21000Y17000D01*
X20447Y54653D02*
X20850Y54250D01*
X19000Y40000D02*
X23000Y36000D01*
Y29200D02*
Y36000D01*
Y29200D02*
X23200Y29000D01*
X24071Y47000D02*
X28750D01*
Y46350D02*
Y47000D01*
Y46350D02*
X29250Y45850D01*
X30000Y27819D02*
Y38250D01*
Y27819D02*
X30584Y27234D01*
X39084D02*
X44224D01*
X38765Y33235D02*
X44694D01*
X44224Y27234D02*
X47459Y24000D01*
X44694Y33235D02*
X48929Y29000D01*
X47459Y24000D02*
X48000D01*
X48929Y29000D02*
X53142D01*
X56142Y32000D01*
X60000D01*
X35750Y36250D02*
Y45850D01*
Y36250D02*
X38765Y33235D01*
X42000Y39071D02*
X42125Y39196D01*
Y45725D01*
X42250Y45850D01*
X48750D02*
Y47950D01*
Y36791D02*
Y45850D01*
Y47950D02*
X49250Y48450D01*
X48750Y36791D02*
X51000Y34541D01*
X49250Y48450D02*
X51540D01*
X51000Y34000D02*
Y34541D01*
X51540Y48450D02*
X52840Y49750D01*
X48750Y54250D02*
X57150D01*
X52840Y49750D02*
X61993D01*
X55000Y40000D02*
X61000D01*
X61993Y49750D02*
X63750Y51507D01*
X66657Y47343D02*
Y47884D01*
X68000Y49227D01*
Y53000D01*
X2500Y49481D02*
Y72743D01*
X8257Y78500D01*
X6500Y56970D02*
Y70743D01*
Y56970D02*
X8357Y55114D01*
X6500Y70743D02*
X9257Y73500D01*
X8357Y54572D02*
Y55114D01*
X8257Y78500D02*
X9261D01*
X9257Y73500D02*
X10500D01*
X16000Y79000D01*
X11000Y68000D02*
X18000D01*
X14964Y55036D02*
X15347Y54653D01*
X15142Y62213D02*
X15399D01*
X16362Y61250D01*
X16000Y79000D02*
X17459D01*
X15347Y54653D02*
X20447D01*
X16362Y61250D02*
X20350D01*
X18000Y68000D02*
X18750Y67250D01*
X20850D01*
X20350Y61250D02*
X20850Y60750D01*
Y73750D02*
X22950D01*
X23450Y74250D01*
Y77379D01*
X24000Y77929D01*
X57000Y73900D02*
Y80000D01*
Y73900D02*
X57150Y73750D01*
X63750Y51507D02*
Y72821D01*
X48522Y82378D02*
X48750Y82150D01*
X70828Y55828D02*
Y83705D01*
X38999Y64001D02*
X48750Y54250D01*
X63750Y72821D02*
X66000Y75071D01*
X57150Y80150D02*
Y92150D01*
X68000Y53000D02*
X70828Y55828D01*
X66468Y87830D02*
X66851Y88213D01*
X37000Y98000D02*
X42000D01*
X48294Y86000D02*
X48522Y85772D01*
Y82378D02*
Y85772D01*
X66468Y86416D02*
Y87830D01*
X66000Y85948D02*
X66468Y86416D01*
X66000Y75071D02*
Y85948D01*
X70828Y83705D02*
X71061Y83938D01*
D21*
X27500Y103106D02*
Y105000D01*
X22000Y97606D02*
X27500Y103106D01*
X22000Y94000D02*
Y97606D01*
Y94000D02*
X22314D01*
X22657Y93657D01*
D22*
X30500Y7000D02*
Y7500D01*
X6000Y32000D02*
X16000D01*
X9000Y40000D02*
X19000D01*
X30500Y7500D02*
X30584Y7584D01*
Y27234D01*
X41500Y10000D02*
Y17000D01*
Y7000D02*
X48010Y13510D01*
X57000Y21706D02*
Y22000D01*
Y21706D02*
X63000Y15706D01*
Y13000D02*
Y15706D01*
X60000Y32000D02*
X69000D01*
X61000Y40000D02*
X65000D01*
X49000Y105000D02*
X49000D01*
X61000Y96000D02*
X68000D01*
X42000Y98000D02*
X49000Y105000D01*
X57150Y92150D02*
X61000Y96000D01*
D23*
X3573Y106160D02*
D03*
X57000Y22000D02*
D03*
X24071Y47000D02*
D03*
X42000Y39071D02*
D03*
X66657Y47343D02*
D03*
X55000Y40000D02*
D03*
X51000Y34000D02*
D03*
X48000Y24000D02*
D03*
X8357Y54572D02*
D03*
X30000Y38250D02*
D03*
X23200Y29000D02*
D03*
X48010Y13510D02*
D03*
X45000Y71000D02*
D03*
X57000Y80000D02*
D03*
X48294Y86000D02*
D03*
X66851Y88213D02*
D03*
X71061Y83938D02*
D03*
X4230Y81858D02*
D03*
X14964Y55036D02*
D03*
X15142Y62213D02*
D03*
X19000Y80000D02*
D03*
Y86000D02*
D03*
X39000Y55000D02*
D03*
X35510Y88261D02*
D03*
M02*
