G04*
G04 #@! TF.GenerationSoftware,Altium Limited,Altium Designer,21.9.2 (33)*
G04*
G04 Layer_Color=16711935*
%FSLAX44Y44*%
%MOMM*%
G71*
G04*
G04 #@! TF.SameCoordinates,6EA3AFA9-0330-4775-ACE0-DBF6802BEFD6*
G04*
G04*
G04 #@! TF.FilePolarity,Positive*
G04*
G01*
G75*
%ADD10C,0.2540*%
%ADD25C,0.1000*%
G36*
X34263Y8589D02*
X34296Y8586D01*
X34337Y8582D01*
X34378Y8578D01*
X34425Y8567D01*
X34525Y8545D01*
X34635Y8512D01*
X34690Y8490D01*
X34742Y8464D01*
X34794Y8431D01*
X34845Y8398D01*
X34849Y8394D01*
X34856Y8390D01*
X34871Y8379D01*
X34889Y8361D01*
X34908Y8342D01*
X34934Y8317D01*
X34959Y8287D01*
X34989Y8258D01*
X35018Y8221D01*
X35048Y8177D01*
X35081Y8133D01*
X35110Y8085D01*
X35136Y8029D01*
X35166Y7974D01*
X35188Y7915D01*
X35210Y7849D01*
X34878Y7771D01*
Y7775D01*
X34875Y7783D01*
X34867Y7797D01*
X34860Y7816D01*
X34853Y7838D01*
X34841Y7867D01*
X34812Y7926D01*
X34775Y7993D01*
X34731Y8059D01*
X34676Y8121D01*
X34617Y8177D01*
X34609Y8184D01*
X34587Y8199D01*
X34551Y8217D01*
X34503Y8243D01*
X34440Y8265D01*
X34370Y8287D01*
X34285Y8302D01*
X34193Y8306D01*
X34164D01*
X34145Y8302D01*
X34120D01*
X34090Y8298D01*
X34020Y8287D01*
X33943Y8272D01*
X33862Y8247D01*
X33777Y8210D01*
X33700Y8162D01*
X33696D01*
X33692Y8155D01*
X33667Y8136D01*
X33633Y8107D01*
X33593Y8062D01*
X33545Y8007D01*
X33501Y7945D01*
X33460Y7867D01*
X33424Y7783D01*
Y7779D01*
X33420Y7771D01*
X33416Y7760D01*
X33412Y7742D01*
X33405Y7720D01*
X33398Y7694D01*
X33387Y7632D01*
X33372Y7558D01*
X33357Y7477D01*
X33350Y7388D01*
X33346Y7293D01*
Y7289D01*
Y7278D01*
Y7260D01*
Y7237D01*
X33350Y7212D01*
Y7179D01*
X33354Y7142D01*
X33357Y7101D01*
X33368Y7013D01*
X33387Y6917D01*
X33409Y6821D01*
X33438Y6726D01*
Y6722D01*
X33442Y6715D01*
X33449Y6704D01*
X33457Y6685D01*
X33479Y6641D01*
X33512Y6589D01*
X33552Y6530D01*
X33604Y6468D01*
X33663Y6413D01*
X33733Y6361D01*
X33737D01*
X33744Y6357D01*
X33755Y6350D01*
X33770Y6342D01*
X33788Y6335D01*
X33810Y6324D01*
X33862Y6302D01*
X33928Y6280D01*
X34002Y6262D01*
X34083Y6247D01*
X34167Y6243D01*
X34193D01*
X34215Y6247D01*
X34241D01*
X34267Y6251D01*
X34333Y6265D01*
X34411Y6284D01*
X34488Y6313D01*
X34569Y6354D01*
X34609Y6376D01*
X34646Y6405D01*
X34650Y6409D01*
X34654Y6413D01*
X34665Y6424D01*
X34680Y6435D01*
X34694Y6453D01*
X34713Y6475D01*
X34735Y6497D01*
X34753Y6527D01*
X34775Y6560D01*
X34801Y6597D01*
X34823Y6633D01*
X34845Y6678D01*
X34864Y6726D01*
X34882Y6777D01*
X34900Y6832D01*
X34915Y6891D01*
X35254Y6807D01*
Y6803D01*
X35250Y6788D01*
X35243Y6766D01*
X35232Y6737D01*
X35221Y6704D01*
X35206Y6663D01*
X35188Y6619D01*
X35166Y6571D01*
X35114Y6468D01*
X35048Y6365D01*
X35007Y6313D01*
X34967Y6262D01*
X34922Y6217D01*
X34871Y6173D01*
X34867Y6169D01*
X34860Y6162D01*
X34841Y6155D01*
X34823Y6140D01*
X34794Y6122D01*
X34764Y6103D01*
X34724Y6085D01*
X34683Y6066D01*
X34635Y6044D01*
X34584Y6026D01*
X34529Y6007D01*
X34469Y5989D01*
X34407Y5974D01*
X34341Y5967D01*
X34271Y5960D01*
X34197Y5956D01*
X34156D01*
X34127Y5960D01*
X34094D01*
X34053Y5963D01*
X34009Y5971D01*
X33958Y5978D01*
X33851Y5996D01*
X33740Y6026D01*
X33630Y6066D01*
X33578Y6092D01*
X33527Y6122D01*
X33523Y6125D01*
X33516Y6129D01*
X33501Y6140D01*
X33486Y6155D01*
X33464Y6169D01*
X33438Y6191D01*
X33409Y6217D01*
X33379Y6247D01*
X33350Y6280D01*
X33317Y6313D01*
X33251Y6398D01*
X33188Y6497D01*
X33133Y6608D01*
Y6611D01*
X33125Y6622D01*
X33122Y6641D01*
X33110Y6663D01*
X33103Y6692D01*
X33092Y6729D01*
X33077Y6770D01*
X33066Y6814D01*
X33055Y6862D01*
X33040Y6917D01*
X33022Y7031D01*
X33007Y7160D01*
X33000Y7293D01*
Y7296D01*
Y7311D01*
Y7333D01*
X33004Y7359D01*
Y7396D01*
X33007Y7433D01*
X33011Y7481D01*
X33018Y7528D01*
X33037Y7635D01*
X33063Y7753D01*
X33100Y7871D01*
X33151Y7985D01*
X33155Y7989D01*
X33158Y8000D01*
X33166Y8015D01*
X33180Y8033D01*
X33195Y8059D01*
X33214Y8088D01*
X33261Y8155D01*
X33324Y8228D01*
X33398Y8302D01*
X33482Y8375D01*
X33582Y8438D01*
X33586Y8442D01*
X33597Y8446D01*
X33611Y8453D01*
X33630Y8464D01*
X33659Y8475D01*
X33689Y8486D01*
X33726Y8501D01*
X33766Y8515D01*
X33810Y8530D01*
X33858Y8545D01*
X33961Y8567D01*
X34079Y8586D01*
X34201Y8593D01*
X34237D01*
X34263Y8589D01*
D02*
G37*
G36*
X36447Y8556D02*
X36477Y8552D01*
X36514Y8549D01*
X36554Y8541D01*
X36595Y8534D01*
X36690Y8508D01*
X36786Y8471D01*
X36834Y8449D01*
X36882Y8423D01*
X36926Y8390D01*
X36967Y8353D01*
X36970Y8350D01*
X36978Y8346D01*
X36985Y8331D01*
X37000Y8317D01*
X37018Y8298D01*
X37037Y8272D01*
X37055Y8247D01*
X37077Y8213D01*
X37114Y8144D01*
X37151Y8055D01*
X37166Y8011D01*
X37173Y7959D01*
X37180Y7908D01*
X37184Y7853D01*
Y7845D01*
Y7827D01*
X37180Y7797D01*
X37176Y7757D01*
X37169Y7713D01*
X37154Y7661D01*
X37140Y7606D01*
X37118Y7551D01*
X37114Y7543D01*
X37107Y7525D01*
X37092Y7495D01*
X37070Y7455D01*
X37040Y7411D01*
X37003Y7355D01*
X36959Y7300D01*
X36908Y7237D01*
X36900Y7230D01*
X36882Y7208D01*
X36864Y7190D01*
X36845Y7171D01*
X36823Y7149D01*
X36793Y7120D01*
X36764Y7090D01*
X36727Y7057D01*
X36690Y7020D01*
X36646Y6980D01*
X36598Y6939D01*
X36547Y6891D01*
X36488Y6843D01*
X36429Y6792D01*
X36425Y6788D01*
X36418Y6781D01*
X36403Y6770D01*
X36385Y6755D01*
X36363Y6733D01*
X36337Y6711D01*
X36278Y6663D01*
X36215Y6608D01*
X36156Y6553D01*
X36105Y6505D01*
X36083Y6486D01*
X36064Y6468D01*
X36061Y6464D01*
X36049Y6453D01*
X36035Y6438D01*
X36016Y6416D01*
X35998Y6390D01*
X35976Y6365D01*
X35932Y6302D01*
X37188D01*
Y6000D01*
X35497D01*
Y6004D01*
Y6018D01*
Y6040D01*
X35501Y6070D01*
X35505Y6103D01*
X35512Y6140D01*
X35519Y6177D01*
X35534Y6217D01*
Y6221D01*
X35538Y6225D01*
X35545Y6247D01*
X35560Y6280D01*
X35582Y6324D01*
X35611Y6376D01*
X35648Y6435D01*
X35689Y6493D01*
X35740Y6556D01*
Y6560D01*
X35747Y6564D01*
X35766Y6586D01*
X35799Y6619D01*
X35847Y6667D01*
X35902Y6722D01*
X35972Y6788D01*
X36057Y6862D01*
X36149Y6939D01*
X36153Y6943D01*
X36167Y6954D01*
X36189Y6972D01*
X36215Y6994D01*
X36248Y7024D01*
X36289Y7057D01*
X36329Y7094D01*
X36377Y7134D01*
X36469Y7223D01*
X36562Y7311D01*
X36606Y7355D01*
X36646Y7400D01*
X36683Y7440D01*
X36713Y7481D01*
Y7484D01*
X36720Y7488D01*
X36727Y7499D01*
X36735Y7514D01*
X36760Y7554D01*
X36790Y7602D01*
X36816Y7661D01*
X36841Y7724D01*
X36856Y7794D01*
X36864Y7860D01*
Y7864D01*
Y7867D01*
X36860Y7889D01*
X36856Y7926D01*
X36845Y7967D01*
X36830Y8018D01*
X36804Y8070D01*
X36771Y8121D01*
X36727Y8173D01*
X36720Y8180D01*
X36701Y8195D01*
X36676Y8213D01*
X36635Y8239D01*
X36584Y8261D01*
X36525Y8284D01*
X36455Y8298D01*
X36377Y8302D01*
X36355D01*
X36340Y8298D01*
X36296Y8295D01*
X36245Y8284D01*
X36189Y8269D01*
X36127Y8243D01*
X36068Y8210D01*
X36013Y8166D01*
X36005Y8158D01*
X35991Y8140D01*
X35968Y8110D01*
X35946Y8066D01*
X35921Y8015D01*
X35898Y7948D01*
X35884Y7875D01*
X35876Y7790D01*
X35556Y7823D01*
Y7827D01*
X35560Y7838D01*
Y7856D01*
X35563Y7882D01*
X35571Y7911D01*
X35578Y7945D01*
X35589Y7985D01*
X35600Y8026D01*
X35630Y8114D01*
X35674Y8202D01*
X35700Y8247D01*
X35733Y8291D01*
X35766Y8331D01*
X35803Y8368D01*
X35807Y8372D01*
X35814Y8375D01*
X35825Y8387D01*
X35843Y8398D01*
X35865Y8412D01*
X35891Y8427D01*
X35921Y8446D01*
X35958Y8464D01*
X35998Y8482D01*
X36042Y8501D01*
X36090Y8515D01*
X36142Y8530D01*
X36197Y8541D01*
X36256Y8552D01*
X36318Y8556D01*
X36385Y8560D01*
X36421D01*
X36447Y8556D01*
D02*
G37*
G36*
X62477Y12241D02*
Y12237D01*
Y12223D01*
Y12204D01*
Y12177D01*
X62473Y12140D01*
Y12103D01*
X62463Y12015D01*
X62454Y11913D01*
X62436Y11807D01*
X62408Y11710D01*
X62376Y11617D01*
Y11613D01*
X62371Y11608D01*
X62357Y11580D01*
X62334Y11543D01*
X62302Y11493D01*
X62255Y11442D01*
X62204Y11386D01*
X62140Y11331D01*
X62066Y11285D01*
X62057Y11280D01*
X62029Y11266D01*
X61987Y11248D01*
X61927Y11229D01*
X61853Y11206D01*
X61770Y11187D01*
X61677Y11173D01*
X61576Y11169D01*
X61534D01*
X61507Y11173D01*
X61469Y11178D01*
X61432Y11183D01*
X61335Y11201D01*
X61234Y11229D01*
X61127Y11271D01*
X61072Y11298D01*
X61021Y11331D01*
X60975Y11368D01*
X60929Y11409D01*
X60924Y11414D01*
X60919Y11418D01*
X60910Y11437D01*
X60896Y11456D01*
X60878Y11479D01*
X60859Y11511D01*
X60841Y11548D01*
X60818Y11590D01*
X60799Y11636D01*
X60781Y11691D01*
X60762Y11747D01*
X60744Y11811D01*
X60735Y11881D01*
X60721Y11959D01*
X60716Y12038D01*
Y12126D01*
X61100Y12181D01*
Y12177D01*
Y12167D01*
Y12149D01*
X61104Y12121D01*
X61109Y12093D01*
Y12061D01*
X61123Y11983D01*
X61137Y11899D01*
X61164Y11816D01*
X61192Y11742D01*
X61211Y11710D01*
X61234Y11682D01*
X61238Y11677D01*
X61257Y11664D01*
X61285Y11640D01*
X61322Y11617D01*
X61372Y11590D01*
X61428Y11571D01*
X61497Y11553D01*
X61571Y11548D01*
X61599D01*
X61627Y11553D01*
X61668Y11557D01*
X61710Y11566D01*
X61756Y11576D01*
X61802Y11594D01*
X61849Y11617D01*
X61853Y11622D01*
X61867Y11631D01*
X61886Y11650D01*
X61913Y11668D01*
X61936Y11701D01*
X61964Y11733D01*
X61987Y11770D01*
X62006Y11816D01*
Y11821D01*
X62015Y11839D01*
X62020Y11872D01*
X62029Y11913D01*
X62038Y11969D01*
X62043Y12038D01*
X62052Y12121D01*
Y12218D01*
Y14423D01*
X62477D01*
Y12241D01*
D02*
G37*
G36*
X64118Y14433D02*
X64155Y14428D01*
X64197Y14423D01*
X64243Y14419D01*
X64289Y14405D01*
X64400Y14377D01*
X64511Y14336D01*
X64567Y14308D01*
X64622Y14275D01*
X64673Y14234D01*
X64724Y14192D01*
X64729Y14188D01*
X64733Y14183D01*
X64747Y14169D01*
X64766Y14151D01*
X64784Y14123D01*
X64807Y14095D01*
X64853Y14026D01*
X64900Y13938D01*
X64941Y13836D01*
X64974Y13721D01*
X64978Y13661D01*
X64983Y13596D01*
Y13591D01*
Y13587D01*
Y13559D01*
X64978Y13517D01*
X64969Y13466D01*
X64955Y13402D01*
X64932Y13337D01*
X64904Y13272D01*
X64863Y13207D01*
X64858Y13198D01*
X64840Y13180D01*
X64812Y13152D01*
X64775Y13115D01*
X64724Y13074D01*
X64664Y13032D01*
X64594Y12990D01*
X64511Y12953D01*
X64516D01*
X64525Y12949D01*
X64539Y12944D01*
X64557Y12935D01*
X64613Y12912D01*
X64678Y12879D01*
X64747Y12833D01*
X64821Y12782D01*
X64890Y12717D01*
X64955Y12644D01*
Y12639D01*
X64960Y12634D01*
X64978Y12607D01*
X65006Y12560D01*
X65034Y12500D01*
X65061Y12426D01*
X65089Y12339D01*
X65108Y12241D01*
X65112Y12135D01*
Y12130D01*
Y12117D01*
Y12093D01*
X65108Y12066D01*
X65103Y12033D01*
X65098Y11992D01*
X65089Y11946D01*
X65075Y11895D01*
X65043Y11788D01*
X65020Y11728D01*
X64987Y11673D01*
X64955Y11613D01*
X64918Y11557D01*
X64872Y11502D01*
X64821Y11446D01*
X64816Y11442D01*
X64807Y11432D01*
X64793Y11418D01*
X64770Y11405D01*
X64738Y11381D01*
X64706Y11358D01*
X64664Y11335D01*
X64618Y11308D01*
X64567Y11280D01*
X64507Y11257D01*
X64442Y11234D01*
X64377Y11211D01*
X64303Y11197D01*
X64225Y11183D01*
X64146Y11173D01*
X64058Y11169D01*
X64012D01*
X63980Y11173D01*
X63938Y11178D01*
X63892Y11183D01*
X63841Y11192D01*
X63786Y11206D01*
X63661Y11238D01*
X63596Y11261D01*
X63536Y11285D01*
X63471Y11317D01*
X63407Y11354D01*
X63346Y11395D01*
X63291Y11446D01*
X63286Y11451D01*
X63277Y11460D01*
X63263Y11474D01*
X63245Y11497D01*
X63226Y11525D01*
X63198Y11557D01*
X63175Y11594D01*
X63148Y11640D01*
X63120Y11687D01*
X63097Y11742D01*
X63050Y11858D01*
X63032Y11927D01*
X63018Y11996D01*
X63009Y12070D01*
X63004Y12144D01*
Y12149D01*
Y12158D01*
Y12177D01*
X63009Y12195D01*
Y12223D01*
X63014Y12255D01*
X63023Y12329D01*
X63041Y12412D01*
X63069Y12496D01*
X63111Y12584D01*
X63161Y12667D01*
Y12671D01*
X63171Y12676D01*
X63189Y12699D01*
X63226Y12736D01*
X63277Y12782D01*
X63342Y12829D01*
X63420Y12879D01*
X63508Y12921D01*
X63615Y12953D01*
X63610D01*
X63605Y12958D01*
X63591Y12962D01*
X63573Y12972D01*
X63531Y12990D01*
X63476Y13018D01*
X63416Y13055D01*
X63356Y13101D01*
X63300Y13152D01*
X63249Y13207D01*
X63245Y13217D01*
X63231Y13235D01*
X63212Y13272D01*
X63194Y13319D01*
X63171Y13379D01*
X63152Y13448D01*
X63138Y13527D01*
X63134Y13610D01*
Y13614D01*
Y13624D01*
Y13642D01*
X63138Y13670D01*
X63143Y13698D01*
X63148Y13735D01*
X63166Y13813D01*
X63194Y13906D01*
X63240Y14003D01*
X63268Y14053D01*
X63300Y14104D01*
X63342Y14151D01*
X63383Y14197D01*
X63388Y14201D01*
X63397Y14206D01*
X63411Y14220D01*
X63430Y14234D01*
X63453Y14252D01*
X63485Y14271D01*
X63522Y14294D01*
X63559Y14317D01*
X63605Y14340D01*
X63656Y14363D01*
X63712Y14382D01*
X63772Y14400D01*
X63901Y14428D01*
X63975Y14433D01*
X64049Y14437D01*
X64091D01*
X64118Y14433D01*
D02*
G37*
G36*
X34263Y18589D02*
X34296Y18585D01*
X34337Y18582D01*
X34378Y18578D01*
X34425Y18567D01*
X34525Y18545D01*
X34635Y18512D01*
X34690Y18490D01*
X34742Y18464D01*
X34794Y18431D01*
X34845Y18398D01*
X34849Y18394D01*
X34856Y18390D01*
X34871Y18379D01*
X34889Y18361D01*
X34908Y18342D01*
X34934Y18317D01*
X34959Y18287D01*
X34989Y18258D01*
X35018Y18221D01*
X35048Y18177D01*
X35081Y18132D01*
X35110Y18085D01*
X35136Y18029D01*
X35166Y17974D01*
X35188Y17915D01*
X35210Y17849D01*
X34878Y17772D01*
Y17775D01*
X34875Y17783D01*
X34867Y17797D01*
X34860Y17816D01*
X34853Y17838D01*
X34841Y17867D01*
X34812Y17926D01*
X34775Y17993D01*
X34731Y18059D01*
X34676Y18121D01*
X34617Y18177D01*
X34609Y18184D01*
X34587Y18199D01*
X34551Y18217D01*
X34503Y18243D01*
X34440Y18265D01*
X34370Y18287D01*
X34285Y18302D01*
X34193Y18306D01*
X34164D01*
X34145Y18302D01*
X34120D01*
X34090Y18298D01*
X34020Y18287D01*
X33943Y18272D01*
X33862Y18247D01*
X33777Y18210D01*
X33700Y18162D01*
X33696D01*
X33692Y18154D01*
X33667Y18136D01*
X33633Y18107D01*
X33593Y18062D01*
X33545Y18007D01*
X33501Y17945D01*
X33460Y17867D01*
X33424Y17783D01*
Y17779D01*
X33420Y17772D01*
X33416Y17760D01*
X33412Y17742D01*
X33405Y17720D01*
X33398Y17694D01*
X33387Y17632D01*
X33372Y17558D01*
X33357Y17477D01*
X33350Y17388D01*
X33346Y17293D01*
Y17289D01*
Y17278D01*
Y17260D01*
Y17237D01*
X33350Y17212D01*
Y17179D01*
X33354Y17142D01*
X33357Y17101D01*
X33368Y17013D01*
X33387Y16917D01*
X33409Y16821D01*
X33438Y16725D01*
Y16722D01*
X33442Y16715D01*
X33449Y16703D01*
X33457Y16685D01*
X33479Y16641D01*
X33512Y16589D01*
X33552Y16530D01*
X33604Y16468D01*
X33663Y16413D01*
X33733Y16361D01*
X33737D01*
X33744Y16357D01*
X33755Y16350D01*
X33770Y16343D01*
X33788Y16335D01*
X33810Y16324D01*
X33862Y16302D01*
X33928Y16280D01*
X34002Y16262D01*
X34083Y16247D01*
X34167Y16243D01*
X34193D01*
X34215Y16247D01*
X34241D01*
X34267Y16250D01*
X34333Y16265D01*
X34411Y16284D01*
X34488Y16313D01*
X34569Y16354D01*
X34609Y16376D01*
X34646Y16405D01*
X34650Y16409D01*
X34654Y16413D01*
X34665Y16423D01*
X34680Y16435D01*
X34694Y16453D01*
X34713Y16475D01*
X34735Y16497D01*
X34753Y16527D01*
X34775Y16560D01*
X34801Y16597D01*
X34823Y16633D01*
X34845Y16678D01*
X34864Y16725D01*
X34882Y16777D01*
X34900Y16832D01*
X34915Y16891D01*
X35254Y16807D01*
Y16803D01*
X35250Y16788D01*
X35243Y16766D01*
X35232Y16737D01*
X35221Y16703D01*
X35206Y16663D01*
X35188Y16619D01*
X35166Y16571D01*
X35114Y16468D01*
X35048Y16365D01*
X35007Y16313D01*
X34967Y16262D01*
X34922Y16217D01*
X34871Y16173D01*
X34867Y16169D01*
X34860Y16162D01*
X34841Y16155D01*
X34823Y16140D01*
X34794Y16121D01*
X34764Y16103D01*
X34724Y16085D01*
X34683Y16066D01*
X34635Y16044D01*
X34584Y16026D01*
X34529Y16007D01*
X34469Y15989D01*
X34407Y15974D01*
X34341Y15967D01*
X34271Y15960D01*
X34197Y15956D01*
X34156D01*
X34127Y15960D01*
X34094D01*
X34053Y15963D01*
X34009Y15970D01*
X33958Y15978D01*
X33851Y15996D01*
X33740Y16026D01*
X33630Y16066D01*
X33578Y16092D01*
X33527Y16121D01*
X33523Y16125D01*
X33516Y16129D01*
X33501Y16140D01*
X33486Y16155D01*
X33464Y16169D01*
X33438Y16192D01*
X33409Y16217D01*
X33379Y16247D01*
X33350Y16280D01*
X33317Y16313D01*
X33251Y16398D01*
X33188Y16497D01*
X33133Y16608D01*
Y16611D01*
X33125Y16622D01*
X33122Y16641D01*
X33110Y16663D01*
X33103Y16692D01*
X33092Y16729D01*
X33077Y16770D01*
X33066Y16814D01*
X33055Y16862D01*
X33040Y16917D01*
X33022Y17031D01*
X33007Y17160D01*
X33000Y17293D01*
Y17296D01*
Y17311D01*
Y17333D01*
X33004Y17359D01*
Y17396D01*
X33007Y17433D01*
X33011Y17481D01*
X33018Y17528D01*
X33037Y17635D01*
X33063Y17753D01*
X33100Y17871D01*
X33151Y17985D01*
X33155Y17989D01*
X33158Y18000D01*
X33166Y18015D01*
X33180Y18033D01*
X33195Y18059D01*
X33214Y18088D01*
X33261Y18154D01*
X33324Y18228D01*
X33398Y18302D01*
X33482Y18376D01*
X33582Y18438D01*
X33586Y18442D01*
X33597Y18446D01*
X33611Y18453D01*
X33630Y18464D01*
X33659Y18475D01*
X33689Y18486D01*
X33726Y18501D01*
X33766Y18515D01*
X33810Y18530D01*
X33858Y18545D01*
X33961Y18567D01*
X34079Y18585D01*
X34201Y18593D01*
X34237D01*
X34263Y18589D01*
D02*
G37*
G36*
X36720Y16000D02*
X36407D01*
Y17993D01*
X36403Y17989D01*
X36385Y17974D01*
X36363Y17952D01*
X36326Y17926D01*
X36285Y17893D01*
X36234Y17856D01*
X36175Y17816D01*
X36109Y17775D01*
X36105D01*
X36101Y17772D01*
X36079Y17757D01*
X36042Y17738D01*
X35998Y17716D01*
X35946Y17691D01*
X35891Y17665D01*
X35836Y17639D01*
X35781Y17617D01*
Y17919D01*
X35784D01*
X35792Y17926D01*
X35807Y17930D01*
X35825Y17941D01*
X35847Y17952D01*
X35873Y17967D01*
X35935Y18003D01*
X36009Y18044D01*
X36083Y18096D01*
X36160Y18154D01*
X36237Y18217D01*
X36241Y18221D01*
X36245Y18225D01*
X36256Y18236D01*
X36270Y18247D01*
X36304Y18283D01*
X36348Y18328D01*
X36392Y18379D01*
X36440Y18438D01*
X36480Y18497D01*
X36517Y18560D01*
X36720D01*
Y16000D01*
D02*
G37*
G36*
X38133Y29714D02*
X38184Y29707D01*
X38249Y29701D01*
X38320Y29688D01*
X38392Y29675D01*
X38560Y29630D01*
X38728Y29565D01*
X38813Y29526D01*
X38897Y29481D01*
X38975Y29422D01*
X39046Y29358D01*
X39052Y29351D01*
X39065Y29345D01*
X39078Y29319D01*
X39104Y29293D01*
X39137Y29260D01*
X39169Y29215D01*
X39201Y29170D01*
X39240Y29111D01*
X39305Y28988D01*
X39370Y28833D01*
X39396Y28755D01*
X39409Y28665D01*
X39422Y28574D01*
X39428Y28477D01*
Y28464D01*
Y28431D01*
X39422Y28379D01*
X39415Y28308D01*
X39402Y28231D01*
X39376Y28140D01*
X39350Y28043D01*
X39311Y27946D01*
X39305Y27933D01*
X39292Y27900D01*
X39266Y27848D01*
X39227Y27777D01*
X39175Y27699D01*
X39111Y27602D01*
X39033Y27505D01*
X38942Y27395D01*
X38929Y27382D01*
X38897Y27343D01*
X38865Y27311D01*
X38832Y27278D01*
X38793Y27240D01*
X38741Y27188D01*
X38690Y27136D01*
X38625Y27078D01*
X38560Y27013D01*
X38482Y26942D01*
X38398Y26870D01*
X38307Y26786D01*
X38204Y26702D01*
X38100Y26611D01*
X38094Y26605D01*
X38081Y26592D01*
X38055Y26572D01*
X38022Y26547D01*
X37984Y26508D01*
X37938Y26469D01*
X37835Y26385D01*
X37724Y26288D01*
X37621Y26190D01*
X37530Y26106D01*
X37491Y26074D01*
X37459Y26041D01*
X37452Y26035D01*
X37433Y26015D01*
X37407Y25989D01*
X37375Y25951D01*
X37342Y25905D01*
X37304Y25860D01*
X37226Y25750D01*
X39434D01*
Y25219D01*
X36462D01*
Y25225D01*
Y25251D01*
Y25290D01*
X36468Y25342D01*
X36474Y25400D01*
X36487Y25465D01*
X36500Y25530D01*
X36526Y25601D01*
Y25607D01*
X36533Y25614D01*
X36546Y25653D01*
X36572Y25711D01*
X36611Y25789D01*
X36662Y25879D01*
X36727Y25983D01*
X36798Y26087D01*
X36889Y26197D01*
Y26203D01*
X36902Y26210D01*
X36934Y26249D01*
X36993Y26307D01*
X37077Y26391D01*
X37174Y26488D01*
X37297Y26605D01*
X37446Y26734D01*
X37608Y26870D01*
X37614Y26877D01*
X37640Y26896D01*
X37679Y26929D01*
X37724Y26968D01*
X37783Y27019D01*
X37854Y27078D01*
X37925Y27142D01*
X38010Y27214D01*
X38171Y27369D01*
X38333Y27525D01*
X38411Y27602D01*
X38482Y27680D01*
X38547Y27751D01*
X38599Y27822D01*
Y27829D01*
X38612Y27836D01*
X38625Y27855D01*
X38638Y27881D01*
X38683Y27952D01*
X38735Y28036D01*
X38780Y28140D01*
X38826Y28250D01*
X38851Y28373D01*
X38865Y28490D01*
Y28496D01*
Y28503D01*
X38858Y28542D01*
X38851Y28606D01*
X38832Y28677D01*
X38806Y28768D01*
X38761Y28859D01*
X38702Y28949D01*
X38625Y29040D01*
X38612Y29053D01*
X38579Y29079D01*
X38534Y29111D01*
X38463Y29157D01*
X38372Y29196D01*
X38269Y29234D01*
X38145Y29260D01*
X38010Y29267D01*
X37971D01*
X37945Y29260D01*
X37867Y29254D01*
X37776Y29234D01*
X37679Y29209D01*
X37569Y29163D01*
X37465Y29105D01*
X37368Y29027D01*
X37355Y29014D01*
X37329Y28982D01*
X37291Y28930D01*
X37252Y28852D01*
X37206Y28762D01*
X37167Y28645D01*
X37142Y28516D01*
X37129Y28367D01*
X36565Y28425D01*
Y28431D01*
X36572Y28451D01*
Y28483D01*
X36578Y28528D01*
X36591Y28580D01*
X36604Y28639D01*
X36623Y28710D01*
X36643Y28781D01*
X36695Y28937D01*
X36772Y29092D01*
X36818Y29170D01*
X36876Y29248D01*
X36934Y29319D01*
X36999Y29383D01*
X37006Y29390D01*
X37018Y29396D01*
X37038Y29416D01*
X37070Y29435D01*
X37109Y29461D01*
X37155Y29487D01*
X37206Y29520D01*
X37271Y29552D01*
X37342Y29584D01*
X37420Y29617D01*
X37504Y29643D01*
X37595Y29669D01*
X37692Y29688D01*
X37796Y29707D01*
X37906Y29714D01*
X38022Y29720D01*
X38087D01*
X38133Y29714D01*
D02*
G37*
G36*
X34382Y29694D02*
X34441D01*
X34577Y29688D01*
X34719Y29669D01*
X34875Y29649D01*
X35017Y29617D01*
X35088Y29597D01*
X35147Y29578D01*
X35153D01*
X35160Y29571D01*
X35199Y29552D01*
X35257Y29526D01*
X35328Y29481D01*
X35406Y29422D01*
X35490Y29345D01*
X35568Y29254D01*
X35645Y29150D01*
Y29144D01*
X35652Y29137D01*
X35678Y29098D01*
X35704Y29034D01*
X35742Y28949D01*
X35775Y28852D01*
X35807Y28736D01*
X35827Y28613D01*
X35833Y28477D01*
Y28470D01*
Y28457D01*
Y28431D01*
X35827Y28399D01*
Y28354D01*
X35820Y28308D01*
X35794Y28198D01*
X35756Y28069D01*
X35704Y27933D01*
X35626Y27797D01*
X35574Y27732D01*
X35522Y27667D01*
X35516Y27661D01*
X35509Y27654D01*
X35490Y27635D01*
X35464Y27615D01*
X35432Y27589D01*
X35393Y27563D01*
X35341Y27531D01*
X35289Y27492D01*
X35224Y27460D01*
X35153Y27427D01*
X35075Y27389D01*
X34991Y27356D01*
X34894Y27330D01*
X34797Y27298D01*
X34687Y27278D01*
X34570Y27259D01*
X34583Y27253D01*
X34609Y27240D01*
X34648Y27214D01*
X34700Y27188D01*
X34816Y27116D01*
X34875Y27071D01*
X34926Y27032D01*
X34939Y27019D01*
X34972Y26987D01*
X35024Y26935D01*
X35088Y26870D01*
X35160Y26780D01*
X35244Y26683D01*
X35328Y26566D01*
X35419Y26436D01*
X36189Y25219D01*
X35451D01*
X34862Y26151D01*
Y26158D01*
X34849Y26171D01*
X34836Y26190D01*
X34816Y26216D01*
X34771Y26288D01*
X34713Y26378D01*
X34641Y26475D01*
X34570Y26579D01*
X34499Y26676D01*
X34434Y26767D01*
X34428Y26773D01*
X34408Y26799D01*
X34376Y26838D01*
X34331Y26883D01*
X34233Y26981D01*
X34182Y27026D01*
X34130Y27065D01*
X34123Y27071D01*
X34110Y27078D01*
X34084Y27091D01*
X34046Y27110D01*
X34007Y27129D01*
X33961Y27149D01*
X33858Y27181D01*
X33851D01*
X33838Y27188D01*
X33812D01*
X33780Y27194D01*
X33735Y27201D01*
X33683D01*
X33612Y27207D01*
X32847D01*
Y25219D01*
X32251D01*
Y29701D01*
X34331D01*
X34382Y29694D01*
D02*
G37*
G36*
X39544Y63050D02*
Y63036D01*
Y62980D01*
Y62911D01*
Y62814D01*
X39531Y62689D01*
Y62550D01*
X39517Y62384D01*
X39503Y62217D01*
X39461Y61843D01*
X39406Y61455D01*
X39323Y61080D01*
X39267Y60900D01*
X39212Y60734D01*
Y60720D01*
X39198Y60692D01*
X39170Y60650D01*
X39142Y60595D01*
X39059Y60442D01*
X38934Y60248D01*
X38768Y60026D01*
X38574Y59804D01*
X38324Y59569D01*
X38019Y59361D01*
X38005D01*
X37977Y59333D01*
X37936Y59319D01*
X37866Y59277D01*
X37783Y59236D01*
X37672Y59194D01*
X37561Y59153D01*
X37423Y59097D01*
X37270Y59042D01*
X37104Y59000D01*
X36923Y58958D01*
X36715Y58917D01*
X36507Y58889D01*
X36285Y58861D01*
X35786Y58834D01*
X35661D01*
X35564Y58847D01*
X35453D01*
X35315Y58861D01*
X35162Y58875D01*
X35010Y58889D01*
X34663Y58945D01*
X34288Y59028D01*
X33928Y59139D01*
X33581Y59291D01*
X33567D01*
X33539Y59319D01*
X33498Y59347D01*
X33442Y59374D01*
X33290Y59485D01*
X33110Y59638D01*
X32901Y59832D01*
X32707Y60054D01*
X32513Y60331D01*
X32361Y60637D01*
Y60650D01*
X32347Y60678D01*
X32333Y60734D01*
X32305Y60803D01*
X32277Y60886D01*
X32250Y60997D01*
X32208Y61122D01*
X32180Y61274D01*
X32153Y61441D01*
X32111Y61621D01*
X32083Y61815D01*
X32055Y62023D01*
X32028Y62259D01*
X32014Y62509D01*
X32000Y62772D01*
Y63050D01*
Y68597D01*
X33276D01*
Y63050D01*
Y63036D01*
Y62994D01*
Y62925D01*
Y62842D01*
X33290Y62744D01*
Y62620D01*
X33304Y62356D01*
X33331Y62051D01*
X33373Y61746D01*
X33428Y61455D01*
X33456Y61330D01*
X33498Y61205D01*
X33512Y61177D01*
X33539Y61108D01*
X33609Y61011D01*
X33692Y60872D01*
X33789Y60734D01*
X33928Y60581D01*
X34094Y60429D01*
X34288Y60304D01*
X34316Y60290D01*
X34385Y60248D01*
X34510Y60207D01*
X34677Y60151D01*
X34871Y60082D01*
X35120Y60040D01*
X35384Y59998D01*
X35675Y59985D01*
X35814D01*
X35897Y59998D01*
X36022D01*
X36147Y60012D01*
X36452Y60068D01*
X36785Y60137D01*
X37104Y60248D01*
X37409Y60401D01*
X37547Y60498D01*
X37672Y60609D01*
X37686Y60623D01*
X37700Y60637D01*
X37728Y60678D01*
X37769Y60734D01*
X37811Y60817D01*
X37866Y60900D01*
X37922Y61025D01*
X37977Y61150D01*
X38033Y61302D01*
X38074Y61483D01*
X38130Y61691D01*
X38172Y61912D01*
X38213Y62162D01*
X38241Y62425D01*
X38268Y62731D01*
Y63050D01*
Y68597D01*
X39544D01*
Y63050D01*
D02*
G37*
G36*
X45619Y59000D02*
X44440D01*
Y66503D01*
X44426Y66489D01*
X44357Y66434D01*
X44274Y66350D01*
X44135Y66253D01*
X43982Y66128D01*
X43788Y65990D01*
X43566Y65837D01*
X43317Y65685D01*
X43303D01*
X43289Y65671D01*
X43206Y65615D01*
X43067Y65546D01*
X42901Y65463D01*
X42706Y65366D01*
X42498Y65269D01*
X42290Y65171D01*
X42082Y65088D01*
Y66225D01*
X42096D01*
X42124Y66253D01*
X42179Y66267D01*
X42249Y66309D01*
X42332Y66350D01*
X42429Y66406D01*
X42665Y66544D01*
X42942Y66697D01*
X43219Y66891D01*
X43511Y67113D01*
X43802Y67349D01*
X43816Y67363D01*
X43830Y67376D01*
X43871Y67418D01*
X43927Y67460D01*
X44052Y67598D01*
X44218Y67765D01*
X44384Y67959D01*
X44565Y68181D01*
X44717Y68403D01*
X44856Y68639D01*
X45619D01*
Y59000D01*
D02*
G37*
G36*
X13293Y72470D02*
X13286Y72418D01*
Y72360D01*
X13280Y72224D01*
X13261Y72081D01*
X13241Y71926D01*
X13209Y71783D01*
X13189Y71712D01*
X13170Y71654D01*
Y71647D01*
X13163Y71641D01*
X13144Y71602D01*
X13118Y71544D01*
X13073Y71473D01*
X13014Y71395D01*
X12937Y71311D01*
X12846Y71233D01*
X12742Y71155D01*
X12736D01*
X12729Y71149D01*
X12691Y71123D01*
X12626Y71097D01*
X12542Y71058D01*
X12444Y71026D01*
X12328Y70993D01*
X12205Y70974D01*
X12069Y70967D01*
X12062D01*
X12049D01*
X12023D01*
X11991Y70974D01*
X11946D01*
X11900Y70980D01*
X11790Y71006D01*
X11661Y71045D01*
X11525Y71097D01*
X11389Y71175D01*
X11324Y71226D01*
X11259Y71278D01*
X11253Y71285D01*
X11246Y71291D01*
X11227Y71311D01*
X11207Y71336D01*
X11181Y71369D01*
X11156Y71408D01*
X11123Y71459D01*
X11084Y71511D01*
X11052Y71576D01*
X11020Y71647D01*
X10981Y71725D01*
X10948Y71809D01*
X10922Y71906D01*
X10890Y72004D01*
X10870Y72114D01*
X10851Y72230D01*
X10845Y72217D01*
X10832Y72191D01*
X10806Y72153D01*
X10780Y72101D01*
X10709Y71984D01*
X10663Y71926D01*
X10624Y71874D01*
X10611Y71861D01*
X10579Y71829D01*
X10527Y71777D01*
X10462Y71712D01*
X10372Y71641D01*
X10275Y71557D01*
X10158Y71473D01*
X10029Y71382D01*
X8811Y70611D01*
Y71349D01*
X9743Y71939D01*
X9750D01*
X9763Y71952D01*
X9782Y71965D01*
X9808Y71984D01*
X9880Y72030D01*
X9970Y72088D01*
X10067Y72159D01*
X10171Y72230D01*
X10268Y72302D01*
X10359Y72366D01*
X10365Y72373D01*
X10391Y72392D01*
X10430Y72425D01*
X10475Y72470D01*
X10573Y72567D01*
X10618Y72619D01*
X10657Y72671D01*
X10663Y72677D01*
X10670Y72690D01*
X10683Y72716D01*
X10702Y72755D01*
X10721Y72794D01*
X10741Y72839D01*
X10773Y72943D01*
Y72949D01*
X10780Y72962D01*
Y72988D01*
X10786Y73021D01*
X10793Y73066D01*
Y73118D01*
X10799Y73189D01*
Y73953D01*
X8811D01*
Y74549D01*
X13293D01*
Y72470D01*
D02*
G37*
G36*
X12185Y69834D02*
X12198Y69821D01*
X12205Y69795D01*
X12224Y69763D01*
X12244Y69724D01*
X12270Y69678D01*
X12334Y69568D01*
X12406Y69439D01*
X12496Y69309D01*
X12600Y69173D01*
X12710Y69037D01*
X12716Y69031D01*
X12723Y69024D01*
X12742Y69005D01*
X12762Y68979D01*
X12827Y68920D01*
X12904Y68843D01*
X12995Y68765D01*
X13099Y68681D01*
X13202Y68610D01*
X13312Y68545D01*
Y68189D01*
X8811D01*
Y68739D01*
X12315D01*
X12308Y68746D01*
X12283Y68778D01*
X12244Y68817D01*
X12198Y68882D01*
X12140Y68953D01*
X12075Y69044D01*
X12004Y69147D01*
X11933Y69264D01*
Y69270D01*
X11926Y69277D01*
X11900Y69316D01*
X11868Y69380D01*
X11829Y69458D01*
X11784Y69549D01*
X11738Y69646D01*
X11693Y69743D01*
X11654Y69840D01*
X12185D01*
Y69834D01*
D02*
G37*
G36*
X27025Y104371D02*
Y104367D01*
Y104353D01*
Y104334D01*
Y104306D01*
X27020Y104270D01*
Y104233D01*
X27011Y104145D01*
X27002Y104043D01*
X26983Y103937D01*
X26955Y103840D01*
X26923Y103747D01*
Y103743D01*
X26918Y103738D01*
X26905Y103710D01*
X26881Y103673D01*
X26849Y103622D01*
X26803Y103572D01*
X26752Y103516D01*
X26687Y103461D01*
X26613Y103414D01*
X26604Y103410D01*
X26576Y103396D01*
X26535Y103377D01*
X26475Y103359D01*
X26401Y103336D01*
X26318Y103317D01*
X26225Y103303D01*
X26123Y103299D01*
X26082D01*
X26054Y103303D01*
X26017Y103308D01*
X25980Y103313D01*
X25883Y103331D01*
X25781Y103359D01*
X25675Y103400D01*
X25619Y103428D01*
X25569Y103461D01*
X25522Y103497D01*
X25476Y103539D01*
X25471Y103544D01*
X25467Y103548D01*
X25458Y103567D01*
X25444Y103585D01*
X25425Y103609D01*
X25407Y103641D01*
X25388Y103678D01*
X25365Y103719D01*
X25347Y103766D01*
X25328Y103821D01*
X25310Y103877D01*
X25291Y103941D01*
X25282Y104011D01*
X25268Y104089D01*
X25264Y104168D01*
Y104256D01*
X25647Y104311D01*
Y104306D01*
Y104297D01*
Y104279D01*
X25652Y104251D01*
X25656Y104223D01*
Y104191D01*
X25670Y104112D01*
X25684Y104029D01*
X25712Y103946D01*
X25740Y103872D01*
X25758Y103840D01*
X25781Y103812D01*
X25786Y103807D01*
X25804Y103793D01*
X25832Y103770D01*
X25869Y103747D01*
X25920Y103719D01*
X25975Y103701D01*
X26045Y103682D01*
X26119Y103678D01*
X26147D01*
X26174Y103682D01*
X26216Y103687D01*
X26257Y103696D01*
X26304Y103706D01*
X26350Y103724D01*
X26396Y103747D01*
X26401Y103752D01*
X26415Y103761D01*
X26433Y103779D01*
X26461Y103798D01*
X26484Y103830D01*
X26512Y103863D01*
X26535Y103900D01*
X26553Y103946D01*
Y103951D01*
X26562Y103969D01*
X26567Y104001D01*
X26576Y104043D01*
X26586Y104099D01*
X26590Y104168D01*
X26600Y104251D01*
Y104348D01*
Y106553D01*
X27025D01*
Y104371D01*
D02*
G37*
G36*
X28694Y106562D02*
X28731Y106558D01*
X28777Y106553D01*
X28828Y106544D01*
X28879Y106535D01*
X28999Y106502D01*
X29119Y106456D01*
X29179Y106428D01*
X29239Y106396D01*
X29295Y106354D01*
X29345Y106308D01*
X29350Y106304D01*
X29359Y106299D01*
X29369Y106280D01*
X29387Y106262D01*
X29410Y106239D01*
X29433Y106207D01*
X29456Y106174D01*
X29484Y106132D01*
X29530Y106045D01*
X29577Y105934D01*
X29595Y105878D01*
X29604Y105814D01*
X29614Y105749D01*
X29618Y105680D01*
Y105670D01*
Y105647D01*
X29614Y105610D01*
X29609Y105559D01*
X29600Y105504D01*
X29581Y105439D01*
X29563Y105370D01*
X29535Y105300D01*
X29530Y105291D01*
X29521Y105268D01*
X29503Y105231D01*
X29475Y105180D01*
X29438Y105125D01*
X29392Y105055D01*
X29336Y104986D01*
X29272Y104908D01*
X29262Y104898D01*
X29239Y104871D01*
X29216Y104847D01*
X29193Y104824D01*
X29165Y104796D01*
X29128Y104760D01*
X29091Y104722D01*
X29045Y104681D01*
X28999Y104635D01*
X28943Y104584D01*
X28883Y104533D01*
X28818Y104473D01*
X28744Y104413D01*
X28670Y104348D01*
X28666Y104344D01*
X28657Y104334D01*
X28638Y104320D01*
X28615Y104302D01*
X28587Y104274D01*
X28555Y104246D01*
X28481Y104186D01*
X28402Y104117D01*
X28328Y104048D01*
X28264Y103988D01*
X28236Y103964D01*
X28213Y103941D01*
X28208Y103937D01*
X28194Y103923D01*
X28176Y103904D01*
X28153Y103877D01*
X28130Y103844D01*
X28102Y103812D01*
X28046Y103733D01*
X29623D01*
Y103354D01*
X27501D01*
Y103359D01*
Y103377D01*
Y103405D01*
X27506Y103442D01*
X27510Y103484D01*
X27519Y103530D01*
X27529Y103576D01*
X27547Y103627D01*
Y103632D01*
X27552Y103636D01*
X27561Y103664D01*
X27580Y103706D01*
X27607Y103761D01*
X27644Y103826D01*
X27690Y103900D01*
X27741Y103974D01*
X27806Y104052D01*
Y104057D01*
X27815Y104061D01*
X27838Y104089D01*
X27880Y104131D01*
X27940Y104191D01*
X28009Y104260D01*
X28097Y104344D01*
X28204Y104436D01*
X28319Y104533D01*
X28324Y104538D01*
X28342Y104551D01*
X28370Y104575D01*
X28402Y104602D01*
X28444Y104639D01*
X28495Y104681D01*
X28546Y104727D01*
X28606Y104778D01*
X28721Y104889D01*
X28837Y105000D01*
X28892Y105055D01*
X28943Y105111D01*
X28990Y105162D01*
X29027Y105213D01*
Y105217D01*
X29036Y105222D01*
X29045Y105236D01*
X29054Y105254D01*
X29087Y105305D01*
X29123Y105365D01*
X29156Y105439D01*
X29188Y105518D01*
X29207Y105605D01*
X29216Y105689D01*
Y105693D01*
Y105698D01*
X29211Y105726D01*
X29207Y105772D01*
X29193Y105823D01*
X29174Y105887D01*
X29142Y105952D01*
X29100Y106017D01*
X29045Y106082D01*
X29036Y106091D01*
X29013Y106109D01*
X28980Y106132D01*
X28929Y106165D01*
X28865Y106193D01*
X28791Y106220D01*
X28703Y106239D01*
X28606Y106243D01*
X28578D01*
X28560Y106239D01*
X28504Y106234D01*
X28439Y106220D01*
X28370Y106202D01*
X28291Y106170D01*
X28217Y106128D01*
X28148Y106072D01*
X28139Y106063D01*
X28120Y106040D01*
X28093Y106003D01*
X28065Y105948D01*
X28033Y105883D01*
X28005Y105800D01*
X27986Y105707D01*
X27977Y105601D01*
X27575Y105642D01*
Y105647D01*
X27580Y105661D01*
Y105684D01*
X27584Y105716D01*
X27593Y105753D01*
X27603Y105795D01*
X27617Y105846D01*
X27630Y105897D01*
X27667Y106008D01*
X27723Y106119D01*
X27755Y106174D01*
X27797Y106230D01*
X27838Y106280D01*
X27885Y106327D01*
X27889Y106331D01*
X27898Y106336D01*
X27912Y106350D01*
X27936Y106364D01*
X27963Y106382D01*
X27996Y106401D01*
X28033Y106424D01*
X28079Y106447D01*
X28130Y106470D01*
X28185Y106493D01*
X28245Y106512D01*
X28310Y106530D01*
X28379Y106544D01*
X28453Y106558D01*
X28532Y106562D01*
X28615Y106567D01*
X28661D01*
X28694Y106562D01*
D02*
G37*
G36*
X48366Y103905D02*
Y103900D01*
Y103886D01*
Y103868D01*
Y103840D01*
X48362Y103803D01*
Y103766D01*
X48352Y103678D01*
X48343Y103576D01*
X48325Y103470D01*
X48297Y103373D01*
X48264Y103281D01*
Y103276D01*
X48260Y103271D01*
X48246Y103244D01*
X48223Y103207D01*
X48191Y103156D01*
X48144Y103105D01*
X48094Y103049D01*
X48029Y102994D01*
X47955Y102948D01*
X47946Y102943D01*
X47918Y102929D01*
X47876Y102911D01*
X47816Y102892D01*
X47742Y102869D01*
X47659Y102851D01*
X47566Y102837D01*
X47465Y102832D01*
X47423D01*
X47396Y102837D01*
X47358Y102842D01*
X47322Y102846D01*
X47224Y102865D01*
X47123Y102892D01*
X47016Y102934D01*
X46961Y102962D01*
X46910Y102994D01*
X46864Y103031D01*
X46818Y103073D01*
X46813Y103077D01*
X46808Y103082D01*
X46799Y103100D01*
X46785Y103119D01*
X46767Y103142D01*
X46748Y103174D01*
X46730Y103211D01*
X46707Y103253D01*
X46688Y103299D01*
X46670Y103355D01*
X46651Y103410D01*
X46633Y103475D01*
X46624Y103544D01*
X46610Y103623D01*
X46605Y103701D01*
Y103789D01*
X46989Y103845D01*
Y103840D01*
Y103831D01*
Y103812D01*
X46993Y103785D01*
X46998Y103757D01*
Y103724D01*
X47012Y103646D01*
X47026Y103563D01*
X47053Y103479D01*
X47081Y103406D01*
X47100Y103373D01*
X47123Y103345D01*
X47127Y103341D01*
X47146Y103327D01*
X47174Y103304D01*
X47210Y103281D01*
X47261Y103253D01*
X47317Y103234D01*
X47386Y103216D01*
X47460Y103211D01*
X47488D01*
X47516Y103216D01*
X47557Y103221D01*
X47599Y103230D01*
X47645Y103239D01*
X47691Y103258D01*
X47737Y103281D01*
X47742Y103285D01*
X47756Y103294D01*
X47775Y103313D01*
X47802Y103331D01*
X47825Y103364D01*
X47853Y103396D01*
X47876Y103433D01*
X47895Y103479D01*
Y103484D01*
X47904Y103503D01*
X47909Y103535D01*
X47918Y103576D01*
X47927Y103632D01*
X47932Y103701D01*
X47941Y103785D01*
Y103882D01*
Y106087D01*
X48366D01*
Y103905D01*
D02*
G37*
G36*
X50377Y102888D02*
X49984D01*
Y105389D01*
X49980Y105384D01*
X49956Y105365D01*
X49929Y105338D01*
X49882Y105306D01*
X49832Y105264D01*
X49767Y105218D01*
X49693Y105167D01*
X49610Y105116D01*
X49605D01*
X49601Y105111D01*
X49573Y105093D01*
X49527Y105070D01*
X49471Y105042D01*
X49406Y105010D01*
X49337Y104977D01*
X49268Y104945D01*
X49198Y104917D01*
Y105296D01*
X49203D01*
X49212Y105306D01*
X49231Y105310D01*
X49254Y105324D01*
X49282Y105338D01*
X49314Y105356D01*
X49392Y105402D01*
X49485Y105453D01*
X49577Y105518D01*
X49675Y105592D01*
X49772Y105671D01*
X49776Y105675D01*
X49781Y105680D01*
X49795Y105694D01*
X49813Y105708D01*
X49855Y105754D01*
X49910Y105809D01*
X49966Y105874D01*
X50026Y105948D01*
X50077Y106022D01*
X50123Y106101D01*
X50377D01*
Y102888D01*
D02*
G37*
%LPC*%
G36*
X64058Y14114D02*
X64021D01*
X63980Y14104D01*
X63924Y14095D01*
X63864Y14077D01*
X63799Y14053D01*
X63739Y14016D01*
X63679Y13966D01*
X63675Y13961D01*
X63656Y13943D01*
X63633Y13910D01*
X63610Y13869D01*
X63582Y13818D01*
X63559Y13758D01*
X63541Y13693D01*
X63536Y13619D01*
Y13614D01*
Y13610D01*
X63541Y13582D01*
X63545Y13540D01*
X63554Y13490D01*
X63573Y13429D01*
X63596Y13369D01*
X63633Y13305D01*
X63679Y13249D01*
X63684Y13245D01*
X63707Y13226D01*
X63739Y13203D01*
X63781Y13180D01*
X63836Y13152D01*
X63901Y13129D01*
X63975Y13111D01*
X64058Y13106D01*
X64068D01*
X64095Y13111D01*
X64137Y13115D01*
X64192Y13124D01*
X64252Y13143D01*
X64313Y13166D01*
X64377Y13203D01*
X64433Y13249D01*
X64437Y13254D01*
X64456Y13277D01*
X64479Y13305D01*
X64507Y13346D01*
X64534Y13397D01*
X64557Y13457D01*
X64576Y13527D01*
X64581Y13600D01*
Y13605D01*
Y13610D01*
Y13637D01*
X64571Y13679D01*
X64562Y13730D01*
X64544Y13785D01*
X64516Y13845D01*
X64479Y13906D01*
X64428Y13966D01*
X64423Y13970D01*
X64400Y13989D01*
X64368Y14012D01*
X64326Y14040D01*
X64271Y14067D01*
X64211Y14090D01*
X64137Y14109D01*
X64058Y14114D01*
D02*
G37*
G36*
X64044Y12787D02*
X64017D01*
X63998Y12782D01*
X63947Y12778D01*
X63883Y12764D01*
X63809Y12741D01*
X63735Y12708D01*
X63656Y12662D01*
X63587Y12602D01*
X63577Y12593D01*
X63559Y12570D01*
X63531Y12528D01*
X63499Y12477D01*
X63462Y12408D01*
X63434Y12329D01*
X63416Y12241D01*
X63407Y12144D01*
Y12135D01*
Y12117D01*
X63411Y12084D01*
X63416Y12043D01*
X63425Y11992D01*
X63439Y11936D01*
X63457Y11881D01*
X63480Y11821D01*
X63485Y11816D01*
X63494Y11793D01*
X63513Y11765D01*
X63541Y11733D01*
X63573Y11691D01*
X63615Y11650D01*
X63661Y11613D01*
X63716Y11576D01*
X63725Y11571D01*
X63744Y11562D01*
X63776Y11548D01*
X63818Y11534D01*
X63869Y11520D01*
X63929Y11506D01*
X63994Y11497D01*
X64058Y11493D01*
X64086D01*
X64104Y11497D01*
X64160Y11502D01*
X64225Y11516D01*
X64299Y11539D01*
X64377Y11566D01*
X64451Y11613D01*
X64525Y11673D01*
X64534Y11682D01*
X64553Y11705D01*
X64585Y11747D01*
X64618Y11798D01*
X64650Y11862D01*
X64682Y11941D01*
X64701Y12033D01*
X64710Y12130D01*
Y12135D01*
Y12144D01*
Y12158D01*
X64706Y12177D01*
X64701Y12227D01*
X64687Y12297D01*
X64664Y12366D01*
X64632Y12445D01*
X64585Y12523D01*
X64521Y12597D01*
X64511Y12607D01*
X64488Y12625D01*
X64447Y12657D01*
X64391Y12694D01*
X64322Y12727D01*
X64239Y12759D01*
X64146Y12778D01*
X64044Y12787D01*
D02*
G37*
G36*
X34259Y29202D02*
X32847D01*
Y27719D01*
X34182D01*
X34259Y27725D01*
X34350Y27732D01*
X34454Y27738D01*
X34557Y27751D01*
X34661Y27771D01*
X34752Y27797D01*
X34764Y27803D01*
X34790Y27816D01*
X34829Y27836D01*
X34881Y27861D01*
X34939Y27900D01*
X34998Y27946D01*
X35056Y28004D01*
X35101Y28069D01*
X35108Y28075D01*
X35121Y28101D01*
X35140Y28140D01*
X35166Y28192D01*
X35185Y28250D01*
X35205Y28315D01*
X35218Y28393D01*
X35224Y28470D01*
Y28477D01*
Y28483D01*
X35218Y28522D01*
X35211Y28580D01*
X35199Y28658D01*
X35166Y28736D01*
X35127Y28826D01*
X35069Y28911D01*
X34991Y28995D01*
X34978Y29001D01*
X34946Y29027D01*
X34894Y29060D01*
X34810Y29098D01*
X34713Y29137D01*
X34583Y29170D01*
X34434Y29196D01*
X34259Y29202D01*
D02*
G37*
G36*
X12794Y73953D02*
X11311D01*
Y72619D01*
X11317Y72541D01*
X11324Y72450D01*
X11330Y72347D01*
X11343Y72243D01*
X11363Y72140D01*
X11389Y72049D01*
X11395Y72036D01*
X11408Y72010D01*
X11428Y71971D01*
X11453Y71919D01*
X11492Y71861D01*
X11538Y71803D01*
X11596Y71744D01*
X11661Y71699D01*
X11667Y71693D01*
X11693Y71680D01*
X11732Y71660D01*
X11784Y71634D01*
X11842Y71615D01*
X11907Y71596D01*
X11985Y71583D01*
X12062Y71576D01*
X12069D01*
X12075D01*
X12114Y71583D01*
X12172Y71589D01*
X12250Y71602D01*
X12328Y71634D01*
X12419Y71673D01*
X12503Y71732D01*
X12587Y71809D01*
X12593Y71822D01*
X12619Y71855D01*
X12652Y71906D01*
X12691Y71991D01*
X12729Y72088D01*
X12762Y72217D01*
X12788Y72366D01*
X12794Y72541D01*
Y73953D01*
D02*
G37*
%LPD*%
D10*
X49250Y80000D02*
G03*
X49250Y80000I-250J0D01*
G01*
X0Y0D02*
X75000D01*
X0Y110000D02*
X75000D01*
Y0D02*
Y110000D01*
X0Y0D02*
Y110000D01*
D25*
X70000Y13000D02*
G03*
X70000Y13000I-7000J0D01*
G01*
X34500Y105000D02*
G03*
X34500Y105000I-7000J0D01*
G01*
X56000D02*
G03*
X56000Y105000I-7000J0D01*
G01*
X45000Y3000D02*
Y11000D01*
X27000Y3000D02*
X45000D01*
X27000Y11000D02*
X45000D01*
X27000Y3000D02*
Y11000D01*
X45000Y13000D02*
Y21000D01*
X27000Y13000D02*
X45000D01*
X27000Y21000D02*
X45000D01*
X27000Y13000D02*
Y21000D01*
X42834Y23484D02*
Y30984D01*
X29334Y23484D02*
Y30984D01*
X42834D01*
X29334Y23484D02*
X42834D01*
X59000Y44000D02*
Y84000D01*
X19000D02*
X59000D01*
X19000Y44000D02*
X59000D01*
X19000D02*
Y84000D01*
X14750Y64250D02*
Y77750D01*
X7250Y64250D02*
X14750D01*
X7250Y77750D02*
X14750D01*
X7250Y64250D02*
Y77750D01*
M02*
